<svg width="17" height="16" viewBox="0 0 17 16" fill="none" xmlns="http://www.w3.org/2000/svg">
<path d="M7.3284 10.8758L4.5 8.04733L5.44281 7.10453L7.3284 8.9902L11.0997 5.21893L12.0425 6.16175L7.3284 10.8758Z" fill="#25D366"/>
<path fill-rule="evenodd" clip-rule="evenodd" d="M1.1665 3.33332C1.1665 1.86056 2.36041 0.666656 3.83317 0.666656H13.1665C14.6392 0.666656 15.8332 1.86056 15.8332 3.33332V12.6667C15.8332 14.1394 14.6392 15.3333 13.1665 15.3333H3.83317C2.36041 15.3333 1.1665 14.1394 1.1665 12.6667V3.33332ZM3.83317 1.99999H13.1665C13.9029 1.99999 14.4998 2.59694 14.4998 3.33332V12.6667C14.4998 13.4031 13.9029 14 13.1665 14H3.83317C3.09679 14 2.49984 13.4031 2.49984 12.6667V3.33332C2.49984 2.59694 3.09679 1.99999 3.83317 1.99999Z" fill="#25D366"/>
</svg>
