<svg width="17" height="16" viewBox="0 0 17 16" fill="none" xmlns="http://www.w3.org/2000/svg">
<path d="M11.4306 5.17155C11.691 5.4319 11.691 5.85401 11.4306 6.11436L9.443 8.10199L11.2266 9.88559C11.487 10.1459 11.487 10.5681 11.2266 10.8284C10.9663 11.0887 10.5441 11.0887 10.2838 10.8284L8.5002 9.04479L6.71659 10.8284C6.45624 11.0887 6.03413 11.0887 5.77378 10.8284C5.51343 10.5681 5.51343 10.1459 5.77378 9.88559L7.5574 8.10199L5.56978 6.11436C5.30942 5.85401 5.30942 5.4319 5.56978 5.17155C5.83012 4.9112 6.25224 4.9112 6.51258 5.17155L8.5002 7.15919L10.4878 5.17155C10.7482 4.9112 11.1703 4.9112 11.4306 5.17155Z" fill="#FF0000"/>
<path fill-rule="evenodd" clip-rule="evenodd" d="M3.1665 0.666656C2.06194 0.666656 1.1665 1.56209 1.1665 2.66666V13.3333C1.1665 14.4379 2.06194 15.3333 3.1665 15.3333H13.8332C14.9378 15.3333 15.8332 14.4379 15.8332 13.3333V2.66666C15.8332 1.56209 14.9378 0.666656 13.8332 0.666656H3.1665ZM13.8332 1.99999H3.1665C2.79832 1.99999 2.49984 2.29847 2.49984 2.66666V13.3333C2.49984 13.7015 2.79832 14 3.1665 14H13.8332C14.2014 14 14.4998 13.7015 14.4998 13.3333V2.66666C14.4998 2.29847 14.2014 1.99999 13.8332 1.99999Z" fill="#FF0000"/>
</svg>
