<svg width="50" height="47" viewBox="0 0 50 47" fill="none" xmlns="http://www.w3.org/2000/svg">
<path d="M26.985 15.2424H36.3854V2.47323H2.47595V44.4664H25.7467V16.4793C25.7467 15.7963 26.3013 15.2424 26.985 15.2424ZM7.06905 26.3894H20.2783C20.962 26.3894 21.5166 26.9434 21.5166 27.6258V32.1431C21.5166 32.826 20.962 33.3794 20.2783 33.3794H7.06905C6.38535 33.3794 5.83137 32.826 5.83137 32.1431V27.6258C5.83137 26.9434 6.38535 26.3894 7.06905 26.3894ZM19.0406 28.8627H8.30732V30.9062H19.0406V28.8627ZM7.06905 16.4638H20.2783C20.962 16.4638 21.5166 17.0172 21.5166 17.7001V22.2175C21.5166 22.9004 20.962 23.4538 20.2783 23.4538H7.06905C6.38535 23.4538 5.83137 22.9004 5.83137 22.2175V17.7001C5.83137 17.0172 6.38535 16.4638 7.06905 16.4638ZM19.0406 18.9371H8.30732V20.9805H19.0406V18.9371ZM7.06905 6.53822H20.2783C20.962 6.53822 21.5166 7.09159 21.5166 7.77454V12.2919C21.5166 12.9742 20.962 13.5282 20.2783 13.5282H7.06905C6.38535 13.5282 5.83137 12.9742 5.83137 12.2919V7.77454C5.83137 7.09159 6.38535 6.53822 7.06905 6.53822ZM19.0406 9.01145H8.30732V11.0549H19.0406V9.01145ZM38.8613 15.2424H48.2617C48.9454 15.2424 49.5 15.7963 49.5 16.4793V45.7033C49.5 46.3863 48.9454 46.9397 48.2617 46.9397C32.5872 46.9397 16.9128 46.9397 1.23827 46.9397C0.554575 46.9397 0 46.3863 0 45.7033V1.23632C0 0.553966 0.554575 0 1.23827 0H37.6236C38.3067 0 38.8613 0.553966 38.8613 1.23632V15.2424ZM39.3772 44.4664V39.3018H35.8695V44.4664H39.3772ZM33.3935 44.4664V38.0649C33.3935 37.382 33.9475 36.8286 34.6312 36.8286H40.6155C41.2992 36.8286 41.8532 37.382 41.8532 38.0649V44.4664H47.024V17.7156H37.6236H28.2226V44.4664H33.3935ZM31.75 27.6406H35.4071C36.0908 27.6406 36.6448 28.194 36.6448 28.8769V32.53C36.6448 33.213 36.0908 33.7669 35.4071 33.7669H31.75C31.0663 33.7669 30.5117 33.213 30.5117 32.53V28.8769C30.5117 28.194 31.0663 27.6406 31.75 27.6406ZM34.1688 30.1138H32.9877V31.2937H34.1688V30.1138ZM39.8396 27.6406H43.4967C44.1804 27.6406 44.7349 28.194 44.7349 28.8769V32.53C44.7349 33.213 44.1804 33.7669 43.4967 33.7669H39.8396C39.1559 33.7669 38.6019 33.213 38.6019 32.53V28.8769C38.6019 28.194 39.1559 27.6406 39.8396 27.6406ZM42.259 30.1138H41.0778V31.2937H42.259V30.1138ZM31.75 20.445H35.4071C36.0908 20.445 36.6448 20.999 36.6448 21.6819V25.335C36.6448 26.0179 36.0908 26.5713 35.4071 26.5713H31.75C31.0663 26.5713 30.5117 26.0179 30.5117 25.335V21.6819C30.5117 20.999 31.0663 20.445 31.75 20.445ZM34.1688 22.9182H32.9877V24.0981H34.1688V22.9182ZM39.8396 20.445H43.4967C44.1804 20.445 44.7349 20.999 44.7349 21.6819V25.335C44.7349 26.0179 44.1804 26.5713 43.4967 26.5713H39.8396C39.1559 26.5713 38.6019 26.0179 38.6019 25.335V21.6819C38.6019 20.999 39.1559 20.445 39.8396 20.445ZM42.259 22.9182H41.0778V24.0981H42.259V22.9182Z" fill="#182F48"/>
</svg>
