<svg width="41" height="58" viewBox="0 0 41 58" fill="none" xmlns="http://www.w3.org/2000/svg">
<path d="M21.7486 26.1504C21.7486 26.8659 21.4433 27.5089 20.9598 27.9593C21.894 27.9022 22.7792 27.7616 23.6099 27.5488L22.0599 29.8594L27.054 33.2748C26.9721 33.0352 26.926 32.7825 26.9206 32.522C26.9191 32.4459 26.9216 32.3705 26.9267 32.2956L23.076 29.6621L27.4531 23.1372L31.2727 25.7492C31.3881 25.5251 31.4962 25.3017 31.5972 25.0786L30.3242 24.208C30.3508 24.1545 30.3761 24.1001 30.4032 24.0469C30.3932 23.81 30.3908 23.5731 30.3861 23.3362C30.8174 22.8495 31.2059 22.3508 31.5547 21.8508C31.6928 22.654 31.8186 23.4805 31.9177 24.3159C32.413 23.0204 32.6675 21.7449 32.675 20.4955C32.6755 18.9622 32.2716 17.9125 32.0977 17.532C32.0518 17.4325 32.0203 17.3732 32.0081 17.3513C31.3208 16.2218 31.6728 14.7077 32.8023 13.9932C33.1911 13.7472 33.638 13.6169 34.0948 13.6169C34.9424 13.6169 35.7156 14.0491 36.1647 14.7732C36.3967 15.15 37.5496 17.1892 37.5533 20.4983C37.5623 22.5348 37.1025 25.3138 35.3405 28.5312L35.6315 28.7305L31.2549 35.2554L30.4237 34.6868C30.1298 34.8311 29.8083 34.9138 29.4729 34.9294L30.4752 35.6148C30.0744 37.7251 29.7729 40.2461 29.7695 43.0645C29.7685 46.9324 30.3449 51.3642 32.0428 55.9899C32.4982 57.2316 33.6636 57.9998 34.9027 58C35.2542 58 35.6115 57.9379 35.9608 57.8077C37.5401 57.2166 38.346 55.4458 37.7611 53.8512C36.3491 50.0028 35.8674 46.3206 35.8669 43.0648C35.8659 39.5856 36.4228 36.6016 36.975 34.5163C37.0703 34.1558 37.165 33.8243 37.2569 33.5196C38.7968 33.1256 40.192 32.0718 40.7073 29.3937C41.3381 23.9225 40.9813 20.6886 39.3214 15.7201C38.0933 12.1138 35.0749 10.9721 32.9926 11.4964C31.9335 11.7629 31.1771 12.6537 30.7808 13.7866C30.2995 14.8355 29.7837 16.3689 29.3283 17.9918C29.0919 18.4448 28.8209 18.9095 28.5116 19.3673C27.6909 20.5928 26.6198 21.7634 25.2508 22.6187C23.9931 23.4004 22.4833 23.9398 20.5439 24.0299C21.2632 24.4582 21.7486 25.2473 21.7486 26.1504Z" fill="#182F48"/>
<path d="M30.3254 10.9358C33.2766 10.2418 35.112 7.26384 34.4247 4.28426C33.7375 1.30467 30.788 -0.548215 27.8368 0.145727C24.8856 0.83967 23.0503 3.81766 23.7375 6.79724C24.4247 9.77683 27.3742 11.6297 30.3254 10.9358Z" fill="#182F48"/>
<path d="M27.9976 25.5042L25.3145 29.3834L25.7142 29.6653L28.3973 25.7861L27.9976 25.5042Z" fill="#182F48"/>
<path d="M29.7042 26.6758L27.0205 30.5547L27.4208 30.8371L30.1045 26.9581L29.7042 26.6758Z" fill="#182F48"/>
<path d="M37.0658 20.4989C37.0619 17.2246 35.8777 15.2401 35.7513 15.0345C35.1791 14.1121 33.9749 13.8326 33.0617 14.4101C32.1531 14.9847 31.8746 16.1905 32.4344 17.1111C32.4348 17.1116 32.4348 17.1121 32.4353 17.1128C32.4487 17.1365 32.4863 17.2057 32.5412 17.3256C32.749 17.7807 33.1639 18.8897 33.1634 20.4987C33.1485 22.8995 32.2963 26.5181 27.9527 31.1068C27.2056 31.8914 27.2305 33.1386 28.008 33.8927C28.3859 34.2597 28.8727 34.4422 29.3591 34.4422C29.8718 34.4422 30.3838 34.2395 30.7672 33.8368C35.6777 28.7009 37.0812 23.9469 37.0658 20.4989Z" fill="#182F48"/>
<path d="M17.2617 6.7979C17.9489 3.81831 16.1135 0.840322 13.1623 0.146379C10.2111 -0.547563 7.2616 1.30532 6.57438 4.28491C5.88717 7.2645 7.72251 10.2425 10.6737 10.9364C13.6249 11.6304 16.5745 9.77749 17.2617 6.7979Z" fill="#182F48"/>
<path d="M3.74202 33.5191C4.36278 35.5847 5.13794 38.9849 5.13257 43.0645C5.13159 46.3196 4.64962 50.0025 3.23882 53.8514C2.65391 55.4458 3.45981 57.2171 5.03915 57.8074C5.38844 57.9379 5.74601 57.9997 6.09774 57.9997C7.33682 57.9997 8.502 57.2313 8.95714 55.9894C10.6536 51.3635 11.2309 46.9321 11.2304 43.0645C11.2224 36.8961 9.7884 32.1518 9.01324 30.0276C8.82177 28.5814 8.8364 27.0525 8.96178 25.5288C7.86026 24.6685 6.9029 23.6376 6.14213 22.4732C4.40522 19.7983 4.05301 17.2308 3.98203 16.2516L3.97959 16.2157C3.91763 14.835 4.96085 13.6814 6.30482 13.6198C6.3419 13.6181 6.3797 13.6171 6.41629 13.6171C7.7222 13.6171 8.79152 14.65 8.85153 15.9681C8.8525 15.9777 8.85543 16.012 8.86055 16.06C8.87202 16.1659 8.89446 16.3368 8.93446 16.5565C9.0108 16.9663 9.16398 17.6064 9.45839 18.3219C9.59888 18.66 9.75986 18.9755 9.93109 19.2801C10.063 18.6201 10.1916 17.9894 10.305 17.4047C11.0048 14.9535 10.0891 12.0198 8.00734 11.4959C5.92505 10.9716 2.90661 12.1136 1.6785 15.7196C0.0186674 20.6881 -0.338179 23.922 0.292583 29.3932C0.807973 32.0708 2.20243 33.1248 3.74202 33.5191Z" fill="#182F48"/>
<path d="M8.45514 16.6466C8.41221 16.4134 8.38855 16.2309 8.37562 16.1154C8.36953 16.0583 8.36611 16.0179 8.36465 15.996L8.36416 15.991C8.31513 14.9042 7.40289 14.0629 6.32674 14.1119C5.25011 14.1612 4.4169 15.0822 4.46592 16.1693H4.46495C4.48349 16.3646 4.60081 19.202 6.54968 22.2027C7.52485 23.6959 8.98687 25.2118 11.0711 26.3201C13.15 27.4303 15.817 28.1216 19.1447 28.1216C19.1498 28.1216 19.1547 28.1216 19.16 28.1216C19.2191 28.1216 19.2686 28.1211 19.31 28.1211C20.3872 28.1211 21.2609 27.2392 21.2609 26.1509C21.2609 25.0628 20.3872 24.1811 19.31 24.1811C19.25 24.1806 19.2 24.1811 19.16 24.1811C16.348 24.1789 14.3527 23.6115 12.8932 22.8354C10.717 21.6703 9.62178 19.9847 9.00858 18.5115C8.70686 17.7798 8.54197 17.1131 8.45514 16.6466Z" fill="#182F48"/>
</svg>
