<svg width="50" height="50" viewBox="0 0 50 50" fill="none" xmlns="http://www.w3.org/2000/svg">
<path d="M46.0153 36.8871L39.5161 34.8887V33.1694C41.0073 31.7048 41.9355 29.6694 41.9355 27.4202H42.7419C44.9653 27.4202 46.7742 25.6113 46.7742 23.3879C46.7742 22.0758 46.1347 20.9194 45.1613 20.1831V16.9355C45.1613 10.7097 40.0968 5.64516 33.871 5.64516C32.3984 5.64516 30.9952 5.9371 29.7048 6.45161H27.4194V4.03226C27.4194 1.80887 25.6105 0 23.3871 0H10.4839C8.26048 0 6.45161 1.80887 6.45161 4.03226V6.45161H2.41935C1.08548 6.45161 0 7.5371 0 8.87097V9.67742V15.3226V28.2258C0 31.3379 2.53226 33.871 5.64516 33.871H28.2258V34.8887L21.7266 36.8879C19.3435 37.621 17.7419 39.7903 17.7419 42.2839V50H50V42.2839C50 39.7903 48.3984 37.621 46.0153 36.8871ZM41.4565 37.1726L38.4411 42.4L35.1371 40.1976L38.9371 36.3976L41.4565 37.1726ZM32.9411 45.1613H34.8008L35.3387 48.3871H32.4032L32.9411 45.1613ZM35.0524 43.5484H32.6895L32.0113 42.5315L33.871 41.2919L35.7306 42.5315L35.0524 43.5484ZM37.9032 35.15L33.871 39.1823L29.8387 35.15V34.3927C31.0266 35.0823 32.4016 35.4839 33.871 35.4839C35.3403 35.4839 36.7153 35.0823 37.9032 34.3927V35.15ZM40.3226 27.4194C40.3226 30.9766 37.4282 33.871 33.871 33.871C31.4895 33.871 29.4097 32.5702 28.2919 30.6452H29.9871C30.321 31.5815 31.2081 32.2581 32.2581 32.2581H35.4839C36.8177 32.2581 37.9032 31.1726 37.9032 29.8387C37.9032 28.5048 36.8177 27.4194 35.4839 27.4194H32.2581C31.2081 27.4194 30.321 28.096 29.9871 29.0323H27.6315C27.4976 28.5153 27.4194 27.9774 27.4194 27.4194V20.9379C29.8411 20.7556 32.0992 19.7556 33.871 18.071C35.6427 19.7556 37.9008 20.7556 40.3226 20.9379V27.4194ZM31.4516 29.8387C31.4516 29.3935 31.8137 29.0323 32.2581 29.0323H35.4839C35.9282 29.0323 36.2903 29.3935 36.2903 29.8387C36.2903 30.2839 35.9282 30.6452 35.4839 30.6452H32.2581C31.8137 30.6452 31.4516 30.2839 31.4516 29.8387ZM25.8065 25.8065H25C23.6661 25.8065 22.5806 24.721 22.5806 23.3871C22.5806 22.0532 23.6661 20.9677 25 20.9677H25.8065V25.8065ZM24.1935 27.3379C24.454 27.3911 24.7242 27.4194 25 27.4194H25.8065C25.8065 27.9718 25.8629 28.5113 25.9694 29.0323H25C24.5556 29.0323 24.1935 28.671 24.1935 28.2258V27.3379ZM42.7419 25.8065H41.9355V20.9677H42.7419C44.0758 20.9677 45.1613 22.0532 45.1613 23.3871C45.1613 24.721 44.0758 25.8065 42.7419 25.8065ZM43.5484 16.9355V19.4363C43.2879 19.3831 43.0177 19.3548 42.7419 19.3548H41.9355H41.129C38.7435 19.3548 36.5016 18.4266 34.8161 16.7403L33.871 15.7944L32.9266 16.7403C31.2403 18.4266 28.9984 19.3548 26.6129 19.3548H25.8065H25C24.7242 19.3548 24.454 19.3831 24.1935 19.4363V16.9355C24.1935 11.5992 28.5347 7.25806 33.871 7.25806C39.2073 7.25806 43.5484 11.5992 43.5484 16.9355ZM8.06452 4.03226C8.06452 2.69839 9.15 1.6129 10.4839 1.6129H23.3871C24.721 1.6129 25.8065 2.69839 25.8065 4.03226V6.45161H24.1935V3.22581H9.67742V6.45161H8.06452V4.03226ZM22.5806 6.45161H11.2903V4.83871H22.5806V6.45161ZM1.6129 8.87097C1.6129 8.42581 1.975 8.06452 2.41935 8.06452H26.9097C24.279 10.1331 22.5806 13.3371 22.5806 16.9355V19.3548H19.3548V17.7419H14.5161V19.3548H5.64516C3.42177 19.3548 1.6129 17.546 1.6129 15.3226V9.67742V8.87097ZM17.7419 19.3548V22.5806H16.129V19.3548H17.7419ZM1.6129 28.2258V19.2653C2.63871 20.3145 4.06613 20.9677 5.64516 20.9677H14.5161V24.1935H19.3548V20.9677H21.7952C21.2831 21.6435 20.9677 22.4758 20.9677 23.3871C20.9677 24.6992 21.6073 25.8556 22.5806 26.5919V28.2258C22.5806 29.5597 23.6661 30.6452 25 30.6452H26.4847C26.7379 31.2226 27.0597 31.7605 27.4347 32.2581H5.64516C3.42177 32.2581 1.6129 30.4492 1.6129 28.2258ZM28.8056 36.3976L32.6056 40.1976L29.2984 42.4024L26.2573 37.1814L28.8056 36.3976ZM19.3548 42.2839C19.3548 40.5024 20.4984 38.9532 22.2008 38.4298L24.6734 37.6694L28.7661 44.6952L30.6685 43.4266L31.4089 44.5379L30.7685 48.3871H25.8065V44.3548H24.1935V48.3871H19.3548V42.2839ZM48.3871 48.3871H43.5484V44.3548H41.9355V48.3871H36.9734L36.3315 44.5371L37.0718 43.4266L38.9774 44.6976L43.0371 37.6605L45.5395 38.4306C47.2419 38.954 48.3863 40.5032 48.3863 42.2847L48.3871 48.3871Z" fill="#182F48"/>
<path d="M29.8387 23.3868C30.2841 23.3868 30.6451 23.0258 30.6451 22.5804C30.6451 22.135 30.2841 21.7739 29.8387 21.7739C29.3933 21.7739 29.0322 22.135 29.0322 22.5804C29.0322 23.0258 29.3933 23.3868 29.8387 23.3868Z" fill="#182F48"/>
<path d="M37.9031 23.3868C38.3485 23.3868 38.7096 23.0258 38.7096 22.5804C38.7096 22.135 38.3485 21.7739 37.9031 21.7739C37.4577 21.7739 37.0967 22.135 37.0967 22.5804C37.0967 23.0258 37.4577 23.3868 37.9031 23.3868Z" fill="#182F48"/>
<path d="M12.9029 22.5806H11.29V24.1935H12.9029V22.5806Z" fill="#182F48"/>
<path d="M9.67736 22.5806H8.06445V24.1935H9.67736V22.5806Z" fill="#182F48"/>
</svg>
