<svg width="55" height="55" viewBox="0 0 55 55" fill="none" xmlns="http://www.w3.org/2000/svg">
<path d="M19.1506 11.4839L21.689 13.3282C21.9801 13.5398 22.1967 13.838 22.3079 14.1803C22.419 14.5225 22.419 14.8911 22.3077 15.2333L21.3388 18.2176C21.2276 18.5598 21.2277 18.9284 21.3389 19.2705C21.4501 19.6127 21.6668 19.9109 21.9578 20.1224C22.2489 20.3339 22.5995 20.4478 22.9593 20.4478C23.3191 20.4478 23.6696 20.3339 23.9607 20.1225L26.4994 18.2782C26.7905 18.0666 27.1411 17.9527 27.5009 17.9527C27.8607 17.9527 28.2112 18.0666 28.5023 18.2782L31.041 20.1225C31.3321 20.3339 31.6826 20.4478 32.0424 20.4478C32.4022 20.4478 32.7528 20.3339 33.0439 20.1224C33.3349 19.9109 33.5516 19.6127 33.6628 19.2705C33.774 18.9284 33.7741 18.5598 33.6629 18.2176L32.6929 15.2333C32.5816 14.8911 32.5816 14.5225 32.6928 14.1803C32.8039 13.838 33.0205 13.5398 33.3116 13.3282L35.8501 11.4839C36.1412 11.2724 36.3579 10.9742 36.4691 10.632C36.5802 10.2898 36.5802 9.92114 36.469 9.57893C36.3578 9.23672 36.1411 8.9385 35.85 8.72701C35.5589 8.51551 35.2083 8.40161 34.8485 8.40162H31.7114C31.3516 8.40157 31.0011 8.28765 30.71 8.07616C30.4189 7.86466 30.2022 7.56646 30.0909 7.22428L29.121 4.24001C29.0099 3.89779 28.7932 3.59955 28.5021 3.38805C28.211 3.17654 27.8604 3.06262 27.5006 3.06262C27.1408 3.06262 26.7902 3.17654 26.4991 3.38805C26.208 3.59955 25.9913 3.89779 25.8802 4.24001L24.9104 7.22428C24.7992 7.56653 24.5825 7.86479 24.2913 8.07629C24.0001 8.28779 23.6495 8.40167 23.2896 8.40162H20.1522C19.7923 8.40161 19.4418 8.51551 19.1506 8.72701C18.8595 8.9385 18.6429 9.23672 18.5317 9.57893C18.4204 9.92114 18.4204 10.2898 18.5316 10.632C18.6428 10.9742 18.8595 11.2724 19.1506 11.4839Z" fill="#182F48"/>
<path d="M32.1743 37.9316C31.9931 37.8537 31.8387 37.7244 31.7303 37.5596C31.6218 37.3949 31.5641 37.2019 31.5641 37.0047C31.5629 36.8638 31.5906 36.7241 31.6455 36.5943C31.7005 36.4645 31.7815 36.3474 31.8837 36.2502C31.946 36.1909 32.0056 36.1323 32.0503 36.0852C32.3663 35.7525 32.6451 35.3864 32.8817 34.9932C33.5042 33.9545 33.8127 32.7579 33.7702 31.5477C33.7276 30.3375 33.3357 29.1655 32.6419 28.1731C31.948 27.1807 30.9818 26.4103 29.8598 25.9548C28.7378 25.4993 27.508 25.3782 26.3187 25.6062C25.1068 25.8184 23.9867 26.3904 23.1042 27.2477C22.2217 28.105 21.6176 29.208 21.3704 30.4133C21.1419 31.4511 21.1808 32.5299 21.4834 33.5486C21.786 34.5672 22.3424 35.4923 23.1004 36.2371C23.2033 36.3346 23.2856 36.4517 23.3426 36.5814C23.3996 36.7112 23.4301 36.851 23.4323 36.9927V36.998C23.4341 37.1969 23.3772 37.3918 23.2687 37.5585C23.1601 37.7251 23.0048 37.856 22.8222 37.9347C20.3223 38.9702 18.3288 40.9456 17.2706 43.4359C16.5266 45.1414 16.1535 46.9854 16.1757 48.8459V50.1866C16.1757 50.4741 16.2324 50.7587 16.3424 51.0243C16.4525 51.2899 16.6138 51.5313 16.8171 51.7345C17.0204 51.9378 17.2618 52.099 17.5274 52.209C17.7931 52.3189 18.0778 52.3755 18.3653 52.3754H36.6364C37.2169 52.3753 37.7735 52.1447 38.1839 51.7343C38.5944 51.3238 38.8249 50.7672 38.8249 50.1867V48.8326C38.8472 46.9728 38.4733 45.1296 37.7283 43.4254C36.6681 40.9373 34.6738 38.9646 32.1743 37.9316Z" fill="#182F48"/>
<path d="M52.3203 40.4022C51.2603 37.9142 49.2663 35.9416 46.767 34.9085C46.5858 34.8305 46.4315 34.7011 46.3231 34.5364C46.2146 34.3717 46.1568 34.1788 46.1568 33.9816C46.1556 33.8406 46.1833 33.7009 46.2383 33.5711C46.2932 33.4413 46.3743 33.3242 46.4764 33.227C46.5387 33.1676 46.5985 33.1091 46.643 33.0619C46.959 32.7295 47.2379 32.3635 47.4745 31.9705C48.097 30.9318 48.4056 29.7352 48.3631 28.525C48.3206 27.3148 47.9288 26.1427 47.2349 25.1503C46.5411 24.1578 45.5748 23.3874 44.4528 22.9319C43.3308 22.4764 42.1009 22.3554 40.9116 22.5834C39.6997 22.7956 38.5796 23.3675 37.6971 24.2248C36.8146 25.0821 36.2105 26.1852 35.9633 27.3905C35.7348 28.4283 35.7737 29.5071 36.0763 30.5258C36.3788 31.5444 36.9352 32.4695 37.6932 33.2143C37.7961 33.3118 37.8784 33.4288 37.9354 33.5586C37.9924 33.6883 38.0229 33.8282 38.0251 33.9699V33.9753C38.027 34.1742 37.9701 34.3692 37.8615 34.5358C37.753 34.7025 37.5976 34.8334 37.4149 34.912C36.4165 35.321 35.4896 35.8863 34.6689 36.5867C36.9715 37.9518 38.7823 40.0115 39.8414 42.4699C40.7252 44.4737 41.1694 46.6436 41.1443 48.8335V49.3529H51.2285C51.8089 49.3529 52.3656 49.1223 52.7761 48.7119C53.1865 48.3015 53.4171 47.7448 53.4172 47.1644V45.8095C53.4394 43.9496 53.0655 42.1064 52.3203 40.4022Z" fill="#182F48"/>
<path d="M20.3329 36.5861C19.5106 35.884 18.5815 35.3177 17.5806 34.9085C17.3995 34.8305 17.2452 34.7012 17.1367 34.5364C17.0283 34.3717 16.9705 34.1788 16.9705 33.9816C16.9692 33.8406 16.997 33.7009 17.052 33.5711C17.107 33.4413 17.1881 33.3242 17.2902 33.227C17.3523 33.1676 17.4121 33.1091 17.4568 33.062C17.7727 32.7295 18.0515 32.3635 18.2881 31.9706C18.9106 30.9319 19.2193 29.7352 19.1768 28.525C19.1343 27.3148 18.7425 26.1427 18.0486 25.1503C17.3548 24.1578 16.3885 23.3874 15.2665 22.9319C14.1444 22.4764 12.9146 22.3554 11.7253 22.5834C10.5133 22.7956 9.39327 23.3676 8.51076 24.2249C7.62824 25.0822 7.0241 26.1852 6.77691 27.3905C6.54847 28.4283 6.58737 29.5071 6.88995 30.5258C7.19254 31.5444 7.74889 32.4695 8.50683 33.2143C8.60973 33.3118 8.6921 33.4288 8.7491 33.5586C8.80609 33.6883 8.83657 33.8282 8.83873 33.9699V33.9753C8.8406 34.1742 8.7837 34.3692 8.67515 34.5358C8.56659 34.7025 8.41124 34.8334 8.22857 34.912C5.72877 35.9475 3.7353 37.9229 2.67701 40.4131C1.93301 42.1186 1.55977 43.9626 1.58199 45.8232V47.1644C1.58198 47.4518 1.63858 47.7364 1.74856 48.0019C1.85853 48.2674 2.01974 48.5087 2.22296 48.7119C2.42618 48.9151 2.66744 49.0763 2.93297 49.1863C3.19849 49.2963 3.48308 49.3529 3.77048 49.3529H13.8556V48.8464C13.8305 46.6566 14.2737 44.4867 15.1556 42.4821C16.2138 40.0183 18.0266 37.9539 20.3329 36.5861Z" fill="#182F48"/>
</svg>
