<?xml version="1.0" encoding="UTF-8"?>
<svg id="Layer_1" xmlns="http://www.w3.org/2000/svg" version="1.1" viewBox="0 0 500 500">
  <!-- Generator: Adobe Illustrator 29.2.1, SVG Export Plug-In . SVG Version: 2.1.0 Build 116)  -->
  <defs>
    <style>
      .st0 {
        fill: #0d2139;
      }

      .st1 {
        fill: #f0b501;
      }

      .st2 {
        fill: #fbfcfc;
      }
    </style>
  </defs>
  <path class="st2" d="M195.41,101.64l-100.67,112.15,93.62-34.36,7.05-77.78ZM370.11,142.39l-160.25,46.98c19.55,11.2,133.04,119.42,142.33,119.5,4.71.04,6.79-3.04,7.16-7.35,1.28-45.63,14.52-93.45,16.8-138.46.31-6.12,2.02-20.98-6.04-20.67ZM391.02,167.77c-3.81-4.74-5.22.38-5.71,4.31-5.97,47.44-10.37,95.12-17.27,142.4l47.11-26.2,4.79-6.87-28.91-113.64ZM183.9,196.56c-12.18,6.79-102.58,33.7-103.76,39.12-2.66,12.23,67.25,112.29,72.17,133.46,7.57.66,4.74.3,5.61-4.36,10.33-55.62,18.9-112.07,25.97-168.22ZM345,325.97l-146.68-126.53-28.76,181.21,175.45-54.68ZM408.28,308.76c-2.31-2.29-41.45,19.45-43.34,22.09-8.38,11.74-10.98,49.73-19.93,64.17l8.82-1.86c3.41-10.81,58.97-79.92,54.45-84.4ZM350.75,337.53l-161.08,54.61c25.73-3.39,118.71,28.85,136.25,22.72,2.91-1.02,2.98-2.34,4.14-4.56,8.88-17,11.77-53.61,20.68-72.77Z"/>
  <path class="st1" d="M215.56,84.36l143.83,48.87-153.86,40.35c-5.04-.29,6.5-81.91,7.15-89.22h2.88Z"/>
  <polygon class="st0" points="345 325.97 169.55 380.65 198.31 199.44 345 325.97"/>
  <path class="st0" d="M370.11,142.39c8.07-.31,6.36,14.55,6.04,20.67-2.29,45-15.52,92.83-16.8,138.46-.37,4.32-2.45,7.4-7.16,7.35-9.29-.09-122.78-108.3-142.33-119.5l160.25-46.98Z"/>
  <path class="st0" d="M183.9,196.56c-7.08,56.15-15.64,112.6-25.97,168.22-.87,4.66,1.96,5.02-5.61,4.36-4.93-21.17-74.84-121.23-72.17-133.46,1.18-5.42,91.57-32.33,103.76-39.12Z"/>
  <path class="st0" d="M350.75,337.53c-8.92,19.16-11.81,55.78-20.68,72.77-1.16,2.22-1.23,3.54-4.14,4.56-17.55,6.13-110.52-26.12-136.25-22.72l161.08-54.61Z"/>
  <polygon class="st0" points="195.41 101.64 188.36 179.42 94.74 213.78 195.41 101.64"/>
  <path class="st0" d="M391.02,167.77l28.91,113.64-4.79,6.87-47.11,26.2c6.9-47.28,11.3-94.97,17.27-142.4.49-3.92,1.91-9.04,5.71-4.31Z"/>
  <path class="st0" d="M408.28,308.76c4.51,4.47-51.05,73.59-54.45,84.4l-8.82,1.86c8.95-14.44,11.55-52.44,19.93-64.17,1.88-2.64,41.02-24.38,43.34-22.09Z"/>
</svg>