<?xml version="1.0" encoding="UTF-8"?>
<svg id="Layer_1" xmlns="http://www.w3.org/2000/svg" version="1.1" viewBox="0 0 500 500">
  <!-- Generator: Adobe Illustrator 29.2.1, SVG Export Plug-In . SVG Version: 2.1.0 Build 116)  -->
  <defs>
    <style>
      .st0 {
        fill: #0d2139;
      }

      .st1 {
        fill: #f0b501;
      }
    </style>
  </defs>
  <path class="st0" d="M177.51,72.47c17.13,53.08,63.72,91.02,118.91,98.66l-2.81,37.68-92.03,20.52c-10.26-1.02-22.62-33.51-25.34-43.01-10.24-35.72-7.86-77.67-1.25-113.85h2.53Z"/>
  <path class="st0" d="M276.16,446.87c-21.86-23.53-42.67-56.02-40.48-89.75,2.57-39.46,24.63-21.29,51.82-29.19,2.77-.11.98,3.28.22,5.28-4.79,12.57-12.62,25.33-14.11,39.02-2.6,23.92,1.27,51.04,5.08,74.64h-2.53Z"/>
  <path class="st0" d="M202.81,234.4c45.15-7.68,109.7-43.3,144.17,3.78,12.55,17.15,11.81,32.7-7.72,42.85-40.53,21.07-113.58-8.42-136.46-46.63Z"/>
  <path class="st1" d="M293.85,292.59l-28.57,13.12-23.4,17.27c-62.03-5.8-111.06-52.42-132.66-108.84,13.51,10.02,29.08,18.19,45.91,21.1,12.27,2.12,33.22-.57,40.93,2.07,2.01.69,12.43,14.83,16.83,18.59,23.21,19.79,50.75,32.15,80.96,36.69Z"/>
  <path class="st0" d="M367.21,188.84c-7.78-8.04-13.81-18.1-25.47-8.5,6.46,25.3,26.8,42.18,20.41,71.75-6.87-3.99-7.84-12.77-12.63-18.97-12.41-16.06-30.51-23.05-50.46-24.16-1.97-18.6,1.28-36.19,14.87-49.56-2.6-7.06-9.7-9.45-7.39-18.62,17.85,19.96,62.61,14.45,60.66,48.06Z"/>
  <path class="st0" d="M306.52,297.64l-13.23,24.7-39.88,3.09c-4.53-4.02,15.18-15.11,17.65-16.47,5.42-2.98,31.43-14.33,35.46-11.31Z"/>
  <path class="st1" d="M349.53,282.46c-9.7,18.53-28.24,31.47-48.04,37.92l13.11-27.35,34.93-10.57Z"/>
</svg>