<?xml version="1.0" encoding="UTF-8"?>
<svg id="Layer_1" xmlns="http://www.w3.org/2000/svg" version="1.1" viewBox="0 0 500 500">
  <!-- Generator: Adobe Illustrator 29.2.1, SVG Export Plug-In . SVG Version: 2.1.0 Build 116)  -->
  <defs>
    <style>
      .st0 {
        fill: #0d2139;
      }

      .st1 {
        fill: #f0b501;
      }
    </style>
  </defs>
  <path class="st0" d="M233.5,443.69c5.45-.89,10.9-1.75,16.34-2.67,49.87-8.47,95.35-26.37,132.2-62.33,28.29-27.61,45.9-61.27,54.8-99.57,3.66-15.73,6.15-31.65,5-47.9-2.12-30.08-9.91-58.68-23.31-85.66-28.23-56.86-74.23-90.29-136.03-103-29.53-6.07-59.26-6.61-89.15-4.47-1.58.11-3.14.47-4.81.4,7.43-4.19,15.61-6.32,23.79-8.16,16.74-3.76,33.77-5.27,50.89-4.61,52.82,2.03,100.9,17.09,140.86,53.1,30.05,27.08,47.54,61.37,55.99,100.59,4.27,19.81,6.04,39.9,5.57,60.08-1.68,72.94-33.03,129.17-95.61,167.32-32.69,19.93-68.37,31.56-106.2,36.73-10.01,1.37-20.12,1.64-30.33.15Z"/>
  <path class="st0" d="M477.16,206.35c2.82,18.91,3.27,37.86,1.66,56.9-2.73,32.33-11.06,63.13-25.57,92.09-28.07,56.04-70.53,95.46-132.03,112.16-25.82,7.02-52.11,8.37-78.74,5.58-32.91-3.45-64.84-10.47-95.15-24.03-57.48-25.71-95.56-68.73-114.42-128.74-11.57-36.81-14.32-74.6-11.78-112.91.61-9.17,1.38-18.34,2.17-27.5.13-1.57.7-3.11,1.62-4.6-.18,3.36-.47,6.71-.53,10.07-.4,24.42.86,48.75,4.62,72.9,6.22,39.95,18.36,77.68,42.39,110.82,24.99,34.46,58.53,56.91,98.76,69.84,26.76,8.6,54.32,13.23,82.3,13.03,48.35-.34,94-11.32,134.33-39.34,30.8-21.4,51.6-50.75,65.61-85.2,9.87-24.28,15.79-49.56,19.62-75.44,2.25-15.16,3.39-30.42,5.14-45.64Z"/>
  <path class="st1" d="M378.64,277.57c9.38.78,17.85,1.48,26.32,2.21,2.41.21,4.83.8,7.22.67,4.03-.21,5.52,1.21,5.75,5.43.38,6.73.67,6.79-6.33,7.37-19.49,1.63-39.03,2.27-58.56,3.14-14.84.66-29.67,2.03-44.54,1.34-22.18-1.03-42.63-6.9-59.26-22.58-8.71-8.21-15.35-17.92-20.01-28.9-2.85-6.72-2.19-13.94-1.77-21.03.74-12.3,2.75-24.32,8.69-35.34,9.79-18.16,26.08-28.02,44.99-33.61,34.32-10.15,67.32-6.93,96.73,14.39,20.69,15,30.21,36.22,26.79,62.05-1.84,13.96-8.63,25.86-18.1,36.22-2.38,2.61-4.79,5.2-7.96,8.63ZM314.1,167.89c-4.26-.35-10.52.46-16.58,2.17-21.28,6-36.47,18.78-41.69,40.82-5.36,22.61.87,42.16,18.71,57.37,25.84,22.02,68.66,17.6,90.38-9.06,18.65-22.89,17.29-54.34-3.35-74.04-12.66-12.08-28.05-17.28-47.47-17.25Z"/>
  <path class="st0" d="M224.21,424.09c-15.73,3.75-31.35,2.55-46.36-2.05-64.75-19.85-111.27-60.17-135.58-124.08-9.41-24.73-10.35-50.6-6.54-76.82,4.24-29.13,12.13-57,26.55-82.75,26.53-47.39,66.85-76.57,119.52-88.68,40.23-9.25,80-7.26,119.05,6.54,1.33.47,2.65.99,3.85,2.06-5.16-.69-10.33-1.32-15.48-2.09-22.66-3.37-45.44-4.02-68.18-1.66-39.6,4.12-75.28,17.69-104.39,45.8-19.53,18.85-33.3,41.55-42.68,66.86-10.04,27.12-16.68,55.14-14.64,84.18,4.12,58.82,26.17,108.5,76.74,142.44,21.88,14.69,46.36,22.98,72.15,27.66,5.32.97,10.67,1.73,16,2.58Z"/>
  <path class="st1" d="M155.32,294.23c-17.36.42-33.75-1.49-50.16-2.97-6.53-.59-11.1-4.08-13.87-9.94-3.52-7.42-4.69-15.34-4.93-23.48-.07-2.52.99-2.98,3.15-2.94,5.5.08,11,.05,16.51,0,1.77-.02,3.25.08,3.45,2.33.82,9.35,7.23,14.34,14.94,17.4,18.67,7.41,37.83,7.4,56.92,1.72,10.57-3.15,15.03-11.77,16.58-21.86,1.09-7.1-6.51-15.78-15.44-18.22-13.81-3.77-27.89-6.35-41.95-9.04-13.24-2.53-26.87-3.92-38.52-11.67-7.77-5.17-13.94-11.72-15.56-21.28-2.26-13.3,4.13-22.88,14.56-29.85,16.96-11.35,35.82-16.49,56.3-15.91,17.21.49,33.6,4.57,48.93,12,10.51,5.1,16.49,14.65,19.81,25.74.87,2.92-.24,3.82-3.55,4.26-10.63,1.4-17.82-2.68-22.28-12.18-2.05-4.38-6.08-6.18-10.34-7.32-20.18-5.41-40.48-5.7-60.8-.88-2.47.59-4.95,1.64-7.11,2.98-5.73,3.54-9.39,8.83-9.13,15.56.27,6.77,4.83,11.03,11.01,13.41,7.82,3.02,15.99,4.78,24.09,6.83,17.6,4.45,35.87,5.88,53.17,11.64,7.55,2.52,14.71,5.81,20.32,11.79,2.76,2.94,4.89,6.37,4.98,10.27.24,10.17-.23,20.35-4.62,29.83-5.65,12.21-16.67,16.4-28.73,18.88-12.73,2.62-25.61,3.3-37.74,2.91Z"/>
</svg>