<?xml version="1.0" encoding="UTF-8"?>
<svg id="Layer_1" xmlns="http://www.w3.org/2000/svg" version="1.1" viewBox="0 0 500 500">
  <!-- Generator: Adobe Illustrator 29.2.1, SVG Export Plug-In . SVG Version: 2.1.0 Build 116)  -->
  <defs>
    <style>
      .st0 {
        fill: #0d2139;
      }

      .st1 {
        fill: #f0b501;
      }
    </style>
  </defs>
  <path class="st0" d="M281.56,313.01c-26.7,0-52.96,0-79.23,0-7.38,0-10.62-2.38-12.59-9.54-6.85-24.93-3.67-49.08,7.02-72.14,19.25-41.53,52.15-67.1,96.26-77.28,65.19-15.03,132.02,18.04,157.38,80.71,7.92,19.57,11.55,40,8.87,61.06-3.24,25.55-14.03,47.86-31.1,67.08-19.79,22.27-44.2,36.67-73.49,42.59-9.9,2-19.96,2.06-30,2.37-32.65,1.01-65.31,1.64-97.97,1.45-28-.16-56.01-.36-83.99-1.18-13.88-.41-27.99.71-41.51-3.99-32.6-11.33-52.53-33.79-59.54-67.61-2.69-12.98-1.61-26.16-1.63-39.25-.12-64.36-.06-128.73-.06-193.09,0-10.5,3.13-13.85,13.47-13.54,17.49.53,34.96.76,52.46.05,11.37-.46,15.12,3.3,15.13,14.65.01,23.05-.36,46.1-.39,69.15-.06,38.23-.07,76.47.14,114.7.04,7.66.79,15.36,3.41,22.73,4.24,11.95,13.56,17.28,25.25,19.48,5.74,1.08,11.58,1.23,17.41,1.23,22.77,0,45.54-.34,68.3.08,30.19.56,60.38,0,90.55-.44,30.39-.43,53.81-25.22,50.36-57.61-2.71-25.39-21.32-42.75-46.15-46.07-30.62-4.09-52.3,17.95-58.21,38.88-4.04,14.29.02,27.22,6.93,39.64.97,1.73,2.44,3.22,2.91,5.87Z"/>
  <path class="st1" d="M322.66,314.78c-23.76-.04-40.44-18.95-36.48-41.68,2.57-14.74,12.54-23.06,26.63-26.83,16.64-4.45,35.9,3.7,43.75,18.49,10.01,18.86-.35,41.65-21.91,48.09-4.03,1.21-8.16,2.11-11.99,1.92Z"/>
</svg>