<?xml version="1.0" encoding="UTF-8"?>
<svg id="Layer_1" xmlns="http://www.w3.org/2000/svg" version="1.1" viewBox="0 0 500 500">
  <!-- Generator: Adobe Illustrator 29.2.1, SVG Export Plug-In . SVG Version: 2.1.0 Build 116)  -->
  <defs>
    <style>
      .st0 {
        fill: #0d2139;
      }

      .st1 {
        fill: #f0b501;
      }
    </style>
  </defs>
  <path class="st0" d="M366.2,302.51c4.1-13.01,8.41-25.58,15.82-36.87,2.84-4.33,6.12-8.3,9.65-12.11,3.42-3.69,7.19-6.08,12.37-5.39,2.86.38,2.98-1.12,2.48-3.24-1.72-7.25-10.22-11.47-17.05-8.4-10.15,4.56-20.71,7.64-32.77,9.1,5.27-4.2,10.08-7.48,14.24-11.56,17.18-16.83,29.47-37.07,40.48-58.15,21.56-41.26,37.51-84.76,51-129.22.22-.71.21-1.51,1.49-2.04.83,24.37,2.14,48.56-2.58,73.79,6.74-7.17,12.62-13.42,18.9-20.1,1.46,7.75-.88,14.42-3.08,21.05-3.65,11-8.92,21.29-14.78,31.25-1.72,2.91-1.09,3.8,1.88,4.51,4.82,1.16,9.59,1.31,14.42.23,2.92-.66,4.41-.88,4.14,3.48-1.87,30.83-16.4,55.74-35.74,78.54-10.17,11.99-21.25,23.12-33.78,32.56-13.7,10.34-24.47,23.16-34.18,37.05-2.07,2.96-5.77,6.17-5.53,8.99.24,2.87,4.43,5.4,6.87,8.1,8.98,9.93,17.31,20.34,23.92,32.56-3.02.37-5.2-1.23-7.62-1.55-5.17-.68-5.85-.04-5.23,5.36-1.94-.4-3.06-1.89-4.45-2.88-5.16-3.67-5.74-3.49-7.42,2.89-2.74-2.03-4.63-4.81-7.44-6.57-1.86-1.17-2.94-1.43-4.43.58-2.01,2.73-3.67,5.62-4.84,8.74-.91,2.42-1.85,3.22-4.16,1.49-1.05-.79-2.52-1-3.71-1.63-2.45-1.3-3.89-.51-4.91,1.93-.93,2.22-2.14,4.33-3.22,6.47-.44-.14-.87-.14-.97-.32-4.22-7.78-6.15-7.89-10.89-.37-1.51,2.39-2.59,5.04-3.95,7.73-.74-.55-1.3-1.02-1.92-1.41-4.01-2.59-5.26-2.29-6.36,2.22-.62,2.54-.96,3.79-3.95,2.36-2.61-1.24-4.73.12-5.86,2.73-1.12,2.6-2.12,5.25-3.19,7.95q-5.44-6.4-9.49,1.17c-1.76,3.31-3.43,6.68-5.51,9.91-1.08-13.02,1.64-25.38,6.14-37.44,2.67-7.15,6.34-13.78,10.67-20.06,1.81-2.63,3.09-5.51,3.88-8.66,1.36-5.44-.32-8.5-5.81-8.63-9.73-.23-19.46-.31-29.2.35-21.05,1.43-41.77,5.01-62.57,8.39-13.57,2.2-27.12-1.21-40.32-4.86-29.64-8.2-54.68-24.49-77.64-44.39-6.54-5.67-12.85-11.57-19.31-18.4,11-1.13,21.48-2.18,30.91-9.79-6.43-1.31-12.01-2.2-17.45-3.59-14.3-3.65-27.65-9.22-38.04-20.25-5.96-6.33-9.79-13.73-11-23.22,11.26,8.05,22.79,13.92,36.18,15.09,3.94.34,7.9.42,12.49-1.4-38.74-20.12-61.29-53.22-76.62-92.5,2.14,1.66,4.29,3.31,6.41,5,2.26,1.8,4.46,3.67,6.73,5.47,41.37,32.79,86.25,59.42,136.02,77.46,31.25,11.33,63.41,18.92,96.31,23.66,24.67,3.55,49.45,5.73,74.31,7.11,2.11.12,3.19.38,3.39,2.92,1.17,14.21,7.61,25.07,20.69,31.49,1.24.61,1.57,1.57,1.87,2.86.98,4.19,2.19,8.33,3.31,12.49Z"/>
  <path class="st1" d="M413.12,367.85c0-8.83-.02-17.65,0-26.48.02-5.59,2.57-8.7,8.18-8.77,17.35-.21,34.7-.23,52.04-.01,5.51.07,8.19,3.37,8.19,8.84.03,17.65.03,35.31,0,52.96,0,5.33-2.75,8.24-8.04,8.27-17.5.08-35,.09-52.5.04-5.16-.01-7.85-2.78-7.88-7.91-.06-8.98-.02-17.96-.02-26.94h.02Z"/>
  <path class="st0" d="M407.61,414.54c0,5.78.04,11.57-.01,17.35-.05,5.02-2.82,8-7.84,8.05-11.26.12-22.53.11-33.79.02-4.87-.04-7.69-2.82-7.74-7.63-.11-11.87-.12-23.74-.03-35.62.04-5.19,2.74-7.78,8-7.81,11.11-.07,22.22-.08,33.33.02,5.27.05,8.04,3,8.07,8.27.03,5.78,0,11.57.01,17.35Z"/>
  <path class="st0" d="M449.78,436.28c0,3.65,0,7.3,0,10.95,0,4.29-2.07,7-6.34,7.49-7.86.9-15.75.86-23.62.03-4.36-.46-6.48-3.33-6.61-7.37-.23-7.45-.2-14.91-.06-22.36.09-4.53,3.31-7.69,7.83-7.77,7-.13,14-.15,20.99-.01,5.03.1,7.67,2.93,7.81,8.1.1,3.65.02,7.3.02,10.95h-.02Z"/>
</svg>