<?xml version="1.0" encoding="UTF-8"?>
<svg id="Layer_1" xmlns="http://www.w3.org/2000/svg" version="1.1" viewBox="0 0 500 500">
  <!-- Generator: Adobe Illustrator 29.2.1, SVG Export Plug-In . SVG Version: 2.1.0 Build 116)  -->
  <defs>
    <style>
      .st0 {
        fill: #0d2139;
      }

      .st1 {
        fill: #f0b501;
      }
    </style>
  </defs>
  <path class="st0" d="M303.1,348.69c21.65,39.32,16.32,71.44-14.7,102.08l-9.55,8.14c-.26-19.32-8.44-37.85-21.46-51.87-46.99-50.54-111.38-94.55-97.27-174.32,8.8-49.74,44.37-70.19,75.35-103.78,10.19-11.05,38.97-43.09,43.07-55.58,3.8-11.55,2.21-20.61.31-32.21.97-1.09,14.98,10.18,16.54,11.55,19.13,16.75,37.52,41.18,39.25,67.44,3.48,52.74-60.55,107.31-95.14,141.49-1.91,1.89-7.75,3.12-5.15,5.57,5.85,5.52,12.44,10.65,18.03,16.44,19.13,19.79,37.2,40.51,50.71,65.03Z"/>
  <path class="st1" d="M303.1,348.69c-13.51-24.53-31.58-45.25-50.71-65.03,6.35-6.63,12.63-13.49,19.27-19.81,23.72-22.57,46.67-42.57,64.29-71.34l17.86-36.17c16.61,28.27,25.8,63.92,18.21,96.49-7.99,34.32-34.87,63.37-60.07,86.53-3.18,2.93-8.19,3.61-8.85,9.34Z"/>
</svg>