<?xml version="1.0" encoding="UTF-8"?>
<svg id="Layer_1" xmlns="http://www.w3.org/2000/svg" version="1.1" viewBox="0 0 500 500">
  <!-- Generator: Adobe Illustrator 29.2.1, SVG Export Plug-In . SVG Version: 2.1.0 Build 116)  -->
  <defs>
    <style>
      .st0 {
        fill: #0d2139;
      }

      .st1 {
        fill: #f0b501;
        stroke: #f0b501;
        stroke-miterlimit: 10;
        stroke-width: 5px;
      }
    </style>
  </defs>
  <path class="st0" d="M364.94,188.15c-2.3,6.81-4.63,13.62-6.87,20.46-.27.82-.09,1.79-.11,2.7-1.58,2.86-3.16,5.72-4.74,8.58-2.6.22-7.05,5.38-6.66,7.82.05.29.8.46,1.22.69-.74,1.06-1.48,2.11-2.22,3.17-.81.13-2.06,0-2.34.45-1.42,2.34-2.58,4.84-3.84,7.29h0c-1.29,1.81-2.58,3.61-3.87,5.42h0c-2.02.29-3.24.97-1.52,3.09-.11.37-.12.81-.34,1.1-11.72,14.94-24.75,28.57-39.88,40.13-.95.73-1.65,1.8-2.47,2.7-.3,0-.6-.01-.89-.02-.17,0-.34.02-.5.02-8.86,6.01-18.07,10.87-28.58,13.92-9,2.6-17.74,7.13-25.63,12.27-17.4,11.34-34.28,23.48-51.2,35.54-12.89,9.18-25.41,18.87-38.31,28.03-3.81,2.71-8.34,4.42-12.55,6.55-3.51,1.78-5.77.44-7.24-2.93-3.93-8.98-6.69-18.22-7.87-28.03-1.83-15.24-.04-29.99,4.52-44.52.37-1.18.61-2.4.92-3.6.28-.02.56-.03.84-.05.78-.51,1.55-1.02,2.33-1.54,1.03-2.07,2.07-4.13,3.1-6.2,0-.77,0-1.55,0-2.32.52-.77,1.03-1.55,1.55-2.32l1.55-2.32v-.77c.52-.52,1.03-1.03,1.55-1.55.77-2.07,1.55-4.13,2.32-6.2.52-.77,1.03-1.55,1.55-2.32.26-1.03.52-2.07.77-3.1,1.64-.38,3.31-.75,2.32-3.1.52-.77,1.03-1.55,1.55-2.32l.77-1.55c.52-.77,1.03-1.55,1.55-2.32.77-1.29,1.55-2.58,2.32-3.87.26-.26.52-.52.77-.77.52-.77,1.03-1.55,1.55-2.32s1.03-1.55,1.55-2.32v-.77c1.03-1.29,2.07-2.58,3.1-3.87,2.32-3.1,4.65-6.2,6.97-9.29.52-.52,1.03-1.03,1.55-1.55.77-1.29,1.55-2.58,2.32-3.87.52-.52,1.03-1.03,1.55-1.55s1.03-1.03,1.55-1.55c.77-1.03,1.55-2.07,2.32-3.1,1.29-1.03,2.58-2.07,3.87-3.1.26-.52.52-1.03.77-1.55.52-.52,1.03-1.03,1.55-1.55.77-.26,1.55-.52,2.32-.77,2.84-2.84,5.68-5.68,8.52-8.52.26-.77.52-1.55.77-2.32.52-.52,1.03-1.03,1.55-1.55,3.25-.18,2.6-1.95,1.56-3.86.76-.53,1.53-1.06,2.29-1.58.52,0,1.04.02,1.57.03,1.03-.77,2.07-1.55,3.1-2.32.52-.52,1.03-1.03,1.55-1.55.52-.52,1.03-1.03,1.55-1.55.52-.52,1.03-1.03,1.55-1.55h.77c.52-.26,1.03-.52,1.55-.77.77-.52,1.55-1.03,2.32-1.55,1.03-.9,1.99-1.89,3.1-2.68,1.75-1.24,3.61-2.35,5.42-3.52.52-.77,1.03-1.55,1.55-2.32,2.84-1.81,5.68-3.61,8.52-5.42.52-.52,1.03-1.03,1.55-1.55.52-.52,1.03-1.03,1.55-1.55.52-.26,1.03-.52,1.55-.77.26-.26.52-.52.77-.77.77-.52,1.55-1.03,2.32-1.55,1.29-.77,2.58-1.55,3.87-2.32l2.32-1.55c.26-.26.52-.52.77-.77,1.29-.77,2.58-1.55,3.87-2.32,1.03-.52,2.07-1.03,3.1-1.55.52-.52,1.03-1.03,1.55-1.55.52-.26,1.03-.52,1.55-.77.77-.52,1.55-1.03,2.32-1.55l1.55-.77c1.03-.52,2.07-1.03,3.1-1.55.77-.52,1.55-1.03,2.32-1.55,1.03-.52,2.07-1.03,3.1-1.55.74-.14,1.82-.02,2.16-.47,3.42-4.45,7.9-6.55,13.46-6.61.48,0,.94-.94,1.42-1.44.77-.52,1.55-1.03,2.32-1.55,1.55-.52,3.1-1.03,4.65-1.55.77-.26,1.55-.52,2.32-.77.78,0,1.65.2,2.34-.06,2.74-1.01,5.43-2.15,8.13-3.29,2.2-.92,4.38-1.9,6.57-2.85.52,0,1.03,0,1.55,0,1.29-.52,2.58-1.03,3.87-1.55h1.55c.52-.26,1.03-.52,1.55-.77h2.32c.77-.26,1.55-.52,2.32-.77,1.29-.77,2.58-1.54,3.87-2.31.52-.25,1.04-.51,1.56-.76,1.03,0,2.06-.01,3.08-.02h4.65c1.03.25,2.07.49,3.1.74.52,0,1.04,0,1.55,0,0,0-.01.04-.01.04.33.72.66,1.44.99,2.16.45-.47.89-.94,1.34-1.41,1.03.26,2.07.51,3.1.77,2.27,3.84,6.1,5.15,10.08,6.19,0,0,0,0,0,0,.51.52,1.02,1.05,1.53,1.57v.77c3.68,4.82,7.25,9.68,8.38,15.86.08.43.6.79.92,1.18.51.52,1.02,1.03,1.53,1.55.02,2.32.03,4.65.05,6.97-.02,1.29-.03,2.58-.05,3.87-.77,1.29-1.54,2.58-2.31,3.87v.77c-.46,1.45-2,3.14.84,3.89Z"/>
  <path class="st0" d="M345.56,231.57c.74-1.06,1.48-2.11,2.22-3.17,1.56-2.1,3.12-4.19,4.68-6.29.23-.48.46-.97.69-1.45.02-.26.05-.52.07-.77,1.58-2.86,3.16-5.72,4.74-8.58,12.3,3.72,24.5,7.87,36.94,11.03,10.32,2.62,20.95,4.03,31.42,6.09,9.98,1.97,19.99,3.87,29.88,6.24,5.28,1.26,5.79,2.8,3.5,7.65-4.66,9.87-11.7,17.77-20.58,24.05-16.8,11.87-35.81,18.16-55.84,21.59-9.94,1.7-19.97,3.16-30.02,3.84-14.43.98-28.91,1.38-43.37,1.56-6.18.08-12.38-1.03-18.58-1.6.82-.91,1.51-1.98,2.47-2.7,15.13-11.56,28.16-25.19,39.88-40.13.22-.28.23-.73.34-1.1.51-1.03,1.01-2.06,1.52-3.09,0,0,0,0,0,0,1.29-1.81,2.58-3.61,3.87-5.42,0,0,0,0,0,0,2.06-2.58,4.12-5.16,6.18-7.73Z"/>
  <path class="st0" d="M237.89,158.08c-.53.85-.92,1.83-1.61,2.54-13.16,13.61-26.81,26.74-43.28,36.31-10.54,6.13-21.7,11.2-32.58,16.74-1.84-3.78-3.62-7.6-5.55-11.35-7.32-14.2-12.06-29.09-10.6-45.25.66-7.31,3.63-12.94,13.37-13.17,17.66-.43,34.8,2.59,51.8,6.83,9.5,2.37,18.96,4.89,28.44,7.35Z"/>
  <path class="st0" d="M120.93,308.04c2.19-5.26,4.17-10.62,6.62-15.76,3.68-7.69,7.16-15.57,11.71-22.74,5.74-9.04,12.48-17.44,18.8-26.11,1.86-2.55,3.76-5.07,5.64-7.61.15-.21.26-.46.45-.62,8.05-6.63,12.99-16.53,21.74-22.1,4.49-2.86,6.76-7.83,11.83-9.85,2.28-.91,3.95-3.3,5.95-4.96,6.35-5.26,12.42-10.91,19.15-15.63,9.87-6.91,20.01-13.5,30.43-19.56,9.06-5.27,18.41-10.21,28.08-14.21,10.12-4.18,20.73-7.2,31.21-10.46,3.61-1.12,7.46-1.89,11.21-1.98,1.81-.04,12.53-1.18,14.36-.16-1.03,0-10.91,3.06-11.94,3.06-1.04.24-2.07.49-3.11.73-.77.26-1.55.52-2.32.78-.52,0-1.03.01-1.55.02-2.32.26-4.64.52-6.96.78-.78.25-1.55.5-2.33.75-1.81.53-3.61,1.06-5.42,1.59l-.79.02c-.25.24-.5.48-.75.72-.77.01-1.54.02-2.32.03-1.04.5-2.08,1-3.11,1.51-1.03.52-2.07,1.03-3.1,1.55-3.1,1.05-6.19,2.1-9.29,3.15-.78.51-1.55,1.01-2.33,1.52-1.81.78-3.61,1.55-5.42,2.33-.26,0-.52,0-.79,0-2.88-.58-8.16,1.88-10.05,4.68-.52.51-1.04,1.02-1.56,1.53-1.81.78-3.61,1.56-5.42,2.33-.51.26-1.03.53-1.54.79-3.87,2.32-7.75,4.64-11.62,6.96-2.36-.99-3.41.18-3.87,2.34-2.32,1.54-4.65,3.09-6.97,4.63-.52.51-1.04,1.01-1.56,1.52-2.84,1.82-5.67,3.64-8.51,5.46-2.58-1.08-2.19.87-2.33,2.28-2.32,1.56-4.64,3.13-6.96,4.69-2.58-1.08-2.2.88-2.33,2.29-.51.27-1.03.54-1.54.81-2.59-1.08-2.19.88-2.34,2.29l-1.54.81c-2.59-1.07-2.19.89-2.34,2.3,0,.51-.01,1.02-.02,1.53h0c-.51.01-1.02.02-1.53.03-.26,0-.51,0-.77.01-2.59-1.07-2.19.9-2.33,2.31,0,.25,0,.5-.01.75-.77.53-1.54,1.05-2.3,1.58,0,0,0,0,0,0-.26,0-.51,0-.77,0-2.62-.05-3.91,1.23-3.89,3.85,0,.25,0,.51-.01.76-.76.53-1.53,1.06-2.29,1.58-.52.51-1.04,1.02-1.56,1.54-.25,0-.51,0-.76,0-.94.28-2.15.29-2.78.9-4.28,4.11-8.48,8.31-12.59,12.59-.61.63-.61,1.84-.9,2.78,0,.25,0,.51,0,.76-1.04,1.28-2.08,2.56-3.11,3.85-.26.01-.51.02-.77.02-2.63-.03-3.92,1.27-3.85,3.9-.27.76-.54,1.52-.81,2.28-.25,0-.5,0-.75.01-2.78.24-2.97.44-2.3,2.33-.02.76-.03,1.52-.05,2.28-.51,0-1.01.02-1.52.03-.61,0-1.22,0-1.83,0,.1.52.19,1.04.29,1.56-.27.51-.54,1.03-.8,1.54-2.24-.15-3.25.9-3.07,3.12-1.04,2.05-2.09,4.1-3.13,6.15-2.57,3.11-5.13,6.22-7.7,9.33-2.15.46-3.32,1.51-2.34,3.87-1.55,2.58-3.1,5.16-4.64,7.74-.26.52-.52,1.03-.78,1.55-3.11,6.71-6.21,13.42-9.32,20.13-.25.52-.51,1.03-.76,1.55-.26,1.29-.52,2.57-.78,3.86-.26.77-.52,1.55-.77,2.32-.28.02-.56.03-.84.05-1.01-.31-2.01-.63-3.02-.94Z"/>
  <path class="st0" d="M326.28,139.79c-.17-2.37,8.69-3.8,10.91-3.53,7.06.84,13.67,2.53,19.44,7.25,6.4,5.24,10.45,11.68,12.46,19.59.17.68.86,1.23,1.3,1.84-.59,3.6-1.17,7.2-1.76,10.8h-2.16c-.02-2.32-.03-4.65-.05-6.97-.24-.52-.48-1.04-.73-1.56-.18-6.78-3.19-12.26-7.78-17.03-.77-.77-1.55-1.55-2.32-2.32-.51,0-1.02-.02-1.53-.03,0,0,0,0,0,0-1.98-4.32-5.93-5.42-10.08-6.19-1.03-.26-2.07-.51-3.1-.77-.78-.25-1.55-.5-2.33-.74,0,0,.01-.04.01-.04-.32-.4-.64-.8-.95-1.19-.2.4-.4.79-.6,1.19-1.03-.25-9.69-.05-10.72-.3Z"/>
  <path class="st0" d="M364.1,183.48c.77-1.29,1.54-2.58,2.31-3.87.01,1.06.03,2.12.04,3.17,0,.25-.06.49-.17.72-.2.54-.4,1.07-.6,1.61-.25,1.01-.5,2.02-.75,3.03-2.84-.75-1.29-2.44-.84-3.89v-.77Z"/>
  <path class="st0" d="M366.46,182.79c-.01-1.06-.03-2.12-.04-3.17.01-1.29.03-2.58.05-3.87.72,0,1.44,0,2.16,0-.72,2.35-1.44,4.7-2.17,7.05Z"/>
  <path class="st0" d="M365.69,185.12c.2-.54.4-1.07.6-1.61-.2.54-.4,1.07-.6,1.61Z"/>
  <path class="st0" d="M289.9,291.75c.17,0,.34-.02.5-.02,0,0-.25.12-.25.12l-.26-.1Z"/>
  <path class="st0" d="M208.45,198.21c.51-.27,1.02-.54,1.54-.81.78-.76,1.56-1.52,2.34-2.29.51-.27,1.03-.54,1.54-.81.78-.76,1.56-1.53,2.33-2.29,2.32-1.56,4.64-3.13,6.96-4.69.78-.76,1.56-1.52,2.33-2.28,2.84-1.82,5.67-3.64,8.51-5.45.52-.51,1.04-1.01,1.56-1.52,2.32-1.54,4.65-3.09,6.97-4.63,1.29-.78,2.58-1.56,3.87-2.34,3.87-2.32,7.75-4.64,11.62-6.96.51-.26,1.03-.53,1.54-.79,1.81-.78,3.61-1.56,5.42-2.33-.26,1.03-.52,2.06-.78,3.1-1.03.52-2.07,1.03-3.1,1.55-.77.52-1.55,1.03-2.32,1.55-1.03.52-2.07,1.03-3.1,1.55l-1.55.77c-.77.52-1.55,1.03-2.32,1.55-.52.26-1.03.52-1.55.77-.52.52-1.03,1.03-1.55,1.55-1.03.52-2.07,1.03-3.1,1.55-1.29.77-2.58,1.55-3.87,2.32-.26.26-.52.52-.77.77l-2.32,1.55c-1.29.77-2.58,1.55-3.87,2.32-.77.52-1.55,1.03-2.32,1.55-.26.26-.52.52-.77.77-.52.26-1.03.52-1.55.77-.52.52-1.03,1.03-1.55,1.55-.52.52-1.03,1.03-1.55,1.55-2.84,1.81-5.68,3.61-8.52,5.42-.52.77-1.03,1.55-1.55,2.32-1.81,1.17-3.66,2.27-5.42,3.52-1.11.79-2.07,1.78-3.1,2.68-.78,0-1.57-.02-2.35-.03,0-.51.01-1.02.02-1.53.78-.77,1.56-1.53,2.34-2.3Z"/>
  <path class="st0" d="M144.19,267.91c2.57-3.11,5.13-6.22,7.7-9.33,0,0,.02.02.02.02,0,.77,0,1.55,0,2.32v.77c-.52.77-1.03,1.55-1.55,2.32s-1.03,1.55-1.55,2.32c-.26.26-.52.52-.77.77-.77,1.29-1.55,2.58-2.32,3.87-.52.77-1.03,1.55-1.55,2.32-.26.52-.52,1.03-.77,1.55-.52.77-1.03,1.55-1.55,2.32-.77,1.03-1.55,2.07-2.32,3.1-.26,1.03-.52,2.07-.77,3.1-.52.77-1.03,1.55-1.55,2.32-.77,2.07-1.55,4.13-2.32,6.2-.52.52-1.03,1.03-1.55,1.55v.77c-.52.77-1.03,1.55-1.55,2.32-.53.27-1.07.54-1.6.81-.09.07-.26.17-.25.2.07.17.18.32.27.48,0,.28.02.56.03.84v2.32c-1.03,2.07-2.07,4.13-3.1,6.2-.52-.26-1.04-.52-1.56-.79.26-1.29.52-2.57.78-3.86.25-.52.51-1.03.76-1.55,3.11-6.71,6.21-13.42,9.32-20.13.26-.52.52-1.03.78-1.55,1.55-2.58,3.1-5.16,4.64-7.74.78-1.29,1.56-2.58,2.34-3.87Z"/>
  <path class="st0" d="M303.68,144.04c.26,0,.53-.01.79-.02,1.03.51,2.06,1.01,3.1,1.52-2.19.95-4.37,1.93-6.57,2.85-2.69,1.13-5.39,2.27-8.13,3.29-.69.26-1.55.05-2.34.06,1.29-1.3,2.58-2.59,3.87-3.89,1.03-.52,2.07-1.03,3.1-1.55,1.04-.5,2.08-1,3.11-1.51.77-.01,1.54-.02,2.32-.03.25-.24.5-.48.75-.72Z"/>
  <path class="st0" d="M357.91,150.18c4.58,4.77,7.6,10.25,7.78,17.03-.27,0-.54,0-.8,0-.32-.39-.84-.74-.92-1.18-1.12-6.18-4.7-11.04-8.38-15.86.77,0,1.55,0,2.32,0Z"/>
  <path class="st0" d="M179.78,229.18c-.77.26-1.55.52-2.32.77,0-.78,0-1.56,0-2.33,3.1-3.1,6.19-6.19,9.29-9.29.78,0,1.56,0,2.33,0-.26.77-.52,1.55-.77,2.32-2.84,2.84-5.68,5.68-8.52,8.52Z"/>
  <path class="st0" d="M264.2,164.12c.26-1.03.52-2.06.78-3.1.52-.51,1.04-1.02,1.56-1.53,3.35-1.56,6.7-3.12,10.05-4.68.26,0,.52,0,.79,0,1.29.26,2.58.51,3.87.77-.47.5-.94,1.43-1.42,1.44-5.57.07-10.05,2.16-13.46,6.61-.34.45-1.42.33-2.16.47Z"/>
  <path class="st0" d="M307.57,145.54c-1.03-.51-2.06-1.01-3.1-1.52,1.81-.53,3.61-1.06,5.42-1.59.78-.25,1.55-.5,2.33-.75,2.32-.26,4.64-.52,6.96-.78-.26.77-.52,1.54-.77,2.31h-2.32c-.52.26-1.03.52-1.55.77h-1.55c-1.29.52-2.58,1.03-3.87,1.55h-1.55Z"/>
  <path class="st0" d="M158.08,249.31c.27-.51.54-1.03.8-1.54.51-.52,1.02-1.04,1.54-1.56.51,0,1.01-.02,1.52-.03,0,0,.03.03.03.03v1.55c-2.32,3.1-4.65,6.2-6.97,9.29-1.03.52-2.06,1.03-3.1,1.55,0,0-.02-.02-.02-.02,1.04-2.05,2.09-4.1,3.13-6.15,1.02-1.04,2.05-2.08,3.07-3.12Z"/>
  <path class="st0" d="M343.98,141.64c4.16.77,8.11,1.88,10.08,6.19-3.99-1.04-7.81-2.35-10.08-6.19Z"/>
  <path class="st0" d="M294.4,147.84c-1.29,1.3-2.58,2.59-3.87,3.89-.77.26-1.55.52-2.32.77-1.03-.51-2.06-1.01-3.1-1.52,3.1-1.05,6.19-2.1,9.29-3.15Z"/>
  <path class="st0" d="M345.56,231.57c-2.06,2.58-4.12,5.16-6.18,7.73,1.25-2.44,2.42-4.94,3.84-7.29.28-.45,1.53-.31,2.34-.45Z"/>
  <path class="st0" d="M352.46,222.11c-1.56,2.1-3.12,4.19-4.68,6.29-.42-.23-1.17-.4-1.22-.69-.4-2.44,4.06-7.6,6.66-7.82-.02.26-.05.52-.07.77-.23.48-.46.97-.69,1.45Z"/>
  <path class="st0" d="M179.78,229.18c2.84-2.84,5.68-5.68,8.52-8.52-2.84,2.84-5.68,5.68-8.52,8.52Z"/>
  <path class="st0" d="M164.29,241.57c.25,0,.5-.01.75-.01.27.26.53.53.8.79-.77,1.29-1.55,2.58-2.32,3.87h-1.55s-.03-.03-.03-.03c.02-.76.03-1.52.05-2.29.77-.78,1.54-1.56,2.3-2.33Z"/>
  <path class="st0" d="M281.24,155.6c-1.29-.26-2.58-.51-3.87-.77,1.81-.78,3.61-1.55,5.42-2.33.26.52.52,1.03.77,1.55-.77.52-1.55,1.03-2.32,1.55Z"/>
  <path class="st0" d="M339.39,239.31c-1.29,1.81-2.58,3.61-3.87,5.42,1.29-1.81,2.58-3.61,3.87-5.42Z"/>
  <path class="st0" d="M170.48,235.35c1.04-1.28,2.08-2.56,3.11-3.85,0,0,0,0,0,0l1.54,1.54c-1.29,1.03-2.58,2.07-3.87,3.1-.26-.27-.53-.53-.79-.8Z"/>
  <path class="st0" d="M283.56,154.06c-.26-.52-.52-1.03-.77-1.55.78-.51,1.55-1.01,2.33-1.52,1.03.51,2.06,1.01,3.1,1.52-1.55.52-3.1,1.03-4.65,1.55Z"/>
  <path class="st0" d="M127.12,307.4c1.03-2.07,2.07-4.13,3.1-6.2-1.03,2.07-2.07,4.13-3.1,6.2Z"/>
  <path class="st0" d="M190.63,214.46c.52-.51,1.04-1.02,1.56-1.54,1.04,1.92,1.69,3.68-1.56,3.86,0-.78,0-1.55,0-2.33Z"/>
  <path class="st0" d="M177.46,227.62c0,.78,0,1.56,0,2.33-.52.52-1.03,1.03-1.55,1.55-.77,0-1.54,0-2.31.01,0,0,0,0,0,0,0-.25,0-.51,0-.76,1.29-1.04,2.58-2.08,3.86-3.12Z"/>
  <path class="st0" d="M190.63,214.46c0,.78,0,1.55,0,2.33-.52.52-1.03,1.03-1.55,1.55-.78,0-1.56,0-2.33,0,1.04-1.29,2.08-2.58,3.12-3.86.25,0,.51,0,.76,0Z"/>
  <path class="st0" d="M320.74,140.88c.77-.26,1.55-.52,2.32-.78.52.01,1.03.02,1.55.03-1.29.77-2.58,1.54-3.87,2.31v-1.56Z"/>
  <path class="st0" d="M170.48,235.35c.26.27.53.53.79.8-.77,1.03-1.55,2.07-2.32,3.1,0-.78,0-1.56,0-2.34.26-.51.51-1.03.77-1.54.26,0,.51-.01.77-.02Z"/>
  <path class="st0" d="M151.9,258.61c1.03-.52,2.06-1.03,3.1-1.55-1.03,1.29-2.07,2.58-3.1,3.87,0-.77,0-1.55,0-2.32Z"/>
  <path class="st0" d="M199.15,209.04c-1.03.77-2.07,1.55-3.1,2.32-.27-.26-.53-.52-.8-.78.52-.51,1.04-1.03,1.57-1.54h2.33Z"/>
  <path class="st0" d="M335.51,244.73c-.51,1.03-1.01,2.06-1.52,3.09-1.72-2.12-.5-2.8,1.52-3.09Z"/>
  <path class="st0" d="M139.51,280.29c.77-1.03,1.55-2.07,2.32-3.1.99,2.35-.68,2.72-2.32,3.1Z"/>
  <path class="st0" d="M125.56,306.61c.52.26,1.04.52,1.56.79-.78.51-1.55,1.02-2.33,1.54.26-.77.52-1.55.77-2.32Z"/>
  <path class="st0" d="M241.74,177.29c1.29-.77,2.58-1.55,3.87-2.32-1.29.77-2.58,1.55-3.87,2.32Z"/>
  <path class="st0" d="M309.12,145.54c1.29-.52,2.58-1.03,3.87-1.55-1.29.52-2.58,1.03-3.87,1.55Z"/>
  <path class="st0" d="M145.71,271c.77-1.29,1.55-2.58,2.32-3.87-.77,1.29-1.55,2.58-2.32,3.87Z"/>
  <path class="st0" d="M324.61,140.13c-.52-.01-1.03-.02-1.55-.03,1.04-.24,2.07-.49,3.11-.73-.52.26-1.04.51-1.56.76Z"/>
  <path class="st0" d="M199.15,206.72c.77-.53,1.54-1.05,2.3-1.58.26.27.53.53.79.8-.52.52-1.03,1.03-1.55,1.55l-1.55-.77Z"/>
  <path class="st0" d="M165.84,242.34c-.27-.26-.53-.53-.8-.79.27-.76.54-1.52.81-2.28.25-.01.51-.02.76-.02l.77,1.55c-.52.52-1.03,1.03-1.55,1.55Z"/>
  <path class="st0" d="M261.1,165.67c1.03-.52,2.07-1.03,3.1-1.55-1.03.52-2.07,1.03-3.1,1.55Z"/>
  <path class="st0" d="M255.68,168.77c1.03-.52,2.07-1.03,3.1-1.55-1.03.52-2.07,1.03-3.1,1.55Z"/>
  <path class="st0" d="M338.54,140.13c.78.25,1.55.5,2.33.74-.45.47-.89.94-1.34,1.41-.33-.72-.66-1.44-.99-2.16Z"/>
  <path class="st0" d="M251.81,171.09c.77-.52,1.55-1.03,2.32-1.55-.77.52-1.55,1.03-2.32,1.55Z"/>
  <path class="st0" d="M320.74,140.88v1.56c-.77.26-1.55.52-2.32.77.26-.77.52-1.54.77-2.31.52,0,1.03-.01,1.55-.02Z"/>
  <path class="st0" d="M199.15,206.72l1.55.77c-.52.52-1.03,1.03-1.55,1.55v-2.32s0,0,0,0Z"/>
  <path class="st0" d="M173.6,231.51c.77,0,1.54,0,2.31-.01-.26.52-.52,1.03-.77,1.55l-1.54-1.54Z"/>
  <path class="st0" d="M357.91,150.18c-.77,0-1.55,0-2.32,0v-2.32c.77.77,1.55,1.55,2.32,2.32Z"/>
  <path class="st0" d="M203.8,202.08c.26-.01.51-.02.77-.01v2.32h-.77c-.52,0-1.04,0-1.56,0,.52-.77,1.05-1.54,1.57-2.3Z"/>
  <path class="st0" d="M167.39,240.79l-.77-1.55h0c.77,0,1.55,0,2.32,0-.52.52-1.03,1.03-1.55,1.55Z"/>
  <path class="st0" d="M202.23,204.39h1.56c-.52.52-1.03,1.04-1.55,1.56-.26-.27-.53-.53-.79-.8,0-.25,0-.5.01-.75,0,0,.38,0,.38,0,0,0,.38,0,.38,0Z"/>
  <path class="st0" d="M206.09,202.04c.78,0,1.57.02,2.35.03-.77.52-1.55,1.03-2.32,1.55,0-.52-.02-1.05-.02-1.57h0Z"/>
  <path class="st0" d="M206.09,202.05c0,.52.02,1.05.02,1.57-.52.26-1.03.52-1.55.77v-2.32c.51,0,1.02-.02,1.53-.02Z"/>
  <path class="st0" d="M238.64,179.61c.77-.52,1.55-1.03,2.32-1.55-.77.52-1.55,1.03-2.32,1.55Z"/>
  <path class="st0" d="M232.45,183.48c.77-.52,1.55-1.03,2.32-1.55-.77.52-1.55,1.03-2.32,1.55Z"/>
  <path class="st0" d="M137.19,285.71c.52-.77,1.03-1.55,1.55-2.32-.52.77-1.03,1.55-1.55,2.32Z"/>
  <path class="st0" d="M131.77,296.55c.52-.77,1.03-1.55,1.55-2.32-.52.77-1.03,1.55-1.55,2.32Z"/>
  <path class="st0" d="M216.96,195.88c.52-.77,1.03-1.55,1.55-2.32-.52.77-1.03,1.55-1.55,2.32Z"/>
  <path class="st0" d="M148.81,266.35c.52-.77,1.03-1.55,1.55-2.32-.52.77-1.03,1.55-1.55,2.32Z"/>
  <path class="st0" d="M150.36,264.03c.52-.77,1.03-1.55,1.55-2.32-.52.77-1.03,1.55-1.55,2.32Z"/>
  <path class="st0" d="M130.22,298.88c0-.28-.02-.56-.03-.83,0-.23-.01-.45-.03-.68.53-.27,1.07-.54,1.6-.81-.52.77-1.03,1.55-1.55,2.32Z"/>
  <path class="st0" d="M355.59,147.86v1.55c-.51-.52-1.02-1.05-1.53-1.57.51,0,1.02.02,1.53.03Z"/>
  <path class="st0" d="M161.97,246.22h1.55c-.52.52-1.03,1.03-1.55,1.55v-1.55Z"/>
  <path class="st0" d="M314.54,143.99c.52-.26,1.03-.52,1.55-.77-.52.26-1.03.52-1.55.77Z"/>
  <path class="st0" d="M364.88,167.22c.27,0,.54,0,.8,0,.24.52.48,1.04.73,1.56-.51-.52-1.02-1.03-1.53-1.55Z"/>
  <path class="st0" d="M248.71,173.42c.52-.52,1.03-1.03,1.55-1.55-.52.52-1.03,1.03-1.55,1.55Z"/>
  <path class="st0" d="M143.39,274.87c.26-.52.52-1.03.77-1.55-.26.52-.52,1.03-.77,1.55Z"/>
  <path class="st0" d="M337,140.09c.2-.4.4-.79.6-1.19.32.4.64.8.95,1.19-.52,0-1.04,0-1.55,0Z"/>
  <path class="st0" d="M195.25,210.58c.27.26.53.52.8.78-.52,0-1.04-.02-1.57-.03,0-.25,0-.51.01-.76.25,0,.5,0,.76,0Z"/>
  <path class="st0" d="M133.32,293.46c.52-.52,1.03-1.03,1.55-1.55-.52.52-1.03,1.03-1.55,1.55Z"/>
  <path class="st0" d="M227.03,188.13c.52-.52,1.03-1.03,1.55-1.55-.52.52-1.03,1.03-1.55,1.55Z"/>
  <path class="st0" d="M230.12,185.03c.52-.26,1.03-.52,1.55-.77-.52.26-1.03.52-1.55.77Z"/>
  <path class="st0" d="M352.46,222.11c.23-.48.46-.97.69-1.45-.23.48-.46.97-.69,1.45Z"/>
  <path class="st0" d="M189.87,214.47c-1.04,1.29-2.08,2.58-3.12,3.86-3.1,3.1-6.19,6.19-9.29,9.29-1.29,1.04-2.58,2.08-3.86,3.12.29-.94.29-2.15.9-2.78,4.11-4.28,8.31-8.48,12.59-12.59.63-.61,1.84-.61,2.78-.9Z"/>
  <path class="st0" d="M276.58,154.82c-3.35,1.56-6.7,3.12-10.05,4.68,1.89-2.8,7.17-5.26,10.05-4.68Z"/>
  <path class="st0" d="M195.25,210.58c-.25,0-.5,0-.76,0-.03-2.62,1.27-3.91,3.89-3.85-.52.77-1.04,1.55-1.57,2.32-.52.51-1.04,1.03-1.57,1.54Z"/>
  <path class="st0" d="M246.39,171.11c-1.29.78-2.58,1.56-3.87,2.34.46-2.15,1.51-3.32,3.87-2.34Z"/>
  <path class="st0" d="M166.62,239.25c-.25,0-.51.01-.76.02-.07-2.64,1.22-3.93,3.85-3.9-.26.51-.51,1.03-.77,1.54-.77.78-1.54,1.56-2.32,2.34h0Z"/>
  <path class="st0" d="M144.19,267.91c-.78,1.29-1.56,2.58-2.34,3.87-.98-2.35.19-3.41,2.34-3.87Z"/>
  <path class="st0" d="M216.19,192.02c-.78.76-1.56,1.53-2.33,2.29.14-1.42-.25-3.37,2.33-2.29Z"/>
  <path class="st0" d="M158.08,249.31c-1.02,1.04-2.05,2.08-3.07,3.12-.18-2.23.83-3.28,3.07-3.12Z"/>
  <path class="st0" d="M212.32,195.12c-.78.76-1.56,1.53-2.34,2.29.15-1.41-.25-3.37,2.34-2.29Z"/>
  <path class="st0" d="M202.23,204.39h-.38s-.38,0-.38,0c.14-1.41-.26-3.37,2.33-2.31-.52.77-1.05,1.54-1.57,2.3Z"/>
  <path class="st0" d="M225.49,185.05c-.78.76-1.56,1.52-2.33,2.28.14-1.41-.25-3.36,2.33-2.28Z"/>
  <path class="st0" d="M300.62,144.79c-1.04.5-2.08,1-3.11,1.51,1.04-.5,2.08-1,3.11-1.51Z"/>
  <path class="st0" d="M164.29,241.57c-.77.78-1.54,1.56-2.3,2.33-.67-1.9-.48-2.09,2.3-2.33Z"/>
  <path class="st0" d="M208.45,198.21c-.78.77-1.56,1.53-2.34,2.3.15-1.41-.25-3.37,2.34-2.3Z"/>
  <path class="st0" d="M160.42,246.22c-.51.52-1.02,1.04-1.54,1.56-.1-.52-.19-1.04-.29-1.56.61,0,1.22,0,1.83,0Z"/>
  <path class="st0" d="M196.82,209.04c.52-.77,1.04-1.55,1.57-2.32.26,0,.51,0,.77,0,0,.77,0,1.55,0,2.32h-2.33Z"/>
  <path class="st0" d="M312.23,141.68c-.78.25-1.55.5-2.33.75.78-.25,1.55-.5,2.33-.75Z"/>
  <path class="st0" d="M235.55,178.08c-.52.51-1.04,1.01-1.56,1.52.52-.51,1.04-1.01,1.56-1.52Z"/>
  <path class="st0" d="M259.56,163.36c-.51.26-1.03.53-1.54.79.51-.26,1.03-.53,1.54-.79Z"/>
  <path class="st0" d="M137.2,279.52c-.26.52-.52,1.03-.78,1.55.26-.52.52-1.03.78-1.55Z"/>
  <path class="st0" d="M127.11,301.2c-.25.52-.51,1.03-.76,1.55l.76-1.55Z"/>
  <path class="st0" d="M303.68,144.04c-.25.24-.5.48-.75.72.25-.24.5-.48.75-.72Z"/>
  <path class="st0" d="M130.17,297.36c.01.23.02.45.03.68-.1-.16-.21-.31-.27-.48-.01-.03.16-.13.25-.2Z"/>
  <path class="st0" d="M166.62,239.25c.77-.78,1.54-1.56,2.32-2.34,0,.78,0,1.56,0,2.34-.77,0-1.55,0-2.32,0Z"/>
  <path class="st1" d="M323.74,136.46c-3.76.09-7.6.86-11.21,1.98-10.48,3.26-21.09,6.28-31.21,10.46-9.67,4-19.02,8.94-28.08,14.21-10.41,6.06-20.56,12.64-30.43,19.56-6.73,4.71-12.8,10.37-19.15,15.63-2,1.66-3.67,4.05-5.95,4.96-5.06,2.02-7.34,7-11.83,9.85-8.75,5.57-13.69,15.47-21.74,22.1-.19.16-.3.41-.45.62-1.88,2.54-3.78,5.06-5.64,7.61-6.32,8.67-13.06,17.07-18.8,26.11-4.56,7.17-6.91,14.67-10.59,22.37-2.46,5.13-4.32,12.72-6.51,17.98-8.09-2.28-17.48-6.22-25.5-8.72-14.08-4.39-27.54-10.22-39.76-18.57-7.22-4.93-14.09-10.29-16.81-19.22-1.51-4.94.16-9.53,4.4-12.51,8.09-5.68,17.62-7.45,26.84-10.01,22.51-6.26,45.11-12.22,67.54-18.73,7.38-2.14,14.38-5.59,21.56-8.44,10.88-5.54,22.04-10.62,32.58-16.74,16.47-9.57,30.12-22.7,43.28-36.31.68-.7,1.08-1.68,1.61-2.54,6.56-7.26,12.94-14.7,19.72-21.75,9.32-9.68,18.89-19.13,28.49-28.53,6.82-6.67,14.81-11.68,23.79-14.88,15.69-5.59,30.32-3.53,43.61,6.77,9.9,7.67,14.05,18.61,16.74,30.2,2.29,9.87.31,18.77-1.16,28.81-.25,1.69-.73,3.92-1.02,5.59-.45-.61-.36-.66-.54-1.34-2.01-7.91-4.49-14.2-10.89-19.44-5.76-4.72-12.38-6.41-19.44-7.25-2.22-.26-11.63.15-13.45.2Z"/>
</svg>