<?xml version="1.0" encoding="UTF-8"?>
<svg id="Layer_1" xmlns="http://www.w3.org/2000/svg" version="1.1" viewBox="0 0 500 500">
  <!-- Generator: Adobe Illustrator 29.2.1, SVG Export Plug-In . SVG Version: 2.1.0 Build 116)  -->
  <defs>
    <style>
      .st0 {
        fill: #0d2139;
      }

      .st1 {
        fill: #f0b501;
      }
    </style>
  </defs>
  <path class="st0" d="M144.98,181.29h61.52c25.36,1.51,35.58,20.71,22.65,42.72-.83,1.41-7.62,11-7.22,11.55,20.82,9.88,34,33.07,25.19,55.87-6.95,17.99-25.35,27.05-43.95,27.43l-58.19-.02v-137.55ZM197.96,199.5h-20.63v100.74h13.94c11.12,0,20.96-9.24,23.42-19.7,3.67-15.59-1.2-35.01-18.78-38.67,3.56-6.37,8.84-12.38,12.33-18.7,3.48-6.3,3.63-12.57-1.19-18.27-1.81-2.14-6.31-5.02-9.1-5.4Z"/>
  <path class="st0" d="M29,181.29h61.52c21.64.92,34.29,17.15,25.04,38.05-2.58,5.83-7.04,10.59-9.98,16.22,1.73.51,3.31,1.49,4.8,2.45,41.39,26.63,24.15,80.45-23.56,80.84l-57.82-.02v-137.55ZM81.97,199.5h-21v100.74h14.31c9.54,0,19.37-7.78,22.4-16.63,5.38-15.72.67-37.84-17.75-41.74,5.18-10.98,21.48-23.46,11.51-36.23-1.95-2.49-6.31-5.69-9.47-6.14Z"/>
  <path class="st0" d="M471,318.83h-36.62l-9.33-29.76-50.31.04-9.12,29.72h-20.63l41.86-137.57c8.57.38,17.46-.43,26,0,9.55.49,11.96,1.75,15.42,10.6l42.74,126.96ZM418.59,269.02l-18.59-62.08-18.4,62.08h36.99Z"/>
  <path class="st1" d="M267.47,181.29c10.99,1.01,12.71,12.48,15.53,21.28,8.79,27.45,16.22,55.37,24.99,82.82l31.04-104.09h21.56l-41.67,137.51-32.51.06-45.15-137.57h26.21Z"/>
</svg>