<?xml version="1.0" encoding="UTF-8"?>
<svg id="Layer_1" xmlns="http://www.w3.org/2000/svg" version="1.1" viewBox="0 0 500 500">
  <!-- Generator: Adobe Illustrator 29.2.1, SVG Export Plug-In . SVG Version: 2.1.0 Build 116)  -->
  <defs>
    <style>
      .st0 {
        fill: #0d2139;
      }
    </style>
  </defs>
  <path class="st0" d="M86.53,284.84c0-57.53.09-115.07-.06-172.6-.05-15.12,5.48-25.59,19.5-33.02,24.87-13.18,48.85-28.07,73.3-42.07,10.11-5.78,20.46-7.03,31.12-.75,33.49,19.76,67.02,39.49,100.65,59.02,27.17,15.76,54.5,31.21,81.75,46.83,3.25,1.86,6.58,3.64,9.54,5.89,7.08,5.34,11.36,11.87,11.14,21.53-.7,30.99.78,61.99.17,93.01-.22,11.28-4.75,18.71-13.28,24.07-13.93,8.76-28.34,16.79-42.58,25.06-13.61,7.87-27.34,15.53-40.91,23.46-8.03,4.7-16.04,4.97-24.14.59-25.03-13.54-49.38-28.21-73.67-43.02-5.53-3.37-11.31-6.36-16.98-9.5-1.45-.81-3.75-.87-3.7-3.11.05-2.08,2.2-2.53,3.64-3.36,16.64-9.62,33.31-19.17,49.97-28.74,15.78-9.06,31.54-18.17,47.35-27.18,4.09-2.33,4.42-4.36.11-6.8-31.93-18.03-64.05-35.71-94.95-55.49-2.45-1.58-5.28-3.86-8.2-2.22-3.12,1.75-1.86,5.44-1.84,8.3.34,37.74.94,75.5,1.19,113.24.23,36.71,0,73.44.25,110.15.08,12.58-5.47,21.28-16.09,27.45-28.24,16.42-56.41,33.01-84.64,49.47-2.31,1.34-4.91,3.7-7.48,2.33-2.39-1.28-1.09-4.53-1.09-6.89-.08-58.58-.06-117.12-.05-175.65Z"/>
</svg>