<?xml version="1.0" encoding="UTF-8"?>
<svg id="Layer_1" xmlns="http://www.w3.org/2000/svg" version="1.1" viewBox="0 0 500 500">
  <!-- Generator: Adobe Illustrator 29.2.1, SVG Export Plug-In . SVG Version: 2.1.0 Build 116)  -->
  <defs>
    <style>
      .st0 {
        fill: #0d2139;
      }

      .st1 {
        fill: #f0b501;
      }
    </style>
  </defs>
  <path class="st0" d="M377.49,64.81l11.2,355.97-2.81-11.18c-10.01-51.15-16.05-105.59-40.78-152-5.59-5.04-7.02-11.37-19.61-22.43l-.49-1.64c-5.32-2.66-9.89-2.44-15.53-1.17-35.6,7.97-104.89,71.59-133.58,97.61-45.34,41.14-87.84,85.42-134.37,125.2L377.49,64.81Z"/>
  <path class="st1" d="M254.11,299.4c28.43-3.86,21.1,20.24,8.97,34.57-9.43,11.13-32.92,27.11-47.95,21.6-13.19-4.84-5.15-22,.45-29.91,7.49-10.57,25.51-24.5,38.53-26.26Z"/>
  <path class="st1" d="M446.09,141.8c3.57-.56,10.53-1.13,11.85,2.96,3.66,11.28-12.31,25.29-21.82,28.67-16.76,5.95-19.92-5.89-10.6-17.8,4.26-5.44,13.67-12.74,20.57-13.83Z"/>
  <path class="st1" d="M337.88,230.12c4.44-.52,13.05-.82,14.4,4.75,3.71,15.37-16.98,33.13-28.94,37.04-21.08,6.89-24.13-9.21-11.8-24.58,5.64-7.02,17.76-16.19,26.34-17.2Z"/>
</svg>