<?xml version="1.0" encoding="UTF-8"?>
<svg id="Layer_1" xmlns="http://www.w3.org/2000/svg" version="1.1" viewBox="0 0 500 500">
  <!-- Generator: Adobe Illustrator 29.2.1, SVG Export Plug-In . SVG Version: 2.1.0 Build 116)  -->
  <defs>
    <style>
      .st0 {
        fill: #0d2139;
      }

      .st1 {
        fill: #f0b501;
      }
    </style>
  </defs>
  <path class="st0" d="M328.46,268.83c25.89,6.24,50.1,15.57,71.92,30.48,10.62,7.26,20.14,15.76,27.97,26,20.85,27.27,19.49,57.97-3.65,84.47-16,18.32-36.38,30.26-58.51,39.49-26.31,10.97-53.76,17.22-82.12,19.97-26.6,2.59-53.17,2.61-79.57-1.23-36.31-5.29-71.06-15.48-102.12-35.86-12.66-8.3-24.01-18.13-32.78-30.6-18.05-25.65-16.46-51.98,2.38-76.43,13.5-17.51,31.52-29.49,51.17-39.04,14.58-7.08,29.9-12.28,45.48-16.75,2.8-.8,3.05-.56,2.94,2.51-.3,8.13-4.44,12.04-11.84,14.84-11.89,4.5-22.69,11.18-30.59,21.55-9.49,12.46-9.25,25.24.51,37.5,9.08,11.41,21.32,18.35,34.42,23.94,21.61,9.21,44.34,13.18,67.68,14.77,18.38,1.25,36.64.68,54.8-2,25.96-3.84,51.05-10.38,72.93-25.84,4.93-3.49,9.43-7.47,12.96-12.43,7.65-10.73,7.84-21.29.28-32.12-8.81-12.62-21.36-20.44-35.07-26.7-7.78-3.55-9.76-7.08-9.2-16.51Z"/>
  <path class="st0" d="M187.17,288.6c-1.09-32.53,25.87-61.73,60.94-62.01,35.06-.28,63.05,27.73,62.6,62.46-.44,33.92-26.92,61.59-62.38,61.39-37.13-.21-62.23-31.29-61.17-61.84Z"/>
  <path class="st0" d="M268.72,90.88c.9,30.76-24.44,61.6-61.68,61.88-33.4.25-61.48-27.72-61.91-60.48-.45-34.6,26.48-63.53,62.05-63.34,37.89.2,62.4,31.53,61.54,61.94Z"/>
  <path class="st1" d="M245.12,193.41c-.5-32.62,24.73-58.4,54.26-62.13,33.61-4.25,65.33,19.16,70.17,52.59,4.32,29.82-12.64,58.25-40.75,68.55-3.06,1.12-4.45.9-6.19-2.31-15.61-28.63-39.92-43.48-72.48-44.54-3.94-.13-4.98-1.66-5-4.96-.02-2.4,0-4.8,0-7.21Z"/>
</svg>