<?xml version="1.0" encoding="UTF-8"?>
<svg id="Layer_1" xmlns="http://www.w3.org/2000/svg" version="1.1" viewBox="0 0 500 500">
  <!-- Generator: Adobe Illustrator 29.2.1, SVG Export Plug-In . SVG Version: 2.1.0 Build 116)  -->
  <defs>
    <style>
      .st0 {
        fill: #0d2139;
      }

      .st1 {
        fill: #f0b501;
      }
    </style>
  </defs>
  <path class="st1" d="M452.44,233.1c-3.22-.2-22.21-13.31-28.94-16.18-47.69-20.39-101.62-35.3-153.7-38.05-87.36-4.62-175.51,4.06-258.38,31.65,1.2-3.38,8.63-5.63,12.01-7.13,138.88-61.78,304.5-55.2,439.35,16.13,2.04.93,3.4.3,4.18-1.71,1.33-1.72,10.47-20.3,13.66-16.29l4.52,31.58c-9.81.26-23.21.6-32.71,0Z"/>
  <path class="st0" d="M338.5,239.86l.04,9.03c10.76-8.6,31.81-11.68,36.11,4.51,54.49-38.8,44.77,28.95,36.2,62.18l-18.19.97c1.29-14.96,6.07-31.32,6.84-46.13.62-11.98.92-31.07-14.8-17.06-12.4,11.05-9.38,47.13-14.85,62.96l-17.82.24c-1.95-1.99,7.48-46.37,6.98-55.33-.32-5.63-.88-11.24-7.71-12.01-19.75,1.82-19.62,52.47-21.81,67.35h-18.07c-2.33-13.09,11.14-56.09,4.72-64.53-1.64-2.15-7.5-2.98-6.95-4.27l29.3-7.91Z"/>
  <path class="st0" d="M234.74,228.59c6.34,5.51-40.78,62.79-45.18,71-1.47,2.74-3.04,4.28-2.2,7.96h45.12l-2.26,11.28h-69.93l1.23-11.18,46.14-67.78h-49.63l2.26-11.28h74.44Z"/>
  <path class="st0" d="M266.33,239.89c-1.27,12.95-12.48,55.95-7.88,65.39,4.5,9.24,16.09,2.06,19.65-5.14,3.87-7.83,8.26-39.42,6.38-47.49l-9.1-5.98,31.55-6.78-11.51,76.44c-6.76-.34-16.79,3.77-18.91-4.26-46.86,25.73-36.1-31.78-32.64-59.42l-9.1-5.97,31.56-6.77Z"/>
  <path class="st0" d="M482.9,239.87l-9.02,76.71c-1.67,1.73-17.66-1.41-21.53-1.22-6.98.34-8.4,6.95-19.93.9-26.1-13.7-9.46-79.55,22.15-74.16,4.35.74,5.76,5.19,10.27,4.54l.13-6.54,17.93-.23ZM450.61,251.49c-12.1,3.49-19.54,58.37-4.96,58.43,12.65.05,17.29-46.02,14.35-55.05-1.38-4.24-5.56-4.49-9.39-3.39Z"/>
</svg>