<?xml version="1.0" encoding="UTF-8"?>
<svg id="Layer_1" xmlns="http://www.w3.org/2000/svg" version="1.1" viewBox="0 0 500 500">
  <!-- Generator: Adobe Illustrator 29.2.1, SVG Export Plug-In . SVG Version: 2.1.0 Build 116)  -->
  <defs>
    <style>
      .st0 {
        fill: #0d2139;
      }
    </style>
  </defs>
  <path class="st0" d="M245.01,34.04h19.02c-.36.25-1.02.5-1.04.76-.02.91.87.83,1.42.82,2.91-.16,5.68.58,8.5,1.1,5.86,1.09,11.44,3.15,16.56,5.92,11.96,6.5,21.93,15.25,27.78,27.92,3.09,6.67,5.48,13.54,5.43,21.05,0,1.07.25,2.16.31,3.23.14,2.42,1.12,2.5,3.2,1.61,6.01-2.57,12.29-4.6,18.78-5.27,8.11-.85,16.15.25,23.82,3.18,6.61,2.53,11.81,6.96,15.71,12.78,2.94,4.38,4.79,9.24,5.76,14.53,1.5,8.04,1.12,15.8-1.54,23.55-.58,1.68-2.31,3.43-1.2,5.27,1.09,1.76,2.68,3.27,4.22,4.71,7.45,6.93,16.67,11.52,24.24,18.32,5.93,5.34,11.76,10.8,16.2,17.44,5.65,8.45,9.96,17.5,11.19,27.88,1.2,10.07-.33,19.44-5.59,28.11-2.9,4.77-7.18,8.44-10.64,12.77-1.12,1.4-1.29,2.5-.66,3.81,3.21,6.75,4.97,13.87,5.97,21.28,1.54,11.41-.61,22.15-5.49,32.36-3.57,7.48-9.24,13.6-13.93,20.35-1.81,2.6-3.84,4.9-6.78,6.3-1.68.8-2.17,2.28-2.19,4.2-.13,13.33-3.67,25.75-10.56,37.13-5.19,8.58-11.6,16.17-19.77,22.13-5.34,3.89-10.75,7.52-17.02,9.93-4.63,1.78-9.22,3.64-13.93,5.24-6.22,2.13-12.28,4.74-18.64,6.49-4.38,1.21-8.66,2.71-12.99,4.09-5.76,1.86-11.52,3.73-17.27,5.62-4.05,1.32-8.36,2.09-11.98,4.42-8.7,5.62-16.48,12.47-24.35,19.16-4.64,3.95-11.41,5.19-15.49,1.61-4.01-3.54-8.41-6.61-12.45-10.12-4.05-3.51-8.14-7-12.55-10.01-5.65-3.86-12.48-5.04-18.84-7.26-6.22-2.17-12.48-4.16-18.72-6.26-7-2.38-14.03-4.68-20.98-7.23-6.19-2.27-12.4-4.45-18.35-7.21-9.54-4.44-17.85-10.69-25.06-18.4-12.75-13.66-20.09-29.62-20.38-48.45-.05-3.4-.61-5.78-3.59-7.89-5.18-3.68-8.15-9.38-11.81-14.42-2.68-3.7-5.49-7.34-7.35-11.52-2.8-6.36-5.27-12.78-5.46-19.94-.19-7.23-.11-14.37,1.73-21.41,1.15-4.41,3.01-8.55,4.8-12.72.35-.8.54-1.54-.03-2.28-1.1-1.43-2.13-2.93-3.32-4.27-6.23-6.94-11.54-14.06-12.94-23.94-.88-6.26-.54-12.2.5-18.15,1.68-9.67,6.44-18.12,12.53-25.66,8.01-9.9,17.6-18.13,28.35-24.98,6.04-3.84,11.43-8.44,16.07-13.92.82-.96,1.31-1.76.72-3.34-1.12-2.99-2.11-6.19-2.33-9.35-.54-7.74-.05-15.39,3.12-22.73,4.49-10.42,12.25-16.98,22.97-20.23,3.48-1.05,6.63-2.16,9.19-5.21,4-4.77,8.89-8.74,14.04-12.31,7.98-5.56,17.03-8.41,26.3-10.83,3.05-.8,6.08-1.59,8.64-4,5.38-5.08,10.59-10.37,17.09-14.21,5.02-2.98,10.34-5.13,15.74-7.19,4.11-1.56,8.37-2.42,12.75-2.91.82-.08,2.31.09,2.57-1.45ZM273.79,207.77h.02c0-5.7-.28-11.41.08-17.09.41-6.58,2.38-9.92,7.23-10.45,8.26-.91,16.58-.93,24.86-.06,4.01.43,4.9,2.3,2.42,5.43-4.16,5.26-9.48,9.35-14.25,13.98-2.77,2.69-6.31,5.3-6.61,9.19-.54,7.05-1.01,14.23.88,21.25,1.39,5.12,6,8.96,10.42,8.15,2.98-.55,5.9-1.35,8.69-2.71,8.94-4.33,14.4-11.77,18.76-20.27,1.68-3.29,2.79-6.78,2.91-10.52.22-7.27-2.86-13.36-7.49-18.59-6.06-6.86-12.44-13.44-18.79-20.02-4.69-4.86-9.52-9.57-14.36-14.29-3.9-3.83-8.17-3.78-11.99.02-3.45,3.43-6.85,6.91-10.36,10.26-9.07,8.67-20.24,9.05-29.94,1.83-4.71-3.51-8.45-8.04-12.61-12.14-2.11-2.08-4.49-3.16-7.48-2.6-2.93.55-4.75,2.71-6.67,4.68-5.78,5.9-11.35,12.01-17.28,17.77-5.71,5.57-11.62,11.02-16.36,17.52-2.38,3.26-3.98,6.93-4.74,10.92-1.37,7.35,1.39,13.82,5.04,19.76,5.37,8.69,12.4,15.54,22.9,18.04,6.44,1.53,10.37-1.92,12.25-7.45,1.87-5.53,1.1-11.27,1.34-16.89.14-3.46-.25-6.93-3.04-9.96-5.57-6.09-12.17-11.1-17.54-17.36-.96-1.13-2.42-2.22-1.61-3.94.77-1.62,2.5-1.94,4.12-2.08,7.48-.63,14.94-.83,22.43-.08,5.49.57,7.74,2.16,8.86,7.48.17.79.09,1.62.09,2.44,0,10.14-.14,20.27.06,30.4.11,5.82.87,11.62,3.67,16.92.63,1.2,1.34,2.36,2.82,1.92,4.41-1.29,8.93-1.02,13.4-.96,6.75.11,13.57-.69,20.26.6,2.68.52,3.9-.6,4.71-2.64,1.7-4.34,2.91-8.82,2.9-13.54,0-4.96,0-9.93,0-14.91ZM383.54,348.25c.66-4.25-.49-8.34-1.28-12.36-2.41-12.23-8.74-22.65-16.17-32.44-5.7-7.52-12.69-13.9-18.86-21-2.25-2.58-4.8-4.85-6.97-7.52-3.86-4.74-7.76-9.41-10.59-14.88-.46-.87-1.16-1.48-2.13-1.45-1.13.03-1.2,1.12-1.57,1.92-3.51,7.35-3.13,15.21-2,22.79,1.23,8.23,4.16,16.12,8,23.6,4.88,9.48,9.68,19,14.72,28.41,3.49,6.53,5.67,13.54,6.23,20.76.54,6.69.49,13.49-.36,20.26-1.01,8.04-2.27,15.96-6.2,23.19-.3.55-.68,1.24-.2,1.75.54.6,1.2-.02,1.7-.27,6.83-3.43,13.11-7.56,18.65-12.95,11.27-10.96,16.51-24.35,17.03-39.81ZM151.57,400.24c-1.95-6.08-4.22-11.48-5.16-17.35-1.4-8.88-1.53-17.77-1.23-26.68.11-3.45.72-6.99,1.76-10.28,2.24-7.05,5.57-13.66,9.16-20.13,8.08-14.59,16.78-28.84,19.25-45.85,1.05-7.24.66-14.06-2.11-20.75-.77-1.86-2.28-1.87-3.29-.08-4.55,8.03-10.67,14.8-17.03,21.38-8.3,8.56-16.89,16.81-23.75,26.67-6.72,9.65-11.7,19.8-13.69,31.61-1.56,9.21-.6,18.01,2.28,26.48,4.3,12.64,12.73,22.42,23.74,29.96,2.98,2.06,6.09,3.86,10.07,5.04ZM330.68,366.87c0-2.25.28-4.56-.05-6.77-1.16-7.59-2.69-15.11-5.81-22.18-3.87-8.78-9.04-16.72-16.36-23.06-2.47-2.14-3.64-1.61-4.27,1.56-1.43,7.13-2.13,14.34-2.96,21.55-1.1,9.38-1.81,18.79-2.86,28.16-.85,7.6-2.06,15.08-4.14,22.37-2.86,10.04-6.12,19.99-11.24,29.18-.36.66-.77,1.39-.35,2.01.44.69,1.31.46,2,.28,5.89-1.46,11.66-3.23,17.16-5.87,9.57-4.6,17.44-11.08,22.53-20.45,4.47-8.28,6.58-17.3,6.34-26.79ZM214.67,418.96c-.54-1.76-.88-3.31-1.48-4.75-3.76-8.94-7.49-17.82-9.79-27.34-2.08-8.58-2.96-17.24-4.08-25.91-.46-3.53-.22-7.04-.58-10.53-.68-6.71-1.4-13.4-2.01-20.1-.49-5.35-1.64-10.56-2.58-15.84-.47-2.61-1.72-1.98-3.16-1.04-.52.35-.9.88-1.35,1.31-6.67,6.28-11.82,13.6-15.6,21.97-3.94,8.75-6.08,17.87-6.67,27.37-.41,6.52.49,12.92,2.28,19.17,1.5,5.18,3.87,9.95,7.05,14.31,5.29,7.24,12.23,12.42,20.26,16.21,5.57,2.66,11.43,4.33,17.72,5.16ZM404.68,316.28c3.35-3.67,4.85-7.95,6.33-12.42,3.1-9.33,1.95-18.31-.88-27.36-1.73-5.56-4.71-10.44-8.2-14.99-5.37-7-11.92-12.84-18.94-18.15-5.19-3.92-10.78-7.3-15.65-11.7-3.75-3.38-6.82-7.32-9.76-11.38-1.15-1.59-2.08-1.5-3.24.14-3.31,4.64-4.31,10-4.49,15.43-.27,8.34,2.53,15.95,6.71,23.09,5.37,9.19,12.94,16.53,20.34,23.99,5.27,5.32,10.69,10.45,15.38,16.32,4.34,5.45,7.81,11.52,12.4,17.02ZM150,235.27c.28-1.5-.46-2.85-.6-4.28-.41-4.17-1.79-8.01-4.08-11.52-.79-1.23-1.87-2.03-3.12-.41-1.15,1.5-2.16,3.09-3.37,4.52-6.69,8.03-15.49,13.51-23.8,19.57-6.93,5.05-13.36,10.61-18.42,17.54-7.34,10.03-11.35,21.09-10.36,33.86.5,6.53,2.64,12.28,5.7,17.83.96,1.75,2.31,1.89,3.59.22,1.46-1.94,2.88-3.9,4.3-5.86,5.68-7.84,11.48-15.57,18.65-22.13,8.41-7.7,16.5-15.63,23.05-25.08,5.13-7.41,7.38-15.58,8.45-24.26ZM217.12,66.59c5.68.87,10.64,1.29,15.43,2.41,7.54,1.76,15.05,3.81,21.96,7.46,6.88,3.64,13.52,7.49,18.57,13.76,8.61,10.67,10.01,22.12,4.71,34.6-.3.69-1.01,1.65-.39,2.24.47.44,1.62.55,2.31.33,5.92-1.89,11.6-4.23,16.12-8.77,4.53-4.56,6.99-10.12,8.66-16.28,2.27-8.39.3-16.24-3.32-23.44-4.27-8.45-11.19-14.83-19.71-19.28-6.97-3.65-14.45-5.78-22.23-6.52-8.59-.82-17.05.36-25.17,3.32-6.01,2.17-11.43,5.43-16.94,10.17ZM425.46,224.24c.24-7.51-2.85-14.7-7.41-21.38-5.53-8.11-12.61-14.7-20.61-20.23-7.45-5.13-14.89-10.22-21.12-16.86-1.04-1.1-1.78-.61-2.63.36-2.98,3.35-4.22,7.52-4.75,11.71-1.28,9.81,1.51,18.76,6.86,26.98,6.31,9.68,15.03,16.73,24.93,22.37,6.01,3.42,11.93,6.89,17.17,11.43,2.61,2.27,3.01,1.97,4.79-1.13,2.24-3.92,2.8-8.11,2.77-13.25ZM131.58,181.2c-.2-2.28-.28-4.63-.68-6.91-.58-3.38-2.2-6.39-4.17-9.18-.66-.94-1.29-1.61-2.72-.36-2.98,2.58-5.59,5.53-8.75,7.9-7.54,5.67-16.01,10.04-22.89,16.65-7.62,7.34-14.15,15.3-17.09,25.75-2.11,7.52-1.35,14.67,2.01,21.58,1.28,2.63,2.41,2.68,4.38.52,3.1-3.4,6.88-5.98,10.85-8.14,10.11-5.51,19.9-11.43,27.48-20.29,6.75-7.87,11.22-16.83,11.59-27.53ZM233.08,403.72c-.47,6.93.8,14.12,3.84,20.92,3.15,7.04,8,12.31,15.8,14.31,2.09.54,2.82-.03,2.64-2.19-.36-4.79.16-9.52,1.39-14.15,1.78-6.71,4.52-13.11,5.76-19.99,1.48-8.2,3.51-16.29,2.05-24.76-.98-5.71-1.65-11.44-4.38-16.72-3.32-6.42-8.22-11-15.1-13.36-3.04-1.04-3.87-.41-3.59,2.64.09,1.09.13,2.17.17,3.24.22,6.47-1.72,12.53-3.57,18.61-3.09,10.11-5.41,20.29-5.02,31.45ZM165.02,95.7c.91.33,1.4.58,1.92.68,10.96,1.7,21.12,5.78,31.17,10.22,12.14,5.37,24.68,8.64,38.11,6.75,7.29-1.02,14.29-3.01,20.75-6.66,1.57-.88,2.31-1.64.65-3.4-7.6-8.08-16.75-13.71-27.06-17.55-4.25-1.59-8.59-3.01-13-4.11-4.16-1.04-8.45-1.95-12.75-1.7-7.49.43-14.84,1.64-21.88,4.6-6.42,2.72-12.37,6.11-17.9,11.18ZM250.18,327.3c8.99.22,17.38-.66,25.17-4.83,6.88-3.68,9.48-12.7,3.13-18.37-2.14-1.92-4.63-3.42-7.3-4.45-8.7-3.38-17.61-5.18-27.07-3.89-6.88.94-13.47,2.41-19.44,6.12-5.73,3.56-7.87,8.69-5.67,14.39,1.59,4.14,5.13,6.33,9.07,7.78,7.24,2.66,14.77,3.62,22.12,3.26ZM151.81,108.87c-3.45-.25-7.67.28-11.43,2.36-9.76,5.37-11.16,14.73-9.52,25,.98,6.08,4.2,11.52,7.7,16.65,1.56,2.28,2.9,4.74,5.07,6.56,2.3,1.94,3.87,1.59,4.91-1.21.74-2,.5-4.14.24-6.17-.71-5.18-1.51-10.29.08-15.49,1.01-3.29,2.74-5.76,6-6.89,4.05-1.4,8.01-.24,11.82.98,6.44,2.05,12.69,4.68,19.31,6.2,2.35.54,4.45.49,5.89-1.39,1.51-1.97-.22-3.7-1.18-5.32-2.72-4.63-6.55-8.25-10.86-11.4-8.09-5.95-16.87-10.01-28.02-9.89ZM350.62,110.13c-3.35-.36-6.63-.09-9.73.76-8.14,2.25-15.38,6.26-21.44,12.18-2.94,2.86-6.26,5.51-7.81,9.51-1.34,3.51-.19,5.18,3.54,5.19,1.68.02,3.45-.16,5.02-.72,6.72-2.41,13.54-4.52,20.38-6.53,4.6-1.35,9.68-.39,12.06,2.82,1.62,2.17,2.58,4.66,2.58,7.41,0,5.05.16,10.09-.98,15.08-.49,2.13.24,4.53,1.98,5.56,2.05,1.18,3.42-.9,4.82-2.35,4.33-4.45,6.61-10.14,9.37-15.52.96-1.87,1.76-3.83,2.28-5.93,1.01-4.08.49-8.12-.19-12.06-.55-3.18-1.59-6.42-4.01-8.94-4.93-5.16-10.99-7.12-17.88-6.45ZM258.02,273.48c0,1.54.13,3.09-.03,4.61-.22,2.01.82,2.8,2.55,3.02,4.31.57,8.23,2.25,11.88,4.49,4.47,2.72,9.27,4.25,14.39,2.9,7.46-2,12.04-6.85,13.82-14.62,1.5-6.55-1.34-16.04-8.25-18.53-3.32-1.2-6.69-1.89-10.11-2.44-4.01-.65-7.23.58-9.87,3.97-2.3,2.93-5.08,5.64-8.64,7.07-4.44,1.79-7.41,4.2-5.75,9.54ZM241.83,273.68c0-1.26-.11-2.55.03-3.79.2-2-.43-3.27-2.31-4.22-5.73-2.86-10.66-6.83-14.64-11.87-.69-.87-1.48-.85-2.38-.93-4.55-.33-8.96.63-13.25,1.78-3.73.99-7.04,3.37-8.55,6.91-2.58,6.11-2.47,12.4.85,18.37,4.27,7.63,14.07,11.55,22.71,7.16,3.49-1.78,6.89-3.83,10.7-4.82,6.67-1.73,6.69-1.65,6.83-8.59Z"/>
</svg>