<svg width="24" height="22" viewBox="0 0 24 22" fill="none" xmlns="http://www.w3.org/2000/svg">
<path d="M4.79008 21.8001H23.7052V19.009L21.5364 14.9167L20.254 15.5956L22.253 19.3673V20.348H19.0471L19.8014 11.2959H3.69629L4.79008 21.8001ZM18.2362 12.748L17.595 20.348H6.09132L5.29926 12.748H18.2362Z" fill="#182F48"/>
<path d="M16.9159 5.05408C16.9159 2.26302 14.6529 0 11.8618 0C9.07076 0 6.80774 2.26302 6.80774 5.05408C6.80774 7.84513 9.07076 10.1082 11.8618 10.1082C14.6529 10.1082 16.9159 7.84513 16.9159 5.05408ZM8.24098 5.05408C8.24098 3.05508 9.86282 1.43325 11.8618 1.43325C13.8608 1.43325 15.4826 3.05508 15.4826 5.05408C15.4826 7.05308 13.8608 8.67491 11.8618 8.67491C9.86282 8.67491 8.24098 7.05308 8.24098 5.05408Z" fill="#182F48"/>
<path d="M3.4511 15.6145L2.16873 14.9355L0 19.009V21.8H3.18709V20.3668H1.4521V19.3862L3.4511 15.6145Z" fill="#182F48"/>
<path d="M11.6733 17.1239C12.0899 17.1239 12.4276 16.7862 12.4276 16.3696C12.4276 15.953 12.0899 15.6152 11.6733 15.6152C11.2567 15.6152 10.9189 15.953 10.9189 16.3696C10.9189 16.7862 11.2567 17.1239 11.6733 17.1239Z" fill="#182F48"/>
</svg>
