<?xml version="1.0" encoding="UTF-8"?>
<svg id="Layer_1" xmlns="http://www.w3.org/2000/svg" version="1.1" viewBox="0 0 500 500">
  <!-- Generator: Adobe Illustrator 29.2.1, SVG Export Plug-In . SVG Version: 2.1.0 Build 116)  -->
  <defs>
    <style>
      .st0 {
        fill: #0d2139;
      }

      .st1 {
        fill: #f0b501;
      }
    </style>
  </defs>
  <path class="st0" d="M229.22,415.78c-5.04,3.96-17.48-1.58-23.11-3.44-156.54-51.59-151.44-283.52,6.87-327.32,9.29-2.57,12.72-4.62,18.03,4.43,9.2,15.68,16.51,37.91,26.37,52.39,2.77,4.07,6.17,6.92,11.07,3.97l29.75-58.58c2.81-3.8,8.27-3.77,12.51-2.96,26.18,4.98,64.84,32.93,82.22,52.95,78.06,89.95,41.58,233.22-69.76,274.08-7.43,2.73-21.12,8.94-26.44.94l-26.29-53.54c-7.22-6.93-10.92-2.55-14.7,4.33-8.53,15.5-14.88,32.48-23.3,48.01-.52.96-2.62,4.28-3.22,4.75ZM186.33,190.88c-3.44,4.52-8.87,12.95-11.27,18-.98,2.05-5.04,12.52-5.02,14.06.11,8.31,16.43,10.87,22.68,9.99,13.44-1.89,17.99-14.77,25.63-23.33,21.57-24.19,60-25.57,84.13-4.27,9.71,8.56,14.31,24.03,28.17,27.18,6.68,1.52,22.98-.28,24.31-8.75.57-3.64-8.21-21.22-10.65-25.13-34.99-56.13-117.81-60.53-157.97-7.74ZM218.26,290.09c-6.53-7.38-9.98-17.95-20.35-21.72-7.71-2.8-24.63-2.33-27.56,7.21-.76,2.47,4.68,14.09,6.27,17.28,19.83,39.81,65.02,60.3,108.5,50.57,4.6-1.03,8.81-3.63,13.61-3.97l-1.08-2.11c3.89,1.31,8.13-1.81,11.73-3.71,17.47-9.23,33.68-27.38,41.49-45.79,1.88-4.43,6.04-11.93,2.09-15.94-.51-.52-7.36-4.41-8.17-4.6-26.64-6.02-30.45,18.5-47.21,31.11-23.36,17.56-60.07,13.43-79.32-8.32Z"/>
  <path class="st1" d="M186.33,190.88c40.16-52.8,122.98-48.39,157.97,7.74,2.44,3.91,11.22,21.49,10.65,25.13-1.33,8.47-17.63,10.28-24.31,8.75-13.85-3.16-18.46-18.62-28.17-27.18-24.13-21.29-62.56-19.92-84.13,4.27-7.63,8.56-12.18,21.44-25.63,23.33-6.25.88-22.57-1.68-22.68-9.99-.02-1.54,4.04-12,5.02-14.06,2.4-5.05,7.84-13.48,11.27-18Z"/>
  <path class="st1" d="M218.26,290.09c19.25,21.76,55.97,25.88,79.32,8.32,16.76-12.6,20.58-37.13,47.21-31.11.81.18,7.66,4.08,8.17,4.6,3.94,4.01-.21,11.5-2.09,15.94-7.81,18.41-24.02,36.56-41.49,45.79-3.6,1.9-7.84,5.02-11.73,3.71l1.08,2.11c-4.8.35-9.01,2.94-13.61,3.97-43.48,9.73-88.67-10.76-108.5-50.57-1.59-3.19-7.03-14.81-6.27-17.28,2.93-9.53,19.85-10.01,27.56-7.21,10.37,3.77,13.82,14.33,20.35,21.72Z"/>
</svg>