<?xml version="1.0" standalone="no"?>
<!DOCTYPE svg PUBLIC "-//W3C//DTD SVG 20010904//EN"
 "http://www.w3.org/TR/2001/REC-SVG-20010904/DTD/svg10.dtd">
<svg version="1.0" xmlns="http://www.w3.org/2000/svg"
 width="1042.000000pt" height="1042.000000pt" viewBox="0 0 1042.000000 1042.000000"
 preserveAspectRatio="xMidYMid meet">

<g transform="translate(0.000000,1042.000000) scale(0.100000,-0.100000)"
fill="#000000" stroke="none">
<path d="M4820 9803 c-304 -23 -662 -94 -975 -193 -247 -79 -621 -237 -843
-357 l-85 -47 39 -13 c143 -51 429 -67 674 -39 551 64 1178 275 1529 516 47
32 104 77 126 99 l39 41 -229 -2 c-127 -1 -250 -3 -275 -5z"/>
<path d="M6098 9706 c-23 -8 -79 -53 -144 -115 -188 -180 -449 -361 -737 -511
-259 -135 -481 -210 -827 -280 -334 -67 -477 -84 -715 -84 l-210 1 -451 76
c-249 42 -473 77 -498 77 -122 0 -270 -105 -467 -331 l-48 -56 172 5 c134 3
214 -1 362 -17 322 -37 503 -61 680 -91 465 -80 871 -95 1292 -50 549 60 1149
328 1626 726 131 110 465 430 489 469 23 38 23 41 -5 59 -21 14 -448 137 -472
136 -5 -1 -27 -7 -47 -14z"/>
<path d="M7230 9301 c-93 -31 -181 -104 -434 -367 -236 -244 -389 -371 -671
-557 -219 -143 -421 -241 -689 -333 -475 -163 -975 -208 -1526 -138 -117 15
-176 25 -515 88 -460 87 -937 108 -1279 56 -189 -28 -472 -102 -568 -147 -100
-46 -152 -101 -246 -259 -82 -138 -257 -492 -248 -502 4 -3 109 44 234 106
210 104 528 232 702 283 82 24 356 74 515 94 173 22 482 29 680 16 198 -13
339 -35 830 -130 383 -74 506 -91 669 -91 419 1 1026 154 1450 367 117 59 385
218 506 301 152 104 233 177 633 573 443 439 419 398 305 508 -97 94 -171 133
-257 137 -36 2 -77 0 -91 -5z"/>
<path d="M8135 8681 c-88 -22 -145 -70 -530 -451 -346 -342 -417 -406 -632
-567 -371 -278 -844 -490 -1303 -583 -243 -49 -416 -63 -725 -57 -367 8 -545
31 -1150 152 -176 36 -364 70 -419 76 -130 15 -518 6 -651 -16 -744 -120
-1350 -382 -1822 -787 -159 -135 -198 -244 -248 -683 -14 -121 -28 -239 -31
-262 -11 -71 -7 -69 201 157 312 337 757 665 1170 861 381 180 752 270 1243
300 208 13 427 1 687 -36 155 -23 263 -43 695 -134 415 -87 790 -92 1206 -15
617 113 1163 346 1574 674 58 46 191 167 295 269 530 518 535 523 678 620 76
52 145 105 154 117 19 29 9 51 -72 158 -116 155 -231 229 -320 207z"/>
<path d="M8836 7845 c-161 -96 -306 -219 -607 -511 -266 -257 -408 -383 -557
-491 -335 -245 -745 -451 -1094 -551 -307 -88 -473 -113 -801 -119 -421 -8
-643 16 -1092 117 -368 83 -493 106 -715 131 -247 28 -517 31 -640 6 -47 -9
-139 -23 -205 -32 -320 -41 -851 -219 -1168 -392 -238 -129 -368 -228 -687
-522 -118 -109 -270 -244 -338 -300 -67 -56 -140 -125 -163 -153 -81 -103
-119 -210 -119 -336 0 -74 32 -257 53 -302 37 -78 149 1 556 390 340 326 492
457 679 587 368 258 861 483 1241 568 426 95 996 91 1523 -10 73 -15 234 -50
358 -80 361 -86 535 -111 850 -122 134 -4 222 -2 280 6 272 40 839 187 1070
278 143 57 358 164 504 251 217 130 388 272 741 613 276 267 402 372 557 464
117 70 138 107 112 195 -14 49 -31 76 -137 225 -104 146 -107 147 -201 90z"/>
<path d="M9377 6881 c-128 -75 -235 -165 -638 -535 -241 -220 -399 -347 -589
-471 -414 -271 -665 -378 -1145 -490 -420 -97 -757 -108 -1233 -40 -214 31
-390 66 -781 155 -479 109 -508 113 -776 114 -289 1 -485 -25 -885 -115 -297
-67 -487 -133 -755 -265 -352 -173 -499 -279 -915 -664 -277 -257 -368 -333
-590 -503 -209 -159 -223 -177 -217 -282 6 -98 55 -223 113 -282 41 -43 46
-45 86 -41 24 3 72 19 108 37 126 62 460 331 743 597 251 236 334 309 453 399
273 207 632 388 1032 519 210 69 292 88 507 120 280 41 408 49 659 43 390 -10
539 -33 936 -142 343 -94 454 -115 736 -140 571 -50 1144 35 1659 247 133 55
395 177 474 220 191 106 382 255 634 494 274 260 343 319 467 402 95 63 119
85 138 122 38 72 28 142 -46 325 -76 191 -82 203 -97 209 -7 2 -42 -13 -78
-33z"/>
<path d="M9663 5721 c-32 -27 -123 -108 -202 -180 -264 -242 -387 -340 -621
-494 -366 -241 -712 -401 -1055 -488 -306 -78 -637 -115 -940 -106 -403 13
-700 62 -1215 201 -401 109 -501 125 -831 133 -313 7 -469 -9 -892 -93 -318
-63 -537 -136 -807 -270 -207 -102 -365 -208 -616 -410 -108 -88 -231 -186
-273 -218 -42 -33 -161 -130 -266 -216 -312 -256 -422 -333 -618 -431 -101
-51 -120 -65 -132 -93 -17 -41 -13 -55 54 -184 37 -71 73 -124 115 -168 56
-59 65 -64 103 -64 47 0 163 57 337 164 136 84 464 348 851 686 257 224 445
351 730 497 287 145 468 213 750 278 352 82 521 100 855 92 410 -10 745 -65
1247 -206 369 -104 515 -129 788 -138 164 -4 222 -2 425 21 404 46 587 83 884
182 341 112 550 212 811 385 267 178 614 473 645 550 11 26 11 68 -3 253 -10
121 -17 248 -17 282 0 99 -22 106 -107 35z"/>
<path d="M9500 4181 c-329 -224 -591 -340 -1043 -460 -493 -132 -972 -161
-1462 -90 -182 26 -327 59 -555 124 -563 163 -843 209 -1265 209 -344 0 -564
-28 -890 -111 -274 -70 -483 -153 -767 -305 -290 -154 -514 -316 -978 -705
-293 -245 -481 -371 -681 -458 -111 -48 -149 -80 -149 -123 0 -41 27 -77 143
-193 123 -122 176 -162 216 -162 36 0 217 98 381 208 152 102 268 192 594 462
426 353 598 474 877 612 302 151 666 256 1079 311 125 17 228 23 530 27 375 6
375 6 511 -21 192 -37 466 -106 659 -166 320 -99 570 -144 980 -175 98 -8 397
9 561 30 355 47 716 140 1009 259 196 80 222 96 249 145 54 98 203 626 188
665 -4 9 -14 16 -24 16 -10 0 -83 -44 -163 -99z"/>
<path d="M5425 3140 c-273 -19 -627 -93 -868 -181 -240 -88 -628 -276 -824
-397 -148 -92 -293 -201 -545 -409 -320 -264 -480 -379 -688 -493 -52 -29 -98
-55 -102 -59 -8 -7 171 -164 244 -213 61 -41 147 -84 187 -93 64 -14 110 10
327 173 115 87 290 222 389 301 321 258 488 373 731 505 433 235 824 363 1289
422 195 25 636 25 820 0 271 -36 570 -104 989 -222 288 -82 447 -119 606 -140
164 -21 660 -31 726 -15 65 17 124 60 178 131 68 91 218 347 214 367 -6 31
-56 34 -157 8 -235 -58 -520 -89 -836 -89 -386 -1 -646 47 -1176 214 -204 65
-470 123 -771 170 -165 25 -509 35 -733 20z"/>
<path d="M6001 2320 c-256 -18 -385 -41 -706 -126 -697 -185 -894 -290 -1601
-851 -111 -88 -243 -191 -293 -229 -107 -81 -110 -71 46 -145 174 -84 242
-103 363 -103 135 -1 160 11 328 156 245 210 487 371 757 503 190 93 294 133
518 200 203 61 281 79 547 127 l185 33 415 0 c466 -1 466 0 810 -81 269 -64
412 -106 517 -153 50 -23 104 -41 120 -41 35 0 126 53 201 117 69 59 136 143
124 155 -8 8 -138 42 -432 111 -58 13 -240 67 -405 120 -400 128 -528 158
-797 192 -150 19 -528 27 -697 15z"/>
<path d="M6410 1479 c-354 -19 -650 -89 -1071 -255 -331 -130 -914 -468 -914
-530 0 -17 10 -20 110 -26 61 -4 187 -18 280 -32 295 -45 367 -35 608 80 166
79 336 147 472 189 300 91 712 156 1090 171 189 7 234 19 390 96 118 59 329
200 312 210 -77 43 -393 85 -736 98 -282 11 -329 11 -541 -1z"/>
</g>
</svg>
