<?xml version="1.0" encoding="UTF-8"?>
<svg version="1.1" xmlns="http://www.w3.org/2000/svg" width="1042" height="1042">
<path d="M0 0 C3.3026088 3.15812629 6.01071884 6.23793713 8.48046875 10.078125 C9.17060059 11.13580078 9.86073242 12.19347656 10.57177734 13.28320312 C10.9552533 13.87270752 11.33872925 14.46221191 11.73382568 15.06958008 C14.17743044 18.79512026 16.68131379 22.48028886 19.17578125 26.171875 C20.33080144 27.88406583 21.48574719 29.59630688 22.640625 31.30859375 C23.86457422 33.12240199 25.0885328 34.9362039 26.3125 36.75 C27.60288795 38.66274465 28.8932521 40.57550536 30.18359375 42.48828125 C39.73149511 56.64113017 49.28336465 70.79130117 58.83569336 84.94116211 C70.67719277 102.48241257 82.51006367 120.02947985 94.34277344 137.57666016 C97.9809414 142.9718 101.61933987 148.36678437 105.2578125 153.76171875 C105.85553467 154.6479895 106.45325684 155.53426025 107.0690918 156.4473877 C108.87939062 159.13159443 110.68969433 161.81579788 112.5 164.5 C119.16315571 174.37968886 125.8263057 184.25938154 132.48883057 194.13949585 C144.82206628 212.4289113 157.15729756 230.71697156 169.5 249 C182.4537061 268.18809744 195.39900956 287.381855 208.34277344 306.57666016 C213.79135132 314.65650691 219.24045209 322.73600102 224.68951416 330.81552124 C227.7096976 335.29366633 230.72984708 339.77183433 233.75 344.25 C234.95833317 346.04166678 236.1666665 347.83333344 237.375 349.625 C239.79166667 353.20833333 242.20833333 356.79166667 244.625 360.375 C245.22311493 361.26185989 245.82122986 362.14871979 246.43746948 363.06245422 C247.64590519 364.85427304 248.85434025 366.64609229 250.06277466 368.43791199 C253.08203631 372.91475437 256.10130924 377.39158914 259.12060547 381.8684082 C264.57687528 389.95863941 270.03306188 398.04892668 275.48883057 406.13949585 C287.82206628 424.4289113 300.15729756 442.71697156 312.5 461 C325.4537061 480.18809744 338.39900956 499.381855 351.34277344 518.57666016 C356.79135132 526.65650691 362.24045209 534.73600102 367.68951416 542.81552124 C370.7096976 547.29366633 373.72984708 551.77183433 376.75 556.25 C377.95833317 558.04166678 379.1666665 559.83333344 380.375 561.625 C382.79166667 565.20833333 385.20833333 568.79166667 387.625 572.375 C388.2230545 573.26176926 388.82110901 574.14853851 389.43728638 575.06217957 C390.64633634 576.85491128 391.85538175 578.64764606 393.06442261 580.44038391 C396.07425426 584.90328053 399.08416357 589.36612473 402.09423828 593.82885742 C407.66299426 602.08526011 413.23108126 610.34211094 418.7963562 618.6008606 C420.72839216 621.46781033 422.66080802 624.33450371 424.59326172 627.20117188 C427.07823684 630.88761298 429.5614628 634.57522327 432.04345703 638.26367188 C437.04975321 645.69873547 442.0615184 653.127233 447.1875 660.48046875 C448.27732178 662.04994263 448.27732178 662.04994263 449.38916016 663.65112305 C450.66084181 665.47547186 451.94101248 667.29395045 453.23193359 669.10473633 C453.76125488 669.86423584 454.29057617 670.62373535 454.8359375 671.40625 C455.28501465 672.03853516 455.7340918 672.67082031 456.19677734 673.32226562 C457 675 457 675 456 678 C454.8615715 677.72312347 453.72314301 677.44624695 452.55021667 677.16098022 C403.14361401 665.14519745 353.73670995 653.13068983 304.3125 641.1875 C303.41747646 640.97121445 302.52245293 640.75492889 301.60030746 640.53208923 C290.21613423 637.78113919 278.83169969 635.0312714 267.44718647 632.28172874 C245.75468207 627.04259452 224.06263369 621.80157247 202.37066269 616.56023026 C198.50091397 615.62522083 194.63114993 614.69027486 190.76138306 613.75534058 C164.50522917 607.41171942 138.24989756 601.06477941 112 594.6953125 C110.96961042 594.44530676 109.93922085 594.19530102 108.87760735 593.93771935 C99.76815374 591.72743618 90.65876819 589.51687278 81.54959106 587.30545044 C57.64329511 581.50220714 33.73030963 575.72765213 9.80859375 569.98828125 C7.36206928 569.40113921 4.91554624 568.81399122 2.46902466 568.22683716 C-8.19132842 565.66876479 -18.85204909 563.11225921 -29.51425266 560.56190968 C-33.83953691 559.52687463 -38.16436436 558.48994057 -42.48908806 557.45256615 C-44.50592753 556.96928376 -46.52298046 556.48689125 -48.54025459 556.00542641 C-51.29307676 555.34835259 -54.04517592 554.68833159 -56.79711914 554.02758789 C-58.01212978 553.7387932 -58.01212978 553.7387932 -59.2516861 553.44416428 C-64.77200544 552.11399728 -64.77200544 552.11399728 -67 551 C-66.67 550.01 -66.34 549.02 -66 548 C-18.08660999 539.66188788 29.88275871 531.67997063 77.87232876 523.79354978 C85.6573907 522.51399159 93.44197789 521.23156349 101.22645807 519.94847143 C109.77143571 518.54008068 118.3166999 517.13343626 126.86210632 515.72764969 C130.4505037 515.1373089 134.03880567 514.5463932 137.62702942 513.95499802 C141.81034269 513.26561369 145.99390691 512.57777282 150.17766953 511.89112091 C151.70315571 511.64050731 153.22855697 511.38937617 154.75386429 511.13767624 C168.90379333 508.80333472 168.90379333 508.80333472 176 508 C174.63324526 501.26388223 172.7395626 494.91455856 170.46484375 488.43359375 C170.11471725 487.42360321 169.76459076 486.41361267 169.40385437 485.37301636 C168.25346662 482.05939176 167.09566364 478.74841402 165.9375 475.4375 C165.12195204 473.094743 164.3066896 470.75188658 163.49169922 468.40893555 C157.56578197 451.39423816 151.56725229 434.40527127 145.53442383 417.42822266 C140.44781859 403.11159182 135.41217408 388.77763557 130.39355469 374.43704224 C123.55117807 354.88685392 116.64150679 335.36337521 109.625 315.875 C102.59611415 296.35093089 95.70039929 276.78336722 88.875 257.1875 C88.64185215 256.51813793 88.4087043 255.84877586 88.16849136 255.1591301 C87.6987446 253.81046723 87.22900372 252.46180231 86.75926876 251.11313534 C85.60141888 247.78889984 84.44338536 244.46472838 83.28515625 241.140625 C82.9455358 240.16586055 82.9455358 240.16586055 82.59905434 239.17140388 C77.53961186 224.65325186 72.40947388 210.16053469 67.265625 195.67211914 C62.35012281 181.82503273 57.4671126 167.96676673 52.5970459 154.1036377 C46.33941783 136.29086905 40.04900879 118.49100611 33.67739868 100.71868896 C29.71459922 89.66071966 25.79282578 78.58890845 21.90625 67.50390625 C21.68555281 66.87449316 21.46485561 66.24508007 21.23747063 65.59659386 C18.8383731 58.75340289 16.44305198 51.90889869 14.05102539 45.06323242 C13.24368563 42.75568497 12.43631321 40.44814894 11.62890625 38.140625 C11.04798973 36.47583855 11.04798973 36.47583855 10.45533752 34.77742004 C8.55000243 29.33653583 6.60839332 23.91348863 4.58935547 18.51367188 C4.21020493 17.49513123 3.83105438 16.47659058 3.44041443 15.42718506 C2.72507897 13.51445341 2.0019172 11.60462406 1.26966858 9.69830322 C0.95501144 8.85652527 0.64035431 8.01474731 0.31616211 7.14746094 C0.03663193 6.41493103 -0.24289825 5.68240112 -0.53089905 4.92767334 C-1 3 -1 3 0 0 Z " fill="#1B475D" transform="translate(513,173)"/>
<path d="M0 0 C2.43460993 2.43460993 2.90671427 4.28976699 3.9609375 7.56469727 C4.53532059 9.33401863 4.53532059 9.33401863 5.12130737 11.13908386 C5.53935301 12.44814404 5.95724575 13.75725305 6.375 15.06640625 C6.81527167 16.4311337 7.25604816 17.79569838 7.69729614 19.16011047 C8.88991792 22.85360108 10.07463725 26.54958345 11.25778961 30.24611664 C12.25208201 33.3492292 13.2509755 36.45085242 14.24985695 39.55249023 C21.35408398 61.61448265 28.35577016 83.70844609 35.30859375 105.81860352 C40.79037595 123.23926972 46.37706786 140.62455596 52 158 C58.81002664 179.04439668 65.53325126 200.11412624 72.171875 221.21337891 C77.8745476 239.33291829 83.66092285 257.42397674 89.5 275.5 C95.71784324 294.74856894 101.86632332 314.01717174 107.9375 333.3125 C113.87373831 352.17737258 119.88268231 371.01712462 125.96478271 389.83535767 C127.23572288 393.76769149 128.50493862 397.7005805 129.77392578 401.63354492 C133.28805045 412.52266196 136.80563252 423.41056742 140.34957886 434.2900238 C141.69915197 438.43930193 143.04066088 442.59115401 144.38000488 446.7437439 C144.99545397 448.64538008 145.61460154 450.54582375 146.2376709 452.44497681 C147.08058909 455.0150798 147.91095124 457.58890736 148.73828125 460.1640625 C148.98610855 460.90880325 149.23393585 461.65354401 149.48927307 462.42085266 C151.44683572 468.59302407 151.44683572 468.59302407 150 472 C145.99869379 469.05429686 143.03208189 465.75110335 140.0625 461.8125 C135.81132556 456.28538524 131.45358163 450.86532893 127 445.5 C122.76300472 440.38571363 118.57933005 435.24096352 114.5 430 C109.30371889 423.32839767 103.93153451 416.80963005 98.54296875 410.29296875 C93.52503887 404.22238382 88.56875504 398.10191219 83.60888672 391.98388672 C80.90837253 388.65393553 78.20398205 385.3271353 75.5 382 C74.41664829 380.6666816 73.33331495 379.33334827 72.25 378 C71.71375 377.34 71.1775 376.68 70.625 376 C69 374 67.375 372 65.75 370 C65.21358887 369.33983887 64.67717773 368.67967773 64.12451172 367.99951172 C63.04265888 366.66792549 61.96095282 365.33622 60.87939453 364.00439453 C58.14960892 360.64333059 55.41719783 357.28446381 52.6796875 353.9296875 C47.13013757 347.12345046 41.63453423 340.28386252 36.23388672 333.35888672 C31.99140435 327.94226868 27.61257571 322.64173209 23.21362305 317.35180664 C20.34727743 313.8942253 17.52668934 310.41648354 14.8046875 306.84375 C14.30839844 306.19470703 13.81210937 305.54566406 13.30078125 304.87695312 C12.3751665 303.65843837 11.45795222 302.43347934 10.55078125 301.20117188 C8.25956424 298.14917793 8.25956424 298.14917793 5.07434082 296.17199707 C2.96819621 295.79649121 2.96819621 295.79649121 1.2845459 297.01062012 C0.69757935 297.56334595 0.11061279 298.11607178 -0.49414062 298.68554688 C-1.19321533 299.33837646 -1.89229004 299.99120605 -2.61254883 300.66381836 C-3.40040771 301.4347583 -4.1882666 302.20569824 -5 303 C-5.89162842 303.87084229 -6.78325684 304.74168457 -7.7019043 305.63891602 C-10.29120928 308.18899014 -12.85674558 310.76203603 -15.41670227 313.34153748 C-17.13094586 315.06872676 -18.84845302 316.7926132 -20.56677246 318.51574707 C-24.21402441 322.17433971 -27.85731315 325.83686281 -31.5 329.5 C-35.7264063 333.75013369 -39.95449022 337.99857062 -44.18684387 342.24278259 C-45.86603635 343.9283829 -47.54215076 345.61700141 -49.21813965 347.30578613 C-57.67167703 355.79943481 -57.67167703 355.79943481 -61.98632812 359.48632812 C-67.12936125 363.88353376 -71.83859481 368.72777694 -76.60189819 373.5267334 C-78.34974922 375.287525 -80.10085972 377.04501864 -81.8527832 378.80175781 C-85.57136351 382.53168125 -89.28598204 386.26553437 -93 390 C-97.30901429 394.33273773 -101.61970377 398.66378153 -105.93466187 402.99060059 C-107.6470917 404.70944044 -109.35644512 406.43129812 -111.06567383 408.15332031 C-115.88859982 412.99868739 -120.74452112 417.72631855 -125.94506836 422.16992188 C-130.08910323 425.86051061 -133.95440675 429.84750912 -137.8611145 433.78594971 C-139.47453514 435.41233269 -141.09123271 437.03539696 -142.70874023 438.65771484 C-146.14200746 442.10231484 -149.57130684 445.55084781 -153 449 C-156.97858183 453.00232205 -160.9588492 457.00293815 -164.94338989 460.99932861 C-166.52287066 462.58521006 -168.09926797 464.17411096 -169.67553711 465.76318359 C-173.66640726 469.77417428 -177.64108255 473.76756675 -181.9453125 477.4453125 C-187.09971998 481.85924615 -191.8248134 486.71389238 -196.60189819 491.5267334 C-198.34974922 493.287525 -200.10085972 495.04501864 -201.8527832 496.80175781 C-205.57136351 500.53168125 -209.28598204 504.26553437 -213 508 C-217.30901429 512.33273773 -221.61970377 516.66378153 -225.93466187 520.99060059 C-227.6470917 522.70944044 -229.35644512 524.43129812 -231.06567383 526.15332031 C-239.68443973 534.8122092 -239.68443973 534.8122092 -243.84960938 538.34960938 C-249.76774604 543.40802188 -255.1548239 549.04589883 -260.63905334 554.56388855 C-262.75658088 556.69431126 -264.8773315 558.82147922 -266.99890137 560.94787598 C-271.50209648 565.46243603 -276.00134263 569.98091876 -280.5 574.5 C-285.71769801 579.74138632 -290.93704956 584.98110377 -296.16065979 590.21659851 C-298.23870342 592.30107178 -300.31368535 594.38855921 -302.3885498 596.47619629 C-307.8830605 601.99184482 -313.34296002 607.47005689 -319.28256226 612.51187134 C-322.44159682 615.2491175 -325.36692831 618.22440524 -328.31640625 621.18359375 C-329.3066404 622.17239281 -329.3066404 622.17239281 -330.31687927 623.1811676 C-331.70035506 624.56396835 -333.08259083 625.94801076 -334.46362305 627.33325195 C-336.55731669 629.43230343 -338.65629874 631.5259594 -340.75585938 633.61914062 C-342.10969571 634.97363786 -343.46322175 636.32844531 -344.81640625 637.68359375 C-345.43326797 638.29843124 -346.0501297 638.91326874 -346.6856842 639.54673767 C-350.43061649 643.31153327 -353.98422155 647.19430968 -357.44358826 651.22340393 C-360.49156813 654.70257908 -363.84829412 657.86362838 -367.15625 661.09375 C-369.96824179 663.90175669 -372.54743964 666.89116634 -375.14794922 669.89404297 C-378.27776067 673.45293482 -381.54922251 676.87636769 -384.8125 680.3125 C-390.37537412 686.18270455 -395.84839253 692.11011555 -401.1796875 698.19140625 C-403 700 -403 700 -405 700 C-406.625 697.5 -406.625 697.5 -408 695 C-398.49446201 678.4601543 -388.90649283 661.97114705 -379.24310303 645.52311707 C-376.72719772 641.24033459 -374.21587537 636.95489098 -371.70703125 632.66796875 C-364.79673103 620.86246998 -357.86371378 609.07181496 -350.875 597.3125 C-344.97970914 587.39032764 -339.18079523 577.41640858 -333.42871094 567.41064453 C-329.02138749 559.75062819 -324.55470255 552.12836945 -320.04736328 544.52685547 C-315.56786662 536.97066972 -311.12451257 529.39366545 -306.6875 521.8125 C-301.11581168 512.29292083 -295.51106372 502.79415378 -289.875 493.3125 C-283.97962437 483.39037873 -278.18079449 473.41640728 -272.42871094 463.41064453 C-268.02057064 455.74920848 -263.55247574 448.12589054 -259.04516602 440.52246094 C-254.59086952 433.00730813 -250.16583498 425.47528451 -245.75 417.9375 C-245.02693834 416.70353103 -244.30387518 415.46956293 -243.58081055 414.2355957 C-240.30879202 408.65100483 -237.0382493 403.06555111 -233.76873779 397.47949219 C-231.99213877 394.44438015 -230.21493275 391.40962385 -228.4375 388.375 C-228.08629089 387.77528381 -227.73508179 387.17556763 -227.37322998 386.55767822 C-222.23788829 377.79083421 -217.06581351 369.04664092 -211.875 360.3125 C-205.97970914 350.39032764 -200.18079523 340.41640858 -194.42871094 330.41064453 C-190.02057064 322.74920848 -185.55247574 315.12589054 -181.04516602 307.52246094 C-176.59086952 300.00730813 -172.16583498 292.47528451 -167.75 284.9375 C-167.02693834 283.70353103 -166.30387518 282.46956293 -165.58081055 281.2355957 C-162.30879202 275.65100483 -159.0382493 270.06555111 -155.76873779 264.47949219 C-153.99213877 261.44438015 -152.21493275 258.40962385 -150.4375 255.375 C-150.08629089 254.77528381 -149.73508179 254.17556763 -149.37322998 253.55767822 C-144.23788829 244.79083421 -139.06581351 236.04664092 -133.875 227.3125 C-127.97970914 217.39032764 -122.18079523 207.41640858 -116.42871094 197.41064453 C-112.02057064 189.74920848 -107.55247574 182.12589054 -103.04516602 174.52246094 C-98.59086952 167.00730813 -94.16583498 159.47528451 -89.75 151.9375 C-89.02693834 150.70353103 -88.30387518 149.46956293 -87.58081055 148.2355957 C-84.30879202 142.65100483 -81.0382493 137.06555111 -77.76873779 131.47949219 C-75.99213877 128.44438015 -74.21493275 125.40962385 -72.4375 122.375 C-72.08629089 121.77528381 -71.73508179 121.17556763 -71.37322998 120.55767822 C-66.23788829 111.79083421 -61.06581351 103.04664092 -55.875 94.3125 C-49.97970914 84.39032764 -44.18079523 74.41640858 -38.42871094 64.41064453 C-34.03104591 56.76741471 -29.57641176 49.16047765 -25.07592773 41.57739258 C-21.86889446 36.17133511 -18.68314319 30.75348687 -15.515625 25.32421875 C-14.73877917 23.99389086 -13.9619237 22.66356859 -13.18505859 21.33325195 C-12.03772091 19.36829523 -10.89121232 17.40287948 -9.74737549 15.43588257 C-8.68531253 13.60962793 -7.62026536 11.78514285 -6.5546875 9.9609375 C-5.63405518 8.37998291 -5.63405518 8.37998291 -4.69482422 6.76708984 C-3.24035337 4.39241791 -1.71801045 2.18805075 0 0 Z " fill="#1B475D" transform="translate(479,171)"/>
<path d="M0 0 C-1.62361221 5.50429141 -4.08303552 10.43860716 -6.65625 15.54296875 C-7.34889954 16.92758049 -7.34889954 16.92758049 -8.05554199 18.34016418 C-9.03545861 20.29698074 -10.01731588 22.25282652 -11.00097656 24.20776367 C-12.4712863 27.13042334 -13.93540684 30.05611292 -15.3984375 32.98242188 C-16.35900269 34.89862418 -17.31993003 36.81464499 -18.28125 38.73046875 C-18.70458618 39.57602829 -19.12792236 40.42158783 -19.56408691 41.29277039 C-22.14759007 46.42173279 -24.79345759 51.51454926 -27.47865295 56.59078693 C-32.56312002 66.20295263 -37.50159915 75.87836711 -42.34468079 85.61419678 C-43.63998445 88.21793769 -44.93804275 90.82029071 -46.23669434 93.42236328 C-48.9934337 98.94709495 -51.74698073 104.47341384 -54.5 110 C-57.69829338 116.42045777 -60.89801146 122.84019789 -64.10115051 129.25823975 C-65.35994513 131.78215747 -66.6162655 134.30729529 -67.87243652 136.83251953 C-72.74352173 146.60523265 -77.74697419 156.29897715 -82.8621521 165.94619751 C-85.38346781 170.7080107 -87.80577615 175.51155296 -90.125 180.375 C-90.50914062 181.15359375 -90.89328125 181.9321875 -91.2890625 182.734375 C-93.97660056 188.11858611 -93.97660056 188.11858611 -94 194 C-90.52815712 196.31456192 -87.28095549 196.99428477 -83.27394104 197.84786987 C-82.47716165 198.02295983 -81.68038225 198.19804979 -80.85945803 198.37844551 C-78.17653967 198.96646662 -75.4917342 199.54537693 -72.80688477 200.12451172 C-70.88182282 200.54477159 -68.95689613 200.96565145 -67.03209496 201.38710403 C-62.85931673 202.29963149 -58.68572884 203.20832656 -54.51148796 204.11413956 C-47.78079019 205.57497924 -41.05210817 207.04494787 -34.3238678 208.51705933 C-33.17755487 208.7678596 -32.03124194 209.01865987 -30.85019225 209.27706015 C-28.50171633 209.79091635 -26.15324872 210.30481048 -23.80478919 210.81874156 C-20.19118155 211.60928759 -16.57740562 212.39906071 -12.96360302 213.18871498 C11.79358868 218.60045133 36.53230685 224.09451701 61.26873446 229.60025883 C67.18050232 230.91587906 73.09250956 232.23042279 79.00448608 233.54510498 C93.35744263 236.73712165 107.70999661 239.93094648 122.0625 243.125 C141.17806801 247.37903184 160.29384518 251.63212087 179.41015625 255.8828125 C180.57791352 256.14249565 181.74567078 256.4021788 182.94881463 256.66973114 C216.44075775 264.11727775 249.94268333 271.51773611 283.4559989 278.86847639 C325.49044078 288.0885856 367.49606155 297.43636738 409.49639899 306.81045854 C419.41801686 309.02481039 429.34001679 311.23744829 439.26203191 313.45001936 C459.50841385 317.96492057 479.75436987 322.4817288 500 327 C500 327.66 500 328.32 500 329 C219.83 329 -60.34 329 -349 329 C-347.29129638 325.58259277 -346.46642777 324.24403816 -343.8046875 321.828125 C-342.8602478 320.96102905 -342.8602478 320.96102905 -341.89672852 320.07641602 C-340.8959729 319.17234009 -340.8959729 319.17234009 -339.875 318.25 C-338.50548976 316.99460211 -337.1369908 315.73810007 -335.76953125 314.48046875 C-335.1142041 313.87895996 -334.45887695 313.27745117 -333.78369141 312.65771484 C-331.65433072 310.67874427 -329.59743236 308.63821257 -327.5625 306.5625 C-325.16987709 304.12871368 -322.71593822 301.84653713 -320.125 299.625 C-316.93317491 296.88378551 -313.95697023 293.99314112 -311 291 C-307.47893677 287.43599698 -303.86813992 284.09695832 -300.0625 280.84375 C-297.61075311 278.65203687 -295.31114427 276.33932896 -293 274 C-289.47893677 270.43599698 -285.86813992 267.09695832 -282.0625 263.84375 C-279.61075311 261.65203687 -277.31114427 259.33932896 -275 257 C-271.47893677 253.43599698 -267.86813992 250.09695832 -264.0625 246.84375 C-261.61075311 244.65203687 -259.31114427 242.33932896 -257 240 C-254.10408042 237.06881809 -251.19757429 234.23596826 -248.0625 231.5625 C-244.71074927 228.69827665 -241.59443244 225.63666284 -238.5 222.5 C-234.81005412 218.75969662 -231.02496302 215.2176065 -227.02734375 211.80859375 C-223.68256946 208.82471996 -220.58664843 205.59380268 -217.4375 202.40625 C-214.74716094 199.75040247 -211.93426475 197.29864568 -209.0625 194.84375 C-206.61075311 192.65203687 -204.31114427 190.33932896 -202 188 C-198.47893677 184.43599698 -194.86813992 181.09695832 -191.0625 177.84375 C-188.61075311 175.65203687 -186.31114427 173.33932896 -184 171 C-181.10408042 168.06881809 -178.19757429 165.23596826 -175.0625 162.5625 C-171.71074927 159.69827665 -168.59443244 156.63666284 -165.5 153.5 C-161.81005412 149.75969662 -158.02496302 146.2176065 -154.02734375 142.80859375 C-150.68256946 139.82471996 -147.58664843 136.59380268 -144.4375 133.40625 C-141.74716094 130.75040247 -138.93426475 128.29864568 -136.0625 125.84375 C-133.61075311 123.65203687 -131.31114427 121.33932896 -129 119 C-125.47893677 115.43599698 -121.86813992 112.09695832 -118.0625 108.84375 C-115.61075311 106.65203687 -113.31114427 104.33932896 -111 102 C-107.47893677 98.43599698 -103.86813992 95.09695832 -100.0625 91.84375 C-97.61075311 89.65203687 -95.31114427 87.33932896 -93 85 C-90.10408042 82.06881809 -87.19757429 79.23596826 -84.0625 76.5625 C-80.71074927 73.69827665 -77.59443244 70.63666284 -74.5 67.5 C-70.81005412 63.75969662 -67.02496302 60.2176065 -63.02734375 56.80859375 C-59.68256946 53.82471996 -56.58664843 50.59380268 -53.4375 47.40625 C-50.74716094 44.75040247 -47.93426475 42.29864568 -45.0625 39.84375 C-42.61075311 37.65203687 -40.31114427 35.33932896 -38 33 C-35.10408042 30.06881809 -32.19757429 27.23596826 -29.0625 24.5625 C-25.71075086 21.698278 -22.59440865 18.63668921 -19.5 15.5 C-15.68076716 11.63833124 -11.79922534 7.94849605 -7.65625 4.4375 C-5.95880354 3.02174834 -5.95880354 3.02174834 -4.46875 1.3125 C-3 0 -3 0 0 0 Z " fill="#1B475D" transform="translate(467,540)"/>
<path d="M0 0 C3.71286649 1.71322199 5.52431786 3.57216654 8.0625 6.8125 C9.238125 8.28976562 9.238125 8.28976562 10.4375 9.796875 C10.85257813 10.31958984 11.26765625 10.84230469 11.6953125 11.38085938 C13.92996632 14.1541049 16.24982752 16.85430728 18.5625 19.5625 C22.43331672 24.11205715 26.19962826 28.72836531 29.91015625 33.41015625 C32.83220315 37.03130969 35.84821486 40.56954569 38.86328125 44.11328125 C42.531156 48.42962004 46.12126321 52.8047916 49.6953125 57.19921875 C52.22033075 60.26775787 54.79484769 63.29039812 57.375 66.3125 C61.15792492 70.74851603 64.80532737 75.26600643 68.375 79.875 C72.83051671 85.62027155 77.51143405 91.13095441 82.29980469 96.60058594 C86.21631957 101.07760385 90.01327067 105.63542937 93.7578125 110.2578125 C96.30254643 113.37001323 98.89660596 116.43689299 101.5 119.5 C103.33515572 121.66512929 105.16837308 123.83188475 107 126 C107.45036621 126.53286621 107.90073242 127.06573242 108.36474609 127.61474609 C109.64456474 129.13432586 110.91622152 130.66076838 112.1875 132.1875 C112.92355469 133.06792969 113.65960937 133.94835937 114.41796875 134.85546875 C116 137 116 137 116 139 C95.55663424 141.89513897 75.09874518 144.66793456 54.625 147.33984375 C53.51114929 147.48522205 52.39729858 147.63060036 51.24969482 147.78038406 C43.16672925 148.83480231 35.0833929 149.8863636 27 150.9375 C18.94669827 151.98490577 10.89351691 153.03322524 2.84060669 154.08363724 C0.5799669 154.37838574 -1.680714 154.67281908 -3.94143677 154.96693039 C-15.92046781 156.52590672 -27.89480609 158.11117689 -39.859375 159.77783203 C-41.39010902 159.99027668 -41.39010902 159.99027668 -42.95176697 160.20701313 C-47.73994439 160.87199603 -52.52710909 161.54301863 -57.31274414 162.22605896 C-59.00664142 162.46286361 -60.70056872 162.6994536 -62.39453125 162.93579102 C-63.13890442 163.04458902 -63.88327759 163.15338703 -64.65020752 163.26548195 C-69.80584181 163.97617523 -74.79513412 164.08737449 -80 164 C-81.08745361 160.09295285 -81.03368008 158.21672774 -79.0703125 154.67578125 C-78.61317871 153.82918945 -78.15604492 152.98259766 -77.68505859 152.11035156 C-77.17023926 151.18706055 -76.65541992 150.26376953 -76.125 149.3125 C-75.01232149 147.25308351 -73.90316647 145.19176081 -72.796875 143.12890625 C-72.18908203 141.99855957 -71.58128906 140.86821289 -70.95507812 139.70361328 C-66.91456763 132.10754577 -63.15457761 124.36333467 -59.3369751 116.65371704 C-55.3755617 108.65871587 -51.34367416 100.71155868 -47.1640625 92.828125 C-41.5916404 82.31014295 -36.29173823 71.66124169 -31 61 C-25.25113621 49.41778946 -19.45679688 37.87173936 -13.40371704 26.44499207 C-10.31163678 20.60755249 -7.30429509 14.73351778 -4.375 8.8125 C-3.94316406 7.94431641 -3.51132812 7.07613281 -3.06640625 6.18164062 C-2.04230487 4.12205896 -1.02011793 2.06155665 0 0 Z " fill="#1B475D" transform="translate(502,531)"/>
</svg>
