<?xml version="1.0" encoding="UTF-8"?>
<svg id="Layer_1" xmlns="http://www.w3.org/2000/svg" version="1.1" viewBox="0 0 500 500">
  <!-- Generator: Adobe Illustrator 29.2.1, SVG Export Plug-In . SVG Version: 2.1.0 Build 116)  -->
  <defs>
    <style>
      .st0 {
        fill: #0d2139;
      }

      .st1 {
        fill: #f0b501;
      }
    </style>
  </defs>
  <path class="st0" d="M175.11,97.76c-21.44,0-42.89-.08-64.33.07-3.94.03-5.07-1.36-5.03-5.15.16-15.56.15-31.12.01-46.67-.03-3.83.91-5.46,5.18-5.48,25.35-.14,50.71-.18,76.04-1,21.87-.71,43.68.19,65.48,1.26,28.57,1.41,54.9,9.85,77.7,27.57,27.37,21.27,43.68,49.49,51.5,83.02,3.21,13.74,4.39,27.62,3.1,41.56-2.39,25.74-11.69,48.97-27.16,69.71-14.96,20.06-34.11,34.92-56.45,45.98-7.86,3.89-8.83,2.4-1.51,9.31,20.02,18.91,44.06,29.5,71.05,33.99,6.47,1.08,12.93,2.08,19.47,2.52,2.85.19,4.12,1.48,4.09,4.57-.13,15.7-.12,31.4-.02,47.09.02,3.16-.97,4.48-4.29,4.67-17.83,1.02-34.92-2.61-51.67-8.16-26.75-8.85-50.26-23.21-70.2-43.07-8.42-8.38-15.68-17.9-23.82-26.58-20.35-21.71-43.13-40.34-69.88-53.74-18.26-9.14-37.41-15.27-58.03-15.9-3.16-.1-4.56-1.58-4.56-4.68.02-16.12.07-32.24-.01-48.36-.02-3.37,1.95-4.66,4.68-4.6,26.6.61,52.32,5.4,76.63,16.65,16.37,7.57,31.52,17.12,44.97,29.11,10.35,9.24,21.53,10.95,34.1,5.82,28.33-11.57,46.85-32.01,52.86-62.07,8.36-41.89-18.23-83.08-59.46-94.11-12.31-3.29-24.9-3.14-37.45-3.3-17.66-.23-35.32-.06-52.98-.06Z"/>
  <path class="st1" d="M394.19,445.18c0,3.78-.01,7.57,0,11.35,0,2.34-.96,3.62-3.46,3.75-39.96,2.1-78.62-2.97-114.71-21.39-24.27-12.39-43.75-30.22-59.64-52.38-19.27-26.89-45.57-44.57-76.29-56.12-7.83-2.94-15.65-5.89-23.67-8.22-3.43-1-4.62-2.91-4.56-6.36.15-8.97.15-17.94,0-26.9-.06-3.84,1-5.49,5.29-5.35,17.11.56,32.45,6.68,47.16,14.65,23.6,12.78,43.79,30.04,62.95,48.63,11.05,10.72,20.57,22.94,32.21,33.08,25.62,22.33,54.58,38.27,87.94,45.7,13.03,2.9,26.35,2.93,39.59,3.57,6.68.32,7.18.67,7.18,7.17,0,2.94,0,5.89,0,8.83Z"/>
</svg>