<?xml version="1.0" encoding="UTF-8"?>
<svg version="1.1" xmlns="http://www.w3.org/2000/svg" width="512" height="512">
<path d="M0 0 C1.19557526 -0.00852997 2.39115051 -0.01705994 3.62295532 -0.02584839 C4.92125778 -0.02494202 6.21956024 -0.02403564 7.5572052 -0.02310181 C8.94909524 -0.02909142 10.34098197 -0.03589796 11.73286438 -0.04345703 C15.50380643 -0.06108417 19.27465763 -0.06581113 23.04563689 -0.0670886 C25.40597644 -0.06851308 27.76629312 -0.07278837 30.12662697 -0.07808304 C38.37384626 -0.09657524 46.62100102 -0.10475502 54.86824036 -0.10317993 C62.53449502 -0.10198003 70.20046746 -0.12305461 77.86665076 -0.15466726 C84.46477928 -0.18089796 91.06281605 -0.19154433 97.66099626 -0.19026911 C101.59443327 -0.1897613 105.52761956 -0.19534318 109.46100426 -0.21662521 C113.16543564 -0.23612166 116.86938016 -0.23605526 120.57382965 -0.22159195 C122.56481817 -0.21853458 124.55580732 -0.23510176 126.54672241 -0.25247192 C137.25557226 -0.17820707 146.29096901 1.76826197 154.20491028 9.34164429 C161.29715836 17.28818589 163.23482899 25.02383721 163.11897278 35.47836304 C163.11472794 36.93056747 163.11472794 36.93056747 163.11039734 38.41210938 C163.09924724 41.48900981 163.07415207 44.56561381 163.04866028 47.64242554 C163.0386238 49.73486923 163.02949912 51.82731752 163.02131653 53.91976929 C162.99932481 59.03576805 162.96483053 64.15154662 162.92366028 69.26742554 C164.10557449 69.2607637 165.28748871 69.25410187 166.50521851 69.24723816 C177.69950268 69.18615211 188.89375257 69.14132172 200.08816624 69.11198902 C205.84191452 69.09640135 211.59552715 69.07529045 217.34919739 69.04110718 C222.91242729 69.00826603 228.47552753 68.99052079 234.03884697 68.98279381 C236.15048701 68.97729441 238.26212078 68.96655683 240.37370491 68.95023537 C261.99809003 68.78989306 279.780289 71.48918472 297.92366028 84.26742554 C298.55916809 84.70441772 299.1946759 85.14140991 299.84944153 85.59164429 C311.96702722 94.86786506 319.14296396 111.42729185 321.64445996 126.05408454 C322.76902263 134.96897649 322.34616661 144.11493029 322.32771301 153.08114624 C322.33342231 155.58909407 322.34038873 158.0970393 322.34851074 160.60498047 C322.36454298 166.68530922 322.36655511 172.76548911 322.36129784 178.8458244 C322.35723979 183.79342324 322.35871899 188.74099168 322.3640461 193.6885891 C322.36479452 194.395476 322.36554294 195.1023629 322.36631404 195.83067062 C322.36784568 197.26718798 322.36938403 198.70370534 322.37092901 200.14022269 C322.38462592 213.58201416 322.37923642 227.02374728 322.3677438 240.46553739 C322.35781676 252.73066044 322.37074789 264.99563251 322.39467799 277.26073227 C322.4191312 289.89025533 322.42866148 302.51970826 322.42202526 315.1492545 C322.41854651 322.22546129 322.4206755 329.30155212 322.43827629 336.37774086 C322.45463225 343.03538385 322.44972041 349.69269441 322.43097115 356.35034561 C322.42730244 358.78343465 322.4303431 361.21654524 322.44085693 363.64961433 C322.52908411 385.76800905 320.40461832 406.41281761 304.15803528 423.09555054 C303.05201965 424.17062866 303.05201965 424.17062866 301.92366028 425.26742554 C301.00326965 426.21875366 301.00326965 426.21875366 300.06428528 427.18930054 C284.34795626 442.36831916 262.11446897 444.42448427 241.426651 444.40113831 C239.85247422 444.40300848 238.2782979 444.40531 236.7041223 444.40800363 C232.3941479 444.41410249 228.08419295 444.41399029 223.77421522 444.41280925 C219.11968152 444.41260476 214.46515398 444.41812861 209.81062317 444.42286682 C200.69746546 444.43116338 191.58431422 444.43392121 182.47115305 444.4344792 C175.06158086 444.43495482 167.65201079 444.43701187 160.24243927 444.44017982 C139.22252929 444.4489836 118.20262442 444.45359962 97.18271258 444.45284935 C96.05018431 444.45280939 94.91765603 444.45276944 93.75080872 444.45272827 C92.61689342 444.45268739 91.48297813 444.45264651 90.31470177 444.45260439 C71.93971277 444.45219797 53.56474426 444.46176714 35.18976119 444.47586664 C16.31029486 444.49023863 -2.56916149 444.49713637 -21.44863343 444.49627286 C-32.04312903 444.49594118 -42.63760314 444.49867557 -53.23209381 444.50945091 C-62.25250569 444.51856672 -71.27288634 444.52072227 -80.29330084 444.51394149 C-84.89235091 444.51068178 -89.4913411 444.51059974 -94.09038544 444.51929474 C-98.30724017 444.52718492 -102.52398778 444.52570272 -106.74083999 444.51701061 C-108.25963523 444.51548115 -109.77843857 444.51727068 -111.29722425 444.52287068 C-135.54193725 444.60628556 -155.46656421 439.54031839 -173.07633972 422.26742554 C-173.64223816 421.72601929 -174.2081366 421.18461304 -174.79118347 420.62680054 C-190.40754116 404.22341156 -190.67108574 381.22067465 -190.59391785 360.11312866 C-190.59934751 357.6047373 -190.60647488 355.09634913 -190.61515808 352.58796692 C-190.63141681 346.51802779 -190.62915817 340.44836394 -190.61750752 334.37843597 C-190.60842511 329.43948428 -190.6072698 324.50058792 -190.61160278 319.56163025 C-190.61252218 318.5019096 -190.61252218 318.5019096 -190.61346015 317.42078045 C-190.61473922 315.98498768 -190.61603608 314.54919493 -190.61735052 313.11340219 C-190.62872071 299.69160427 -190.61569881 286.26991615 -190.59414905 272.84813625 C-190.5762813 261.3646348 -190.57938641 249.88129516 -190.5978241 238.39779663 C-190.61929407 225.01969925 -190.62762241 211.64169777 -190.61537504 198.26358557 C-190.61410102 196.833464 -190.61284354 195.40334242 -190.61160278 193.97322083 C-190.61098568 193.26981568 -190.61036858 192.56641054 -190.60973278 191.84169009 C-190.60629819 186.91624119 -190.61206708 181.9908538 -190.621521 177.06541443 C-190.63399737 170.42006179 -190.62494798 163.77496506 -190.60194397 157.12962532 C-190.59668778 154.70137598 -190.59811714 152.27310079 -190.60699463 149.84486198 C-190.66038613 133.74779465 -190.12662971 118.45100777 -182.38883972 103.89242554 C-181.87619568 102.90447998 -181.87619568 102.90447998 -181.35319519 101.89657593 C-173.01977243 86.48899479 -158.66947328 77.17189824 -142.26383972 72.01742554 C-135.06634547 69.87834077 -128.80775124 69.12458147 -121.32902527 69.15390015 C-120.35293808 69.15375412 -119.37685089 69.15360809 -118.3711853 69.15345764 C-115.15178692 69.15415311 -111.93244672 69.16192844 -108.71305847 69.16976929 C-106.47818025 69.17163476 -104.24330163 69.17305806 -102.00842285 69.17405701 C-96.13120898 69.17787196 -90.25401989 69.18769356 -84.3768158 69.19876099 C-78.37757197 69.20899705 -72.37832414 69.21355933 -66.3790741 69.21859741 C-54.6114851 69.22931672 -42.84391447 69.24638091 -31.07633972 69.26742554 C-31.09728699 68.02243286 -31.11823425 66.77744019 -31.13981628 65.49472046 C-31.21278271 60.82996338 -31.2583436 56.16525567 -31.29606628 51.50009155 C-31.31605365 49.48958829 -31.34325298 47.4791422 -31.37809753 45.46884155 C-31.82088896 19.24647271 -31.82088896 19.24647271 -22.00212097 8.98617554 C-15.57961512 3.25412163 -8.70429426 0.02819533 0 0 Z M-6.88883972 24.70492554 C-15.88766996 36.54549164 -9.07633972 54.39537284 -9.07633972 69.26742554 C40.42366028 69.26742554 89.92366028 69.26742554 140.92366028 69.26742554 C143.37650735 45.17255028 143.37650735 45.17255028 137.92366028 23.26742554 C132.30481928 20.23159333 125.52804972 20.98756011 119.31233215 21.00863647 C117.40889793 21.00337952 117.40889793 21.00337952 115.4670105 20.99801636 C111.99802618 20.98892429 108.52916126 20.99242342 105.06017494 20.99877453 C101.42348035 21.00385103 97.78679572 20.99913849 94.15010071 20.9960022 C88.04384025 20.99236736 81.93762822 20.99714898 75.83137512 21.00668335 C68.77971563 21.01756699 61.7281718 21.01404107 54.6765151 21.00303054 C48.61349548 20.99394391 42.5505106 20.99267911 36.48748636 20.99790788 C32.87007661 21.00102002 29.25272117 21.00145774 25.63531494 20.9948349 C21.60180349 20.98796558 17.56849031 20.99749664 13.5349884 21.00863647 C12.34103958 21.00458801 11.14709076 21.00053955 9.91696167 20.99636841 C0.97559548 20.8949476 0.97559548 20.8949476 -6.88883972 24.70492554 Z M-157.51383972 106.70492554 C-169.35786523 121.06278503 -168.51373935 137.8028662 -168.46452332 155.48031616 C-168.46859287 157.9354933 -168.4739369 160.3906686 -168.48045349 162.84584045 C-168.49267423 168.79995598 -168.49093912 174.75396717 -168.48221557 180.7080797 C-168.47541646 185.55085388 -168.47453188 190.39359631 -168.47778702 195.2363739 C-168.47824672 195.92789902 -168.47870642 196.61942414 -168.47918005 197.33190456 C-168.48013931 198.73710439 -168.48111195 200.1423042 -168.48209782 201.54750401 C-168.49063473 214.69731585 -168.48084433 227.84706477 -168.46469672 240.99686629 C-168.45129508 252.25879643 -168.45362365 263.52063378 -168.467453 274.78256226 C-168.48353893 287.88810231 -168.48981092 300.99358733 -168.48061621 314.09913588 C-168.47966065 315.4989163 -168.47871754 316.89869673 -168.47778702 318.29847717 C-168.47732419 318.98704045 -168.47686136 319.67560373 -168.47638451 320.38503256 C-168.47380364 325.2171257 -168.47814604 330.04918367 -168.48522568 334.88127136 C-168.49456043 341.39519441 -168.48783232 347.90898401 -168.47054291 354.42289162 C-168.46659005 356.80766829 -168.46769143 359.19245975 -168.4743309 361.57723045 C-168.52030467 379.7734241 -168.0605538 395.34420963 -155.07633972 409.41976929 C-145.24430878 418.502876 -131.56246578 422.38119226 -118.41691017 422.40164661 C-117.7698219 422.40399884 -117.12273363 422.40635107 -116.45603663 422.40877458 C-114.29076779 422.41542409 -112.12555953 422.41500759 -109.96028137 422.41459656 C-108.39083146 422.41789772 -106.8213824 422.42162382 -105.25193441 422.42573804 C-100.94097784 422.43573766 -96.63003519 422.43947155 -92.31906867 422.44212735 C-87.66851192 422.4460365 -83.01796612 422.45561448 -78.36741638 422.46434021 C-67.13652138 422.4840883 -55.9056255 422.49416915 -44.67471749 422.503068 C-39.38199973 422.50745398 -34.08928298 422.51282002 -28.79656601 422.51805687 C-11.19527965 422.53506819 6.4060061 422.54956118 24.00729942 422.55680561 C28.57333248 422.55871541 33.13936553 422.56063576 37.70539856 422.56259155 C38.84022343 422.56307529 39.97504829 422.56355903 41.14426179 422.56405743 C59.51743723 422.57235332 77.89054747 422.59768322 96.26369445 422.63017223 C115.13969011 422.66327744 134.01565267 422.68125754 152.8916775 422.68444985 C163.48466894 422.68661184 174.07756532 422.69531477 184.67052841 422.72091103 C193.69424313 422.74266541 202.7178397 422.75064521 211.74157767 422.74094424 C216.34104914 422.73641314 220.94027707 422.7382161 225.53971481 422.75770569 C229.76064866 422.77543595 233.98116311 422.77426059 238.20210202 422.7588084 C239.71902615 422.75644717 241.2359801 422.76067762 242.75285892 422.77263705 C259.54172121 422.89667243 275.36545487 419.94799365 288.07209778 408.27914429 C293.56851851 402.30729476 296.91129213 395.07078115 298.92366028 387.26742554 C299.09696239 386.60627023 299.27026451 385.94511492 299.44881821 385.2639246 C300.13823037 380.91337731 300.06809751 376.61628912 300.06410217 372.2179718 C300.0670733 371.19719482 300.07004442 370.17641785 300.07310557 369.12470824 C300.08178658 365.69953476 300.08330033 362.27439626 300.08479309 358.84921265 C300.08942175 356.39506963 300.09444648 353.94092734 300.09983826 351.48678589 C300.11296118 344.81500008 300.11944416 338.14322795 300.12384892 331.47143245 C300.12661468 327.3018263 300.1308527 323.13222246 300.13535309 318.96261787 C300.14754494 307.40824879 300.1578436 295.85388156 300.16122818 284.29950619 C300.16144775 283.56033011 300.16166731 282.82115404 300.16189353 282.05957869 C300.16211181 281.31867276 300.16233009 280.57776682 300.16255498 279.8144092 C300.16299844 278.31315227 300.163445 276.81189535 300.16389465 275.31063843 C300.16411608 274.56596935 300.16433751 273.82130028 300.16456565 273.05406547 C300.1685101 260.99915704 300.18595369 248.94430919 300.20925418 236.88942414 C300.23300749 224.49974954 300.24543188 212.11010527 300.2465961 199.72040755 C300.24751076 192.76941698 300.25320997 185.8185053 300.27141571 178.86753654 C300.28849173 172.32499614 300.29003962 165.78257855 300.2812767 159.24001312 C300.28050763 156.84394747 300.28483189 154.4478737 300.29473495 152.05182838 C300.36256484 134.61188891 300.32142467 118.05723818 287.67366028 104.45492554 C274.60439612 92.60470337 258.50905617 90.64984666 241.52912903 90.75949097 C239.9427941 90.75486888 238.35646347 90.74850728 236.7701416 90.74058199 C232.45885727 90.72404476 228.14793184 90.73206299 223.83664703 90.74452686 C219.16852515 90.75363972 214.50046166 90.73957695 209.83235168 90.72860718 C200.70640525 90.71088346 191.5805909 90.71463442 182.45463943 90.72625774 C175.03333203 90.73531609 167.61206147 90.73650571 160.19075012 90.73216248 C158.60232316 90.73124308 158.60232316 90.73124308 156.98180676 90.73030511 C154.83011499 90.72902612 152.67842323 90.72772926 150.52673149 90.72641474 C130.38218718 90.71502695 110.23771585 90.72809434 90.09318352 90.74961621 C72.83351424 90.76748553 55.57395261 90.76438092 38.31428528 90.74594116 C18.23850739 90.72450259 -1.83720664 90.71612542 -21.91299438 90.72839022 C-24.05647277 90.72966432 -26.19995116 90.73092181 -28.34342957 90.73216248 C-29.39787671 90.73277958 -30.45232386 90.73339668 -31.53872395 90.73403248 C-38.94532119 90.73747642 -46.3518777 90.73167771 -53.75846863 90.72224426 C-62.7929402 90.71098966 -71.82727287 90.71413683 -80.86172867 90.73536724 C-85.46530545 90.74583122 -90.06865122 90.75007951 -94.67222595 90.73677063 C-98.89648416 90.72474365 -103.1202999 90.73157656 -107.34451866 90.75268084 C-108.86248023 90.7571037 -110.38048015 90.75497944 -111.89841652 90.74517769 C-129.21055089 90.64207189 -145.20386634 93.6044034 -157.51383972 106.70492554 Z " fill="#000000" transform="translate(190.0763397216797,33.732574462890625)"/>
<path d="M0 0 C1.06950394 -0.01051392 1.06950394 -0.01051392 2.16061401 -0.02124023 C4.50201122 -0.03875072 6.84218568 -0.02722344 9.18359375 -0.01367188 C10.81974518 -0.01636882 12.45589505 -0.02025292 14.09204102 -0.02526855 C17.51496699 -0.03115415 20.93747439 -0.02263131 24.36035156 -0.00390625 C28.73856425 0.01888316 33.11579604 0.00575498 37.49397278 -0.01819611 C40.87072076 -0.03267974 44.24723782 -0.02803644 47.62399292 -0.01768494 C49.23786537 -0.01502472 50.85175908 -0.01826255 52.46560669 -0.02760315 C54.7250284 -0.03781169 56.98288201 -0.02221044 59.2421875 0 C61.16695923 0.00477356 61.16695923 0.00477356 63.13061523 0.00964355 C68.62671718 0.80943652 71.64450862 3.24430506 74.97167969 7.58227539 C77.41675204 12.35162207 77.12087243 17.23790703 77.01171875 22.48242188 C77.00605896 23.51573135 77.00039917 24.54904083 76.99456787 25.61366272 C76.97228424 28.89461769 76.92210158 32.17445656 76.87109375 35.45507812 C76.85101845 37.68748416 76.83276949 39.91990742 76.81640625 42.15234375 C76.77244589 47.60779883 76.70561418 53.06260871 76.62109375 58.51757812 C77.1693129 58.51091629 77.71753204 58.50425446 78.28236389 58.49739075 C84.00906486 58.43081197 89.73565512 58.38568434 95.46264648 58.3527832 C97.59745757 58.33773451 99.73223794 58.31729076 101.86694336 58.29125977 C104.94262289 58.25470426 108.01789219 58.23781223 111.09375 58.22460938 C112.04194107 58.20912552 112.99013214 58.19364166 113.96705627 58.1776886 C121.07588148 58.17589961 125.85993049 59.18592915 131.43359375 63.89257812 C135.27882533 68.50685602 135.87364855 72.36222478 135.91162109 78.29223633 C135.91833832 78.95311249 135.92505554 79.61398865 135.93197632 80.29489136 C135.95089999 82.46945821 135.95487778 84.64371541 135.95703125 86.81835938 C135.96346379 88.33904647 135.97019248 89.85973233 135.97720337 91.38041687 C135.98916254 94.56540799 135.99288567 97.75029076 135.99169922 100.93530273 C135.99149626 105.00053719 136.0187797 109.06507075 136.05324364 113.13013935 C136.07557135 116.27102294 136.07953496 119.41173952 136.07847977 122.55269432 C136.08082762 124.05050251 136.08960488 125.54831588 136.1051445 127.0460453 C136.24398411 141.81144424 136.24398411 141.81144424 131.62109375 148.51757812 C125.00830071 153.86092403 117.78312949 153.66069107 109.7265625 153.61523438 C108.77920731 153.61381943 107.83185211 153.61240448 106.85578918 153.61094666 C103.8400248 153.60536424 100.82433557 153.59281494 97.80859375 153.58007812 C95.7597667 153.57506085 93.71093848 153.57049834 91.66210938 153.56640625 C86.64840869 153.55540056 81.63476395 153.538148 76.62109375 153.51757812 C76.6310865 154.36202988 76.6310865 154.36202988 76.64128113 155.22354126 C76.70777979 161.09607213 76.75295455 166.96849559 76.78588867 172.84130859 C76.80095181 175.03145698 76.82140634 177.22157531 76.84741211 179.41162109 C76.88390364 182.56420316 76.90084514 185.7163855 76.9140625 188.86914062 C76.92954636 189.84436676 76.94503021 190.8195929 76.96098328 191.82437134 C76.96247842 197.89816037 76.42223343 202.51686615 72.0859375 207.16210938 C67.19283212 210.90389584 65.05247221 211.64622971 58.89575195 211.69458008 C58.20444687 211.70115128 57.51314178 211.70772247 56.80088806 211.7144928 C54.50788262 211.73423792 52.21494282 211.7458932 49.921875 211.75585938 C49.13810171 211.7599349 48.35432842 211.76401043 47.54680443 211.76820946 C43.39554482 211.78907891 39.24431832 211.80337481 35.09301758 211.81274414 C30.81353999 211.82378913 26.53458517 211.8581639 22.25529194 211.89791584 C18.95833907 211.92412151 15.66150975 211.93243962 12.3644619 211.93602562 C10.78766552 211.9408842 9.21087439 211.95247745 7.63418007 211.97106361 C5.42017493 211.99553261 3.20750844 211.9944764 0.9934082 211.98754883 C-0.26408737 211.99341507 -1.52158295 211.99928131 -2.81718445 212.00532532 C-8.502883 211.22671776 -12.19017673 209.0273031 -15.79199219 204.45288086 C-18.1656436 199.68461917 -17.87808089 194.76822694 -17.76953125 189.55273438 C-17.76387146 188.5194249 -17.75821167 187.48611542 -17.75238037 186.42149353 C-17.73009674 183.14053856 -17.67991408 179.86069969 -17.62890625 176.58007812 C-17.60883095 174.34767209 -17.59058199 172.11524883 -17.57421875 169.8828125 C-17.53025839 164.42735742 -17.46342668 158.97254754 -17.37890625 153.51757812 C-19.26210571 153.5411438 -19.26210571 153.5411438 -21.18334961 153.56518555 C-25.87420143 153.61978944 -30.56502556 153.65403844 -35.25610352 153.68237305 C-37.28024024 153.69739058 -39.3043448 153.71781074 -41.32836914 153.74389648 C-44.25024386 153.7805908 -47.1716856 153.7973752 -50.09375 153.81054688 C-50.98787094 153.82603073 -51.88199188 153.84151459 -52.8032074 153.85746765 C-60.09296186 153.85938788 -66.54146027 152.81168338 -72.31640625 148.14257812 C-75.98810732 143.46950403 -76.63175909 139.62638794 -76.66943359 133.74291992 C-76.67615082 133.08204376 -76.68286804 132.4211676 -76.68978882 131.74026489 C-76.70871249 129.56569804 -76.71269028 127.39144084 -76.71484375 125.21679688 C-76.72127629 123.69610978 -76.72800498 122.17542392 -76.73501587 120.65473938 C-76.74697504 117.46974826 -76.75069817 114.28486549 -76.74951172 111.09985352 C-76.74930876 107.03461906 -76.7765922 102.9700855 -76.81105614 98.9050169 C-76.83338385 95.76413331 -76.83734746 92.62341673 -76.83629227 89.48246193 C-76.83864012 87.98465374 -76.84741738 86.48684037 -76.862957 84.98911095 C-77.0011225 70.29540234 -77.0011225 70.29540234 -72.37890625 63.51757812 C-67.9520023 59.99412396 -64.43788933 58.3886494 -58.81567383 58.40405273 C-57.89494583 58.40412827 -56.97421783 58.4042038 -56.02558899 58.40428162 C-54.539524 58.41202354 -54.539524 58.41202354 -53.0234375 58.41992188 C-52.00666428 58.42133682 -50.98989105 58.42275177 -49.94230652 58.42420959 C-46.69197661 58.42981106 -43.44171537 58.4423638 -40.19140625 58.45507812 C-37.98893329 58.46009294 -35.78645924 58.46465588 -33.58398438 58.46875 C-28.18226821 58.47978096 -22.78059213 58.4965205 -17.37890625 58.51757812 C-17.3877887 57.94430283 -17.39667114 57.37102753 -17.40582275 56.78038025 C-17.49456562 50.7941997 -17.55475189 44.80820713 -17.59863281 38.8215332 C-17.6187031 36.58968511 -17.64596558 34.35788931 -17.68066406 32.1262207 C-17.72938297 28.91148955 -17.75192141 25.69745586 -17.76953125 22.48242188 C-17.79017639 21.49048325 -17.81082153 20.49854462 -17.83209229 19.47654724 C-17.83408979 13.25875049 -17.20369027 9.50433694 -13.37890625 4.51757812 C-8.83380316 0.86353856 -5.7928962 0.01436676 0 0 Z M4.62109375 22.51757812 C4.41115609 38.74725797 4.41115609 38.74725797 4.2331543 54.97729492 C4.20086229 57.01548087 4.16748828 59.05365009 4.1328125 61.09179688 C4.1265686 62.14580688 4.12032471 63.19981689 4.1138916 64.2857666 C3.92886757 73.6995652 3.92886757 73.6995652 0.62109375 77.51757812 C-2.65641685 79.70258519 -3.68400676 79.78109048 -7.49291992 79.83642578 C-9.05419868 79.86623032 -9.05419868 79.86623032 -10.64701843 79.89663696 C-11.7689711 79.90818817 -12.89092377 79.91973938 -14.046875 79.93164062 C-15.19682449 79.95100677 -16.34677399 79.97037292 -17.53157043 79.99032593 C-21.20977324 80.05017573 -24.88800725 80.09652918 -28.56640625 80.14257812 C-31.05795647 80.18075289 -33.54949342 80.21980431 -36.04101562 80.25976562 C-42.15357738 80.35753402 -48.26599528 80.43706145 -54.37890625 80.51757812 C-54.37890625 97.01757812 -54.37890625 113.51757812 -54.37890625 130.51757812 C-38.94253555 130.76679795 -38.94253555 130.76679795 -23.50585938 130.99560547 C-21.55727826 131.03084173 -19.60870942 131.0667663 -17.66015625 131.10351562 C-16.16693848 131.12055542 -16.16693848 131.12055542 -14.64355469 131.13793945 C-8.95018148 131.25525573 -3.71176335 131.41382539 1.62109375 133.51757812 C4.69608687 138.53392165 3.97296921 145.2990791 4.03515625 151.04101562 C4.05280029 152.0178833 4.07044434 152.99475098 4.08862305 154.0012207 C4.15143276 157.6315093 4.19779681 161.26206745 4.24609375 164.89257812 C4.36984375 173.01882813 4.49359375 181.14507812 4.62109375 189.51757812 C21.12109375 189.51757812 37.62109375 189.51757812 54.62109375 189.51757812 C54.87049256 173.33291182 54.87049256 173.33291182 55.09912109 157.14794922 C55.13434118 155.11229157 55.17026399 153.07664591 55.20703125 151.04101562 C55.21839111 149.99212158 55.22975098 148.94322754 55.24145508 147.86254883 C55.45526928 137.05076312 55.45526928 137.05076312 57.62109375 133.51757812 C63.84688224 131.0615739 70.27477411 131.17914587 76.90234375 131.10351562 C77.83788086 131.08587158 78.77341797 131.06822754 79.73730469 131.05004883 C83.19839986 130.98746172 86.65977065 130.94094496 90.12109375 130.89257812 C97.87609375 130.76882813 105.63109375 130.64507812 113.62109375 130.51757812 C113.62109375 114.01757812 113.62109375 97.51757812 113.62109375 80.51757812 C109.92535156 80.49179687 106.22960937 80.46601563 102.421875 80.43945312 C98.84082433 80.40103608 95.25991782 80.35587451 91.67895508 80.31005859 C89.1910694 80.28184061 86.70309393 80.26063026 84.21508789 80.24658203 C80.63771568 80.22516492 77.06142402 80.17851793 73.484375 80.12695312 C71.81692986 80.12511017 71.81692986 80.12511017 70.11579895 80.12322998 C62.41070231 79.97723813 62.41070231 79.97723813 58.44213867 77.66699219 C55.68243695 74.4096636 55.48838652 71.70546815 55.41577148 67.5871582 C55.3955896 66.57238403 55.37540771 65.55760986 55.35461426 64.51208496 C55.32990051 62.91572205 55.32990051 62.91572205 55.3046875 61.28710938 C55.28603638 60.30722046 55.26738525 59.32733154 55.24816895 58.31774902 C55.17983991 54.6552843 55.11971121 50.99267029 55.05859375 47.33007812 C54.84203125 35.04789063 54.84203125 35.04789063 54.62109375 22.51757812 C38.12109375 22.51757812 21.62109375 22.51757812 4.62109375 22.51757812 Z " fill="#000000" transform="translate(226.37890625,181.482421875)"/>
</svg>
