<?xml version="1.0" encoding="UTF-8"?>
<svg id="Layer_1" xmlns="http://www.w3.org/2000/svg" version="1.1" viewBox="0 0 500 500">
  <!-- Generator: Adobe Illustrator 29.2.1, SVG Export Plug-In . SVG Version: 2.1.0 Build 116)  -->
  <defs>
    <style>
      .st0 {
        fill: #0d2139;
      }

      .st1 {
        fill: #f0b501;
      }
    </style>
  </defs>
  <path class="st0" d="M231.98,66.43c17.95-14.97,23.58-12.88,39.66,3.13,9.02,8.97,29.48,38.06,38.49,42.94,17.96,9.72,83.26.24,88.82,18.77,5.99,19.95-8.64,55.87-8.13,77.67,3.18,10.46,9.53,19.59,15.05,28.82,9.94,16.63,31.07,34.87,25.01,55.2-3.79,12.71-54.58,30.4-65,42.56-15.41,17.98-16.65,80.18-41.13,84.02-14.15,2.22-55.08-25.91-74.98-25.95-21.37-.04-62.73,31.93-82.91,22.1-14.74-7.19-19.43-63.7-31.93-78.55-12.42-14.75-62.53-30.11-66.34-47.15-5.74-25.65,37.03-55.25,40.1-81.06,2.28-19.16-14.4-64.67-7.22-79.7,6.83-14.28,71.76-10.21,87.97-16.7,15.35-12.83,27.46-33.52,42.56-46.11ZM159.17,337.6c55.72,57.82,154,46.37,196.79-20.72,56.31-88.29-9.33-207.43-115.04-199.36-108.23,8.26-156.52,142.48-81.74,220.08Z"/>
  <path class="st1" d="M244.88,144.47c81.88-3.34,133.08,87.69,90.18,157.33-41.54,67.43-143.04,60.54-176.54-11.52-29.85-64.22,14.72-142.88,86.36-145.81Z"/>
</svg>