<?xml version="1.0" encoding="UTF-8"?>
<svg id="Layer_1" xmlns="http://www.w3.org/2000/svg" version="1.1" viewBox="0 0 500 500">
  <!-- Generator: Adobe Illustrator 29.2.1, SVG Export Plug-In . SVG Version: 2.1.0 Build 116)  -->
  <defs>
    <style>
      .st0 {
        fill: #0d2139;
      }

      .st1 {
        fill: #f0b501;
      }
    </style>
  </defs>
  <path class="st0" d="M299.52,411.77l15.91-120.06c-6.44-59.86-95.25-59.7-100.19.84l15.9,119.22c-63.14-12.29-116.19-63.68-128.76-127.08C69.39,118.35,280.96,19.59,390.87,144.69c83.6,95.15,30.34,242.46-91.35,267.08ZM256.53,133.23c-17.1,2.33-33.1,17.14-38.14,33.43-14.09,45.52,39.87,81.36,77.21,52.64,40.44-31.1,12.68-93.11-39.07-86.07Z"/>
  <path class="st1" d="M256.53,133.23c51.75-7.04,79.5,54.97,39.07,86.07-37.34,28.72-91.3-7.12-77.21-52.64,5.04-16.29,21.04-31.1,38.14-33.43Z"/>
</svg>