<?xml version="1.0" encoding="UTF-8"?>
<svg version="1.1" xmlns="http://www.w3.org/2000/svg" width="1042" height="1042">
<path d="M0 0 C0.99 0.33 1.98 0.66 3 1 C4.03515625 3.45703125 4.03515625 3.45703125 5.0625 6.8125 C18.7142628 48.03801332 50.38786781 87.89560288 80 119 C81.02673828 120.08861328 81.02673828 120.08861328 82.07421875 121.19921875 C87.32484645 126.62025222 93.08295283 131.32701005 99 136 C100.51787109 137.20849609 100.51787109 137.20849609 102.06640625 138.44140625 C116.49189352 149.81547711 131.95196434 159.10035148 148 168 C148.72413086 168.40605469 149.44826172 168.81210937 150.19433594 169.23046875 C190.28912537 191.63919226 235.1656741 204.998416 279 218 C277.95961135 227.67795618 276.91365662 237.35528909 275.86172485 247.03199768 C275.29344797 252.26783388 274.73347962 257.50447055 274.18078613 262.74197388 C273.83358687 266.02197406 273.48099472 269.30138095 273.12731934 272.58068848 C272.95998729 274.14366852 272.7950041 275.70690194 272.63244629 277.27038574 C272.40435679 279.46091449 272.16794408 281.65040079 271.9296875 283.83984375 C271.79804199 285.08113037 271.66639648 286.32241699 271.53076172 287.60131836 C271.01265489 290.9189656 270.16042871 293.85529235 269 297 C268.4013916 296.98332275 267.8027832 296.96664551 267.18603516 296.94946289 C249.83180719 296.67898557 232.54942095 301.192584 215.70703125 305 C214.84931814 305.19313719 213.99160503 305.38627438 213.10790062 305.58526421 C191.85987177 310.38198959 170.77487806 315.7991773 149.68469238 321.24047852 C130.09499244 326.29365521 110.50624142 331.24863348 90.73046875 335.52734375 C89.59044623 335.77523746 89.59044623 335.77523746 88.42739296 336.02813911 C55.15332624 343.22990721 55.15332624 343.22990721 48.11328125 340.18359375 C35.05688136 330.4749887 27.23017565 309.94421869 20 296 C19.48115234 295.01241699 18.96230469 294.02483398 18.42773438 293.00732422 C5.48737947 268.1830538 -3.14229587 241.33897517 -9 214 C-9.21849609 212.98969727 -9.43699219 211.97939453 -9.66210938 210.93847656 C-15.25704623 184.48148042 -18.51762165 157.05199941 -19 130 C-19.02046387 129.18160645 -19.04092773 128.36321289 -19.06201172 127.52001953 C-20.05344462 84.77369372 -14.67723677 41.58619772 -1 1 C-0.67 0.67 -0.34 0.34 0 0 Z " fill="#1B475D" transform="translate(376,105)"/>
<path d="M0 0 C5.68472697 3.00755094 11.25255765 6.12183085 16.6875 9.5625 C55.30072112 33.42255645 100.24826979 52.31615205 146.3125 52.125 C148.03327759 52.12209961 148.03327759 52.12209961 149.78881836 52.11914062 C156.56174778 52.08520292 163.30174937 51.8953533 170.0625 51.5 C177.80979245 51.07752244 185.55526904 50.73366921 193.3125 50.5625 C194.36896729 50.51609375 195.42543457 50.4696875 196.51391602 50.421875 C201.28612815 50.35435274 204.93643103 50.35767437 208.765625 53.4140625 C212.77227654 57.49789258 216.10403929 62.17750115 219.4375 66.8125 C226.46565697 76.51385356 233.73599836 85.36228078 243 93 C243.53592773 93.44827148 244.07185547 93.89654297 244.62402344 94.35839844 C296.77881348 137.93825274 360.39691563 166.98254359 427.76782227 176.75952148 C429.15698853 176.96557007 429.15698853 176.96557007 430.57421875 177.17578125 C431.78984497 177.34460815 431.78984497 177.34460815 433.0300293 177.5168457 C435 178 435 178 437 180 C436.25242432 180.28085449 435.50484863 180.56170898 434.73461914 180.85107422 C381.86454307 199.57960018 381.86454307 199.57960018 337.375 232.6875 C327.83941451 242.43577513 316.56776446 250.82372347 302.5625 251.4375 C296.49712762 251.3442948 291.2499441 250.18077663 285.44921875 248.45703125 C284.53875793 248.19118225 283.62829712 247.92533325 282.69024658 247.65142822 C272.09970003 244.51008207 261.66948747 240.91243831 251.25 237.25 C250.2453067 236.89828735 249.2406134 236.54657471 248.20547485 236.1842041 C176.6208093 211.0972855 112.62327121 172.155711 65 112 C64.07220442 110.87343921 63.14239101 109.74853825 62.2109375 108.625 C43.4092264 85.80049717 29.71466918 59.83191715 15.9508667 33.79632568 C15.0009621 32.00181755 14.04803282 30.20894713 13.09423828 28.41650391 C11.28442645 25.01077138 9.48432523 21.60009863 7.6875 18.1875 C7.1423877 17.16253418 6.59727539 16.13756836 6.03564453 15.08154297 C3.43371221 10.10694183 1.26106053 5.47988121 0 0 Z " fill="#1B475D" transform="translate(216,413)"/>
<path d="M0 0 C0.89521866 -0.00570007 1.79043732 -0.01140015 2.71278381 -0.01727295 C4.59765468 -0.02665271 6.48254143 -0.03322867 8.36743164 -0.03710938 C11.1847161 -0.04674523 14.00124746 -0.07780796 16.81835938 -0.109375 C32.31674336 -0.20070488 47.56029978 1.19359011 62.41015625 5.890625 C63.64016357 6.27299316 63.64016357 6.27299316 64.89501953 6.66308594 C83.6573893 12.7229368 99.13584501 22.51848736 113.28515625 36.203125 C113.82430664 36.72036133 114.36345703 37.23759766 114.91894531 37.77050781 C131.41331717 53.86764247 145.44618075 75.82816988 145.78515625 99.390625 C145.63167389 112.83793238 140.37212877 122.95865354 131.28515625 132.703125 C105.0959255 157.84128295 65.07310311 163.83039722 30.28515625 163.203125 C-37.41870887 160.41166623 -104.94868266 137.66754527 -158.71484375 96.203125 C-159.32360352 95.73616211 -159.93236328 95.26919922 -160.55957031 94.78808594 C-169.53752699 87.88913179 -178.20841449 80.67441963 -186.71484375 73.203125 C-187.25415527 72.73374512 -187.7934668 72.26436523 -188.34912109 71.78076172 C-207.16302547 55.34952985 -207.16302547 55.34952985 -209.71484375 46.203125 C-209.42688263 44.52802283 -209.09869362 42.85888711 -208.71484375 41.203125 C-208.08956787 41.11861084 -207.46429199 41.03409668 -206.82006836 40.94702148 C-193.82205716 39.15423284 -181.01737858 36.98067827 -168.2265625 34.046875 C-167.56945911 33.89733809 -166.91235573 33.74780117 -166.23534012 33.59373283 C-152.28013788 30.4147317 -138.41980986 26.88224901 -124.56497192 23.29312134 C-35.26494963 0.18070865 -35.26494963 0.18070865 0 0 Z " fill="#1B475D" transform="translate(649.71484375,416.796875)"/>
<path d="M0 0 C6.38464733 2.25040998 11.61086335 6.21931385 17.125 10.0625 C34.05711028 21.75766789 52.42593255 28.05821435 71.84716797 34.43481445 C124.56925377 51.80160929 124.56925377 51.80160929 136.125 72.0625 C137.2895997 75.04907402 138.07450362 78.07112965 138.8125 81.1875 C139.01963623 82.01483643 139.22677246 82.84217285 139.44018555 83.69458008 C141.0826187 90.4307094 142.29662738 97.17587985 143.125 104.0625 C140.9375 104.875 140.9375 104.875 138.125 105.0625 C136.1645164 103.44703572 134.74418948 101.98241253 133.125 100.0625 C132.00324232 98.82647673 130.87802052 97.59359158 129.75 96.36328125 C127.92467889 94.35741207 126.10251253 92.3497977 124.296875 90.32617188 C118.2518813 83.72267333 113.2009451 82.48932259 104.2890625 81.86328125 C97.90991506 81.63028972 92.22707312 81.82385464 87.125 86.0625 C84.10765062 90.75283518 84.5167897 95.69213246 85.125 101.0625 C88.46785148 115.56982632 95.87432163 128.94019021 105.59375 140.14453125 C107.125 142.0625 107.125 142.0625 108.125 145.0625 C108.76816162 145.35455322 109.41132324 145.64660645 110.07397461 145.94750977 C112.125 147.0625 112.125 147.0625 113.17407227 149.22631836 C113.42729248 150.10940674 113.6805127 150.99249512 113.94140625 151.90234375 C114.37549805 153.37477539 114.37549805 153.37477539 114.81835938 154.87695312 C115.10517578 155.90755859 115.39199219 156.93816406 115.6875 158 C116.12352539 159.49370117 116.12352539 159.49370117 116.56835938 161.01757812 C117.74588762 165.07702115 118.88885588 169.13993336 119.93701172 173.23486328 C120.32203857 174.72928955 120.32203857 174.72928955 120.71484375 176.25390625 C121.05116821 177.60464233 121.05116821 177.60464233 121.39428711 178.98266602 C121.91990985 181.24979806 121.91990985 181.24979806 124.125 182.0625 C124.94140625 185.0546875 124.94140625 185.0546875 125.6875 188.9375 C125.93628906 190.19304687 126.18507813 191.44859375 126.44140625 192.7421875 C127.89068606 201.22107658 128.29306267 209.72457346 128.25 218.3125 C128.24806641 219.28960937 128.24613281 220.26671875 128.24414062 221.2734375 C128.15414366 237.87287846 127.6010804 254.47059148 127.125 271.0625 C126.465 271.3925 125.805 271.7225 125.125 272.0625 C124.91931396 271.12156494 124.71362793 270.18062988 124.50170898 269.21118164 C115.96379495 230.41572105 102.8233394 198.48252551 68.24511719 175.41650391 C64.49406854 173.02091249 60.65975206 170.81290606 56.75 168.6875 C56.04488281 168.2948999 55.33976563 167.9022998 54.61328125 167.49780273 C40.29730308 160.0362666 24.76152586 158.02834131 8.9375 156.375 C6.18829942 156.07791326 3.43973175 155.77634386 0.69181824 155.46757507 C-0.99802696 155.27863766 -2.68867681 155.09671063 -4.38017273 154.923172 C-8.76181122 154.44344528 -12.79538351 153.84509131 -16.875 152.0625 C-20.31502163 146.5133742 -20.38292345 141.15633292 -20.3125 134.75 C-20.30347656 133.7487207 -20.29445313 132.74744141 -20.28515625 131.71582031 C-19.75660377 107.98234579 -16.05205643 72.02033172 1.125 54.0625 C3.08055911 52.3297261 5.06372704 50.63334413 7.0546875 48.94140625 C10.38552374 45.91851524 13.25369625 42.51703733 16.125 39.0625 C14.66129169 35.60352614 12.76498898 33.63468512 10 31.125 C2.47061236 23.76563079 -5.38280163 12.93767393 -6.0625 2.0625 C-6.000625 1.4025 -5.93875 0.7425 -5.875 0.0625 C-3.875 -0.9375 -3.875 -0.9375 0 0 Z " fill="#1B475D" transform="translate(682.875,249.9375)"/>
<path d="M0 0 C0.93386032 -0.00233643 1.86772064 -0.00467285 2.82987976 -0.00708008 C5.91035233 -0.00869239 8.98932044 0.02531138 12.06958008 0.06005859 C14.20998087 0.0668482 16.35038914 0.07157028 18.49079895 0.0743103 C22.97227724 0.08498354 27.45325618 0.1116742 31.93457031 0.15136719 C37.68836785 0.20232634 43.44187884 0.22739113 49.19587231 0.24230385 C54.67464822 0.25706983 60.15335633 0.28230832 65.63208008 0.31005859 C66.6821694 0.31496937 67.73225872 0.31988014 68.81416893 0.32493973 C71.77332378 0.34116418 74.7323236 0.36456665 77.69140625 0.390625 C79.01534393 0.39701492 79.01534393 0.39701492 80.36602783 0.40353394 C86.42135149 0.46836618 86.42135149 0.46836618 88.65161133 1.58349609 C87.86164839 13.16961925 81.16056462 23.61210185 75.77822876 33.65014648 C69.37373948 45.66235214 63.80611522 57.27404437 60.65161133 70.58349609 C60.43504883 71.44217285 60.21848633 72.30084961 59.99536133 73.18554688 C46.88697073 125.53531982 53.50299383 178.30421752 60.68236828 230.98076344 C60.95374269 232.97275959 61.22326309 234.96500803 61.49275208 236.95726013 C61.82724681 239.42483237 62.1656488 241.89187919 62.5085907 244.35829163 C63.24737624 249.81590578 63.86146855 255.07486874 63.65161133 260.58349609 C49.01276528 253.99094418 36.26906548 237.9562209 26.65161133 225.58349609 C25.47018555 224.11009766 25.47018555 224.11009766 24.26489258 222.60693359 C-12.98602908 175.77278727 -38.20861085 112.7776623 -31.87963867 52.36474609 C-29.53919388 34.70826556 -21.66615447 -0.40549829 0 0 Z " fill="#1B475D" transform="translate(549.348388671875,675.41650390625)"/>
<path d="M0 0 C1.40970378 16.47787087 -9.54411912 28.62210107 -19.63012695 40.61669922 C-35.76815823 59.48445862 -35.76815823 59.48445862 -43.94845581 60.48101807 C-45.46024907 60.49250859 -46.9723112 60.48221456 -48.48388672 60.45410156 C-49.31381638 60.45468567 -50.14374603 60.45526978 -50.99882507 60.45587158 C-53.7262133 60.45309772 -56.45249158 60.42203951 -59.1796875 60.390625 C-61.07682702 60.38316011 -62.97397427 60.37746835 -64.87112427 60.37347412 C-69.85255403 60.35823731 -74.83351366 60.31897231 -79.8147583 60.2746582 C-84.90248252 60.23366336 -89.99028305 60.21545411 -95.078125 60.1953125 C-105.05228933 60.15247618 -115.0261055 60.08424849 -125 60 C-124.0447281 58.87656739 -123.08818365 57.75421675 -122.13110352 56.63232422 C-121.59856461 56.0071994 -121.0660257 55.38207458 -120.51734924 54.73800659 C-109.94841502 42.63210715 -95.07619515 34.37890997 -81 27 C-80.30229492 26.63406738 -79.60458984 26.26813477 -78.88574219 25.89111328 C-59.39534801 15.83513542 -38.41563838 9.21408322 -17.5 2.8125 C-16.84744232 2.60987549 -16.19488464 2.40725098 -15.52255249 2.19848633 C-13.67469123 1.62768853 -11.82180369 1.07324 -9.96875 0.51953125 C-8.91107422 0.20089111 -7.85339844 -0.11774902 -6.76367188 -0.44604492 C-4.02870846 -0.99424563 -2.58588277 -0.94564771 0 0 Z " fill="#1B475D" transform="translate(679,602)"/>
<path d="M0 0 C0.99661575 8.96954174 -2.9716123 14.08450884 -8.3203125 21 C-32.02580049 50.30009223 -67.27090865 78.71807076 -106 83 C-107.66647111 83.02553089 -109.33365249 83.03261534 -111 83 C-110.59652344 82.26523437 -110.19304688 81.53046875 -109.77734375 80.7734375 C-106.17573959 74.12079288 -102.69363093 67.4221056 -99.33984375 60.640625 C-98.85380928 59.65970383 -98.85380928 59.65970383 -98.35795593 58.65896606 C-96.71610142 55.34345136 -95.08146478 52.02464812 -93.45678711 48.70068359 C-83.98688491 29.44315188 -83.98688491 29.44315188 -76 25 C-72.75977514 23.95737487 -69.47428623 23.2732245 -66.140625 22.59765625 C-65.19620544 22.39321396 -64.25178589 22.18877167 -63.27874756 21.97813416 C-59.26439625 21.10937672 -55.24401408 20.27026787 -51.22363281 19.42993164 C-48.27681315 18.80940958 -45.33380628 18.17267674 -42.390625 17.53515625 C-41.49861389 17.3547731 -40.60660278 17.17438995 -39.68756104 16.98854065 C-31.2517831 15.15672915 -23.82076904 11.66975566 -16.9375 6.4375 C-5.47490648 -1.82496883 -5.47490648 -1.82496883 0 0 Z " fill="#1B475D" transform="translate(781,568)"/>
</svg>
