<?xml version="1.0" encoding="UTF-8"?>
<svg id="Layer_1" xmlns="http://www.w3.org/2000/svg" version="1.1" viewBox="0 0 500 500">
  <!-- Generator: Adobe Illustrator 29.2.1, SVG Export Plug-In . SVG Version: 2.1.0 Build 116)  -->
  <defs>
    <style>
      .st0 {
        fill: #0d2139;
      }

      .st1 {
        fill: #f0b501;
      }
    </style>
  </defs>
  <path class="st0" d="M360.37,139.71c.48.66-5.78,8.25-6.75,9.41-43.16,51.42-119.61,62.43-175.8,25.28-13.3-8.79-26.3-21.09-34.98-34.38,15.57-7.38,31.95-13.24,48.8-17.08,56.06-12.78,116.54-7.29,168.72,16.77Z"/>
  <path class="st0" d="M360.37,360.14c-20.02,9.17-41.11,16-62.89,19.72-51.73,8.82-107.34,2.87-154.63-20.01,42.58-61.24,129.61-74.51,189.25-29.34,8.83,6.69,21.92,18.8,27.68,28.17.29.47.85.56.59,1.46Z"/>
  <path class="st1" d="M437.35,281.35c-15.04-3.52-30.03-7.31-45.21-10.28-107.5-21.04-220.02-17.46-325.91,10.26-1-.3-2.18-5.5-2.55-6.89-4.03-14.84-4.25-32.24-.47-47.16.32-1.25,1.35-6.12,2.4-6.38,14.66,3.38,29.4,6.54,44.23,9.14,108.44,19.05,220.64,16.08,327.77-9.17,1.36.4,3.41,11.38,3.73,13.35,2.55,15.92,1.33,31.9-3.98,47.13Z"/>
  <path class="st0" d="M421.51,189.67c-7.48,2.68-14.74,6.31-22.19,9.26-101.52,40.19-218.87,37.08-317.61-9.57-.02-3.16,17.56-20.34,20.9-23.18,1.17-1,4.69-4.16,5.88-4.12,27.47,21.41,59.46,37.06,93.64,44.49,67.55,14.67,139.15-1.61,192.64-45.04,1.37,0,17.93,16.44,20,18.76.92,1.04,7.34,8.77,6.75,9.41Z"/>
  <path class="st0" d="M236.21,273.32c59.42-2.14,123.37,9.11,177.47,33.82,1.45.66,8.1,3.17,7.81,4.48-7.99,9.75-16.33,19.34-26.73,26.63-27.29-21.71-59.54-37.39-93.75-44.83-68.06-14.8-138.83,1.83-193.04,44.94-6.07-5.25-12.33-10.44-17.72-16.41-1.13-1.25-8.33-9.69-8.48-10.34-.22-.92.77-1.18,1.32-1.54,2.85-1.85,8.8-4.01,12.19-5.45,44.18-18.83,92.83-29.57,140.95-31.3Z"/>
</svg>