<?xml version="1.0" standalone="no"?>
<!DOCTYPE svg PUBLIC "-//W3C//DTD SVG 20010904//EN"
 "http://www.w3.org/TR/2001/REC-SVG-20010904/DTD/svg10.dtd">
<svg version="1.0" xmlns="http://www.w3.org/2000/svg"
 width="512.000000pt" height="512.000000pt" viewBox="0 0 512.000000 512.000000"
 preserveAspectRatio="xMidYMid meet">

<g transform="translate(0.000000,512.000000) scale(0.100000,-0.100000)"
fill="#000000" stroke="none">
<path d="M1910 4672 c-28 -11 -68 -40 -105 -77 -75 -75 -95 -126 -95 -242 l0
-83 -270 0 c-290 0 -321 -4 -354 -51 -14 -21 -16 -77 -16 -521 l0 -498 -281 0
c-305 0 -324 -3 -348 -57 -8 -17 -11 -415 -11 -1339 l0 -1316 29 -29 29 -29
2072 0 2072 0 29 29 29 29 0 1316 c0 998 -3 1321 -12 1341 -23 52 -43 55 -348
55 l-280 0 0 498 c0 444 -2 500 -16 521 -33 47 -64 51 -353 51 l-269 0 -4 98
c-5 117 -30 175 -106 244 -90 80 -73 78 -751 77 -531 0 -601 -2 -641 -17z
m1257 -225 l28 -27 0 -580 0 -580 -28 -27 -27 -28 -580 0 -580 0 -27 28 -28
27 0 579 c0 565 0 579 20 601 11 12 29 26 40 31 11 4 275 7 587 6 l568 -2 27
-28z m-1457 -796 c0 -346 2 -406 17 -451 21 -65 89 -142 157 -178 l51 -27 625
0 625 0 50 27 c60 32 114 87 146 148 24 45 24 46 27 463 l3 417 214 0 215 0 0
-1705 0 -1705 -375 0 -375 0 0 440 c0 478 -1 483 -55 508 -19 9 -148 12 -476
12 -491 0 -492 0 -518 -57 -7 -16 -11 -169 -11 -463 l0 -440 -375 0 -375 0 0
1705 0 1705 215 0 215 0 0 -399z m-642 -1838 l2 -1173 -215 0 -215 0 0 1175 0
1175 213 -2 212 -3 3 -1172z m3412 2 l0 -1175 -215 0 -215 0 0 1168 c0 643 3
1172 7 1175 3 4 100 7 215 7 l208 0 0 -1175z m-1600 -800 l0 -375 -320 0 -320
0 0 375 0 375 320 0 320 0 0 -375z"/>
<path d="M2513 4254 c-50 -25 -63 -65 -63 -193 l0 -111 -111 0 c-129 0 -169
-13 -193 -65 -20 -41 -20 -49 0 -90 24 -52 64 -65 193 -65 l111 0 0 -111 c0
-129 13 -169 65 -193 41 -20 49 -20 90 0 52 24 65 64 65 193 l0 111 111 0
c129 0 169 13 193 65 9 18 16 38 16 45 0 7 -7 27 -16 45 -24 52 -64 65 -193
65 l-111 0 0 111 c0 129 -13 169 -65 193 -41 20 -52 20 -92 0z"/>
<path d="M1774 2656 c-41 -18 -64 -52 -64 -96 0 -82 53 -110 210 -110 157 0
210 28 210 110 0 45 -23 78 -66 96 -45 19 -247 18 -290 0z"/>
<path d="M2414 2656 c-41 -18 -64 -52 -64 -96 0 -82 53 -110 210 -110 157 0
210 28 210 110 0 45 -23 78 -66 96 -45 19 -247 18 -290 0z"/>
<path d="M3054 2656 c-41 -18 -64 -52 -64 -96 0 -82 53 -110 210 -110 157 0
210 28 210 110 0 45 -23 78 -66 96 -45 19 -247 18 -290 0z"/>
<path d="M1739 2101 c-47 -48 -37 -130 21 -164 41 -25 279 -25 320 0 58 34 68
116 21 164 l-29 29 -152 0 -152 0 -29 -29z"/>
<path d="M2379 2101 c-47 -48 -37 -130 21 -164 41 -25 279 -25 320 0 58 34 68
116 21 164 l-29 29 -152 0 -152 0 -29 -29z"/>
<path d="M3019 2101 c-47 -48 -37 -130 21 -164 41 -25 279 -25 320 0 58 34 68
116 21 164 l-29 29 -152 0 -152 0 -29 -29z"/>
</g>
</svg>
