<?xml version="1.0" encoding="UTF-8"?>
<svg version="1.1" xmlns="http://www.w3.org/2000/svg" width="512" height="512">
<path d="M0 0 C0.87269531 -0.00524185 1.74539062 -0.0104837 2.64453125 -0.0158844 C4.48696836 -0.02229891 6.32944645 -0.02097498 8.171875 -0.01245117 C10.9903244 -0.00393548 13.80675049 -0.0327183 16.625 -0.06445312 C18.41666606 -0.06606513 20.20833571 -0.06548762 22 -0.0625 C23.26263672 -0.07935097 23.26263672 -0.07935097 24.55078125 -0.09654236 C28.1736549 -0.05339195 30.33785453 -0.00427447 33.40527344 2.02416992 C35.42595698 5.07715919 36.43465311 7.97962442 37.515625 11.48046875 C37.96224128 12.88964392 38.40910931 14.29873932 38.85620117 15.70776367 C39.08358978 16.43965912 39.31097839 17.17155457 39.54525757 17.92562866 C43.41791941 30.3334742 47.49977886 42.12945134 54 53.43359375 C54.58652344 54.53832031 55.17304688 55.64304687 55.77734375 56.78125 C61.64325555 67.58296074 68.83202604 77.47100116 76 87.43359375 C76.70817871 88.43108643 76.70817871 88.43108643 77.43066406 89.44873047 C78.6308358 91.13864824 79.8460379 92.81786426 81.0625 94.49609375 C81.71347656 95.39457031 82.36445313 96.29304688 83.03515625 97.21875 C85.14591478 99.59807423 87.20113096 100.95412225 90 102.43359375 C90.33 102.10359375 90.66 101.77359375 91 101.43359375 C90.51789063 100.53898437 90.03578125 99.644375 89.5390625 98.72265625 C82.28471289 84.96631653 80.1155426 73.03392333 83.953125 57.68359375 C88.02508023 45.0422999 95.88827366 36.40070559 107 29.43359375 C118.65693869 23.75165017 131.67555792 22.56443297 144.41015625 25.1171875 C147.08468283 26.04461326 149.49946261 27.1095387 152 28.43359375 C153.30324219 29.10455078 153.30324219 29.10455078 154.6328125 29.7890625 C166.72757218 36.52241379 174.24974083 46.74367311 178.3046875 59.96484375 C181.53725182 76.09134441 178.02742759 89.83226952 169 103.43359375 C175.87676655 100.59060152 179.14630472 97.43017866 183.25 91.30859375 C183.80010742 90.51598145 184.35021484 89.72336914 184.91699219 88.90673828 C186.62924876 86.42744167 188.31507727 83.93152116 190 81.43359375 C191.06160491 79.89131058 192.12408151 78.349627 193.1875 76.80859375 C206.62542447 57.17410424 217.17189523 37.10845413 223.65478516 14.13647461 C226.22188589 5.12506045 226.22188589 5.12506045 229 1.43359375 C232.34873542 -0.24077396 236.12032862 0.22725328 239.8046875 0.1953125 C241.11797531 0.18320488 241.11797531 0.18320488 242.45779419 0.17085266 C244.31217467 0.15701154 246.16658063 0.14628951 248.02099609 0.13842773 C250.85693566 0.12120346 253.69171286 0.07731732 256.52734375 0.03320312 C258.32811642 0.0230772 260.12889901 0.01456078 261.9296875 0.0078125 C262.77771942 -0.00969559 263.62575134 -0.02720367 264.4994812 -0.04524231 C270.38349988 -0.02356407 270.38349988 -0.02356407 273.53149414 2.31079102 C277.43577472 7.95463467 275.24356843 16.27279247 274.1875 22.67578125 C267.4321992 59.61667637 251.65313041 91.94748482 229.98828125 122.23828125 C227.19471389 126.14658511 224.46186484 130.09330335 221.75 134.05859375 C216.37078278 141.91666666 210.93016794 149.73149768 205.48144531 157.54150391 C204.82885742 158.47784668 204.17626953 159.41418945 203.50390625 160.37890625 C202.63487671 161.62438232 202.63487671 161.62438232 201.74829102 162.89501953 C201.17135498 163.73274902 200.59441895 164.57047852 200 165.43359375 C199.31520065 166.33126465 198.63040131 167.22893555 197.92485046 168.15380859 C195.70673786 171.93328806 195.48596515 174.09935034 195.45410156 178.44873047 C195.43859505 179.45953926 195.43859505 179.45953926 195.42277527 180.49076843 C195.39348573 182.69852063 195.39185116 184.90535056 195.390625 187.11328125 C195.37563384 188.65172052 195.35890472 190.19014374 195.34051514 191.72854614 C195.29693383 195.76282515 195.27686323 199.79688708 195.26177979 203.83135986 C195.24217521 207.95410956 195.20020906 212.07662597 195.16015625 216.19921875 C195.08495391 224.27731112 195.03667096 232.35523447 195 240.43359375 C189.72 240.43359375 184.44 240.43359375 179 240.43359375 C178.65774717 230.90457295 178.38408098 221.37978852 178.22281742 211.84595299 C178.14531908 207.41625748 178.04071931 202.99106664 177.8684082 198.56396484 C177.05374855 177.06093747 176.97080611 161.27866059 192.18624878 144.47186279 C194.61448898 141.74303936 196.56424371 138.86240474 198.578125 135.81640625 C199.80117638 134.06316905 201.02509897 132.31053919 202.25 130.55859375 C203.59270321 128.63168828 204.93515025 126.70460429 206.27734375 124.77734375 C206.91140137 123.86726563 207.54545898 122.9571875 208.19873047 122.01953125 C231.45519359 88.6321014 249.19717624 56.97198511 257 16.43359375 C251.72 16.43359375 246.44 16.43359375 241 16.43359375 C240.2575 19.77484375 240.2575 19.77484375 239.5 23.18359375 C232.42473516 52.52748562 215.46662675 77.34734486 198 101.43359375 C197.31808594 102.37589844 196.63617188 103.31820312 195.93359375 104.2890625 C190.00090484 112.21258661 182.96921092 119.09140212 172.80380249 120.80348206 C170.54111753 120.94766698 168.31006366 120.97481594 166.04296875 120.95117188 C165.19779694 120.95818115 164.35262512 120.96519043 163.48184204 120.97241211 C160.71671683 120.98986899 157.95263374 120.97841363 155.1875 120.96484375 C153.24894008 120.96754221 151.31038149 120.97142757 149.37182617 120.97644043 C145.32034343 120.98231882 141.26921482 120.97382618 137.21777344 120.95507812 C132.04296169 120.93228966 126.86897996 120.94542167 121.69419861 120.96936798 C117.69455796 120.98387092 113.69511182 120.9791994 109.69546509 120.96885681 C107.78821716 120.96620194 105.88095117 120.96941532 103.97372437 120.97877502 C101.30102232 120.98901509 98.62963611 120.97333663 95.95703125 120.95117188 C94.7924791 120.96331726 94.7924791 120.96331726 93.60440063 120.97570801 C85.14213169 120.84669069 77.2547485 117.09741672 71 111.43359375 C68.77287515 108.9012572 66.85042772 106.20812941 64.9375 103.43359375 C64.38803711 102.65322754 63.83857422 101.87286133 63.27246094 101.06884766 C61.49880574 98.53455377 59.74712476 95.98623901 58 93.43359375 C57.4013916 92.56444336 56.8027832 91.69529297 56.18603516 90.79980469 C48.5430917 79.66604456 41.20453094 68.43992745 35 56.43359375 C34.68482422 55.82386719 34.36964844 55.21414063 34.04492188 54.5859375 C30.30788703 47.23669569 27.26348068 39.74426435 24.625 31.93359375 C24.37403564 31.19189941 24.12307129 30.45020508 23.86450195 29.68603516 C22.39070746 25.14393307 21.69679628 21.31116772 21 16.43359375 C15.72 16.43359375 10.44 16.43359375 5 16.43359375 C12.13826122 52.58543281 25.98357776 82.36325186 47 112.43359375 C48.44232463 114.51759386 49.88375646 116.60221221 51.32421875 118.6875 C53.99738284 122.54905066 56.68085331 126.40306124 59.375 130.25 C62.98454238 135.40419194 66.5562873 140.58345738 70.11303711 145.77416992 C70.4972583 146.33467041 70.88147949 146.8951709 71.27734375 147.47265625 C71.65540665 148.04514099 72.03346954 148.61762573 72.42298889 149.2074585 C74.03457591 151.55033313 74.03457591 151.55033313 76.20373535 154.03504944 C83.62642269 163.35441093 84.22500662 170.68185708 83.87890625 182.328125 C83.86207723 184.01344875 83.8492864 185.69881715 83.84031677 187.38420105 C83.80628732 191.77639765 83.71818717 196.16582732 83.61798096 200.5569458 C83.52517636 205.05516137 83.48465338 209.55383322 83.43945312 214.05273438 C83.34352179 222.84775286 83.1855053 231.64000821 83 240.43359375 C77.39 240.43359375 71.78 240.43359375 66 240.43359375 C66.03778564 238.41258545 66.07557129 236.39157715 66.11450195 234.30932617 C66.23105072 227.55204848 66.27379687 220.79565618 66.28240681 214.03742504 C66.28979567 209.94832465 66.32028243 205.86239942 66.40795898 201.77416992 C66.79351176 182.95921701 67.06585031 167.85125341 53.60494995 153.21908569 C51.31980444 150.6768825 49.50848842 147.95640745 47.6171875 145.109375 C46.37041226 143.32118173 45.12302967 141.53341175 43.875 139.74609375 C37.97060005 131.27117667 32.06854709 122.79543038 26.25146484 114.26025391 C24.99696298 112.42916086 23.72769527 110.60896556 22.45703125 108.7890625 C4.45370103 82.75374461 -6.88163511 53.02305209 -12.5 21.93359375 C-12.67241211 20.99668701 -12.84482422 20.05978027 -13.02246094 19.09448242 C-13.93410572 13.59518973 -14.30351224 8.88903387 -13 3.43359375 C-9.46138365 -0.5879301 -4.96458916 -0.01731405 0 0 Z M107 51.24609375 C101.33233733 58.54493739 98.70533721 66.15812171 99 75.43359375 C100.19428981 84.53533921 104.09329055 91.51830847 111.28125 97.25390625 C120.00860957 103.27578435 127.53786282 104.32003006 138 103.43359375 C141.35074267 102.54804033 144.06253366 101.25231018 147 99.43359375 C147.62261719 99.08296875 148.24523437 98.73234375 148.88671875 98.37109375 C155.02827225 94.53428809 158.59587313 88.75243909 161.375 82.18359375 C162.93284886 72.83650057 162.93257838 64.69241741 158 56.43359375 C157.4740625 55.49580078 157.4740625 55.49580078 156.9375 54.5390625 C152.62642891 47.66829295 145.7172223 43.54175954 138 41.43359375 C125.84023474 39.99978923 115.60802606 42.14565942 107 51.24609375 Z " fill="#000000" transform="translate(125,255.56640625)"/>
<path d="M0 0 C2.94296558 1.94036938 5.53864622 3.84988395 7.9375 6.4375 C11.11583021 4.97169474 13.76093563 3.15226626 16.5625 1.0625 C28.79472346 -7.62310245 41.34751063 -8.66108968 55.9375 -7.5625 C67.00763699 -5.36604425 76.38264937 1.37337062 82.9375 10.4375 C90.17702402 22.26959707 90.81095407 36.95000573 88.3203125 50.39453125 C81.11262101 78.30041643 57.82240287 102.07473267 35.9375 119.4375 C34.68638877 120.45436347 33.4364522 121.47267338 32.1875 122.4921875 C30.8751957 123.55753277 29.56269712 124.62263879 28.25 125.6875 C27.34181519 126.4307251 27.34181519 126.4307251 26.4152832 127.18896484 C24.61341111 128.64052039 22.78894068 130.04977101 20.9375 131.4375 C20.29216309 131.92283203 19.64682617 132.40816406 18.98193359 132.90820312 C15.04349436 135.64080161 11.81577221 137.28543702 6.94677734 136.93994141 C2.96627929 135.94457506 -0.03299019 133.58365855 -3.25 131.125 C-3.98758545 130.58174072 -4.7251709 130.03848145 -5.48510742 129.47875977 C-12.26654087 124.4255099 -18.74619039 119.0567394 -25.0625 113.4375 C-25.56587891 112.99583496 -26.06925781 112.55416992 -26.58789062 112.09912109 C-46.09993629 94.94780753 -68.86351447 71.21535486 -71.28125 43.97265625 C-72.10488287 29.95030667 -71.3683543 17.52622325 -61.9140625 6.40234375 C-45.44247722 -11.07699675 -20.03380141 -12.31244045 0 0 Z M22.75 18.1875 C20.11960827 20.91512411 18.19579834 23.56067099 16.375 26.875 C14.48214111 30.12994992 14.2342432 30.34379162 10.375 31.5625 C6.98232749 31.43913009 5.71409939 31.21452361 2.9375 29.4375 C1.55078125 27.5546875 1.55078125 27.5546875 0.25 25.3125 C-3.9842444 18.69982612 -9.90937728 12.20914885 -17.63671875 9.83984375 C-26.95504901 8.29429139 -35.91814433 8.35172331 -44.0625 13.4375 C-44.97 13.97375 -45.8775 14.51 -46.8125 15.0625 C-53.16080502 21.76348864 -54.81137552 28.84506653 -54.6472168 37.91259766 C-53.66302637 56.78833405 -41.55392485 72.85968718 -28.68066406 85.8046875 C-26.99332105 87.50730519 -25.33592624 89.23589485 -23.6796875 90.96875 C-16.51867972 98.38338729 -9.03467598 105.12337726 -0.70751953 111.21142578 C0.46239857 112.08339502 1.60504349 112.99248091 2.72705078 113.92529297 C4.72353269 115.58513309 4.72353269 115.58513309 7.9375 117.4375 C12.48909672 116.75511224 15.97353565 113.33352956 19.5 110.5 C20.11351318 110.01128418 20.72702637 109.52256836 21.35913086 109.01904297 C27.47340949 104.09446322 33.27188971 98.8696075 38.9375 93.4375 C39.47793945 92.92429199 40.01837891 92.41108398 40.57519531 91.88232422 C55.40464914 77.73710811 71.58604807 59.80665849 72.35668945 38.30102539 C72.43395755 29.3822264 71.41884827 22.10402965 64.9375 15.4375 C52.41868425 4.79650662 34.06758538 7.39877375 22.75 18.1875 Z " fill="#000000" transform="translate(247.0625,87.5625)"/>
<path d="M0 0 C2.71267273 1.28444322 4.53852299 3.08875864 6.66870117 5.19140625 C7.47952148 5.97128906 8.2903418 6.75117187 9.12573242 7.5546875 C10.85620117 9.87890625 10.85620117 9.87890625 10.75756836 11.71264648 C9.48342864 14.77479214 7.52678968 16.54371753 5.16479492 18.86328125 C4.70009293 19.3237384 4.23539093 19.78419556 3.75660706 20.25860596 C2.27588299 21.72258436 0.78505598 23.17576666 -0.70629883 24.62890625 C-1.71414547 25.62170074 -2.72131516 26.61518295 -3.7277832 27.609375 C-6.19199344 30.04057098 -8.66537212 32.46219493 -11.14379883 34.87890625 C-14.77682967 33.18304499 -17.08928928 31.14090137 -19.89379883 28.25390625 C-20.69301758 27.43664062 -21.49223633 26.619375 -22.31567383 25.77734375 C-22.91895508 25.15085937 -23.52223633 24.524375 -24.14379883 23.87890625 C-21.66443 18.05046427 -16.66065896 13.985985 -12.26879883 9.56640625 C-10.90174805 8.15004883 -10.90174805 8.15004883 -9.50708008 6.70507812 C-8.18643555 5.37379883 -8.18643555 5.37379883 -6.83911133 4.015625 C-6.03489746 3.19795654 -5.23068359 2.38028809 -4.40209961 1.5378418 C-2.14379883 -0.12109375 -2.14379883 -0.12109375 0 0 Z " fill="#000000" transform="translate(347.143798828125,42.12109375)"/>
<path d="M0 0 C3.06214566 1.27413972 4.83107105 3.23077868 7.15063477 5.59277344 C7.8413205 6.28982643 7.8413205 6.28982643 8.54595947 7.0009613 C10.00993788 8.48168537 11.46312017 9.97251238 12.91625977 11.46386719 C13.90905426 12.47171383 14.90253647 13.47888352 15.89672852 14.48535156 C18.32792449 16.9495618 20.74954845 19.42294048 23.16625977 21.90136719 C21.47039851 25.53439803 19.42825489 27.84685764 16.54125977 30.65136719 C15.31536133 31.85019531 15.31536133 31.85019531 14.06469727 33.07324219 C13.43821289 33.67652344 12.81172852 34.27980469 12.16625977 34.90136719 C6.33781778 32.42199836 2.27333851 27.41822732 -2.14624023 23.02636719 C-3.09047852 22.115 -4.0347168 21.20363281 -5.00756836 20.26464844 C-5.89508789 19.38421875 -6.78260742 18.50378906 -7.69702148 17.59667969 C-8.51468994 16.79246582 -9.3323584 15.98825195 -10.17480469 15.15966797 C-11.83374023 12.90136719 -11.83374023 12.90136719 -11.71264648 10.75756836 C-10.42820326 8.04489563 -8.62388785 6.21904537 -6.52124023 4.08886719 C-5.35141602 2.87263672 -5.35141602 2.87263672 -4.15795898 1.63183594 C-1.83374023 -0.09863281 -1.83374023 -0.09863281 0 0 Z " fill="#000000" transform="translate(165.833740234375,42.0986328125)"/>
<path d="M0 0 C10.56 0 21.12 0 32 0 C32 5.28 32 10.56 32 16 C21.44 16 10.88 16 0 16 C0 10.72 0 5.44 0 0 Z " fill="#000000" transform="translate(360,128)"/>
<path d="M0 0 C10.56 0 21.12 0 32 0 C32 5.28 32 10.56 32 16 C21.44 16 10.88 16 0 16 C0 10.72 0 5.44 0 0 Z " fill="#000000" transform="translate(120,128)"/>
<path d="M0 0 C5.28 0 10.56 0 16 0 C16 10.56 16 21.12 16 32 C10.72 32 5.44 32 0 32 C0 21.44 0 10.88 0 0 Z " fill="#000000" transform="translate(248,16)"/>
</svg>
