<?xml version="1.0" encoding="UTF-8"?>
<svg version="1.1" xmlns="http://www.w3.org/2000/svg" width="1042" height="1042">
<path d="M0 0 C1.1932338 -0.00350464 2.38646759 -0.00700928 3.61585999 -0.01062012 C6.85976073 -0.01786778 10.10349578 -0.01623423 13.34739375 -0.00986195 C16.76151137 -0.00475748 20.17561883 -0.00950576 23.58973694 -0.01263428 C29.32156324 -0.01626156 35.05333782 -0.01150798 40.78515625 -0.00195312 C47.38578089 0.00892385 53.98628187 0.00540638 60.58690351 -0.00560594 C66.28065888 -0.01472047 71.9743773 -0.01594368 77.66813761 -0.0107286 C81.05705288 -0.00763102 84.44591029 -0.00713789 87.8348217 -0.01380157 C91.61782932 -0.01891068 95.4006034 -0.0110947 99.18359375 0 C100.28782684 -0.00404846 101.39205994 -0.00809692 102.52975464 -0.01226807 C112.02675471 0.03903315 121.86509738 0.33732752 129.65649414 6.25878906 C138.41777057 15.93123825 136.94294513 30.5864207 136.88354492 42.772995 C136.88298393 44.42115596 136.88331272 46.06931743 136.8844471 47.7174781 C136.88503482 52.21821881 136.87321719 56.71885256 136.85930729 61.21956861 C136.84650531 66.08475279 136.84541672 70.94994134 136.84295654 75.81513977 C136.83719419 84.23888027 136.82433314 92.66258553 136.80682373 101.08630943 C136.78165811 113.28396672 136.76954859 125.48161105 136.760957 137.67929003 C136.74683363 157.4957577 136.72524087 177.312209 136.69750977 197.12866211 C136.69585414 198.31366272 136.69419852 199.49866334 136.69249272 200.71957306 C136.67900779 210.33096511 136.66516031 219.94235663 136.65128708 229.55374813 C136.63918375 237.94818537 136.62722183 246.3426228 136.61547852 254.73706055 C136.61382226 255.91909424 136.61216601 257.10112794 136.61045957 258.31898084 C136.58304784 278.05736466 136.56355063 297.79574876 136.54965782 317.53414661 C136.54071707 329.69433081 136.52468182 341.85446601 136.49936819 354.01462737 C136.482462 362.35353016 136.47272264 370.69242171 136.46851778 379.0313405 C136.46583939 383.83546523 136.45989866 388.63952656 136.44499969 393.44363022 C136.43137927 397.85238919 136.42725465 402.26105715 136.43027091 406.66983519 C136.42973362 408.25389203 136.42586605 409.83795254 136.41808534 411.42199036 C136.35282492 425.37005388 137.12674798 439.43056634 140.84399414 452.94628906 C141.05830078 453.73318115 141.27260742 454.52007324 141.4934082 455.33081055 C146.11758124 471.43529436 154.76425852 484.93545737 169.65649414 493.25878906 C195.90791897 505.76508583 224.99434007 504.41204044 253.3840332 504.38818359 C256.12367331 504.38899269 258.86331176 504.39128877 261.60295105 504.39349365 C268.23378527 504.39790763 274.86460808 504.39699298 281.49544272 504.39408101 C286.91353532 504.39180279 292.33162477 504.39152483 297.74971771 504.39260483 C298.52736811 504.39275806 299.3050185 504.39291129 300.10623406 504.39306917 C301.68754143 504.39338899 303.26884879 504.39371321 304.85015616 504.39404176 C319.6437341 504.39688557 334.43730582 504.39363037 349.23088273 504.3882414 C361.79088787 504.38380622 374.35088372 504.38452403 386.91088867 504.38916016 C401.60342299 504.39458117 416.29595182 504.39657793 430.98848701 504.39354789 C432.57429234 504.39322948 434.16009768 504.3929151 435.74590302 504.39260483 C436.52542303 504.39245055 437.30494304 504.39229628 438.10808487 504.39213733 C443.4706201 504.39129199 448.83315167 504.39271668 454.19568634 504.39508438 C482.81996697 504.40636535 511.4457043 504.3842352 540.06771231 503.98637366 C542.43253292 503.95479101 544.79741563 503.92748553 547.16234064 503.90504289 C582.48100635 503.55105196 613.30595577 496.31181754 638.92919922 470.47216797 C657.92377682 450.49446978 667.47391958 422.34050852 666.90258789 394.95019531 C664.84663 364.110827 654.34012393 336.09904522 630.65649414 315.25878906 C605.52520139 294.6243393 573.5028985 286.3820272 541.34643555 289.48144531 C537.01763398 290.06840146 532.85606083 291.07392838 528.65649414 292.25878906 C527.4305957 292.59910156 526.20469727 292.93941406 524.94165039 293.29003906 C495.63343124 302.24280776 473.32566812 323.02053732 458.84399414 349.63378906 C447.15831279 371.95222845 444.41686683 396.79198623 451.78149414 421.00878906 C456.01673813 434.21695303 461.93423655 446.63757768 469.18774414 458.43847656 C470.65649414 461.25878906 470.65649414 461.25878906 470.65649414 465.25878906 C448.64669353 465.30554542 426.63690112 465.34079574 404.62706089 465.36241341 C394.40711874 465.37271842 384.18720748 465.38676396 373.96728516 465.40966797 C365.05782088 465.42962555 356.14837898 465.44251113 347.23889297 465.44696605 C342.52302431 465.44956941 337.80721965 465.45567235 333.09137154 465.47024918 C328.64846018 465.48387049 324.20563892 465.48800252 319.76270866 465.48500443 C318.13618861 465.48555256 316.50966539 465.48950282 314.88316345 465.49720001 C293.43933909 465.59366286 293.43933909 465.59366286 285.65649414 459.25878906 C278.83826074 452.44055566 276.86885663 442.08872804 275.03149414 432.94628906 C274.81984619 431.90375977 274.60819824 430.86123047 274.39013672 429.78710938 C264.86858022 380.98404405 273.75880707 331.6056078 295.65649414 287.25878906 C296.07125 286.41155273 296.48600586 285.56431641 296.91333008 284.69140625 C305.75225735 266.79407495 316.25318493 249.91277968 328.65649414 234.25878906 C329.37063477 233.35257813 330.08477539 232.44636719 330.82055664 231.51269531 C343.21802187 216.0706229 357.0056545 201.42435769 372.65649414 189.25878906 C373.63875977 188.47117187 374.62102539 187.68355469 375.63305664 186.87207031 C426.62174536 146.31671064 493.88391564 125.05927231 558.65649414 125.00878906 C559.83435486 125.00777695 559.83435486 125.00777695 561.03601074 125.00674438 C625.32392612 125.09369022 688.61651976 146.65352857 738.65649414 187.25878906 C739.23351074 187.7201123 739.81052734 188.18143555 740.4050293 188.65673828 C748.56748615 195.21759516 756.04025435 202.4470769 763.46899414 209.82128906 C764.34072266 210.68367187 765.21245117 211.54605469 766.1105957 212.43457031 C806.48387255 253.00763878 831.30826506 308.28939186 840.65649414 364.25878906 C840.853479 365.38365723 840.853479 365.38365723 841.05444336 366.53125 C846.4262751 398.3704659 842.64428241 432.27714618 834.65649414 463.25878906 C834.37467285 464.37278076 834.37467285 464.37278076 834.0871582 465.50927734 C827.06661087 492.78429144 814.17072232 519.49294351 797.65649414 542.25878906 C796.89723633 543.309375 796.13797852 544.35996094 795.35571289 545.44238281 C779.56737262 566.84799095 760.98662595 588.20535217 739.65649414 604.25878906 C738.70613281 604.99911377 738.70613281 604.99911377 737.73657227 605.75439453 C682.57946591 648.71767779 620.88001639 661.51490318 552.56671143 663.26495361 C549.77401991 663.33778311 546.98149609 663.41606313 544.18896735 663.49485469 C535.21045498 663.74735991 526.23140759 663.9734718 517.25207376 664.19453049 C514.69041618 664.25794926 512.12878966 664.32251959 509.56716537 664.38726807 C481.82431039 665.08339086 454.09801693 665.4213852 426.34676623 665.42583132 C422.20017927 665.42710741 418.05359762 665.43161885 413.90701288 665.43592358 C400.58948581 665.44936763 387.27197458 665.44951058 373.9544425 665.44676447 C370.51996815 665.44628746 367.08549441 665.44644041 363.65102005 665.44681931 C308.96037193 665.45271395 254.27511118 665.4489225 199.59399414 664.32128906 C198.52903465 664.29947445 197.46407516 664.27765984 196.36684418 664.25518417 C183.12831511 663.9809031 169.89198078 663.65307846 156.65649414 663.25878906 C155.60062733 663.22797052 155.60062733 663.22797052 154.52342987 663.19652939 C150.07391179 663.06637435 145.62490554 662.92473492 141.17602539 662.77441406 C140.14549545 662.74182999 139.11496552 662.70924591 138.0532074 662.67567444 C89.39865952 660.8760424 44.33690138 637.37584267 11.34985352 602.14306641 C2.62607064 592.43571977 -4.32375335 581.65027573 -10.36157227 570.11572266 C-11.2560088 568.42425465 -12.19402762 566.75601532 -13.13647461 565.09082031 C-22.32059923 548.17269601 -28.25111013 528.23379048 -31.34350586 509.25878906 C-31.59185824 507.76388376 -31.59185824 507.76388376 -31.84522784 506.23877835 C-33.44060945 495.61431236 -33.63044906 485.18730223 -33.6109314 474.45819092 C-33.61467478 472.48967797 -33.61927902 470.52116651 -33.62466204 468.55265737 C-33.63682129 463.18061796 -33.63664001 457.80864115 -33.63427329 452.43659115 C-33.63386335 446.62880953 -33.64492069 440.82104751 -33.65438843 435.01327515 C-33.67095773 423.65167453 -33.67649602 412.29009467 -33.67761318 400.92848298 C-33.67856507 391.69409196 -33.68268233 382.45970777 -33.68901443 373.22531891 C-33.69080353 370.56192883 -33.69258926 367.89853875 -33.69436419 365.23514867 C-33.69480629 364.57294144 -33.69524838 363.91073421 -33.69570388 363.2284601 C-33.7079989 344.62186482 -33.71590629 326.01527186 -33.71501732 307.40867233 C-33.71497058 306.35796157 -33.71497058 306.35796157 -33.7149229 305.28602433 C-33.7147567 301.73613686 -33.71455862 298.18624939 -33.71435349 294.63636193 C-33.7143136 293.93140091 -33.71427371 293.2264399 -33.71423261 292.50011643 C-33.71415173 291.07451911 -33.71406814 289.64892178 -33.71398182 288.22332445 C-33.71275541 266.02678649 -33.72779172 243.83030956 -33.75512695 221.63378906 C-33.78585739 196.67031742 -33.8030591 171.70688588 -33.80120051 146.74339414 C-33.80045994 133.53443557 -33.80603168 120.32554299 -33.82755661 107.11660004 C-33.84575582 95.87696462 -33.85012561 84.6374294 -33.83653776 73.39778563 C-33.83000341 67.66474411 -33.82990836 61.9318949 -33.84724426 56.19887161 C-33.86295756 50.94851005 -33.86012896 45.69849359 -33.842676 40.44814053 C-33.83960245 38.55136516 -33.84325184 36.65456415 -33.85439615 34.75781903 C-33.97722519 12.36547314 -33.97722519 12.36547314 -27.76156741 5.51538181 C-20.4165983 -0.76349636 -9.05840476 -0.03315016 0 0 Z " fill="#1B475D" transform="translate(116.343505859375,187.7412109375)"/>
<path d="M0 0 C2.51229318 1.96284746 4.93792665 3.98994444 7.33984375 6.0859375 C7.95472656 6.60542969 8.56960938 7.12492188 9.203125 7.66015625 C20.15786471 17.65793019 28.40080684 33.62329863 29.5168457 48.43505859 C30.08320321 70.84115444 25.99428238 89.03429032 10.33984375 106.0859375 C-3.35493775 120.37822256 -23.30617486 129.61860394 -43.19140625 130.421875 C-65.77959292 130.7682272 -86.4225948 126.7473017 -103.66015625 111.0859375 C-104.40523437 110.43238281 -105.1503125 109.77882813 -105.91796875 109.10546875 C-119.60408367 96.37042283 -126.68169172 78.89462471 -127.6171875 60.41455078 C-127.99578284 39.89726463 -122.33787376 21.61981504 -108.13671875 6.46875 C-79.13683767 -21.43334379 -32.29287411 -23.23569503 0 0 Z " fill="#1B475D" transform="translate(721.66015625,525.9140625)"/>
</svg>
