<?xml version="1.0" encoding="UTF-8"?>
<svg id="Layer_1" xmlns="http://www.w3.org/2000/svg" version="1.1" viewBox="0 0 500 500">
  <!-- Generator: Adobe Illustrator 29.2.1, SVG Export Plug-In . SVG Version: 2.1.0 Build 116)  -->
  <defs>
    <style>
      .st0 {
        fill: #0d2139;
      }

      .st1 {
        fill: #f0b501;
      }
    </style>
  </defs>
  <path class="st0" d="M433.7,154.33v68.5c0,8.67,0,17.42,0,26.1-.01,20.61.26,41.37,0,61.98-.13,10.77.3,21.66-.2,32.42l-171.05,90.76c-45.58-25.81-92.79-48.98-138.63-74.25-4.57-2.52-9.73-4.64-13.05-6.52-2.76-1.57-4.62-2.24-6.52-3.26-3.24-1.74-10.51-6.93-13.05-9.79v-185.93l171.25-91.43,171.25,91.43ZM387.84,317.23l-1.27-136.98-124.13-65.31-124.12,65.32-1.27,136.96,125.39,65.54,125.39-65.53Z"/>
  <path class="st1" d="M387.84,317.23l-125.39,65.53-125.39-65.54,1.27-136.96,124.12-65.32,124.13,65.31,1.27,136.98ZM348.69,200.2l-86.24-42.85-86.25,42.84,1.35,94.48,84.89,45.68,84.98-45.59,1.26-94.57Z"/>
  <path class="st0" d="M348.69,200.2l-1.26,94.57-84.98,45.59-84.89-45.68-1.35-94.48,86.25-42.84,86.24,42.85ZM322.59,281.34l-.13-63.08-60.02-33.8-58.88,31.68c-2.17,3.19-2.74,54.29-1.06,60.11,2.51,8.72,49.13,29.98,59.94,34.75l60.15-29.66Z"/>
</svg>