<?xml version="1.0" encoding="UTF-8"?>
<svg id="Layer_1" xmlns="http://www.w3.org/2000/svg" version="1.1" viewBox="0 0 500 500">
  <!-- Generator: Adobe Illustrator 29.2.1, SVG Export Plug-In . SVG Version: 2.1.0 Build 116)  -->
  <defs>
    <style>
      .st0 {
        fill: #0d2139;
      }
    </style>
  </defs>
  <path class="st0" d="M278.32,62.22c5.35,1.39,10.83,1.93,16.22,3.28,79.42,20.02,106.77,117.09,51.86,177.08,67.4,52.17,62.38,158.85-10.77,203.45-70.2,42.8-158.95,7.87-184.31-68.81v-238l21.5-21c1.64.75-.5,2.33-.5,2.5v233c0,7.76,7.57,26.28,11.48,33.52,23.18,42.95,73.59,62.09,119.77,45.72,75.64-26.81,87.98-129.7,21.25-173.45-9.13,5.65-19.01,10.19-29.49,12.72l13.9,7.58c62.53,42.8,31.08,137.94-46.46,132.46-33.08-2.34-61.91-31.59-64.49-64.51-3.85-49.18,2.92-103.38.08-153.08.62-29.76-4.38-66.76-1.05-95.95.51-4.5,2.27-6.68,4.98-10.02,7.65-9.43,19.79-20.05,30.02-26.48h46ZM223.32,139.22c-.25,16.16.31,32.37.04,48.54-.82,48.65-4.13,103.77-1.09,152.01,1.56,24.77,17.73,46.18,43.68,48.32,51.31,4.22,71.75-64.43,27.04-89.04-18.44-10.15-35.17-3.59-54.19-5.81-13.56-1.58-7.16-27.86-7.43-37.42.64-2.9,3.66-5.09,6.51-5.55,9.45-1.5,22.87.61,32.99-.01,86.81-5.36,108.07-119.49,31.81-154.9-5.25-2.44-18.49-7.14-23.86-7.14h-55.5v25h45.5c63.28,0,75.54,94.12,13.3,109.3-11.02,2.69-42.03-.24-47.33,3.67-1.81,1.34-1.73,3.57-3.46,4.03,1.71-7.81-4.22-24.69,3.03-29.45,5.3-3.48,28.31-.75,36.45-1.55,27.31-2.7,37.85-36.89,15.99-53.97-2.06-1.61-9.87-6.02-11.98-6.02h-51.5Z"/>
</svg>