<?xml version="1.0" encoding="UTF-8"?>
<svg id="Layer_1" xmlns="http://www.w3.org/2000/svg" version="1.1" viewBox="0 0 500 500">
  <!-- Generator: Adobe Illustrator 29.2.1, SVG Export Plug-In . SVG Version: 2.1.0 Build 116)  -->
  <defs>
    <style>
      .st0 {
        fill: #0d2139;
      }

      .st1 {
        fill: #f0b501;
      }
    </style>
  </defs>
  <path class="st1" d="M365.1,151.6c25.88.12,62.45-7.48,71.89,24.16l.37,219.08c-1.51,16.91-15.75,27.88-32.02,29.28-65.94,5.7-140.17-4.23-206.96-.22-10.42-1.24-20.48-5.44-26.51-14.37-7.79-11.55-5.42-22.81-5.68-35.87,36.55.16,73.17-.42,109.73-.06,7.39.07,14.88,1.96,23.17,1.48,17.65-1.02,26.5-5.74,34.51-21.35,1.22-2.38,1.3-6.86,2.86-8.04,1.25-.94,5.06-1,7.35-2.18,12.91-6.63,19.34-14.22,21.27-29.14-.33-54.25.49-108.56.01-162.79Z"/>
  <path class="st0" d="M93.99,102.55c-2.38,25.93,1.13,55.89.06,82.48-.24,6.03-3.74,13.88-.06,19.7-8.15,53.93,20.96,111.11,72.21,132.15.17,12.24-.24,24.55,0,36.78-21.57-.09-56.96,2.97-76.65-.32-16.04-2.68-24.51-19.51-25.59-34.36-4.91-67.76,5.78-141.29,1.54-209.75,2.71-14.43,13.6-25.31,28.49-26.68Z"/>
  <path class="st0" d="M365.1,151.6c-17.69-.08-35.44.06-53.13,0-25.73-34.42-66.43-51.75-108.99-47.68-1.41-2.26-5.17-1.36-7.47-1.39-31.16-.33-71.37-2.74-101.52.02,1.29-14.02,11.62-25.38,25.32-28.49l218.87.23c35.44,7.75,26.68,49.59,26.92,77.3Z"/>
  <path class="st0" d="M365.1,151.6c.48,54.24-.34,108.54-.01,162.79-1.93,14.92-8.36,22.51-21.27,29.14-2.3,1.18-6.11,1.24-7.35,2.18-1.57,1.18-1.64,5.65-2.86,8.04-8.01,15.6-16.86,20.33-34.51,21.35-8.29.48-15.78-1.41-23.17-1.48-36.56-.36-73.18.22-109.73.06-.24-12.23.17-24.55,0-36.78,26.41,10.84,59.5,11.36,86.54,2.74,1.39-.44,2.54.94,2.04-2.07-.3-1.77-9.16-15.04-10.49-15.48-26.91,5.85-53.46,4.85-78.09-8.35v-16.35h21.8v-55.86h29.29l58.1,85.65c4.96,2.9,28.59-20.4,32.46-25.07,34.96-42.21,37.08-106.42,4.13-150.5,17.69.06,35.44-.08,53.13,0Z"/>
  <path class="st1" d="M311.97,151.6c32.95,44.08,30.83,108.3-4.13,150.5-3.87,4.67-27.5,27.97-32.46,25.07l-58.1-85.65h-29.29v55.86h-21.8c0-48.57,0-97.21,0-145.78,21.78.01,43.62,0,65.4,0,16.84,3.32,32.33,10.46,38.21,27.86,7.35,21.74.11,43.83-19.58,55.48-2.44,1.44-8.29,1.43-7.75,4.51l38.94,58.02c6.04.95,20.43-21.87,23.12-27.28,20.3-40.93,11.4-87.67-21.18-118.59-33.57-31.85-78.55-38.49-119.44-15.22-68.76,39.12-67.43,140.01,2.28,177.34,24.64,13.2,51.19,14.19,78.09,8.35,1.33.44,10.19,13.71,10.49,15.48.51,3.01-.65,1.63-2.04,2.07-27.04,8.62-60.13,8.1-86.54-2.74-51.25-21.04-80.36-78.22-72.21-132.15,8.32-55.04,54.4-95.6,108.99-100.82,42.56-4.06,83.26,13.26,108.99,47.68ZM187.99,219.72h44.28c.59,0,8.15-3.54,9.32-4.31,13.57-9,11.55-34.61-4.22-40.3-1.78-.64-12.04-3.08-13.27-3.08h-36.1v47.68Z"/>
  <path class="st0" d="M202.98,103.92c-54.59,5.21-100.67,45.77-108.99,100.82-3.68-5.82-.19-13.67.06-19.7,1.07-26.59-2.44-56.55-.06-82.48,30.14-2.77,70.36-.35,101.52-.02,2.3.02,6.06-.87,7.47,1.39Z"/>
  <path class="st0" d="M283.36,151.6h-51.77c-21.78,0-43.62,0-65.4,0,.01,48.57,0,97.21,0,145.78v16.35c-69.7-37.33-71.04-138.22-2.28-177.34,40.89-23.27,85.87-16.63,119.44,15.22Z"/>
  <path class="st0" d="M283.36,151.6c32.58,30.92,41.48,77.66,21.18,118.59-2.69,5.42-17.08,28.23-23.12,27.28l-38.94-58.02c-.54-3.08,5.31-3.07,7.75-4.51,19.69-11.65,26.93-33.74,19.58-55.48-5.88-17.4-21.37-24.54-38.21-27.86h51.77Z"/>
  <path class="st0" d="M187.99,219.72v-47.68h36.1c1.23,0,11.49,2.44,13.27,3.08,15.77,5.69,17.79,31.29,4.22,40.3-1.16.77-8.73,4.31-9.32,4.31h-44.28Z"/>
</svg>