<?xml version="1.0" encoding="UTF-8"?>
<svg version="1.1" xmlns="http://www.w3.org/2000/svg" width="1042" height="1042">
<path d="M0 0 C1.0003125 0.76957031 2.000625 1.53914063 3.03125 2.33203125 C18.82188613 14.9237023 33.8161119 29.40802743 44.62818289 46.58696532 C49.5800463 54.40727068 55.23102902 60.77471306 61.8326416 67.25982666 C62.9128655 68.33605599 63.99218894 69.41318973 65.07069921 70.49113631 C68.00813324 73.42204831 70.95779117 76.34037178 73.9097023 79.25669241 C77.10177493 82.41481722 80.28199695 85.58483618 83.46356201 88.75354004 C88.96862398 94.23349575 94.48052397 99.70649279 99.9967804 105.17517853 C107.97622238 113.08652756 115.9406422 121.01286925 123.90076655 128.94364974 C136.82345037 141.81863091 149.75214601 154.68755322 162.6875 167.54980469 C163.46053583 168.31848003 164.23357166 169.08715537 165.03003281 169.8791239 C176.01716988 180.80372836 187.01021514 191.72236879 198.00558585 202.63868544 C198.78104721 203.40857354 199.55650856 204.17846164 200.35546875 204.97167969 C201.12998581 205.74062263 201.90450287 206.50956557 202.70249015 207.30180982 C215.60839121 220.11562848 228.49887939 232.94482367 241.37679434 245.78676772 C249.31692181 253.70347501 257.26984517 261.60688509 265.23964256 269.49372479 C270.69322617 274.89254642 276.13236004 280.3056422 281.5602513 285.73029307 C284.69344505 288.8606667 287.83289324 291.98403745 290.9900589 295.09024811 C293.87891987 297.93272545 296.74882556 300.79299191 299.60467023 303.66862819 C300.64183937 304.70640338 301.68584996 305.73739431 302.73717576 306.76082543 C311.56844144 315.3696912 311.56844144 315.3696912 311.77906799 320.44478893 C310.72065423 325.27477087 310.72065423 325.27477087 308.35168457 327.63526917 C307.70582901 328.3003203 307.05997345 328.96537144 306.39454651 329.65057564 C305.20924599 330.8135407 305.20924599 330.8135407 304 332 C303.03831122 332.98328083 302.07904393 333.9689335 301.12168884 334.95643425 C297.56650352 338.610528 293.96998509 342.22276963 290.37304688 345.83569336 C288.99406171 347.22423153 287.6152465 348.6129385 286.23658752 350.00180054 C281.73453824 354.53503074 277.22710889 359.06288959 272.71875 363.58984375 C271.9504505 364.36144058 271.18215099 365.1330374 270.39056969 365.92801595 C263.14182265 373.20750379 255.89104995 380.48496822 248.63541412 387.75759029 C239.36892955 397.04603045 230.11267542 406.34441366 220.86994696 415.65649503 C214.35962309 422.21400479 207.83789604 428.76003359 201.3075738 435.29762751 C197.41042764 439.19973227 193.51851794 443.1067481 189.63877869 447.02616692 C185.99427658 450.70745859 182.33589144 454.3743548 178.66630363 458.03063583 C177.32231498 459.37467854 175.98345673 460.72387403 174.65016365 462.07852745 C172.8295314 463.92675935 170.9913432 465.75555484 169.14758301 467.58067322 C168.62412403 468.12092713 168.10066504 468.66118104 167.56134367 469.21780628 C164.96702381 471.74704274 162.96788451 473.00996357 159.49077606 474.08870792 C152.57300792 473.91291296 148.26207533 468.55060026 143.65982056 463.90032959 C143.05032826 463.29254614 142.44083596 462.68476269 141.8128742 462.05856156 C139.78144211 460.0304113 137.75721907 457.99521902 135.73291016 455.95996094 C134.27434533 454.50083171 132.81533946 453.04214324 131.35592651 451.5838623 C127.40150407 447.63001327 123.45327495 443.67003168 119.5061307 439.70891857 C115.37773454 435.56801311 111.24366738 431.43277724 107.11019897 427.29693604 C99.28653709 419.46705998 91.4679871 411.63209999 83.65126169 403.79529977 C74.75076854 394.87244569 65.84459026 385.95527541 56.93793035 377.03857756 C38.6189549 358.69870154 20.30712897 340.35170082 2 322 C-2.40925741 325.69632464 -6.64286111 329.50067581 -10.6920166 333.59194946 C-11.21983687 334.121032 -11.74765714 334.65011454 -12.29147196 335.19522989 C-14.03851615 336.94760053 -15.78193323 338.70353401 -17.52539062 340.45947266 C-18.78574504 341.72502673 -20.04634639 342.99033491 -21.30717468 344.25541687 C-24.01159951 346.969745 -26.71454961 349.68553011 -29.41642761 352.40239334 C-33.69151017 356.70062625 -37.97154593 360.99390367 -42.25256348 365.28622437 C-54.42189612 377.48892124 -66.58702104 389.69579098 -78.74169922 401.91308594 C-85.46250244 408.66842911 -92.18866467 415.41838787 -98.92082167 422.16241682 C-103.17576324 426.42544556 -107.42405622 430.69495608 -111.66756439 434.9693644 C-114.31040814 437.62823864 -116.95954882 440.28076832 -119.61051369 442.93154335 C-120.83577455 444.15922132 -122.05846638 445.38946963 -123.27834129 446.62249947 C-124.94798852 448.30939357 -126.62674014 449.98669184 -128.3079834 451.66201782 C-128.784751 452.14820607 -129.2615186 452.63439431 -129.75273371 453.13531554 C-135.90998655 459.22071099 -142.08270282 462.09878608 -150.6875 462.3125 C-166.72897346 462.11758538 -176.59807731 448.54735505 -187.1171875 437.99633789 C-188.42848068 436.68476223 -189.73999491 435.37340753 -191.05171204 434.06225586 C-194.5926236 430.52162991 -198.13045453 426.97794044 -201.66772079 423.43367314 C-205.3721402 419.72298087 -209.07941247 416.01514102 -212.78637695 412.30699158 C-219.79693971 405.29332707 -226.80495055 398.27711848 -233.81203747 391.25998157 C-241.79315929 383.26766264 -249.77713809 375.27820031 -257.76135254 367.28897107 C-274.17740537 350.86248005 -290.58988533 334.43242311 -307 318 C-311.15548571 319.63463079 -313.93276288 322.66290074 -317.01028442 325.77650452 C-317.60848964 326.37370645 -318.20669485 326.97090837 -318.82302749 327.58620733 C-320.8283702 329.59059664 -322.82647407 331.60204994 -324.82470703 333.61352539 C-326.26002038 335.05103967 -327.69578174 336.48810674 -329.13195801 337.92475891 C-332.22436484 341.02010054 -335.31358662 344.11857444 -338.40039444 347.21949959 C-343.2773465 352.11868841 -348.16134995 357.01080617 -353.0463562 361.90196228 C-360.76831931 369.63531024 -368.48559486 377.37331669 -376.20085132 385.1133551 C-390.02700167 398.98383504 -403.85874953 412.84872778 -417.6956929 426.70844072 C-422.55492707 431.57610293 -427.41133823 436.44655961 -432.26552987 441.31925023 C-435.27962838 444.34396152 -438.29573159 447.36666781 -441.31234741 450.38886833 C-442.71532386 451.79532699 -444.11742729 453.2026571 -445.51861191 454.61090088 C-447.42469502 456.5263782 -449.33379102 458.43880056 -451.24368286 460.35047913 C-451.80320715 460.9142805 -452.36273144 461.47808187 -452.93921101 462.05896813 C-456.05860415 465.17372795 -457.72560548 466.79609688 -462.125 467.5 C-466.22454659 466.97102625 -466.8723642 466.58836861 -469.75776005 463.94271755 C-470.45733078 463.30407422 -471.15690151 462.66543089 -471.87767136 462.00743473 C-475.21273491 458.85291744 -478.50029548 455.65806285 -481.75083923 452.41651917 C-482.48792494 451.68522685 -483.22501064 450.95393453 -483.98443228 450.20048183 C-486.43328872 447.76954488 -488.87866463 445.33513873 -491.32397461 442.90063477 C-493.08689776 441.14889827 -494.84998389 439.3973258 -496.61322021 437.64590454 C-502.38034695 431.91517078 -508.14199337 426.17894964 -513.90234375 420.44140625 C-514.39270423 419.95302067 -514.88306471 419.46463509 -515.38828459 418.96144995 C-525.13636495 409.25252894 -534.88169042 399.54084627 -544.62134457 389.82347202 C-546.75606822 387.6937169 -548.89082981 385.5639998 -551.02563477 383.43432617 C-551.55616849 382.90506312 -552.08670221 382.37580007 -552.63331271 381.83049875 C-561.2442568 373.24095444 -569.86893209 364.66533123 -578.49909931 356.09510577 C-587.37056454 347.28475065 -596.22876852 338.46123252 -605.07437521 329.62491459 C-610.03695222 324.6682462 -615.00528042 319.71765258 -619.98872185 314.78195381 C-624.6708417 310.14465279 -629.33501507 305.48985011 -633.98738098 300.82266617 C-635.69820941 299.11216728 -637.41505656 297.40766425 -639.1382618 295.70963478 C-641.48802067 293.39241093 -643.81523956 291.0546596 -646.13804626 288.71046448 C-647.17021118 287.70786121 -647.17021118 287.70786121 -648.22322792 286.68500334 C-651.67349884 283.15381626 -654.24669376 280.09579694 -654.44475901 275.0022639 C-653.48307193 270.67283768 -650.09307544 267.97317195 -647 265 C-645.47041714 263.42951699 -643.94139662 261.85848616 -642.41284275 260.28700161 C-640.64467623 258.51337849 -638.87379689 256.74245717 -637.10072327 254.97373962 C-636.11022044 253.98208254 -635.11993538 252.99020791 -634.12984747 251.99813658 C-631.42696725 249.29110497 -628.72100537 246.58717281 -626.01449549 243.88377082 C-623.08898504 240.9605314 -620.16636409 238.03440545 -617.24336243 235.10865784 C-611.524005 229.38486193 -605.80195726 223.66376289 -600.07892925 217.9436373 C-595.42629641 213.29326605 -590.77464443 208.64191577 -586.12368584 203.98987007 C-585.46085735 203.32688835 -584.79802887 202.66390664 -584.11511467 201.98083456 C-582.76844903 200.63384918 -581.42178562 199.28686157 -580.07512444 197.93987174 C-567.45769903 185.31959717 -554.83721459 172.70238529 -542.21567642 160.08622409 C-531.39408203 149.26909722 -520.57511212 138.44935123 -509.75805664 127.62768555 C-497.18595883 115.05023203 -484.61223496 102.47440774 -472.03592485 89.90116602 C-470.69399112 88.55955083 -469.35205947 87.21793355 -468.01012993 85.87631416 C-467.34993408 85.21627259 -466.68973822 84.55623101 -466.00953643 83.87618817 C-461.36507001 79.23258391 -456.72176239 74.58782287 -452.07890511 69.94260979 C-446.41810978 64.27900521 -440.75552666 58.61719536 -435.09066875 52.95765417 C-432.20236976 50.071977 -429.31486442 47.18551773 -426.42953491 44.29687119 C-423.78483007 41.64917202 -421.13780109 39.00381916 -418.48895221 36.36026604 C-417.08482919 34.95777737 -415.68314243 33.55285089 -414.28156334 32.14781994 C-409.85213361 27.73201747 -405.36622277 23.45671377 -400.60694116 19.3968516 C-398.66835167 17.71171098 -396.9259853 15.88912688 -395.1875 14 C-383.09432691 1.83624419 -366.2949253 -4.03882913 -349.375 -4.375 C-330.58325939 -4.31724078 -313.94861138 2.96080146 -300.70996094 16.27539062 C-300.14567383 16.84451172 -299.58138672 17.41363281 -299 18 C-297.56588016 19.42265767 -296.13093231 20.84448097 -294.6953125 22.265625 C-290.77625406 26.15680657 -286.88096861 30.07085283 -283 34 C-282.55197021 33.52167725 -282.10394043 33.04335449 -281.64233398 32.55053711 C-279.57525341 30.34506567 -277.50638807 28.14127592 -275.4375 25.9375 C-274.38079102 24.80924805 -274.38079102 24.80924805 -273.30273438 23.65820312 C-266.98115213 16.92877686 -260.76783866 10.32777654 -253.4375 4.6875 C-252.83454102 4.22093994 -252.23158203 3.75437988 -251.61035156 3.27368164 C-249.74660761 1.84053515 -247.87468835 0.41879033 -246 -1 C-245.43361816 -1.43248047 -244.86723633 -1.86496094 -244.28369141 -2.31054688 C-173.69752301 -55.8743274 -69.70691511 -53.72919371 0 0 Z " fill="#1B475D" transform="translate(692,303)"/>
<path d="M0 0 C0.64437012 0.31404785 1.28874023 0.6280957 1.95263672 0.95166016 C17.43827466 8.56244327 31.15502857 18.537899 44 30 C44.53141602 30.46970215 45.06283203 30.9394043 45.61035156 31.42333984 C83.22461589 64.75344174 106.62212627 113.40769576 109.87548828 163.53857422 C110.58058584 177.47738509 110.24127415 191.21834905 108 205 C107.88172852 205.75394043 107.76345703 206.50788086 107.64160156 207.28466797 C100.2234585 253.04875921 75.43586789 296.0381563 39 325 C36.05757612 323.6743093 33.99739114 322.24007627 31.73535156 319.9465332 C31.12081116 319.32861404 30.50627075 318.71069489 29.87310791 318.0740509 C29.21888855 317.40637192 28.56466919 316.73869293 27.890625 316.05078125 C26.86216461 315.01451851 26.86216461 315.01451851 25.81292725 313.95732117 C23.62047923 311.74707862 21.4348109 309.53029008 19.25 307.3125 C17.0786688 305.11338697 14.90584336 302.91580634 12.72991943 300.72123718 C11.37797544 299.35721767 10.02870979 297.99053606 8.68267822 296.62068176 C5.622928 293.52906836 2.52801647 290.55118515 -0.77636719 287.72143555 C-5.64445246 283.51945235 -10.15040758 278.96231637 -14.67591858 274.39924622 C-16.25573133 272.80646509 -17.83882586 271.21700843 -19.42272949 269.6282959 C-23.35292659 265.68485384 -27.27760772 261.73593714 -31.20245361 257.78717041 C-34.53115714 254.43860973 -37.86198931 251.09219307 -41.1955719 247.74848938 C-42.74181555 246.19584762 -44.2849738 244.64018597 -45.82800293 243.08435059 C-49.78641051 239.105565 -53.73542081 235.15345569 -58 231.5 C-62.80387671 227.3845293 -67.22461353 222.88749456 -71.67591858 218.39924622 C-73.25573133 216.80646509 -74.83882586 215.21700843 -76.42272949 213.6282959 C-80.35292659 209.68485384 -84.27760772 205.73593714 -88.20245361 201.78717041 C-91.53115714 198.43860973 -94.86198931 195.09219307 -98.1955719 191.74848938 C-99.74181555 190.19584762 -101.2849738 188.64018597 -102.82800293 187.08435059 C-106.78641051 183.105565 -110.73542081 179.15345569 -115 175.5 C-119.80387671 171.3845293 -124.22461353 166.88749456 -128.67591858 162.39924622 C-130.25573133 160.80646509 -131.83882586 159.21700843 -133.42272949 157.6282959 C-137.35292659 153.68485384 -141.27760772 149.73593714 -145.20245361 145.78717041 C-148.53115714 142.43860973 -151.86198931 139.09219307 -155.1955719 135.74848938 C-156.74181555 134.19584762 -158.2849738 132.64018597 -159.82800293 131.08435059 C-163.78186729 127.11013086 -167.72568374 123.16184863 -171.98632812 119.51367188 C-176.86104731 115.33742176 -181.34372895 110.768129 -185.8611145 106.21405029 C-187.47453514 104.58766731 -189.09123271 102.96460304 -190.70874023 101.34228516 C-194.72241101 97.31536577 -198.73056835 93.28297337 -202.7388916 89.25073242 C-206.13805724 85.8317138 -209.53934867 82.41483601 -212.94338989 79.00067139 C-214.52287066 77.41478994 -216.09926797 75.82588904 -217.67553711 74.23681641 C-222.41336245 69.47513899 -227.18238258 64.81104012 -232.31030273 60.46704102 C-235.01749289 58.11658506 -237.49726498 55.56530339 -240 53 C-238.37773978 49.07094202 -235.68282714 46.24107021 -232.8125 43.1875 C-232.31492187 42.65342529 -231.81734375 42.11935059 -231.3046875 41.5690918 C-229.87536795 40.04069442 -228.43874188 38.51952262 -227 37 C-226.37480469 36.33226562 -225.74960937 35.66453125 -225.10546875 34.9765625 C-207.20681337 16.42467152 -183.74912047 2.56181315 -160 -7 C-158.96456055 -7.41741455 -158.96456055 -7.41741455 -157.90820312 -7.84326172 C-107.31575982 -27.82221276 -48.42283842 -24.03894779 0 0 Z " fill="#FEFEFE" transform="translate(656,289)"/>
</svg>
