<svg width="22" height="22" viewBox="0 0 22 22" fill="none" xmlns="http://www.w3.org/2000/svg">
<path d="M10.9375 12.5C7.49141 12.5 4.6875 15.3039 4.6875 18.75V21.0938C4.6875 21.525 5.0375 21.875 5.46875 21.875H16.4062C16.8375 21.875 17.1875 21.525 17.1875 21.0938V18.75C17.1875 15.3039 14.3836 12.5 10.9375 12.5ZM15.625 20.3125H14.0625V19.5312C14.0625 19.1 13.7125 18.75 13.2812 18.75C12.85 18.75 12.5 19.1 12.5 19.5312V20.3125H9.375V19.5312C9.375 19.1 9.025 18.75 8.59375 18.75C8.1625 18.75 7.8125 19.1 7.8125 19.5312V20.3125H6.25V18.75C6.25 16.1648 8.35234 14.0625 10.9375 14.0625C13.5227 14.0625 15.625 16.1648 15.625 18.75V20.3125Z" fill="#182F48"/>
<path d="M7.8125 7.92031V9.26719C7.8125 10.6188 8.9125 11.7188 10.2641 11.7188H11.6109C12.9625 11.7188 14.0625 10.6188 14.0625 9.26719V7.92031C14.0625 6.56875 12.9625 5.46875 11.6109 5.46875H10.2641C8.9125 5.46875 7.8125 6.56875 7.8125 7.92031ZM9.375 7.92031C9.375 7.43047 9.77422 7.03125 10.2641 7.03125H11.6109C12.1008 7.03125 12.5 7.43047 12.5 7.92031V9.26719C12.5 9.75703 12.1008 10.1562 11.6109 10.1562H10.2641C9.77422 10.1562 9.375 9.75703 9.375 9.26719V7.92031Z" fill="#182F48"/>
<path d="M15.625 7.03125C15.1938 7.03125 14.8438 7.38125 14.8438 7.8125C14.8438 8.24375 15.1938 8.59375 15.625 8.59375C18.2102 8.59375 20.3125 10.6961 20.3125 13.2812V14.8438H18.75V14.0625C18.75 13.6312 18.4 13.2812 17.9688 13.2812C17.5375 13.2812 17.1875 13.6312 17.1875 14.0625V15.625C17.1875 16.0562 17.5375 16.4062 17.9688 16.4062H21.0938C21.525 16.4062 21.875 16.0562 21.875 15.625V13.2812C21.875 9.83516 19.0711 7.03125 15.625 7.03125Z" fill="#182F48"/>
<path d="M14.9516 6.25H16.2984C17.65 6.25 18.75 5.15 18.75 3.79844V2.45156C18.75 1.1 17.65 0 16.2984 0H14.9516C13.6 0 12.5 1.1 12.5 2.45156V3.79844C12.5 5.15 13.6 6.25 14.9516 6.25ZM14.0625 2.45156C14.0625 1.96172 14.4617 1.5625 14.9516 1.5625H16.2984C16.7883 1.5625 17.1875 1.96172 17.1875 2.45156V3.79844C17.1875 4.28828 16.7883 4.6875 16.2984 4.6875H14.9516C14.4617 4.6875 14.0625 4.28828 14.0625 3.79844V2.45156Z" fill="#182F48"/>
<path d="M0.78125 16.4062H3.90625C4.3375 16.4062 4.6875 16.0562 4.6875 15.625V14.0625C4.6875 13.6312 4.3375 13.2812 3.90625 13.2812C3.475 13.2812 3.125 13.6312 3.125 14.0625V14.8438H1.5625V13.2812C1.5625 10.6961 3.66484 8.59375 6.25 8.59375C6.68125 8.59375 7.03125 8.24375 7.03125 7.8125C7.03125 7.38125 6.68125 7.03125 6.25 7.03125C2.80391 7.03125 0 9.83516 0 13.2812V15.625C0 16.0562 0.35 16.4062 0.78125 16.4062Z" fill="#182F48"/>
<path d="M5.57656 6.25H6.92344C8.275 6.25 9.375 5.15 9.375 3.79844V2.45156C9.375 1.1 8.275 0 6.92344 0H5.57656C4.225 0 3.125 1.1 3.125 2.45156V3.79844C3.125 5.15 4.225 6.25 5.57656 6.25ZM4.6875 2.45156C4.6875 1.96172 5.08672 1.5625 5.57656 1.5625H6.92344C7.41328 1.5625 7.8125 1.96172 7.8125 2.45156V3.79844C7.8125 4.28828 7.41328 4.6875 6.92344 4.6875H5.57656C5.08672 4.6875 4.6875 4.28828 4.6875 3.79844V2.45156Z" fill="#182F48"/>
</svg>
