<?xml version="1.0" encoding="UTF-8"?>
<svg version="1.1" xmlns="http://www.w3.org/2000/svg" width="1042" height="1042">
<path d="M0 0 C2.64691198 2.30486662 3.65052587 4.24176236 4.69140625 7.57421875 C5.1414502 9.01039551 5.1414502 9.01039551 5.60058594 10.47558594 C5.91801758 11.53551758 6.23544922 12.59544922 6.5625 13.6875 C7.07151855 15.36827637 7.07151855 15.36827637 7.59082031 17.08300781 C19.05077535 55.77453917 27.47050299 94.12553895 27.3125 134.625 C27.31034485 135.62813232 27.3081897 136.63126465 27.30596924 137.66479492 C27.25118112 153.62238967 26.6649373 169.23305293 24 185 C23.80132324 186.18867676 23.60264648 187.37735352 23.39794922 188.60205078 C20.30619346 206.51570683 15.89801549 223.81033554 10 241 C9.48397217 242.51086182 9.48397217 242.51086182 8.95751953 244.05224609 C-1.47895788 274.16476765 -16.31889949 302.19917936 -35 328 C-35.39670898 328.54833496 -35.79341797 329.09666992 -36.20214844 329.66162109 C-43.98154114 340.34605944 -52.339209 350.44320092 -61.3359375 360.11328125 C-63.64973883 362.6204648 -65.88948201 365.17354394 -68.125 367.75 C-78.03866607 378.78697715 -89.28629244 388.91717863 -101 398 C-101.61810547 398.48533203 -102.23621094 398.97066406 -102.87304688 399.47070312 C-160.02782907 444.31187161 -232.794151 475.88425305 -306.3515625 476.203125 C-307.40870453 476.20882507 -308.46584656 476.21452515 -309.55502319 476.22039795 C-311.78537008 476.22978767 -314.01573047 476.23635773 -316.24609375 476.24023438 C-319.56797354 476.24983518 -322.88920507 476.28087387 -326.2109375 476.3125 C-345.61871364 476.40858479 -364.76102348 474.58951762 -383.8125 470.8125 C-384.86904785 470.60383301 -385.9255957 470.39516602 -387.01416016 470.18017578 C-423.5503454 462.66480425 -500.339944 441.99008401 -523 408 C-522.18144531 407.90203125 -521.36289062 407.8040625 -520.51953125 407.703125 C-516.95166504 407.26701069 -513.3859987 406.81667849 -509.82080078 406.359375 C-507.83004837 406.10574963 -505.83878372 405.85612931 -503.84716797 405.609375 C-459.09161737 400.0270456 -416.18778108 388.41088554 -375 370 C-374.07058594 369.58492187 -373.14117187 369.16984375 -372.18359375 368.7421875 C-349.71596124 358.60395449 -327.35229522 346.99301096 -309.21875 330.06640625 C-307.23694207 328.22067316 -305.20396784 326.48389326 -303.125 324.75 C-292.81812193 315.72888942 -284.19950151 304.91501136 -276 294 C-275.50419434 293.34467285 -275.00838867 292.6893457 -274.49755859 292.01416016 C-259.99612455 272.7475119 -247.74435008 252.02880849 -236 231 C-235.42813965 229.98099609 -234.8562793 228.96199219 -234.26708984 227.91210938 C-227.50907801 215.86640255 -220.85525537 203.77573885 -214.37597656 191.57852173 C-195.56661922 156.18314256 -176.69537605 122.92659567 -145.09375 97.5 C-142.74368 95.60095353 -140.41356378 93.68541304 -138.09375 91.75 C-130.56502996 85.47751961 -122.96367914 79.36773299 -115.08666992 73.53759766 C-110.03300853 69.79446516 -105.07137937 65.94596808 -100.125 62.0625 C-91.96745562 55.67993625 -83.63937399 49.56706397 -75.19824219 43.56591797 C-73.04554183 42.03244172 -70.90109532 40.48800788 -68.7578125 38.94140625 C-47.25447438 23.49432471 -24.8271849 9.42275282 0 0 Z M-12 13.375 C-12.70914551 13.73368164 -13.41829102 14.09236328 -14.14892578 14.46191406 C-34.91078165 25.05386414 -53.92135788 37.54621343 -72.70263672 51.31591797 C-75.039407 53.0288873 -77.38088634 54.73528024 -79.72265625 56.44140625 C-89.94419056 63.90938011 -99.99787388 71.57067458 -109.95117188 79.39208984 C-111.84365476 80.87730103 -113.74098713 82.35598959 -115.640625 83.83203125 C-130.12235733 95.10583673 -144.30255876 106.78336322 -158 119 C-159.24330078 120.09634766 -159.24330078 120.09634766 -160.51171875 121.21484375 C-184.31937827 143.48376765 -198.59225302 178.27464169 -213.75097656 206.78808594 C-220.64525146 219.75392132 -227.81380467 232.50964275 -235.30908203 245.13720703 C-236.99232878 247.98701231 -238.65322017 250.84877248 -240.30859375 253.71484375 C-253.53268387 276.52822847 -268.54292849 298.20703565 -286 318 C-286.46825195 318.53141602 -286.93650391 319.06283203 -287.41894531 319.61035156 C-292.9310793 325.82888036 -298.52798216 331.76181572 -305 337 C-305.98097656 337.81855469 -306.96195313 338.63710938 -307.97265625 339.48046875 C-317.08667793 346.96645885 -326.78301696 353.13447644 -337 359 C-337.86818359 359.50257324 -338.73636719 360.00514648 -339.63085938 360.52294922 C-389.61599937 389.22772987 -445.82271447 406.48490114 -503 413 C-499.72701965 416.67899563 -495.96531901 418.92705136 -491.6875 421.25 C-490.98326904 421.63841064 -490.27903809 422.02682129 -489.5534668 422.42700195 C-487.37307317 423.62567061 -485.18703515 424.81350128 -483 426 C-482.0085498 426.54309814 -482.0085498 426.54309814 -480.99707031 427.09716797 C-477.28422311 429.13048343 -473.5549541 431.12651459 -469.79492188 433.07128906 C-468.59822459 433.69047248 -467.4041923 434.3148339 -466.21289062 434.94433594 C-464.507307 435.83877352 -462.78506415 436.70121792 -461.0625 437.5625 C-460.08410156 438.05878906 -459.10570312 438.55507813 -458.09765625 439.06640625 C-450.40490752 441.38490177 -442.18246624 437.74965694 -434.8125 435.4375 C-433.66410645 435.07889893 -432.51571289 434.72029785 -431.33251953 434.35083008 C-371.86246653 415.50944499 -316.45623973 380.95459451 -276 333 C-275.21625 332.10539062 -274.4325 331.21078125 -273.625 330.2890625 C-245.2049791 297.66630413 -223.35315641 259.24397031 -202.04611206 221.81202698 C-158.01349831 144.45642788 -158.01349831 144.45642788 -129.7890625 122.2265625 C-127.15036378 120.12003831 -124.60635893 117.939208 -122.06542969 115.7175293 C-114.02663526 108.70093812 -105.63245589 102.26628178 -97 96 C-95.98099609 95.2575 -95.98099609 95.2575 -94.94140625 94.5 C-63.63294599 71.7732538 -30.25416094 53.5275207 6 40 C4.87960461 35.93621576 3.75288051 31.87421257 2.625 27.8125 C2.30789063 26.66201172 1.99078125 25.51152344 1.6640625 24.32617188 C1.2 22.65844727 1.2 22.65844727 0.7265625 20.95703125 C0.44377441 19.93585205 0.16098633 18.91467285 -0.13037109 17.86254883 C-0.94931563 15.16683724 -1.91118847 12.59687807 -3 10 C-6.32403756 10 -9.08619565 11.89763669 -12 13.375 Z " fill="#1B475D" transform="translate(840,391)"/>
<path d="M0 0 C60.40509898 -1.00247113 119.19783365 10.70984016 172.85302734 39.06201172 C174.06635742 39.70058105 174.06635742 39.70058105 175.30419922 40.35205078 C185.31022309 45.64869321 194.98789058 50.96583573 203.85302734 58.06201172 C202.32103208 69.93497503 189.14809652 81.19852437 181.60742188 90.05517578 C176.48152074 96.07850018 171.59550882 102.17781048 167.03271484 108.64013672 C163.05082791 114.23039367 158.88974324 119.44393086 154.22412109 124.47998047 C152.28862249 126.58766511 150.39878618 128.71985156 148.52099609 130.87841797 C139.04981054 141.73216576 129.13790992 152.05017898 118.40722656 161.66064453 C116.84521952 163.06905176 115.30189881 164.49540749 113.76318359 165.92919922 C107.33570663 171.91183959 100.71015443 177.57449599 93.85302734 183.06201172 C92.72218778 183.98441547 91.5920122 184.90763368 90.46240234 185.83154297 C68.6697482 203.57880116 45.1318726 219.99000229 20.73535156 233.97509766 C18.63920245 235.18548104 16.56116606 236.4243678 14.48193359 237.66357422 C-57.9313687 280.40182294 -153.72566272 317.92647358 -238.58837891 297.31201172 C-262.09449945 291.09114868 -281.61095972 279.9031745 -295.14697266 259.06201172 C-304.58003332 242.31351625 -309.29699535 218.84591092 -304.14697266 200.06201172 C-298.54448394 181.16877054 -286.77145848 163.30192111 -273.58056641 148.83154297 C-272.14506275 147.05965426 -271.26593458 145.44776569 -270.33447266 143.37451172 C-265.91168088 133.77611255 -257.79551581 125.431575 -250.66650391 117.79248047 C-248.75404386 115.71990748 -246.91293336 113.62495867 -245.08056641 111.48388672 C-240.59593456 106.34175865 -235.79172947 101.5207151 -230.96923828 96.69897461 C-229.40836939 95.13592438 -227.85569378 93.56503807 -226.30322266 91.99365234 C-219.91313522 85.56724537 -213.29975871 79.64732301 -206.14697266 74.06201172 C-205.45861328 73.51971924 -204.77025391 72.97742676 -204.06103516 72.41870117 C-146.38794102 27.4584133 -73.17555955 1.44193888 0 0 Z M-284.14697266 176.06201172 C-295.77011649 196.07964832 -301.89391419 212.88067483 -295.9128418 236.1237793 C-290.36129612 256.10037822 -278.94537545 270.73207095 -261.00146484 281.04541016 C-243.97863526 290.37704027 -222.94755726 294.14771135 -203.65087891 294.26513672 C-202.86883087 294.27224167 -202.08678284 294.27934662 -201.28103638 294.28666687 C-141.09118406 294.70807692 -85.28158289 279.19452886 -31.14697266 253.06201172 C-30.41800781 252.71074219 -29.68904297 252.35947266 -28.93798828 251.99755859 C-25.03913981 250.1064103 -21.17120388 248.16075919 -17.31884766 246.17675781 C-14.84013416 244.90452245 -12.35256715 243.65030683 -9.86572266 242.39404297 C0.48248841 237.12433377 10.60556509 231.57837177 20.54052734 225.56201172 C21.51449463 224.97468262 22.48846191 224.38735352 23.49194336 223.78222656 C24.39871826 223.22486816 25.30549316 222.66750977 26.23974609 222.09326172 C27.03598389 221.6040625 27.83222168 221.11486328 28.65258789 220.61083984 C30.9915602 218.9645023 32.89115962 217.13720941 34.85302734 215.06201172 C30.9064233 216.56091376 27.20427158 218.36325487 23.45458984 220.30029297 C-24.57418296 244.92177695 -74.42653308 262.89021497 -128.14697266 270.06201172 C-129.42012329 270.23216797 -129.42012329 270.23216797 -130.71899414 270.40576172 C-139.80128131 271.41560602 -148.97761982 271.28424633 -158.10424805 271.30224609 C-161.04651879 271.31188735 -163.98807002 271.34295834 -166.93017578 271.37451172 C-182.89506079 271.46445568 -198.89950309 270.30537421 -214.20947266 265.43701172 C-215.01835937 265.18540283 -215.82724609 264.93379395 -216.66064453 264.67456055 C-241.13626351 256.71903645 -261.63379018 243.14615749 -273.80322266 219.89794922 C-280.72901167 205.67292178 -281.98959554 191.62946115 -283.14697266 176.06201172 C-283.47697266 176.06201172 -283.80697266 176.06201172 -284.14697266 176.06201172 Z " fill="#1B475D" transform="translate(510.14697265625,173.93798828125)"/>
<path d="M0 0 C4.491083 1.26311709 7.31020448 3.80335027 10.67407227 6.87866211 C12.19266592 8.26367946 13.71930307 9.63994298 15.25488281 11.00610352 C21.37521737 16.45189854 27.2725695 22.0800377 33.0625 27.875 C33.93938477 28.75196533 34.81626953 29.62893066 35.71972656 30.5324707 C40.86582901 35.72426284 45.73075867 40.94203602 50.21484375 46.71875 C51.98618585 48.9823469 53.86302737 51.0765559 55.8125 53.1875 C59.57630046 57.40265052 63.09851807 61.787674 66.5625 66.25 C67.11204346 66.93602295 67.66158691 67.6220459 68.2277832 68.32885742 C68.73140381 68.98861572 69.23502441 69.64837402 69.75390625 70.328125 C70.21095947 70.9149707 70.6680127 71.50181641 71.13891602 72.10644531 C72.37434432 74.82319665 72.0106292 76.22178712 71 79 C69.13330078 80.89355469 69.13330078 80.89355469 66.6953125 82.671875 C65.80690674 83.33179443 64.91850098 83.99171387 64.00317383 84.67163086 C63.05337646 85.35749268 62.1035791 86.04335449 61.125 86.75 C59.1930581 88.18231013 57.26205876 89.61589254 55.33203125 91.05078125 C54.40471191 91.73479004 53.47739258 92.41879883 52.52197266 93.12353516 C45.20046199 98.5710793 38.31515489 104.50873756 31.58203125 110.6640625 C29.51850455 112.53091419 27.43064588 114.35336896 25.32324219 116.16967773 C21.13484142 119.83252034 17.17335342 123.68176324 13.24609375 127.62109375 C12.54154556 128.32468521 11.83699738 129.02827667 11.11109924 129.75318909 C9.63346633 131.23014648 8.15707543 132.70834742 6.68188477 134.18774414 C4.44333519 136.43165085 2.19949527 138.67016704 -0.04492188 140.90820312 C-1.48990404 142.35384618 -2.93457592 143.79979945 -4.37890625 145.24609375 C-5.03951553 145.9046788 -5.70012482 146.56326385 -6.38075256 147.24180603 C-10.24596479 151.12622542 -13.93085643 155.11935408 -17.50856018 159.27044678 C-19.42230757 161.4897304 -21.39781801 163.64972047 -23.375 165.8125 C-27.25033743 170.10608632 -30.9222131 174.53088002 -34.55859375 179.02734375 C-37.2771903 182.33750691 -40.07066739 185.57511252 -42.875 188.8125 C-46.86253388 193.42470129 -50.70738691 198.11501608 -54.4375 202.9375 C-58.87038355 208.66478554 -63.52869065 214.1553637 -68.30224609 219.60083008 C-71.46863012 223.21665765 -74.55334227 226.87579625 -77.5625 230.625 C-81.38164412 235.34442119 -85.42504321 239.80905994 -89.57641602 244.23486328 C-92.15652586 246.98703912 -94.66965398 249.77289602 -97.12109375 252.640625 C-101.62574142 257.81393131 -106.48503888 262.63484292 -111.3425293 267.47290039 C-112.93458966 269.05959946 -114.5212299 270.65157742 -116.10742188 272.24414062 C-121.56537772 277.70598454 -127.09844231 283.01447505 -133 288 C-134.00977342 288.87684603 -135.01892731 289.75440622 -136.02734375 290.6328125 C-144.11969343 297.56290525 -152.49593712 304.05492739 -160.99560547 310.47607422 C-162.81183915 311.85694275 -164.61447164 313.25272777 -166.41015625 314.66015625 C-174.06784809 320.657469 -181.95836269 326.22821185 -190.02099609 331.66503906 C-191.88879413 332.92498474 -193.75132878 334.19237697 -195.61328125 335.4609375 C-265.47616789 382.81244956 -354.57105654 428.76020204 -440.6796875 429.203125 C-441.57253448 429.20882507 -442.46538147 429.21452515 -443.38528442 429.22039795 C-445.2659591 429.22977849 -447.14664969 429.23635399 -449.02734375 429.24023438 C-451.83364453 429.24985818 -454.63918532 429.28091503 -457.4453125 429.3125 C-474.15593927 429.41208285 -490.34203619 427.65129778 -506.375 422.75 C-507.37885742 422.44771484 -508.38271484 422.14542969 -509.41699219 421.83398438 C-529.61942357 415.54067618 -529.61942357 415.54067618 -534.15625 408.79296875 C-536.15074076 404.91320448 -537.75914782 400.90866431 -539.25 396.8125 C-539.54447021 396.00353271 -539.83894043 395.19456543 -540.14233398 394.36108398 C-565.90993376 321.72980129 -565.90993376 321.72980129 -559 301 C-558.43829102 301.27150879 -557.87658203 301.54301758 -557.29785156 301.82275391 C-531.2952701 314.28606019 -504.98940957 321.28612803 -476 322 C-475.29907227 322.02046387 -474.59814453 322.04092773 -473.87597656 322.06201172 C-386.70007343 324.32656395 -298.16787252 292.39738699 -152 203 C-150.67548828 201.84564453 -150.67548828 201.84564453 -149.32421875 200.66796875 C-142.62647314 194.66810691 -136.22992653 188.35713287 -129.84906006 182.02429199 C-128.84183768 181.02511139 -127.83313969 180.02741559 -126.82281494 179.03137207 C-120.82997218 173.1142868 -115.21900382 167.0317406 -109.95483398 160.44287109 C-107.93736565 157.92172857 -105.84150585 155.49311601 -103.70532227 153.07324219 C-95.55960186 143.82278928 -88.28779211 133.92995649 -81 124 C-80.43635742 123.2363916 -79.87271484 122.4727832 -79.29199219 121.68603516 C-70.46635942 109.71663124 -62.14797995 97.43882705 -54 85 C-53.50757813 84.24831543 -53.01515625 83.49663086 -52.5078125 82.72216797 C-42.47283601 67.36823813 -32.73160771 51.82827905 -23.08886719 36.22583008 C-18.69737528 29.12152098 -14.29277661 22.02549641 -9.875 14.9375 C-9.23522217 13.90794189 -8.59544434 12.87838379 -7.9362793 11.81762695 C-7.03582886 10.37456177 -7.03582886 10.37456177 -6.1171875 8.90234375 C-5.58722168 8.05148193 -5.05725586 7.20062012 -4.51123047 6.32397461 C-3.09112614 4.14013404 -1.58961704 2.06269611 0 0 Z " fill="#1B475D" transform="translate(734,248)"/>
</svg>
