<svg width="22" height="22" viewBox="0 0 22 22" fill="none" xmlns="http://www.w3.org/2000/svg">
<path d="M0.785714 22.0001H11.7857C12.2202 22.0001 12.5714 21.6481 12.5714 21.2144V18.8572C12.5714 15.3915 9.7515 12.5715 6.28571 12.5715C2.81993 12.5715 0 15.3915 0 18.8572V21.2144C0 21.6481 0.351214 22.0001 0.785714 22.0001ZM1.57143 18.8572C1.57143 16.2573 3.68579 14.143 6.28571 14.143C8.88564 14.143 11 16.2573 11 18.8572V20.4287H1.57143V18.8572Z" fill="#182F48"/>
<path d="M5.60918 11.7857H6.96297C8.32225 11.7857 9.42854 10.6794 9.42854 9.32014V7.96557C9.42854 6.60629 8.32225 5.5 6.96218 5.5H5.60918C4.24911 5.5 3.14282 6.60629 3.14282 7.96557V9.32014C3.14282 10.6794 4.24911 11.7857 5.60918 11.7857ZM4.71425 7.96557C4.71425 7.47293 5.11575 7.07143 5.60918 7.07143H6.96297C7.45561 7.07143 7.85711 7.47293 7.85711 7.96557V9.32014C7.85711 9.81279 7.45561 10.2143 6.96218 10.2143H5.60918C5.11575 10.2143 4.71425 9.81279 4.71425 9.32014V7.96557Z" fill="#182F48"/>
<path d="M21.2142 0H10.9999C10.5654 0 10.2142 0.352 10.2142 0.785714V7.07143C10.2142 7.50514 10.5654 7.85714 10.9999 7.85714H14.9285V10.2143C14.9285 10.5317 15.1194 10.8185 15.4133 10.9403C15.5107 10.9804 15.6129 11 15.7142 11C15.9185 11 16.1197 10.9199 16.2697 10.7698L19.1824 7.85714H21.2142C21.6487 7.85714 21.9999 7.50514 21.9999 7.07143V0.785714C21.9999 0.352 21.6487 0 21.2142 0ZM20.4285 6.28571H18.8571C18.6481 6.28571 18.4485 6.36821 18.3016 6.51593L16.4999 8.31757V7.07143C16.4999 6.63771 16.1487 6.28571 15.7142 6.28571H11.7857V1.57143H20.4285V6.28571Z" fill="#182F48"/>
<path d="M13.7501 4.71401H18.4644C18.8989 4.71401 19.2501 4.36201 19.2501 3.92829C19.2501 3.49458 18.8989 3.14258 18.4644 3.14258H13.7501C13.3156 3.14258 12.9644 3.49458 12.9644 3.92829C12.9644 4.36201 13.3156 4.71401 13.7501 4.71401Z" fill="#182F48"/>
</svg>
