<?xml version="1.0" encoding="UTF-8"?>
<svg id="Layer_1" xmlns="http://www.w3.org/2000/svg" version="1.1" viewBox="0 0 500 500">
  <!-- Generator: Adobe Illustrator 29.2.1, SVG Export Plug-In . SVG Version: 2.1.0 Build 116)  -->
  <defs>
    <style>
      .st0 {
        fill: #0d2139;
      }

      .st1 {
        fill: #f0b501;
      }
    </style>
  </defs>
  <path class="st0" d="M214.26,346.64c4.07-.73,8.13-1.5,12.2-2.18,20.29-3.38,40.58-6.73,60.87-10.08,13.29-2.2,26.59-4.4,39.89-6.54,4.48-.72,4.71-.89,3.2-5.19-10.57-30.06-21.17-60.12-31.78-90.17-17.37-49.21-34.76-98.41-52.15-147.61-.17-.47-.62-.89-.02-1.62,72.83,107.97,145.62,215.89,219.09,324.8-84.45-20.44-167.85-40.62-251.25-60.8l-.06-.61Z"/>
  <path class="st0" d="M34.43,416.03c65.08-110.96,130.15-221.92,195.72-333.72,24.19,75.76,48.1,150.67,72.02,225.58-.2.11-.4.22-.6.33-7.59-9.39-15.17-18.79-22.78-28.17-14.85-18.31-29.77-36.56-44.51-54.96-1.97-2.46-3.08-1.83-4.85-.08-11.79,11.69-23.61,23.33-35.44,34.97-42.15,41.48-84.39,82.87-126.41,124.49-10.84,10.73-21.01,22.14-31.48,33.24-.55-.56-1.11-1.11-1.66-1.67Z"/>
  <path class="st0" d="M463.78,416.89H56.67c55.96-52.89,111.3-105.19,166.63-157.49.15.08.3.16.45.24-1.71,3.43-3.41,6.87-5.14,10.3-12.92,25.6-25.84,51.19-38.76,76.78-.41.82-.78,1.67-1.18,2.5-1.27,2.64-.51,4.08,2.43,4.72,11.89,2.56,23.75,5.23,35.62,7.86,30.03,6.65,60.05,13.29,90.08,19.95,29.4,6.52,58.79,13.04,88.18,19.57,22.98,5.1,45.95,10.2,68.93,15.3-.04.1-.09.19-.13.29Z"/>
  <path class="st1" d="M296.39,321.31c-19.35,2.49-37.84,4.85-56.31,7.27-11.06,1.45-22.1,3.01-33.15,4.52-.39.05-.8.16-1.18.1-1.11-.16-2.54.81-3.27-.37-.58-.95.5-1.96.96-2.87,7.79-15.37,15.62-30.72,23.42-46.08,4.76-9.37,9.48-18.76,14.55-28.8,18.39,22.16,36.4,43.85,54.97,66.22Z"/>
</svg>