<?xml version="1.0" standalone="no"?>
<!DOCTYPE svg PUBLIC "-//W3C//DTD SVG 20010904//EN"
 "http://www.w3.org/TR/2001/REC-SVG-20010904/DTD/svg10.dtd">
<svg version="1.0" xmlns="http://www.w3.org/2000/svg"
 width="512.000000pt" height="512.000000pt" viewBox="0 0 512.000000 512.000000"
 preserveAspectRatio="xMidYMid meet">

<g transform="translate(0.000000,512.000000) scale(0.100000,-0.100000)"
fill="#000000" stroke="none">
<path d="M1398 5105 c-98 -27 -184 -97 -232 -190 -29 -56 -46 -153 -46 -266
l0 -77 -102 -4 c-120 -5 -172 -24 -240 -87 -25 -22 -57 -66 -74 -98 l-29 -58
-3 -1933 c-2 -1688 0 -1941 13 -1997 44 -190 189 -335 377 -380 96 -22 2420
-22 2495 0 101 30 196 121 223 213 6 20 14 87 17 149 l6 112 191 3 c179 3 194
5 241 27 74 37 148 111 181 184 l29 62 0 1625 0 1625 -23 56 c-12 31 -37 76
-55 101 -37 53 -723 805 -769 843 -45 38 -135 81 -196 94 -81 17 -1941 14
-2004 -4z m1834 -608 l3 -422 33 -52 c18 -28 51 -63 73 -78 73 -51 110 -55
526 -55 l383 0 -2 -1549 -3 -1550 -21 -28 c-11 -15 -36 -38 -54 -51 l-33 -22
-1347 0 -1347 0 -34 23 c-18 12 -44 38 -56 56 -22 33 -23 40 -23 285 0 145 -5
267 -11 289 -11 40 -56 77 -94 77 -38 0 -83 -37 -94 -77 -13 -46 -14 -430 -2
-525 17 -131 97 -244 211 -297 l55 -26 1100 -5 1100 -5 3 -75 c4 -92 -8 -137
-48 -175 l-31 -30 -1212 0 -1212 0 -47 23 c-60 30 -120 90 -150 150 l-23 47
-3 1920 c-3 1798 -2 1922 14 1953 28 53 69 72 158 72 l76 0 0 -1117 c0 -754 4
-1130 11 -1156 11 -40 56 -77 94 -77 38 0 83 37 94 77 7 26 11 467 11 1374 l0
1336 23 34 c12 19 42 44 67 57 l44 22 883 0 882 0 3 -423z m586 -10 c191 -209
349 -383 350 -388 3 -6 -129 -9 -346 -7 -328 3 -351 4 -371 22 -21 19 -21 26
-21 398 l0 378 21 -12 c11 -7 176 -183 367 -391z"/>
<path d="M1840 3890 c-60 -14 -93 -75 -70 -131 28 -66 5 -64 625 -64 620 0
597 -2 625 64 23 58 -10 116 -75 131 -49 12 -1056 11 -1105 0z"/>
<path d="M1835 3063 c-29 -7 -62 -41 -70 -70 -3 -14 -1 -40 5 -59 22 -67 -17
-64 874 -64 581 0 812 3 830 11 14 7 32 27 41 46 23 48 4 101 -45 125 -33 17
-91 18 -825 17 -434 -1 -799 -3 -810 -6z"/>
<path d="M1813 2228 c-30 -15 -56 -72 -48 -107 3 -16 17 -39 31 -52 l26 -24
824 0 824 0 27 27 c41 41 39 100 -5 139 l-32 29 -813 -1 c-551 0 -819 -4 -834
-11z"/>
<path d="M1178 1804 c-34 -18 -48 -43 -48 -87 0 -72 74 -116 138 -83 37 19 52
44 52 86 0 42 -15 67 -50 85 -36 19 -57 18 -92 -1z"/>
<path d="M1797 1386 c-49 -45 -46 -111 7 -150 27 -21 37 -21 820 -24 883 -3
858 -4 889 60 16 32 17 44 7 72 -23 70 30 66 -878 66 l-819 0 -26 -24z"/>
</g>
</svg>
