<svg width="21" height="21" viewBox="0 0 21 21" fill="none" xmlns="http://www.w3.org/2000/svg">
<path d="M0 11.3691V11.8711V20.707H5.0332V19.459L5.05664 19.467C6.37023 19.9038 8.24161 20.2876 10.0977 20.9513L10.2383 21.0022L10.3789 20.965C10.9627 20.8293 12.5282 20.3425 14.4023 19.7404C16.2765 19.1384 18.4162 18.4298 20.0059 17.8811C20.768 17.6175 21.1785 16.7688 20.8984 16.0119V16.0041C20.6042 15.2299 19.7504 14.8884 19.0234 15.1115C18.4193 15.2969 15.5855 16.179 13.7227 16.7287C13.7412 16.1957 13.8818 15.6129 13.4492 15.2737L13.4199 15.2522L13.3984 15.2365C11.3047 13.9892 11.1235 13.8344 8.17969 12.2698L8.03907 12.2033L7.89063 12.217C6.88001 12.3251 5.16469 12.6058 5.03321 12.6272V11.3694L0 11.3691ZM7.83984 13.2285C10.5356 14.6641 10.8389 14.8831 12.8301 16.0703C13.145 16.3214 13.2292 16.6299 13.0371 16.9062C12.933 17.0562 12.8327 17.1093 12.6816 17.1348C12.5306 17.1602 12.3232 17.138 12.084 17.0312C11.1822 16.6148 10.6998 16.3479 9.70703 15.791L9.27148 15.5469L8.77734 16.418L9.2207 16.6621C10.2161 17.2204 10.7458 17.5118 11.6719 17.9395V17.9473C12.0505 18.1161 12.4525 18.1894 12.8457 18.123C13.0077 18.0957 13.1178 17.9373 13.2656 17.8574L13.2813 17.9023L13.7598 17.7617C15.625 17.2155 18.696 16.2612 19.3184 16.0703C19.5523 15.9985 19.8669 16.1119 19.9609 16.3594C20.0538 16.6103 19.938 16.8469 19.6816 16.9355C18.1028 17.4806 15.9674 18.1871 14.0996 18.7871C12.2805 19.3715 10.74 19.8419 10.2539 19.9609C8.38618 19.3125 6.52847 18.9018 5.36719 18.5156L5.03321 18.4043V13.6406L5.11524 13.6269C5.11524 13.6269 6.8284 13.3473 7.83984 13.2285Z" fill="#182F48"/>
<path d="M14.6172 0C11.2191 0 8.45312 2.76606 8.45312 6.16406C8.45312 9.56211 11.2191 12.3281 14.6172 12.3281C18.0153 12.3281 20.7734 9.56211 20.7734 6.16406C20.7734 2.76606 18.0153 0 14.6172 0ZM12.6836 2.73828C13.0693 2.73698 13.4553 2.88106 13.7461 3.17188C14.3277 3.75347 14.3277 4.71918 13.7461 5.30078C13.1644 5.88241 12.2047 5.87847 11.623 5.29688C11.0414 4.71526 11.0414 3.75741 11.623 3.17579C11.9139 2.88499 12.2978 2.73958 12.6836 2.73828ZM16.3809 3.69141L17.0898 4.39258L16.7363 4.74609L13.0293 8.45312L12.6758 8.80664L11.9668 8.10547L12.3203 7.75195L16.0273 4.04492L16.3809 3.69141ZM12.6836 3.73438C12.5573 3.73568 12.4317 3.78702 12.332 3.88672C12.1325 4.08626 12.1326 4.38656 12.332 4.58594C12.5314 4.78539 12.8377 4.79118 13.0371 4.59184C13.2365 4.39243 13.2365 4.08028 13.0371 3.8809C12.9373 3.78113 12.8099 3.73307 12.6836 3.73438ZM16.543 6.5957C16.9287 6.5944 17.3127 6.73848 17.6035 7.0293C18.1851 7.61089 18.1812 8.5727 17.5996 9.1543C17.018 9.73592 16.0621 9.7359 15.4805 9.1543C14.8988 8.57267 14.8988 7.61678 15.4805 7.03516C15.7713 6.74436 16.1572 6.597 16.543 6.5957ZM16.5391 7.58984C16.4114 7.58984 16.2833 7.63859 16.1836 7.73828C15.9841 7.93782 15.9901 8.24398 16.1895 8.44336C16.389 8.6429 16.6893 8.64274 16.8887 8.44336C17.0882 8.24395 17.094 7.93766 16.8946 7.73828C16.7949 7.63856 16.6667 7.58984 16.5391 7.58984Z" fill="#182F48"/>
</svg>
