<?xml version="1.0" encoding="UTF-8"?>
<svg version="1.1" xmlns="http://www.w3.org/2000/svg" width="512" height="512">
<path d="M0 0 C3.41278281 2.92102736 6.72774541 5.92293253 10 9 C10.59039062 9.5259375 11.18078125 10.051875 11.7890625 10.59375 C32.93646718 30.23778467 44.73849795 60.6861509 47 89 C47.1317684 92.79091395 47.13099931 96.5775938 47.12025452 100.37049866 C47.12153615 102.04199743 47.12153615 102.04199743 47.12284368 103.74726385 C47.1244849 107.4644197 47.11899939 111.18152998 47.11352539 114.89868164 C47.1132432 117.56992697 47.11335789 120.24116955 47.1139679 122.91241455 C47.11449094 128.65483633 47.1113671 134.3972467 47.10573006 140.1396656 C47.09758528 148.44212562 47.09499679 156.74458015 47.09374207 165.04704373 C47.09155622 178.51891444 47.08490882 191.99077907 47.07543945 205.46264648 C47.06625324 218.54532847 47.05918979 231.6280088 47.05493164 244.71069336 C47.05466364 245.5260247 47.05439565 246.34135605 47.05411953 247.1813944 C47.05203997 253.55830746 47.05008309 259.93522056 47.04816496 266.31213367 C47.03874004 297.54142802 47.01861965 328.77070716 47 360 C-37.48 360 -121.96 360 -209 360 C-209.12099405 292.75867858 -209.12099405 292.75867858 -209.14648438 264.59570312 C-209.15235716 258.15047177 -209.15841837 251.70524064 -209.16479492 245.26000977 C-209.16558617 244.45230961 -209.16637741 243.64460946 -209.16719264 242.81243354 C-209.18020721 229.80714691 -209.20384009 216.80190045 -209.23145839 203.79663756 C-209.25960616 190.42963163 -209.27619597 177.0626466 -209.28226548 163.69561225 C-209.28636259 155.46087479 -209.29925821 147.22625087 -209.3237494 138.9915484 C-209.33972258 133.32919083 -209.34437446 127.66689116 -209.34050413 122.00451275 C-209.33860038 118.7474678 -209.34301219 115.49065887 -209.35761642 112.23364067 C-209.53231017 71.23324097 -199.82445327 37.73609564 -170.875 7.5 C-154.65460546 -8.29354206 -134.76859237 -19.02962461 -113 -25 C-111.82566406 -25.33902344 -110.65132813 -25.67804687 -109.44140625 -26.02734375 C-71.70868778 -34.99558023 -29.61165968 -24.66216037 0 0 Z M-91 73 C-91.5775 73.4125 -92.155 73.825 -92.75 74.25 C-96.99489083 80.19284717 -96.2647956 88.56334959 -96.1953125 95.5 C-96.19106766 97.11442993 -96.19106766 97.11442993 -96.18673706 98.76147461 C-96.17560731 102.17443299 -96.15051595 105.5871219 -96.125 109 C-96.11496089 111.32421494 -96.10583667 113.64843402 -96.09765625 115.97265625 C-96.0756916 121.64852831 -96.04228625 127.32424489 -96 133 C-97.05912598 132.98428955 -98.11825195 132.9685791 -99.20947266 132.95239258 C-103.15666026 132.89789878 -107.10381489 132.86357954 -111.05126953 132.83520508 C-112.75640463 132.82016262 -114.46150132 132.79972347 -116.16650391 132.77368164 C-118.62412012 132.73709716 -121.08122269 132.72022827 -123.5390625 132.70703125 C-124.67379501 132.68380547 -124.67379501 132.68380547 -125.83145142 132.66011047 C-132.14334407 132.65812485 -136.15873244 134.24056656 -140.8125 138.6875 C-143.39025916 142.59096387 -144.42794429 145.33628056 -144 150 C-142.67990538 154.74543818 -141.05227882 157.27855286 -136.94897461 160.09179688 C-132.69524252 162.45298821 -129.00210623 162.51824051 -124.22265625 162.390625 C-123.00563271 162.38213531 -123.00563271 162.38213531 -121.76402283 162.37347412 C-119.1962245 162.3512492 -116.62986985 162.30108235 -114.0625 162.25 C-112.31186924 162.2299169 -110.56121641 162.21166931 -108.81054688 162.1953125 C-104.53981622 162.15143044 -100.27015207 162.08250275 -96 162 C-96.00666183 163.20776596 -96.01332367 164.41553192 -96.02018738 165.65989685 C-96.08109805 177.0620771 -96.12602046 188.46422417 -96.15543652 199.86653042 C-96.17106817 205.72806537 -96.19226092 211.58946859 -96.22631836 217.45092773 C-96.25900074 223.11138765 -96.27687182 228.77172113 -96.28463173 234.43226814 C-96.29015929 236.58794201 -96.3009532 238.74360925 -96.31719017 240.89922905 C-96.33908224 243.92702875 -96.34196198 246.95431117 -96.34057617 249.98217773 C-96.351362 250.86619263 -96.36214783 251.75020752 -96.3732605 252.66101074 C-96.33947199 259.51834489 -95.57124368 266.36109201 -90.625 271.4375 C-85.28524784 274.6159239 -82.21579623 275.52668679 -76 274 C-71.64359412 271.65424299 -69.08790519 269.50547961 -67 265 C-65.67888425 260.19557756 -65.86670056 255.37746635 -65.88647461 250.4362793 C-65.88632858 249.47969925 -65.88618256 248.5231192 -65.8860321 247.53755188 C-65.88672747 244.38308425 -65.8945023 241.22867604 -65.90234375 238.07421875 C-65.90420926 235.88418103 -65.90563254 233.6941429 -65.90663147 231.50410461 C-65.91044613 225.74525802 -65.92026747 219.98643671 -65.93133545 214.2276001 C-65.94157214 208.3490025 -65.94613393 202.47040082 -65.95117188 196.59179688 C-65.96189067 185.06118681 -65.9789545 173.53059551 -66 162 C-64.91581787 162.02094727 -63.83163574 162.04189453 -62.71459961 162.06347656 C-58.66867426 162.13621102 -54.62280601 162.18192043 -50.57641602 162.21972656 C-48.82957216 162.23976622 -47.08279475 162.26700587 -45.33618164 162.30175781 C-42.81640168 162.35061582 -40.29751315 162.37304486 -37.77734375 162.390625 C-36.6175425 162.42159271 -36.6175425 162.42159271 -35.43431091 162.45318604 C-29.83131671 162.45547286 -26.63075383 161.17486588 -22 158 C-19.02193129 154.5255865 -17.64410921 150.51091366 -17.875 145.9375 C-18.76585591 141.32868421 -21.4103565 137.93842499 -25 135 C-29.38449339 132.73571245 -33.54061721 132.73932636 -38.36328125 132.8046875 C-39.15526413 132.8075174 -39.94724701 132.81034729 -40.76322937 132.81326294 C-43.27980999 132.82441137 -45.79602789 132.84950578 -48.3125 132.875 C-50.02408338 132.88503671 -51.73567237 132.89416136 -53.44726562 132.90234375 C-57.63164906 132.92433319 -61.81576314 132.95882592 -66 133 C-65.99333817 132.40610977 -65.98667633 131.81221954 -65.97981262 131.20033264 C-65.91314319 124.98671921 -65.86806885 118.77320837 -65.83520508 112.55932617 C-65.82017271 110.24417998 -65.7997413 107.929062 -65.77368164 105.61401367 C-65.73705404 102.27515676 -65.72021759 98.9366783 -65.70703125 95.59765625 C-65.69154739 94.57229263 -65.67606354 93.54692902 -65.66011047 92.49049377 C-65.65859251 85.92313382 -65.84249118 78.52809053 -70.45222473 73.37733459 C-74.59422386 69.83451257 -77.4412851 68.65147044 -82.90234375 68.7109375 C-86.2876308 69.17743888 -88.39777241 70.88190778 -91 73 Z " fill="#000000" transform="translate(337,28)"/>
<path d="M0 0 C0.83802824 -0.00465992 1.67605649 -0.00931984 2.53947952 -0.01412097 C5.36034008 -0.02611492 8.1807229 -0.01665859 11.00158787 -0.00736332 C13.03928136 -0.01153431 15.07697253 -0.01701052 17.11465937 -0.02368313 C22.72420242 -0.03818726 28.33359917 -0.03387752 33.9431504 -0.02651632 C39.98891938 -0.02179923 46.03465604 -0.03428153 52.08041477 -0.04453373 C63.24309685 -0.06075957 74.4057334 -0.06316111 85.56842104 -0.05822874 C95.88068872 -0.0536743 106.19293899 -0.05426732 116.50520611 -0.06006908 C117.8876492 -0.06082594 119.2700923 -0.06158192 120.6525354 -0.06233703 C122.73566659 -0.0634822 124.81879777 -0.06463208 126.90192895 -0.06579627 C146.27299701 -0.07650379 165.64405925 -0.08122393 185.01512909 -0.07332611 C185.74558067 -0.07302894 186.47603225 -0.07273176 187.22861872 -0.07242559 C193.1606752 -0.06997657 199.0927316 -0.06736502 205.024788 -0.06474145 C228.1662165 -0.05463812 251.30757244 -0.06299502 274.44899082 -0.086236 C300.44036409 -0.11229687 326.43169368 -0.1251597 352.4230805 -0.11804825 C355.19340614 -0.11733217 357.96373178 -0.11665779 360.73405743 -0.1160078 C361.41619672 -0.115838 362.09833602 -0.11566819 362.80114621 -0.11549323 C373.10684724 -0.11318841 383.41250778 -0.12117595 393.71819973 -0.13429928 C405.43581623 -0.14919382 417.15335397 -0.14970079 428.87097424 -0.13222837 C434.85242798 -0.12368835 440.83370005 -0.1216419 446.81514454 -0.13687992 C452.28707906 -0.15064768 457.75867492 -0.14606624 463.23058946 -0.12664068 C465.21370893 -0.12285596 467.19685502 -0.12587314 469.17995095 -0.13625234 C471.86945888 -0.14933155 474.55778215 -0.13792031 477.24723816 -0.12025452 C478.02259349 -0.12990503 478.79794882 -0.13955554 479.59679976 -0.14949849 C484.76949891 -0.07942538 487.69941844 1.1182449 491.68653965 4.38031673 C495.74284363 9.60291531 495.46051509 15.03371816 494.68653965 21.38031673 C492.51149063 25.9720869 490.23131292 28.21242445 485.68653965 30.38031673 C482.84013316 30.66423108 480.2165989 30.78526858 477.3730793 30.76063347 C476.53505106 30.76529339 475.69702281 30.76995331 474.83359978 30.77475443 C472.01273922 30.78674839 469.1923564 30.77729206 466.37149143 30.76799679 C464.33379794 30.77216777 462.29610677 30.77764399 460.25841993 30.7843166 C454.64887688 30.79882073 449.03948013 30.79451099 443.4299289 30.78714979 C437.38415992 30.78243269 431.33842326 30.794915 425.29266453 30.8051672 C414.12998245 30.82139304 402.9673459 30.82379458 391.80465826 30.81886221 C381.49239058 30.81430777 371.18014031 30.81490079 360.86787319 30.82070255 C359.4854301 30.82145941 358.102987 30.82221539 356.7205439 30.8229705 C354.63741271 30.82411567 352.55428153 30.82526555 350.47115035 30.82642974 C331.10008229 30.83713725 311.72902005 30.8418574 292.35795021 30.83395958 C291.62749863 30.83366241 290.89704705 30.83336523 290.14446058 30.83305905 C284.2124041 30.83061003 278.2803477 30.82799849 272.3482913 30.82537492 C249.2068628 30.81527159 226.06550686 30.82362849 202.92408848 30.84686947 C176.93271521 30.87293034 150.94138562 30.88579317 124.9499988 30.87868172 C122.17967316 30.87796564 119.40934752 30.87729126 116.63902187 30.87664127 C115.95688258 30.87647146 115.27474328 30.87630166 114.57193309 30.8761267 C104.26623206 30.87382188 93.96057152 30.88180942 83.65487957 30.89493275 C71.93726307 30.90982729 60.21972532 30.91033426 48.50210506 30.89286184 C42.52065132 30.88432182 36.53937925 30.88227537 30.55793476 30.89751339 C25.08600024 30.91128115 19.61440438 30.90669971 14.14248984 30.88727415 C12.15937037 30.88348943 10.17622428 30.88650661 8.19312835 30.8968858 C5.50362042 30.90996501 2.81529715 30.89855378 0.12584114 30.88088799 C-0.64951419 30.8905385 -1.42486952 30.90018901 -2.22372046 30.91013196 C-7.39641961 30.84005885 -10.32633914 29.64238857 -14.31346035 26.38031673 C-18.36976433 21.15771816 -18.08743579 15.72691531 -17.31346035 9.38031673 C-13.56922093 1.47581129 -8.28879872 -0.07181083 0 0 Z " fill="#000000" transform="translate(17.31346035003662,481.61968326568604)"/>
<path d="M0 0 C1.48613724 -0.00461272 2.97226991 -0.01096812 4.4583931 -0.01890898 C8.52956489 -0.0355747 12.60036061 -0.02736862 16.67153358 -0.0149641 C21.0669774 -0.0059046 25.46235706 -0.0198878 29.85778809 -0.03088379 C38.46344746 -0.04866398 47.06896724 -0.04483125 55.67463207 -0.03323323 C62.66904533 -0.02419722 69.66341949 -0.02297563 76.65783691 -0.02732849 C77.65357326 -0.02794142 78.6493096 -0.02855436 79.67521977 -0.02918586 C81.69808166 -0.03046477 83.72094354 -0.03176162 85.74380541 -0.03307623 C104.70919416 -0.04448056 123.67450555 -0.03137061 142.63988161 -0.00987476 C158.91067596 0.00799608 175.18135615 0.00489193 191.45214844 -0.0135498 C210.34998326 -0.03495909 229.24775029 -0.04338194 248.14559555 -0.03110075 C250.16098784 -0.02982656 252.17638015 -0.02856908 254.19177246 -0.02732849 C255.18336656 -0.02671139 256.17496066 -0.02609429 257.19660306 -0.02545848 C264.18206997 -0.02200576 271.16749386 -0.02783226 278.1529541 -0.0372467 C286.66669889 -0.0484687 295.18029618 -0.0454224 303.69402409 -0.02412373 C308.03732483 -0.01361603 312.3803797 -0.00948668 316.72367859 -0.02272034 C320.70112571 -0.03465593 324.67809946 -0.02806274 328.65550375 -0.00681013 C330.09280859 -0.00234898 331.53015356 -0.00459945 332.9674325 -0.01431328 C348.54310025 -0.11149063 348.54310025 -0.11149063 353.42480469 4.50793457 C357.42480469 11.50793457 357.42480469 11.50793457 357.42480469 35.50793457 C230.70480469 35.50793457 103.98480469 35.50793457 -26.57519531 35.50793457 C-26.57519531 11.50793457 -26.57519531 11.50793457 -22.57519531 4.50793457 C-16.62622116 -1.12141917 -7.59433318 -0.0513262 0 0 Z " fill="#000000" transform="translate(90.5751953125,416.4920654296875)"/>
</svg>
