<?xml version="1.0" encoding="UTF-8"?>
<svg id="Layer_1" xmlns="http://www.w3.org/2000/svg" version="1.1" viewBox="0 0 500 500">
  <!-- Generator: Adobe Illustrator 29.2.1, SVG Export Plug-In . SVG Version: 2.1.0 Build 116)  -->
  <defs>
    <style>
      .st0 {
        fill: #0d2139;
      }

      .st1 {
        fill: #f0b501;
      }
    </style>
  </defs>
  <path class="st1" d="M79.85,352.04c17.54,17.96,34.33,34.17,56.61,46.31,123.03,67.07,267.84-18.68,274.64-156.46,1.81-36.68,1.55-77.16.65-114.03-.08-3.24-1.13-6.67-.65-10.07.36-1.55,7.55-.86,9.03-1l.03,134.76c-2.96,79.7-56.63,149.71-132.8,172.67l-23.87,5.84h-61.21c-11.63-2.42-23.18-5.06-34.36-9.15-35.36-12.96-66.3-37.1-88.07-67.66v-1.2Z"/>
  <path class="st0" d="M162.58,117.47l.06,131.67c4.3,53.04,63.11,83.33,108.6,53.94,17.35-11.21,30.37-32.64,31.85-53.37,1.98-27.81-.95-58.22-.02-86.44.46-13.91.83-25.08,11.4-35.41,8.78-8.58,19.41-10.25,31.23-11.07-3.31,2.67-8.35,3.02-12.23,4.87-9.66,4.6-14.7,17-15.4,27.21-3.12,45.59,8.57,102.9-10.67,144.76-31.68,68.92-121.35,89.51-180.43,41.59-60.21-48.84-39.17-121.4-42.95-189.35,2.25-15.89,11.72-28.02,28.5-29.11,13.2-.86,33.72-.95,46.87,0,1.11.08,2.19.19,3.19.71Z"/>
</svg>