<svg width="22" height="21" viewBox="0 0 22 21" fill="none" xmlns="http://www.w3.org/2000/svg">
<path d="M10.6816 11.8184C9.17671 11.8184 7.94727 13.0491 7.94727 14.5547C7.94727 15.3921 8.33483 16.1355 8.93164 16.6387C8.14449 16.9573 7.46336 17.4841 6.95312 18.1562C6.74093 17.9867 6.51388 17.8385 6.26953 17.7227C6.62616 17.3524 6.84961 16.8578 6.84961 16.3086C6.84961 15.1668 5.89754 14.2402 4.74805 14.2402C3.59856 14.2402 2.64258 15.1668 2.64258 16.3086C2.64258 16.8607 2.86997 17.3577 3.23047 17.7285C2.21265 18.2121 1.45104 19.1556 1.2793 20.3184L1.19336 20.8926H20.166L20.082 20.3184C19.9104 19.1561 19.15 18.2123 18.1328 17.7285C18.4923 17.3578 18.7188 16.8603 18.7188 16.3086C18.7188 15.1668 17.7647 14.2402 16.6152 14.2402C15.4657 14.2402 14.5117 15.1668 14.5117 16.3086C14.5117 16.8573 14.7352 17.3525 15.0918 17.7227C14.8468 17.8388 14.6189 17.9863 14.4062 18.1562C13.8964 17.4852 13.2177 16.9572 12.4316 16.6387C13.0285 16.1355 13.418 15.3921 13.418 14.5547C13.418 13.0491 12.1866 11.8184 10.6816 11.8184ZM4.74805 15.2422C5.36943 15.2422 5.85156 15.7198 5.85156 16.3086C5.85156 16.8974 5.36943 17.375 4.74805 17.375C4.12666 17.375 3.64453 16.8973 3.64453 16.3086C3.64453 15.7198 4.12666 15.2422 4.74805 15.2422ZM16.6152 15.2422C17.2366 15.2422 17.7188 15.7198 17.7188 16.3086C17.7188 16.8973 17.2366 17.375 16.6152 17.375C15.9938 17.375 15.5137 16.8974 15.5137 16.3086C15.5137 15.7198 15.9938 15.2422 16.6152 15.2422ZM10.6816 17.293C12.2866 17.2935 13.5201 18.4112 14.0195 19.8848H7.3418C7.8417 18.4111 9.07623 17.2926 10.6816 17.293Z" fill="#182F48"/>
<path d="M0 0V7.94727H8.375L10.627 10.6934L12.957 7.94727H21.2656V0H0ZM3.3418 2.35937H17.9238V3.42969H3.3418V2.35937ZM3.3418 4.44531H14.0566V5.51758H3.3418V4.44531Z" fill="#182F48"/>
</svg>
