<?xml version="1.0" encoding="UTF-8"?>
<svg id="Layer_1" xmlns="http://www.w3.org/2000/svg" version="1.1" viewBox="0 0 500 500">
  <!-- Generator: Adobe Illustrator 29.2.1, SVG Export Plug-In . SVG Version: 2.1.0 Build 116)  -->
  <defs>
    <style>
      .st0 {
        fill: #0d2139;
      }

      .st1 {
        fill: #f0b501;
      }

      .st2 {
        fill: #fefefe;
      }
    </style>
  </defs>
  <path class="st0" d="M136.51,307.96c6.23-23.6,14.36-48.47,19.33-72.17,2.06-9.82,4.5-15.05-8.32-15.83l-20.51,73h-50.5l34.56-132.98c.87-6.62-7.01-4.83-11.56-5.02-.42-.43.23-6.75,2.46-6.06,15.8,1.53,34.66-1.81,50.06.04,7.25.87,10.76,6.31,10.4,13.37s-13.72,47.83-11.92,49.65c12.55.69,26.05-.94,38.49.01,17.66,1.35,22.42,5.37,19.22,23.19-3.12,17.39-10.01,38.29-14.71,55.79-1.74,6.49-3.96,13.08-5.98,19.52l2.4.41c74.5-21.22,164.88-68.97,243.96-57.8,1.27.18,5.44.41,5.62,1.87-38.41-1.36-75.58,11.67-111.24,24.26-33.66,11.89-66.44,26.2-100.23,37.77-45.67,15.64-93.53,30.27-142.52,24.98-7.58-2.36-15.96-3.04-23-7,.12.01.75-.9,1.48-.84,22.65,1.71,44.69-1.27,66.78-6.16,2.41-1.07,4.89-16.76,5.74-20ZM320.38,273.09c-1.22-1.43-6.01-.79-6.7,1.02-.31.82,1.77,4.62,1.99,4.75,2.42,1.32,7.21-2.84,4.71-5.77ZM296.38,282.09c-.25-.3-3.89-.86-4.86-1.13v7c3.49.52,7.27-3,4.86-5.88ZM270.39,292.08c-.25-.3-3.88-.83-4.86-1.13-.98,2.61-.98,4.4,0,7.01,3.49.5,7.28-3.03,4.86-5.88ZM246.39,300.08c-.15-.17-4.05-1.17-4.27-1.15-.34.03-4.13,3.99-3.49,4.93.06.08,1.04-.17,1.83.91.37.51-.13,1.96.06,2.18s5.72-.84,5.93-1.06c.22-.23.28-5.43-.06-5.82ZM220.41,310.11c-.14-.21-3.16-1.48-3.89-2.15,1.08,2.35-2.03,3.33-2.04,3.64-.29,6.79,7.73,1.1,5.93-1.49ZM192.45,316.03c-2.96-1.93-4,6.56-2.93,7.93,3.89-.69,6.21-.54,4.94-5.27-.04-.16-1.87-2.57-2.01-2.66ZM169.39,324.08c-1.23-1.41-5.97-.91-6.63,1.13s.95,3.8.76,5.76c1.06-.54,5.72-.85,5.93-1.06.22-.23.28-5.43-.06-5.82ZM137.42,329.08c-1.13-.79-5.57,3.65-4.79,4.79.1.14,1.26-.03,1.56.44.63.98.18,2.46.34,2.65.19.23,4.49-1.25,5.98,0-1.26-1.48.22-5.78,0-5.98-.19-.16-1.67.29-2.65-.34-.47-.31-.3-1.47-.44-1.56Z"/>
  <path class="st1" d="M193.51,290.96c49.31-13.65,97.36-32.07,147.79-41.71,42.46-8.12,90.04-12.42,131,4.46,1.49.61,2.72-.61,2.2,2.24-6.76-.37-13.86,1.6-20.49,2.01-25.22,1.54-37.68,2.93-62.27,10.73-85.16,27.02-196.59,98.82-287.24,79.78-7.42-1.56-12.7-4.56-18.99-6.51,48.99,5.29,96.85-9.34,142.52-24.98,33.79-11.57,66.57-25.88,100.23-37.77,35.66-12.59,72.84-25.62,111.24-24.26-.18-1.46-4.35-1.69-5.62-1.87-79.08-11.18-169.46,36.57-243.96,57.8l-2.4-.41c2.03-6.43,4.24-13.02,5.98-19.52Z"/>
  <path class="st1" d="M136.51,307.96c-.85,3.24-3.33,18.93-5.74,20-22.09,4.89-44.13,7.87-66.78,6.16-.73-.06-1.36.85-1.48.84-10.63-1.07-25.05-5.78-33-12.99,35.96,2.83,72.1-6.52,107-14.01Z"/>
  <path class="st2" d="M246.39,300.08c.34.39.28,5.59.06,5.82-.21.22-5.73,1.28-5.93,1.06s.31-1.67-.06-2.18c-.79-1.08-1.77-.83-1.83-.91-.64-.94,3.15-4.9,3.49-4.93.22-.02,4.13.98,4.27,1.15Z"/>
  <path class="st2" d="M169.39,324.08c.34.39.28,5.59.06,5.82s-4.87.52-5.93,1.06c.19-1.96-1.4-3.79-.76-5.76s5.4-2.54,6.63-1.13Z"/>
  <path class="st2" d="M137.42,329.08c.14.1-.03,1.26.44,1.56.98.63,2.46.18,2.65.34.23.19-1.25,4.49,0,5.98-1.48-1.26-5.78.22-5.98,0-.16-.19.29-1.67-.34-2.65-.31-.47-1.47-.3-1.56-.44-.79-1.13,3.65-5.57,4.79-4.79Z"/>
  <path class="st2" d="M320.38,273.09c2.5,2.93-2.29,7.09-4.71,5.77-.23-.12-2.3-3.92-1.99-4.75.69-1.81,5.48-2.46,6.7-1.02Z"/>
  <path class="st2" d="M270.39,292.08c2.42,2.85-1.37,6.38-4.86,5.88-.98-2.61-.98-4.4,0-7.01.98.3,4.61.83,4.86,1.13Z"/>
  <path class="st2" d="M192.45,316.03c.14.09,1.97,2.5,2.01,2.66,1.26,4.73-1.06,4.58-4.94,5.27-1.06-1.37-.03-9.86,2.93-7.93Z"/>
  <path class="st2" d="M296.38,282.09c2.41,2.87-1.37,6.39-4.86,5.88v-7c.97.27,4.61.83,4.86,1.13Z"/>
  <path class="st2" d="M220.41,310.11c1.8,2.58-6.21,8.28-5.93,1.49.01-.31,3.12-1.29,2.04-3.64.73.67,3.74,1.94,3.89,2.15Z"/>
</svg>