<?xml version="1.0" encoding="UTF-8"?>
<svg id="Layer_1" xmlns="http://www.w3.org/2000/svg" version="1.1" viewBox="0 0 500 500">
  <!-- Generator: Adobe Illustrator 29.2.1, SVG Export Plug-In . SVG Version: 2.1.0 Build 116)  -->
  <defs>
    <style>
      .st0 {
        fill: #0d2139;
      }

      .st1 {
        fill: #f0b501;
      }
    </style>
  </defs>
  <path class="st1" d="M249.89,102.76l-36.81,6.67c-73.52,23.37-124.66,84.87-119.08,164.39,10.09,143.74,203.01,196.12,285.07,80.53,3.75-5.28,15.35-29.78,16.84-30.7,3.68-2.3,18.08,3.58,19.58,6.12,3.1,5.28-12.13,27.17-15.91,32.48-50.48,70.75-151.6,93.06-227.94,50.48-105.46-58.81-120.92-211.89-17.36-281.59,25.73-17.32,64.29-34.61,95.61-28.38Z"/>
  <path class="st0" d="M102.17,244.4c17.84,6.76,43.66-18.98,44.4-35.58.37-8.38-3.97-14.67-12.69-14.34l-19.55,6.42,6.15-13.13c5.69,6.38,28.13-10,28.21-13.2l-14.11-6.04c120.39-134.9,338.27,9.68,238.8,169.99l-7.07-5.07c-3.59.76-14.7,22.07-5.11,20.26l-9.1,8.06-5.04-7.23c-6.37-3.39-14.09,10.09-15.81,14.8-3.49,9.56,3.05,9.73-9.53,14.67-11.94-22.44-48.96-8.05-46.53,16.23l-15.17-.03c23.08-33.14-18.38-72.26-49.61-46.55-12.93,10.64-10.79,22.04-10.02,36.43.08,1.56,2.93,2.79-2.07,2.06-9.96-1.46-18.12-8.91-27.33-12.17l13.01-10.22c23.77-32.76-20.07-72.57-50.15-46.1-4.5,3.96-5.19,8.95-9.4,11.81l-12.16-28.31c14.99,7.37,30.64,8.34,43.59-3.97,28.07-26.68-4.43-72.29-40.11-54.28-2.4,1.21-9.57,7.59-10.53,9.71-2.23,4.92,1.15,12.21-3.07,14.13v-28.33ZM229.66,147.29c-2.51-3.85-35.28-3.1-36.37,7.07,5.57,10.23,42.67,2.58,36.37-7.07ZM268.1,159.39c4.54-6.09-25.29-15.27-30.33-12.12-.79,9.82,26.73,16.95,30.33,12.12ZM185.13,155.37c-3.44-3.36-38.39,3.74-32.38,16.17,3.06,3.25,36.33-4.5,32.38-16.17ZM235.32,163.89c-33.51,3.29-25.37,37.83,8.64,31.05,29.89-5.97,19.36-33.79-8.64-31.05ZM266.54,168.01c-6.18,14.5,16.61,27.35,29.06,19.87,7.49-10.33-19.83-28.52-29.06-19.87ZM180.6,172.08c-36.64,5.03-43.47,47.9.91,37.32,33.15-7.9,39.99-42.93-.91-37.32ZM304.56,179.65c-4.73,4.95,15.43,27.51,22.2,17.2-5.02-7.67-11.96-17.51-22.2-17.2ZM299.16,229.55c18.81,18.91,36-3.32,16.58-25.69-21.46-24.72-36.14,6.02-16.58,25.69ZM255.29,196.6c-36.41.7-30.08,47.8,5.68,49.92,44.13,2.62,33.47-50.68-5.68-49.92ZM196.27,211.11c-51.8.03-27.84,84.83,15.89,59.3,28.01-16.35,14.19-59.32-15.89-59.3ZM347.03,234.27c2.89-6.24-6.71-25.61-13.11-24.27-6.02,1.26.94,15.05,2.59,17.61,2.77,4.32,4.41,7.64,10.52,6.66ZM324.22,242.68c-18.56,11.07-8.66,43.68,11.23,45.92,20.95-6.1,7.34-50.95-11.23-45.92ZM355.28,274.64c11.62,7.6,10.52-30.55-4.17-26.19-1.77,1.8,1.2,24.24,4.17,26.19ZM281.86,252.92c-32.33,2.38-38.09,51.01-5.28,58.9,44.9,10.8,48.96-62.12,5.28-58.9ZM243.13,283.56c-34.92-32.17-80.73,28.05-40.8,53.95,33.11,21.47,69.46-27.54,40.8-53.95ZM367.25,290.96l-6.16.88c-4.78,8.69-2.27,18.42.14,27.44,12.53-1.46,8.23-19.36,6.02-28.32ZM340.27,297.45c-18.66,1.8-19.93,46.11-2.01,47.72,19.59,1.76,19.85-49.44,2.01-47.72ZM276.89,326.04c-21.19,22.18,8.79,56.1,33.81,36.85,27.96-21.51-10.13-61.64-33.81-36.85Z"/>
</svg>