<?xml version="1.0" encoding="UTF-8"?>
<svg id="Layer_1" xmlns="http://www.w3.org/2000/svg" version="1.1" viewBox="0 0 500 500">
  <!-- Generator: Adobe Illustrator 29.2.1, SVG Export Plug-In . SVG Version: 2.1.0 Build 116)  -->
  <defs>
    <style>
      .st0 {
        fill: #0d2139;
      }

      .st1 {
        fill: #f0b501;
        stroke: #f0b501;
        stroke-miterlimit: 10;
        stroke-width: 3px;
      }
    </style>
  </defs>
  <path class="st0" d="M250.85,363.34L91.43,203.91l50.9-50.9c12.32-12.32,32.31-12.32,44.63,0l145.99,145.99-64.34,64.34c-4.9,4.9-12.86,4.9-17.77,0Z"/>
  <rect class="st0" x="38.34" y="197.6" width="172.48" height="131.68" rx="3.78" ry="3.78" transform="translate(-149.79 165.25) rotate(-45)"/>
  <rect class="st0" x="316.12" y="152.16" width="105.94" height="216.13" rx="3.78" ry="3.78" transform="translate(-75.9 337.21) rotate(-45)"/>
  <path class="st1" d="M332.95,296.96c22.06-17.64,36.14-42.8,36.14-73.24,0-53.16-43.09-96.25-96.25-96.25-30.53,0-57.73,14.21-75.37,36.38l135.48,133.11Z"/>
</svg>