<?xml version="1.0" standalone="no"?>
<!DOCTYPE svg PUBLIC "-//W3C//DTD SVG 20010904//EN"
 "http://www.w3.org/TR/2001/REC-SVG-20010904/DTD/svg10.dtd">
<svg version="1.0" xmlns="http://www.w3.org/2000/svg"
 width="512.000000pt" height="512.000000pt" viewBox="0 0 512.000000 512.000000"
 preserveAspectRatio="xMidYMid meet">

<g transform="translate(0.000000,512.000000) scale(0.100000,-0.100000)"
fill="#000000" stroke="none">
<path d="M166 5100 c-58 -23 -109 -69 -139 -125 l-22 -40 0 -2375 0 -2375 22
-40 c25 -47 74 -95 123 -121 34 -18 100 -19 1795 -22 1935 -2 1809 -6 1887 58
20 17 48 53 62 82 l26 52 0 476 0 477 -23 21 c-33 31 -87 29 -118 -4 l-24 -26
-2 -446 c-2 -246 -5 -457 -8 -469 -13 -56 85 -53 -1790 -53 l-1727 0 -29 29
-29 29 0 2331 0 2330 24 28 24 28 1729 3 c1219 1 1736 -1 1754 -9 15 -5 31
-20 38 -32 8 -16 12 -255 14 -849 l2 -826 24 -26 c32 -34 88 -36 119 -3 l22
23 0 850 0 850 -26 53 c-31 61 -96 114 -161 130 -29 8 -589 11 -1780 11 -1690
-1 -1739 -1 -1787 -20z"/>
<path d="M824 4600 c-50 -20 -54 -40 -54 -253 0 -197 0 -198 25 -222 l24 -25
1144 0 1144 0 20 23 c30 33 34 54 19 91 -9 23 -24 37 -46 45 -24 8 -329 11
-1096 11 l-1064 0 0 85 0 85 1083 0 1084 0 20 23 c30 33 34 54 19 91 -9 23
-24 37 -46 45 -40 13 -2242 15 -2276 1z"/>
<path d="M4755 4069 c-53 -26 -92 -64 -126 -125 -27 -47 -31 -50 -63 -46 -18
2 -43 -1 -54 -7 -11 -6 -65 -88 -120 -183 -138 -237 -118 -216 -184 -184 -53
26 -57 26 -91 12 -25 -10 -39 -23 -44 -43 -15 -57 -2 -81 64 -122 l43 -27
-361 -624 -361 -625 -89 -239 c-50 -131 -117 -290 -149 -353 -54 -102 -60
-119 -60 -174 0 -39 7 -77 21 -109 l21 -49 -88 -108 c-48 -59 -90 -112 -94
-116 -4 -5 -22 28 -40 72 -50 125 -119 175 -217 156 -37 -7 -103 -64 -129
-109 -8 -15 -14 23 -27 168 -18 208 -27 235 -95 281 -65 44 -162 29 -214 -33
-38 -45 -254 -696 -244 -735 8 -35 62 -69 96 -62 14 3 34 16 45 28 11 13 63
154 120 330 55 169 102 307 105 307 4 0 12 -75 19 -167 7 -94 19 -183 27 -203
55 -131 216 -149 297 -33 17 24 34 43 37 43 4 0 19 -32 35 -71 34 -88 63 -123
120 -144 52 -20 104 -14 151 18 17 11 78 80 135 152 l103 131 57 -4 c45 -3 68
1 111 20 66 31 93 59 171 181 34 53 130 179 213 280 l151 182 363 630 c199
347 364 631 365 633 7 8 85 -40 99 -60 33 -46 22 -72 -160 -388 -97 -168 -178
-319 -181 -337 -5 -26 0 -38 26 -64 27 -26 37 -30 63 -25 17 3 37 11 44 17 20
17 374 634 385 671 33 115 -15 225 -128 298 l-62 40 109 190 c117 201 129 239
91 274 -19 18 -19 19 15 81 43 78 52 142 31 216 -33 111 -127 179 -246 179
-45 -1 -79 -7 -106 -21z m165 -169 c32 -32 35 -64 10 -116 -13 -25 -28 -48
-35 -50 -9 -4 -118 51 -144 72 -7 6 49 93 67 103 29 17 80 13 102 -9z m-186
-281 c77 -45 143 -83 145 -85 3 -3 -152 -278 -165 -293 -2 -3 -277 152 -293
165 -4 3 162 294 168 294 2 0 67 -37 145 -81z m-207 -472 c51 -28 93 -56 93
-61 0 -7 -632 -1107 -669 -1165 -7 -10 -40 5 -152 70 -79 45 -145 83 -147 85
-2 1 420 738 655 1141 l25 42 51 -29 c29 -17 94 -54 144 -83z m-784 -1319 c48
-28 90 -54 93 -59 3 -5 -43 -67 -102 -139 l-108 -129 -55 31 c-31 18 -68 39
-83 48 -16 8 -28 18 -28 21 0 7 110 300 117 312 2 4 21 -2 41 -14 21 -12 76
-44 125 -71z m-277 -434 c35 -20 64 -38 64 -40 0 -17 -44 -85 -62 -98 -53 -38
-129 0 -131 64 0 36 37 110 55 110 5 0 39 -16 74 -36z"/>
<path d="M1053 3898 c-30 -34 -34 -55 -19 -93 11 -26 24 -36 53 -45 27 -8 288
-10 901 -8 l864 3 24 28 c31 37 31 81 -1 112 l-24 25 -889 0 -889 0 -20 -22z"/>
<path d="M1421 3319 c-35 -14 -50 -39 -51 -81 0 -28 6 -41 26 -57 27 -21 31
-21 996 -21 l969 0 24 25 c34 33 34 83 -1 116 l-26 24 -956 2 c-601 1 -966 -2
-981 -8z"/>
<path d="M663 2813 c-30 -6 -63 -49 -63 -84 0 -15 11 -41 24 -56 l24 -28 885
0 885 0 26 24 c36 34 36 88 0 122 l-26 24 -866 1 c-477 1 -877 0 -889 -3z"/>
<path d="M2715 2813 c-65 -17 -88 -98 -39 -144 l26 -24 330 0 330 0 24 28 c31
36 31 78 0 114 l-24 28 -314 2 c-172 0 -322 -1 -333 -4z"/>
<path d="M645 2378 c-51 -29 -61 -93 -20 -133 l24 -25 459 0 459 0 27 26 c35
36 34 77 -3 115 l-29 29 -449 0 c-318 -1 -454 -4 -468 -12z"/>
<path d="M1840 2377 c-54 -27 -61 -99 -13 -137 24 -19 42 -20 352 -20 315 0
328 1 349 20 46 43 37 109 -18 137 -36 18 -634 18 -670 0z"/>
<path d="M920 1775 c-273 -58 -485 -263 -556 -535 -26 -100 -24 -265 4 -365
72 -250 258 -435 507 -507 61 -17 106 -22 190 -23 136 0 192 13 323 77 87 41
117 62 181 126 131 130 207 290 218 461 5 84 5 87 -22 114 -60 59 -145 14
-145 -76 -1 -125 -64 -272 -160 -367 -111 -111 -237 -164 -390 -164 -313 -2
-556 241 -554 554 0 153 53 279 164 390 133 133 326 188 510 144 58 -13 89
-27 222 -96 33 -18 39 -18 72 -4 38 16 50 42 44 92 -6 57 -167 148 -317 180
-82 17 -206 17 -291 -1z"/>
<path d="M1380 1313 c-8 -3 -88 -76 -178 -161 l-163 -155 -103 101 c-85 84
-108 102 -133 102 -43 0 -83 -42 -83 -87 0 -30 13 -48 106 -143 58 -60 121
-116 141 -125 40 -19 105 -22 147 -5 39 14 345 316 362 357 19 45 2 91 -42
109 -18 8 -35 14 -36 13 -2 0 -10 -3 -18 -6z"/>
</g>
</svg>
