<svg width="25" height="21" viewBox="0 0 25 21" fill="none" xmlns="http://www.w3.org/2000/svg">
<path d="M7.82225 14.9975L6.57006 14.8064L6.24506 11.3652C6.14947 9.83582 4.83993 8.66966 3.31053 8.76525C1.78114 8.86083 0.614972 10.1704 0.710559 11.7189L1.05467 15.3225C1.12158 16.4122 1.81937 17.3585 2.8326 17.7409C3.10024 17.8747 3.39656 17.9321 3.70244 17.9225L6.33109 18.0468C6.59873 18.0563 6.81858 17.8556 6.82814 17.5975C6.8377 17.3394 6.63697 17.11 6.37888 17.1005L3.72156 16.9762C3.70244 16.9762 3.69288 16.9762 3.67376 16.9762C3.52082 16.9858 3.37744 16.9571 3.24362 16.8902C3.2245 16.8806 3.20539 16.871 3.18627 16.871C2.5076 16.6225 2.03922 15.9916 1.99143 15.2556L1.65687 11.6424C1.59952 10.6388 2.36422 9.77847 3.36788 9.71156C4.38111 9.65421 5.23184 10.4189 5.29875 11.4321L5.64286 15.0358C5.64286 15.0931 5.64286 15.1409 5.64286 15.1983C5.6333 15.4372 5.80536 15.638 6.04433 15.6762L7.67887 15.9343C7.8796 15.963 8.02298 16.135 8.02298 16.3358V20.3217C8.02298 20.5798 8.23328 20.7997 8.50092 20.7997C8.75901 20.7997 8.97886 20.5894 8.97886 20.3217V16.3358C8.95974 15.6666 8.4818 15.1027 7.82225 14.9975Z" fill="#182F48"/>
<path d="M3.6453 7.67586C5.0122 7.67586 6.13057 6.55749 6.13057 5.19059C6.13057 3.82369 5.0122 2.70532 3.6453 2.70532C2.27841 2.70532 1.16003 3.82369 1.16003 5.19059C1.16003 6.55749 2.27841 7.67586 3.6453 7.67586ZM3.6453 3.65164C4.49603 3.65164 5.18426 4.33986 5.18426 5.19059C5.18426 6.04132 4.49603 6.72955 3.6453 6.72955C2.79458 6.72955 2.10635 6.04132 2.10635 5.19059C2.10635 4.33986 2.80413 3.65164 3.6453 3.65164Z" fill="#182F48"/>
<path d="M21.6636 8.76525C20.1438 8.66966 18.8247 9.83582 18.7291 11.3461L18.4041 14.8064L17.1519 14.9975C16.4924 15.1027 16.0049 15.6666 16.0049 16.3358V20.3217C16.0049 20.5798 16.2152 20.7997 16.4828 20.7997C16.7505 20.7997 16.9608 20.5894 16.9608 20.3217V16.3358C16.9608 16.135 17.1041 15.9725 17.3049 15.9343L18.9394 15.6762C19.1784 15.638 19.3504 15.4372 19.3409 15.1983C19.3409 15.1409 19.3409 15.0931 19.3409 15.0549L19.685 11.4226C19.7423 10.4189 20.6026 9.65421 21.6159 9.71156C22.6195 9.76891 23.3842 10.6388 23.3269 11.6233L22.9828 15.2556C22.935 15.9725 22.4761 16.6034 21.7975 16.8519C21.7784 16.8615 21.7592 16.871 21.7401 16.871C21.6063 16.938 21.4629 16.9666 21.31 16.9571C21.2909 16.9571 21.2717 16.9571 21.2622 16.9571L18.6049 17.0813C18.3468 17.0909 18.1365 17.3203 18.1556 17.5784C18.1652 17.8365 18.385 18.0468 18.6526 18.0277L21.2813 17.9034C21.5776 17.9129 21.8835 17.8556 22.1511 17.7218C23.1644 17.3299 23.8622 16.3836 23.9291 15.313L24.2732 11.6807C24.3592 10.1704 23.193 8.85128 21.6636 8.76525Z" fill="#182F48"/>
<path d="M21.3288 7.67586C22.6957 7.67586 23.814 6.55749 23.814 5.19059C23.814 3.82369 22.6957 2.70532 21.3288 2.70532C19.9619 2.70532 18.8435 3.82369 18.8435 5.19059C18.8435 6.55749 19.9523 7.67586 21.3288 7.67586ZM21.3288 3.65164C22.1795 3.65164 22.8677 4.33986 22.8677 5.19059C22.8677 6.04132 22.1795 6.72955 21.3288 6.72955C20.478 6.72955 19.7898 6.04132 19.7898 5.19059C19.7898 4.33986 20.478 3.65164 21.3288 3.65164Z" fill="#182F48"/>
<path d="M17.3906 6.49993V0.506612C17.3906 0.229409 17.1612 0 16.884 0H8.08999C7.81278 0 7.58337 0.229409 7.58337 0.506612V6.49993C7.58337 6.77714 7.81278 7.00655 8.08999 7.00655H10.5466L12.1524 8.61241C12.248 8.708 12.3627 8.75579 12.487 8.75579C12.6113 8.75579 12.726 8.708 12.8216 8.61241L14.4274 7.00655H16.884C17.1708 7.00655 17.3906 6.77714 17.3906 6.49993ZM16.4443 6.06023H14.2267C14.1024 6.06023 13.9782 6.10803 13.8921 6.20361L12.487 7.60875L11.0819 6.19405C10.9958 6.10803 10.8716 6.05067 10.7473 6.05067H8.52969V0.955873H16.4443V6.06023Z" fill="#182F48"/>
</svg>
