<?xml version="1.0" standalone="no"?>
<!DOCTYPE svg PUBLIC "-//W3C//DTD SVG 20010904//EN"
 "http://www.w3.org/TR/2001/REC-SVG-20010904/DTD/svg10.dtd">
<svg version="1.0" xmlns="http://www.w3.org/2000/svg"
 width="1042.000000pt" height="1042.000000pt" viewBox="0 0 1042.000000 1042.000000"
 preserveAspectRatio="xMidYMid meet">

<g transform="translate(0.000000,1042.000000) scale(0.100000,-0.100000)"
fill="#000000" stroke="none">
<path d="M5098 9699 c-2 -6 -54 -19 -116 -29 -222 -38 -514 -171 -673 -306
-25 -21 -94 -83 -153 -136 -103 -94 -111 -99 -194 -124 -363 -108 -468 -153
-627 -265 -49 -35 -138 -112 -198 -171 -116 -116 -142 -133 -270 -176 -197
-67 -344 -190 -430 -362 -73 -146 -90 -224 -90 -415 -1 -147 1 -166 26 -240
15 -44 27 -88 27 -99 0 -35 -196 -215 -340 -312 -203 -138 -313 -225 -445
-358 -153 -154 -260 -296 -330 -439 -133 -274 -151 -610 -45 -843 37 -82 102
-179 179 -268 33 -37 72 -85 86 -107 l27 -38 -46 -114 c-62 -152 -85 -247 -97
-400 -26 -322 42 -570 227 -833 43 -60 102 -144 133 -188 31 -43 88 -108 128
-143 82 -74 89 -88 98 -223 24 -363 147 -656 393 -935 150 -170 322 -301 527
-401 176 -85 367 -155 985 -361 289 -96 547 -186 573 -199 70 -35 128 -77 262
-189 105 -88 274 -226 340 -277 39 -31 104 -42 165 -29 73 15 103 35 267 173
153 130 308 249 388 297 49 30 249 97 815 275 207 66 593 203 751 269 177 74
366 202 514 352 276 278 436 632 461 1021 3 61 12 117 18 126 6 8 25 22 41 31
47 24 103 88 239 272 136 183 205 309 251 455 32 103 55 249 55 350 0 149 -44
367 -106 521 -19 48 -34 96 -34 107 0 11 35 59 78 107 167 188 223 286 263
451 30 128 23 356 -15 494 -51 181 -176 407 -310 560 -85 97 -270 266 -366
333 -41 29 -129 91 -194 138 -66 46 -153 116 -193 156 -84 82 -86 93 -48 188
84 210 64 513 -47 727 -32 63 -64 105 -133 174 -101 103 -175 145 -327 188
-223 64 -444 54 -678 -31 -156 -56 -160 -57 -170 -47 -5 5 -14 65 -19 134 -15
175 -58 317 -148 480 -140 257 -432 493 -733 594 -92 31 -264 66 -320 66 -33
0 -41 3 -36 15 5 13 -20 15 -188 15 -129 0 -196 -4 -198 -11z m370 -395 c311
-46 596 -210 744 -427 55 -80 114 -210 133 -288 19 -83 19 -219 0 -293 -40
-154 -118 -292 -208 -371 -93 -81 -307 -176 -348 -155 -18 10 -18 12 2 58 11
26 29 83 40 127 123 514 -351 940 -1181 1060 -63 9 -116 18 -118 20 -7 6 144
113 208 149 36 19 113 51 172 71 189 63 361 78 556 49z m-1068 -559 c247 -37
534 -148 740 -286 105 -70 255 -209 248 -230 -7 -22 -180 -105 -270 -129 -153
-41 -251 -52 -408 -47 -200 8 -351 46 -590 150 -254 110 -433 169 -625 208
l-60 11 40 35 c64 56 146 109 246 159 176 88 300 119 569 143 8 0 58 -6 110
-14z m-1084 -606 c266 -47 562 -249 674 -461 21 -41 23 -49 11 -72 -8 -13 -27
-30 -43 -37 -40 -16 -95 -3 -348 83 -220 74 -308 90 -374 68 -119 -39 -170
-169 -148 -377 19 -170 16 -217 -13 -250 l-24 -28 -38 21 c-27 15 -60 54 -115
135 -140 205 -179 313 -181 494 -1 119 18 190 72 268 41 59 138 129 209 151
56 17 233 20 318 5z m4124 -19 c114 -22 237 -106 281 -192 47 -93 69 -306 40
-393 -22 -65 -135 -288 -179 -351 -22 -33 -58 -77 -81 -98 -36 -35 -44 -39
-68 -30 -51 18 -58 47 -44 175 19 167 12 311 -18 372 -33 69 -85 100 -170 105
-74 4 -97 -1 -398 -99 -204 -66 -268 -74 -304 -38 -50 50 15 162 178 305 134
117 304 208 447 239 74 16 243 19 316 5z m-2865 -811 c31 -9 72 -43 185 -153
80 -78 168 -156 197 -174 106 -68 238 -95 343 -73 113 24 174 65 346 233 126
122 169 159 202 169 88 26 140 -15 504 -394 328 -341 403 -428 449 -522 92
-185 74 -342 -62 -561 -110 -176 -256 -300 -410 -349 -103 -32 -160 -32 -214
-1 -52 31 -90 88 -113 169 -13 49 -17 101 -16 247 0 168 2 189 21 225 21 40
103 123 258 264 116 105 185 189 185 224 0 45 -42 57 -243 63 -193 7 -369 -6
-416 -30 -30 -16 -54 -51 -74 -110 -6 -18 -13 -215 -16 -461 l-7 -430 -27 -81
c-15 -45 -37 -90 -51 -103 -24 -22 -26 -22 -118 -11 -116 15 -586 8 -637 -8
-44 -15 -56 -5 -93 75 -50 111 -58 195 -58 613 0 314 -3 385 -15 421 -39 108
-89 124 -400 123 -244 0 -306 -9 -325 -45 -6 -11 -8 -30 -4 -42 4 -12 100
-114 215 -227 114 -113 216 -221 226 -240 15 -29 18 -64 21 -200 5 -245 -23
-353 -110 -423 -122 -98 -399 17 -571 235 -114 144 -177 284 -185 408 -8 133
26 235 121 364 46 64 702 740 751 775 17 13 81 39 96 41 3 0 23 -5 45 -11z
m-1910 -366 c46 -75 64 -137 72 -248 13 -212 -70 -429 -244 -631 -107 -124
-287 -260 -504 -380 -136 -75 -181 -106 -256 -176 -34 -32 -71 -58 -81 -58
-23 0 -54 54 -80 140 -74 245 8 503 247 777 96 111 182 182 393 324 150 102
350 262 373 299 16 25 45 8 80 -47z m5196 1 c60 -63 199 -176 339 -274 182
-126 259 -190 362 -299 149 -156 260 -345 289 -490 6 -34 9 -109 7 -177 -5
-129 -27 -209 -73 -262 -28 -32 -24 -34 -159 69 -48 36 -153 104 -233 150
-297 172 -470 330 -595 544 -149 256 -158 561 -21 743 13 17 30 32 37 32 6 0
28 -16 47 -36z m-4824 -1112 c48 -72 89 -227 85 -321 -3 -58 -27 -173 -53
-252 -67 -203 -174 -346 -504 -674 -255 -254 -329 -340 -494 -566 -50 -70 -99
-130 -109 -134 -24 -9 -53 28 -91 120 -55 130 -73 216 -74 350 -1 173 28 294
108 455 116 231 263 381 644 655 175 125 311 249 378 342 52 74 74 78 110 25z
m4463 -68 c85 -113 185 -206 347 -321 362 -257 551 -454 659 -688 78 -170 114
-418 81 -570 -31 -142 -115 -330 -153 -342 -12 -4 -43 36 -195 252 -64 90
-143 179 -329 370 -363 371 -433 458 -526 650 -89 183 -115 359 -79 528 22
104 79 207 114 207 9 0 45 -39 81 -86z m-2783 -669 c63 -70 169 -155 244 -195
33 -17 63 -40 69 -50 13 -24 13 -184 0 -232 -11 -39 -15 -41 -160 -89 -35 -11
-103 -40 -150 -64 -138 -70 -201 -80 -309 -46 -114 35 -195 116 -242 240 -42
111 -21 277 47 366 53 70 210 123 371 124 l81 1 49 -55z m1272 35 c114 -28
173 -61 215 -124 120 -176 68 -430 -112 -544 -69 -44 -152 -66 -230 -59 -53 4
-84 15 -181 64 -116 60 -184 86 -253 98 -21 3 -40 10 -44 16 -3 6 -8 62 -10
126 -5 143 0 151 126 218 73 39 104 63 156 121 35 39 79 79 97 88 44 21 135
20 236 -4z m-2384 -103 c31 -48 55 -175 55 -293 0 -281 -86 -520 -369 -1032
-240 -433 -279 -569 -268 -927 8 -237 28 -369 84 -538 24 -76 42 -141 39 -144
-21 -21 -213 95 -347 210 -131 112 -262 295 -324 451 -61 155 -78 248 -78 421
-1 113 4 181 16 231 61 264 177 495 374 739 44 55 174 197 287 315 247 256
338 362 424 493 35 53 70 97 78 97 7 0 20 -10 29 -23z m3261 -24 c105 -174
185 -273 414 -518 235 -251 294 -318 372 -423 273 -365 375 -698 324 -1051
-59 -402 -280 -699 -688 -924 -43 -24 -69 -33 -73 -27 -4 6 10 50 30 97 90
209 136 590 104 870 -21 195 -30 216 -340 823 -223 436 -272 588 -272 855 -1
224 72 391 129 298z m-1461 -754 c105 -19 270 -78 332 -118 75 -49 119 -101
133 -162 14 -57 7 -97 -28 -162 -53 -99 -203 -170 -416 -197 -102 -13 -340
-13 -431 0 -305 44 -447 142 -447 310 0 105 60 179 199 246 180 87 449 121
658 83z m-1339 -500 c25 -137 69 -542 79 -729 8 -126 38 -374 65 -525 29 -167
73 -309 165 -541 46 -116 87 -223 91 -238 6 -24 4 -27 -17 -22 -13 3 -51 10
-84 17 -272 52 -555 237 -704 460 -132 197 -194 454 -170 706 34 360 164 665
393 919 84 93 124 120 145 100 7 -8 24 -74 37 -147z m2370 101 c145 -120 304
-369 374 -586 16 -52 42 -151 56 -221 24 -117 26 -142 21 -298 -4 -137 -10
-188 -30 -266 -102 -390 -362 -641 -800 -773 -119 -36 -161 -43 -171 -28 -3 5
9 35 25 66 79 150 173 404 229 621 43 167 67 326 105 710 68 681 91 815 135
815 5 0 30 -18 56 -40z m-1270 -700 c126 -61 241 -196 289 -340 35 -108 65
-289 65 -396 0 -91 -34 -325 -66 -449 -9 -33 -35 -123 -59 -200 -61 -192 -67
-222 -74 -365 l-6 -125 -40 2 c-55 4 -151 53 -208 107 -128 123 -207 334 -211
561 -4 267 18 415 109 735 58 204 75 305 67 407 -2 34 -2 69 2 78 9 24 62 18
132 -15z"/>
</g>
</svg>
