<?xml version="1.0" encoding="UTF-8"?>
<svg id="Layer_1" xmlns="http://www.w3.org/2000/svg" version="1.1" viewBox="0 0 500 500">
  <!-- Generator: Adobe Illustrator 29.2.1, SVG Export Plug-In . SVG Version: 2.1.0 Build 116)  -->
  <defs>
    <style>
      .st0 {
        fill: #0d2139;
      }

      .st1 {
        fill: #f0b501;
      }
    </style>
  </defs>
  <path class="st0" d="M263.1,163.6c.56,3.29,4.47,7.94,5.13,12.33.9,6.03-.91,12.15.91,18.29,1.64,5.53,10.48,14.06,14.05,19.12,2.36-5.22,1.18-12.73,3.01-17.91,1.68-4.74,8.23-5.03,4.85-11.75,2.74,5.87,8.17,5.08,8.51,5.52.5.64-.21,3.25.7,4.34,1.37,1.64,3.93,1.84,5.27,4.56.36.73,1.49,14.87,1.38,16.15-.37,4.32-3.63,6.61-3.86,12.16-.75,18.01,14.16,31.35,14.16,33.21v41.02h-20.95v-41.02c0-.52-4.93-8.16-6.98-6.11v44.51l-2.62,2.62h-58.47v-44.51l-2.62-2.58c-.72,0-6.11,6.89-6.11,7.82v39.27h-20.95v-41.02c0-1,10.66-11.03,11.86-16.07.69-2.88,2.35-16,2.29-18.89-.11-5.53-3.19-7.21-3.68-10.57-.49-3.32,1.49-10.36.88-14.58l14.81-15.82c2.14,9.58,8.16,17.35,7.01,27.92,1.9,2.14,15.95-16.47,16.75-19.14,1.62-5.38-1.86-9.17-.78-14.48.68-3.36,6.33-11.86,7.92-16.65,2.14-6.44,2.32-17.93,7.52-23.02.92,7.76-1.26,17.94,0,25.31ZM275.3,229.05c2.06-1.92-6.94-13.22-8.81-14.73-12.64-10.25-21.67,5.7-27.83,14.72,10.73,2.89,10.27-3.61,15.04-6.79,6.39-4.26,12.29-.58,13.12,6.57l8.49.23ZM247.35,232.56l-3.46.86c-2.39,5.38,3.61,12.45,3.45,15.72-.11,2.25-2.63,3.83-2.91,5.51-.35,2.07,1.56,4.69,1.07,6.47-1.27,4.67-8.37.77-8.57,4.58,14.1,3.18,27.77,1.36,41.87,0l-8.54-4.47c4.33-5.55-1.95-11.33-1.62-13.49.45-2.98,5.87-9.05,3.18-15.17l-9.6,10.46c-.96.51-3.37-16.28-8.72.03l-6.14-10.48ZM236.04,272.69c-4.05,1.56-2.66,8.73,0,8.73h43.64c3.29,0,3.29-8.73,0-8.73h-43.64ZM282.3,295.38c.48-4.19-.03-6.2-4.36-6.98-6.45-1.16-31.45-.9-38.49-.09-1.94.22-3.82.05-5.25,1.74l-.77,5.34h48.87Z"/>
  <path class="st0" d="M427.17,326.8h-82.91c-1.85,0-3.32,4.95-2.62,6.98h89.89l13.09,19.2h-83.78l-.86,5.23-4.37-6.95c.4-.53,14.6-3.41,10.47-7-9.47.12-18.65-6.75-27.92-1.76,7.03-17.8-6.7-19.11-20.57-22.21-35.03-7.84-86.05-7.59-121.19.04-15,3.25-17.54,6.07-33.6,6.37-24.16.46-48.37-.14-72.51.08l11.69-19.22,308.68-.06c7.39.96,14.7,12.54,16.49,19.29ZM354.48,317.35c15.31,7.02,29.97,9.1,42.98-3.64l-34.07.94c-4.53.05-14.58-4.37-17.49-.17-1.42,2.04-2.55,10.82,2.72,8.82l.02-8.72c4.91-1.7,4.95,2.36,5.85,2.77ZM157.49,314.58c-10.02.68-21.22,0-31.42,0-1.35,0-5.02-3-7.85-1.73,10.86,13.35,36.31,14.11,47.13,0-2.96-1.23-6.19,1.61-7.85,1.73Z"/>
  <path class="st0" d="M107.75,300.62c-2.09-1.81,11.32-16.91,11.72-20.26.59-4.86-2.7-15.01-4.74-19.87l6.01,1.85c1.66-2.42.17-4.54,4.43-3.6,4.87,4.42,1.93,26.16,6.13,26.14,4.46-7.41,37.13-1.23,39.29-3.45-4.07-9.52,7.12-19.08,7.15-25.32.04-7.57-10.08-8.65-8.9-16.57l10.46,1.74,2.6-5.23,3.5,5.22c4.42-2.1,1.35-11.54,3.52-12.22,4.09-1.29,2.89,5.75,2.49,7.75-1.32,6.68-5.54,9.03-5.28,17.58.24,7.69,4.38,9.1,5.31,14.03,1.75,9.24-1.12,22.46.07,32.22h-83.78ZM133.93,295.38h35.78l2.61-4.34-2.61-2.64h-33.16c-1.85,0-3.32,4.95-2.62,6.98Z"/>
  <path class="st0" d="M326.81,300.62c-3.74-1.15-3.23-24.24-2.66-28.85,1.02-8.34,6.39-9.53,5.41-21.02-.64-7.53-7.15-13.98-4.47-21.71l2.61,10.47,7.83-3.5.9,5.26,10.46-1.74c1.88,9.42-8.94,8.75-8.89,16.58.03,5.15,5.38,8.64,6.37,13.04.79,3.53-1.95,8.14,1.04,12.03,10.41,1.23,21.84-.75,32.13.13,3.48.3,6.45,3.22,6.92,3.21,6.39-.2.29-20.25,6.11-25.78l6.06,3.48,4.36-5.22c-.54,8.9-4.95,13.86-3.37,23.47,1.25,7.59,9.56,12.34,10.37,20.16h-81.16ZM381.79,295.38l-.77-5.34c-1.9-2.6-34.89-2.7-36.85,0l-.77,5.34h38.4Z"/>
  <path class="st0" d="M72.84,352.98l13.42-18.87,81.83-.17,3.36-3.67,4.35,12.24c-9.27-4.99-18.45,1.87-27.92,1.76-4.13,3.59,10.08,6.46,10.47,7,.61,4.77-6.02,8.36-5.23,1.72h-80.29Z"/>
  <path class="st0" d="M324.18,347.77c.29,3.27-6.14,1.19-6.96,4.37-.89,3.46,4.51,4.6,6.96,4.36l-6.09,5.21-3.62-8.83h-114.96s-4.47,8.83-4.47,8.83c-2.59-7.81,6.91-10.11-5.27-13.09,44.44-6.72,89.8-5.37,134.41-.86Z"/>
  <path class="st1" d="M247.35,232.56l6.14,10.48c5.35-16.3,7.76.49,8.72-.03l9.6-10.46c2.7,6.13-2.72,12.2-3.18,15.17-.33,2.15,5.95,7.94,1.62,13.49l8.54,4.47c-14.11,1.36-27.77,3.18-41.87,0,.21-3.81,7.3.09,8.57-4.58.48-1.78-1.43-4.39-1.07-6.47.28-1.68,2.8-3.26,2.91-5.51.17-3.27-5.84-10.34-3.45-15.72l3.46-.86Z"/>
  <path class="st1" d="M236.04,272.69h43.64c3.29,0,3.29,8.73,0,8.73h-43.64c-2.66,0-4.05-7.17,0-8.73Z"/>
  <path class="st1" d="M282.3,295.38h-48.87l.77-5.34c1.42-1.68,3.31-1.51,5.25-1.74,7.04-.81,32.04-1.07,38.49.09,4.33.78,4.84,2.79,4.36,6.98Z"/>
  <path class="st1" d="M275.3,229.05l-8.49-.23c-.84-7.15-6.74-10.83-13.12-6.57-4.76,3.18-4.31,9.68-15.04,6.79,6.16-9.02,15.19-24.98,27.83-14.72,1.87,1.52,10.88,12.81,8.81,14.73Z"/>
  <path class="st1" d="M354.48,317.35c-.9-.41-.93-4.47-5.85-2.77l-.02,8.72c-5.27,2-4.13-6.78-2.72-8.82,2.91-4.2,12.96.22,17.49.17l34.07-.94c-13.01,12.74-27.67,10.66-42.98,3.64Z"/>
  <path class="st1" d="M157.49,314.58c1.67-.11,4.89-2.96,7.85-1.73-10.81,14.11-36.27,13.35-47.13,0,2.84-1.28,6.5,1.73,7.85,1.73,10.19,0,21.4.68,31.42,0Z"/>
  <path class="st1" d="M133.93,295.38c-.71-2.03.77-6.98,2.62-6.98h33.16l2.61,2.64-2.61,4.34h-35.78Z"/>
  <path class="st1" d="M381.79,295.38h-38.4l.77-5.34c1.96-2.7,34.95-2.6,36.85,0l.77,5.34Z"/>
</svg>