<svg width="23" height="23" viewBox="0 0 23 23" fill="none" xmlns="http://www.w3.org/2000/svg">
<path d="M22.205 4.07761C22.1064 3.87497 21.9562 3.7019 21.7694 3.57584C21.5826 3.44978 21.3658 3.37519 21.141 3.35958L20.0305 3.25756L21.9845 1.28603C22.1088 1.15864 22.1777 0.987288 22.1763 0.8093C22.1748 0.631313 22.1031 0.461106 21.9768 0.33575C21.8504 0.210393 21.6796 0.140042 21.5016 0.140018C21.3237 0.139995 21.1529 0.210301 21.0265 0.335623L19.062 2.3177L18.9571 1.17565C18.9415 0.950967 18.867 0.734354 18.741 0.547619C18.6151 0.360884 18.4422 0.210618 18.2398 0.111949C18.0128 0.00724488 17.7592 -0.0250523 17.5132 0.0194463C17.2673 0.0639448 17.0411 0.183081 16.8652 0.360665L15.4095 1.81675C15.3393 1.88693 15.2854 1.97169 15.2517 2.06502C15.218 2.15835 15.2052 2.25797 15.2142 2.3568L15.4678 5.11446C15.4896 5.35069 15.4593 5.58881 15.3791 5.81208C15.299 6.03536 15.1709 6.23836 15.0039 6.40683L9.91985 11.535C9.85717 11.5981 9.80755 11.673 9.77382 11.7553C9.74009 11.8377 9.72291 11.9258 9.72327 12.0148C9.72363 12.1038 9.74152 12.1918 9.77592 12.2739C9.81032 12.3559 9.86055 12.4304 9.92374 12.493C9.98612 12.5552 10.0603 12.6043 10.1418 12.6374C10.2234 12.6706 10.3108 12.6872 10.3988 12.6861C10.4877 12.6865 10.5758 12.6692 10.658 12.6354C10.7402 12.6016 10.8149 12.5519 10.8779 12.4892L15.9914 7.33153C16.1601 7.16143 16.3643 7.03073 16.5894 6.9488C16.8144 6.86687 17.0549 6.83573 17.2934 6.85762L19.9601 7.10272C19.9809 7.1046 20.0016 7.10556 20.0219 7.10556C20.1107 7.10557 20.1986 7.08809 20.2806 7.0541C20.3627 7.02011 20.4372 6.97029 20.4999 6.90749L21.9562 5.45162C22.1338 5.27589 22.2529 5.04973 22.2974 4.80389C22.342 4.55805 22.3097 4.30447 22.205 4.07761ZM19.7683 5.72734L16.8572 5.45987L16.5894 2.54881L17.6299 1.50811L17.8461 3.85945C17.8605 4.0167 17.9295 4.16394 18.0412 4.27561C18.1528 4.38727 18.3 4.45633 18.4573 4.47078L20.8083 4.68698L19.7683 5.72734Z" fill="#182F48"/>
<path d="M11.7157 8.41011C10.8907 8.10663 9.98666 8.09454 9.15383 8.37585C8.32099 8.65716 7.60947 9.21493 7.13744 9.95651C6.66542 10.6981 6.46131 11.5788 6.55903 12.4525C6.65675 13.3261 7.0504 14.14 7.67461 14.7589C8.29881 15.3779 9.11599 15.7647 9.9904 15.855C10.8648 15.9454 11.7438 15.7338 12.4814 15.2556C13.219 14.7773 13.7707 14.0611 14.045 13.2259C14.3193 12.3908 14.2996 11.4869 13.9891 10.6645L11.5317 13.1431C11.2319 13.4427 10.8255 13.6111 10.4016 13.6115C9.97776 13.6118 9.57106 13.4441 9.27072 13.145C8.97037 12.8459 8.8009 12.4399 8.79947 12.0161C8.79804 11.5922 8.96476 11.1851 9.26307 10.884L11.7157 8.41011Z" fill="#182F48"/>
<path d="M19.8756 8.02392L17.2088 7.77886C17.1874 7.77687 17.166 7.7759 17.1447 7.7759C16.9583 7.77643 16.7796 7.85093 16.648 7.98304L16.0713 8.5647C16.9176 9.9547 17.2259 11.6064 16.9381 13.2081C16.6502 14.8098 15.786 16.2507 14.5087 17.2591C13.2313 18.2674 11.6291 18.7733 10.0043 18.6814C8.37957 18.5895 6.84462 17.9061 5.68912 16.7602C4.53362 15.6142 3.83749 14.085 3.73208 12.4611C3.62666 10.8371 4.11926 9.23075 5.11691 7.94506C6.11456 6.65936 7.54828 5.78327 9.14754 5.48208C10.7468 5.1809 12.401 5.47545 13.798 6.31016L14.3471 5.75618C14.4191 5.68367 14.4743 5.59625 14.5088 5.50008C14.5433 5.40391 14.5563 5.30133 14.5469 5.1996L14.2934 2.44189C14.2908 2.414 14.296 2.38689 14.2948 2.35907C12.0665 1.4606 9.59586 1.36107 7.30245 2.07738C5.00905 2.79369 3.03425 4.28169 1.71339 6.2887C0.392524 8.29572 -0.192985 10.698 0.0562811 13.0877C0.305547 15.4774 1.37422 17.7072 3.08085 19.3984C4.78747 21.0897 7.02684 22.1381 9.4187 22.3657C11.8106 22.5933 14.2075 21.986 16.2024 20.647C18.1974 19.308 19.6674 17.3198 20.3629 15.02C21.0584 12.7202 20.9365 10.2506 20.0179 8.03046C19.9712 8.03032 19.9237 8.02832 19.8756 8.02392Z" fill="#182F48"/>
</svg>
