<?xml version="1.0" encoding="UTF-8"?>
<svg id="Layer_1" xmlns="http://www.w3.org/2000/svg" version="1.1" viewBox="0 0 500 500">
  <!-- Generator: Adobe Illustrator 29.2.1, SVG Export Plug-In . SVG Version: 2.1.0 Build 116)  -->
  <defs>
    <style>
      .st0 {
        fill: #0d2139;
      }

      .st1 {
        fill: #f0b501;
      }
    </style>
  </defs>
  <path class="st0" d="M303.7,264.52c-7.51-.53-18.38-1.08-29.25-3.61-12.24-2.86-24.13-7.35-36.74-8.46-9.87-.86-19.69-1.67-29.65-.89-7.79.61-15.46,1.78-23.11,3.07-4.61.79-9.12,2.3-13.6,3.7-13.49,4.28-26.32,10.16-38.31,17.66-8.47,5.3-15.97,11.97-23.14,18.92-10.46,10.12-21.46,19.55-33.27,28.04-1.53,1.1-3.32,1.9-5.07,2.64-4.1,1.73-6.47.58-8.72-4.06-4.04-8.34-3.98-13.35.22-16.63,3.02-2.36,6.07-4.71,9.17-6.98,5.78-4.24,11.11-8.99,16.41-13.79,9.47-8.58,18.38-17.8,28.97-25.05,7.63-5.21,15.76-9.47,24.25-13.23,7.54-3.33,15.3-5.91,23.21-7.72,19.7-4.5,39.39-8.28,59.92-4.13,12.9,2.61,25.63,6.01,38.53,8.4,20.06,3.7,40.16,5.61,60.6.99,10.58-2.4,21.06-4.86,30.88-9.24,8.65-3.85,16.89-8.69,24.86-13.97,13.02-8.61,23.91-19.64,35.42-30.01,5.6-5.04,11.3-10.06,17.94-13.82,1.6-.9,2.24-1.19,3.18,1.16,1.64,4.1,3.39,8.18,4.93,12.32,2.12,5.73,1.17,10.16-3.51,12.9-8.68,5.07-15.51,12.28-22.63,19.11-9.61,9.21-19.77,17.78-31.71,23.58-12.13,5.9-24.5,11.49-37.77,14.53-12.71,2.9-25.51,4.93-42.01,4.58Z"/>
  <path class="st0" d="M283.17,227.77c-15.23-.07-27.65-2.28-39.93-5.45-22.01-5.67-44.42-8.31-67.03-6.22-10.78.99-21.54,3.58-31.88,7.63-9.42,3.69-18.47,7.98-27.15,13.11-6.77,4-13.17,8.56-19.26,13.54-12.96,10.61-24.04,23.27-37.09,33.79-1.29,1.04-2.8,1.81-4.25,2.64-1.63.93-2.81.22-3.21-1.38-1.82-7.29-3.73-14.46-.3-21.98,2.16-4.74,5.57-8.19,9.41-11.2,8.99-7.04,16.84-15.29,25.43-22.75,7.5-6.53,15.67-11.78,24.53-16.23,6.34-3.2,12.96-5.69,19.61-7.94,9.42-3.17,18.93-6.3,28.97-7.12,3.04-.25,6-1.1,9.02-1.5,9.49-1.26,18.9-.16,28.37.84,12.04,1.27,23.71,4.38,35.43,6.98,14.34,3.17,28.66,4.12,43.18,3.79,11.88-.27,23.37-2.52,34.78-6.01,16.04-4.92,30.56-12.78,44.13-22.26,9.12-6.37,17.21-14.23,25.21-22.07,8.71-8.52,17.42-17.09,28.03-23.39,2.16-1.29,4.01-1.17,5.07.7,2.56,4.56,6.56,8.13,8.58,13.06,1.44,3.5.19,6.12-2.7,7.75-8.43,4.77-15.57,11.05-22.49,17.73-10.64,10.29-20.96,21.02-33.59,28.96-11.6,7.29-23.82,13.18-37.19,16.72-5.6,1.48-11.2,3.45-16.86,4.56-9.63,1.93-19.27,4.61-26.81,3.72Z"/>
  <path class="st0" d="M333.19,302.44c-12.74.13-24.23-2.06-35.46-5.38-23.63-6.99-47.59-11.44-72.3-9.61-9.36.7-18.59,2.87-27.76,5.18-11.06,2.8-21.36,7.5-31.21,12.81-8.72,4.71-17.14,10.25-24.72,16.93-10.58,9.32-21.37,18.4-32.41,27.17-5.91,4.7-12.58,8.43-19.3,11.88-4.18,2.13-6.49.18-10.55-5.57-1.58-2.22-2.37-5.01-3.9-7.29-2.31-3.45-.46-6.09,2.15-7.18,15.48-6.47,27.05-18.4,40.01-28.34,10.92-8.37,21.02-17.91,32.91-24.83,12.68-7.38,26.31-12.49,40.91-15.38,13.17-2.59,26.31-5.05,39.7-4.62,10.1.33,20.2,1.39,30.13,4.15,12.4,3.44,24.89,6.96,37.56,8.77,14.86,2.12,29.83,2.99,45.03.81,10.1-1.44,19.97-3.36,29.45-6.75,6.16-2.21,12.21-5.01,18.12-8.07,8-4.15,15.6-8.84,22.93-14.01,9.87-6.95,18.57-15.27,27.45-23.4.1-.09.13-.27.24-.34,1.93-1.32,4.27-4.03,5.67-3.61,2.03.59.76,3.87.96,5.98.58,5.7.8,11.45,1.5,17.12.49,4.01-2.04,6.22-4.43,8.47-11.08,10.46-23.2,19.58-36.62,26.78-8.5,4.56-17.7,7.69-26.91,10.64-12.09,3.88-24.56,5.69-37.13,6.83-4.3.41-8.59,1.16-12.01.86Z"/>
  <path class="st1" d="M49.64,239.41c2.55-12.15,1.63-24.06,6.06-35.11,1.35-3.35,3.79-5.84,6.32-8.03,10.65-9.21,22.53-16.32,35.49-22.06,11.64-5.15,23.7-8.46,35.96-10.98,15.33-3.14,30.75-3.95,46.42-.62,10.15,2.16,20.37,4.22,30.6,5.91,18.31,3.02,36.65,3.97,55.31.86,16.28-2.73,31.21-8.47,45.44-16.07,9.54-5.1,18.25-11.75,26.59-18.83,11.57-9.85,21.24-21.6,32.66-31.55,8.72-7.61,12.69-4.3,18.56,1.78,1.98,2.06,3.53,4.56,5.27,6.87,1.97,2.62-.34,3.88-1.87,5.04-4.07,3.08-8.68,5.44-12.37,9.01-7.87,7.6-15.7,15.24-23.46,22.96-10.34,10.28-22.03,18.78-35.12,25.06-13.36,6.38-27.37,10.96-42.01,13.79-8.95,1.72-18.01,2.96-26.94,2.89-9.79-.07-19.72-1.14-29.43-3.3-18.72-4.15-37.52-8.18-56.88-7.35-12.78.55-25.31,2.31-37.73,6-14.21,4.22-27.09,10.95-39.21,18.96-13.42,8.89-25.51,19.61-36.04,31.92-.81.93-1.5,1.97-3.64,2.84Z"/>
  <path class="st0" d="M358.67,339.31c-14.26-1.1-27.85-2.62-41.1-6.93-11.02-3.58-22.37-6.4-33.76-8.53-6.37-1.19-13.12-.18-19.69-.37-19.42-.58-38.28,2.73-56.55,8.87-15.94,5.36-29.97,14.43-42.97,25.06-11.23,9.17-22.07,18.8-33.98,27.11-4.96,3.47-10.27,6.32-15.57,9.2-2.8,1.53-4.9-.74-6.68-2.25-3.24-2.74-6.21-5.85-9.09-8.98-3.07-3.32-2.28-6.5,2.46-8.31,11.97-4.56,21.66-12.31,31.31-20.37,13.46-11.24,26.86-22.59,42.51-30.94,7.61-4.06,15.33-7.87,23.42-10.55,20-6.62,40.51-9.24,61.69-7.63,15.27,1.16,29.82,4.84,44.32,9.21,19.15,5.78,38.79,7.79,58.6,6.1,9.45-.8,18.95-2.34,28.25-5.02,7.17-2.07,14.47-3.81,21.24-6.83,8.18-3.64,16.29-7.58,23.63-12.86,1.81-1.3,3.7-2.5,5.44-3.88.87-.7,1.9-.95,2.71-.58,1.1.49.67,1.75.44,2.61-1.29,5.13-2.4,10.31-4.12,15.29-1.3,3.79-2.13,7.73-3.93,11.41-1.96,4.01-6.06,4.1-9.23,5.58-8.3,3.88-17.15,6.4-26.03,8.58-14.37,3.53-29.03,5.14-43.33,5.01Z"/>
  <path class="st0" d="M68.45,166.36c4.15-10.06,8.95-19.08,14.56-27.73,3.32-5.11,8.58-6.81,13.81-8.34,15.51-4.55,31.4-6.32,47.49-5.04,10.5.84,20.96,2.12,31.37,4.3,18.25,3.84,36.71,5.57,55.55,3.5,15.27-1.69,29.61-6.03,43.31-12.34,10.92-5.02,20.84-11.97,30.35-19.45,9.67-7.61,17.26-17.33,26.4-25.48,7.64-6.81,14.8-5.55,21.52,1.14.76.76,1.44,1.53,2.3,2.22,2.01,1.61,1.98,3.56.15,5.38-10.53,10.41-20.96,20.94-31.65,31.18-7.29,6.99-15.94,12.1-24.6,17.26-9.7,5.76-19.89,10.38-30.59,13.55-18.89,5.61-38.1,9.42-57.96,5.67-13.35-2.52-26.63-5.44-40.07-7.39-7.84-1.14-15.89-.93-23.85-.96-11.15-.04-22.12,1.88-33.02,4.03-3.64.71-7.2,1.98-10.67,3.35-6.67,2.64-13.58,4.65-19.95,8.06-4.58,2.46-9.32,4.59-14.44,7.1Z"/>
  <path class="st0" d="M126.9,407.48c9.92-4.78,18.6-10.78,26.86-17.39,10.16-8.15,19.83-16.95,30.88-23.89,10.27-6.46,21.18-11.61,32.47-16.23,9.63-3.94,19.54-6.41,29.52-8.12,12.77-2.18,25.79-2.19,38.82-1.27,8.52.59,16.69,2.73,25.03,4.06,4.07.65,8.1,1.85,12.04,3.16,19.91,6.67,40.08,11.73,61.29,10.18,10.38-.77,20.81-1.63,30.94-4.38.95-.25,1.84-.7,2.84-.4,1.63.47,3.27.55,1.54,3.11-3.55,5.24-6.18,11.12-10.38,15.94-2.27,2.59-5.02,4.16-8.71,4.27-13.14.33-26.28.1-39.15-2.74-9.33-2.06-18.47-5.07-27.73-7.5-14.4-3.79-28.87-6.99-43.86-7.5-16.16-.55-31.92,1.23-47.49,5.66-12.13,3.45-23.36,8.65-34.38,14.66-12.8,6.98-24.01,16.07-35.21,25.17-6.32,5.14-12.92,9.85-19.42,14.71-5.45,4.06-9.64.87-13.67-1.6-4.31-2.64-7.95-6.34-12.25-9.88Z"/>
  <path class="st0" d="M386.67,395.21c-2.98,4.77-7.05,8-11.48,10.81-1.9,1.2-4.33,1.27-6.07.36-7.72-4.07-16.23-5.66-24.5-7.7-8.04-1.97-16.29-3.81-24.71-3.73-10.9.1-21.86-1.05-32.66.89-6.96,1.26-13.98,2.04-20.86,4-7.33,2.07-14.68,4.12-21.69,7.04-8.75,3.64-17.15,8.07-25.11,13.38-6.9,4.59-13.36,9.69-19.48,15.26-4.22,3.84-9.21,5.17-14.69,3.95-6.44-1.42-12.34-4.24-18.34-7.66,15.15-11.24,28.84-23.45,44.17-33.39,11.29-7.3,23.86-11.85,36.88-15.3,8.19-2.18,16.31-4.68,24.69-5.84,10.93-1.5,21.92-1.79,32.97-1.32,9.23.4,18.22,1.94,27.15,4.01,4.44,1.04,8.74,2.67,13.12,3.95,5.95,1.75,11.76,3.97,17.78,5.61,6.46,1.76,13.06,2.76,19.46,4.62,1.02.3,2.06.65,3.35,1.05Z"/>
  <path class="st0" d="M109.61,107.63c5.14-4.92,9.14-10.84,15.27-14.55,3.29-1.98,6.56-3.2,10.53-2.5,11.88,2.1,23.77,4.09,35.7,5.97,12.58,1.98,24.96.33,37.4-1.85,9.17-1.61,18.2-3.67,26.94-6.72,7.47-2.61,14.58-6.19,21.42-10.16,10.47-6.06,20.34-12.92,28.74-21.79,1.76-1.85,4.44-2.95,7.32-2.16,5.75,1.58,11.51,3.1,17.21,4.81,3.66,1.1,1.75,3.23.36,4.62-6.44,6.37-12.75,12.9-19.73,18.72-9.58,8-19.97,14.72-31.15,20.13-12.65,6.12-26.04,10.32-40.01,11.85-18.52,2.03-37,1.44-55.44-1.96-11.76-2.16-23.71-3.35-35.61-4.67-6.22-.67-12.52-.52-18.95.25Z"/>
  <path class="st0" d="M358.69,417.12c-7.11,5.23-13.81,9.55-21.48,12.13-1.72.58-3.41,1.1-5.29,1.07-11.18-.16-22.19,1.24-33.25,3.08-14.89,2.46-28.85,7.11-42.16,14.07-5.2,2.71-10.67,3.53-16.55,3.04-7.64-.64-15.11-2.74-22.83-2.61-.68.01-1.54-.06-1.53-.98.01-.44.5-.99.92-1.29,12.09-8.59,24.71-16.18,38.62-21.58,6.44-2.5,12.89-4.87,19.52-6.8,11.86-3.45,23.95-4.74,36.26-4.78,13.97-.04,27.89.22,41.65,2.84,1.9.37,3.72,1.1,6.1,1.81Z"/>
  <path class="st0" d="M255.07,49.59c-16.59,18.03-79.45,36.66-105.05,26.22,33.05-17.89,67.1-28.14,105.05-26.22Z"/>
</svg>