<?xml version="1.0" standalone="no"?>
<!DOCTYPE svg PUBLIC "-//W3C//DTD SVG 20010904//EN"
 "http://www.w3.org/TR/2001/REC-SVG-20010904/DTD/svg10.dtd">
<svg version="1.0" xmlns="http://www.w3.org/2000/svg"
 width="1042.000000pt" height="1042.000000pt" viewBox="0 0 1042.000000 1042.000000"
 preserveAspectRatio="xMidYMid meet">

<g transform="translate(0.000000,1042.000000) scale(0.100000,-0.100000)"
fill="#000000" stroke="none">
<path d="M3944 9731 c-106 -26 -177 -63 -680 -358 -563 -331 -683 -399 -944
-542 -112 -62 -232 -135 -267 -162 -111 -89 -193 -219 -231 -367 -16 -63 -17
-295 -17 -3837 l0 -3770 27 -13 c22 -10 33 -10 60 1 27 11 1284 744 1812 1056
164 96 256 183 309 291 73 148 70 43 64 1795 -3 864 -11 1959 -18 2435 l-11
864 26 23 c32 27 74 30 117 7 17 -8 86 -50 152 -93 329 -209 767 -467 1457
-856 250 -141 466 -267 480 -280 54 -54 94 -27 -1044 -682 -577 -332 -1053
-603 -1056 -603 -15 0 -52 -50 -48 -66 2 -12 61 -49 164 -105 89 -48 375 -216
635 -372 684 -411 1160 -680 1259 -714 39 -13 84 -18 155 -18 147 0 42 -53
1150 583 911 523 988 576 1059 726 64 135 61 79 58 1241 -2 728 -6 1076 -14
1110 -26 117 -110 233 -233 320 -33 23 -424 251 -870 505 -862 493 -1511 870
-2506 1455 -339 200 -635 373 -658 385 -62 31 -185 60 -255 59 -34 0 -93 -8
-132 -18z"/>
</g>
</svg>
