<svg width="22" height="22" viewBox="0 0 22 22" fill="none" xmlns="http://www.w3.org/2000/svg">
<path d="M0.448486 14.7849V15.2826V21.5299H4.7195V14.7849H0.448486Z" fill="#182F48"/>
<path d="M6.10107 13.0171V13.5148V21.53H10.3647V13.0171H6.10107ZM7.09641 14.0199H9.3619V20.5346H7.09641V14.0199Z" fill="#182F48"/>
<path d="M11.6497 10.8032V11.3084V21.5298H15.9207V10.8032H11.6497Z" fill="#182F48"/>
<path d="M17.2502 9.03516V9.54029V21.5297H21.5213V9.03516H17.2502ZM18.253 10.038H20.5185V20.5343H18.253V10.038Z" fill="#182F48"/>
<path d="M19.5906 0.470215C18.5146 0.470215 17.6296 1.35511 17.6296 2.43115C17.6296 2.62223 17.6656 2.80484 17.7175 2.97998L17.5554 3.07764L15.0359 4.58545L14.9148 4.65771C14.5566 4.28169 14.0541 4.04443 13.4988 4.04443C12.6903 4.04443 11.9943 4.54261 11.698 5.24756L8.90894 4.76318L8.73511 4.73193C8.5787 3.80925 7.77297 3.09912 6.80737 3.09912C5.73139 3.09912 4.84644 3.97816 4.84644 5.0542C4.84644 5.52574 5.02199 5.95466 5.30347 6.29443L3.11206 9.08936C2.91364 9.02104 2.70357 8.97607 2.48315 8.97607C1.40717 8.97607 0.522217 9.86094 0.522217 10.937C0.522217 12.0131 1.40717 12.8901 2.48315 12.8901C3.55914 12.8901 4.44409 12.0131 4.44409 10.937C4.44409 10.4425 4.25251 9.99246 3.94604 9.646L6.11597 6.88037C6.33171 6.96285 6.56407 7.01514 6.80737 7.01514C7.64588 7.01514 8.36133 6.47454 8.6394 5.72803L8.7312 5.74365L11.53 6.23584L11.5691 6.2417C11.6877 7.20658 12.5038 7.96631 13.4988 7.96631C14.5748 7.96631 15.4597 7.08145 15.4597 6.00537C15.4597 5.84366 15.4348 5.68735 15.3972 5.53662L15.5496 5.44678L18.0671 3.93896L18.2332 3.83936C18.5866 4.18032 19.0654 4.39209 19.5906 4.39209C20.6666 4.39209 21.5515 3.50723 21.5515 2.43115C21.5515 1.35511 20.6666 0.470215 19.5906 0.470215ZM13.4988 5.04639C14.0343 5.04639 14.4578 5.46979 14.4578 6.00537C14.4578 6.54099 14.0343 6.9624 13.4988 6.9624C12.9632 6.9624 12.5417 6.54099 12.5417 6.00537C12.5417 5.46979 12.9632 5.04639 13.4988 5.04639ZM2.48315 9.97803C3.01872 9.97803 3.44214 10.4014 3.44214 10.937C3.44214 11.4726 3.01872 11.896 2.48315 11.896C1.94759 11.896 1.52612 11.4726 1.52612 10.937C1.52612 10.4014 1.94759 9.97803 2.48315 9.97803Z" fill="#182F48"/>
</svg>
