<?xml version="1.0" encoding="UTF-8"?>
<svg version="1.1" xmlns="http://www.w3.org/2000/svg" width="512" height="512">
<path d="M0 0 C0.93810363 -0.00367669 1.87620726 -0.00735338 2.84273827 -0.01114148 C6.00568878 -0.02220924 9.16860648 -0.02602736 12.33157349 -0.02983093 C14.59136053 -0.03609314 16.85114653 -0.04273972 19.1109314 -0.04974365 C25.26377429 -0.06717357 31.4166094 -0.07771039 37.56947088 -0.08594918 C41.40984197 -0.09109407 45.25021062 -0.09716996 49.09057999 -0.10346031 C59.71923726 -0.12033139 70.34789239 -0.1349673 80.97656059 -0.14220905 C83.73519772 -0.144119 86.49383483 -0.14603933 89.25247192 -0.147995 C89.93813308 -0.14847874 90.62379423 -0.14896248 91.33023299 -0.14946087 C102.44341404 -0.15776543 113.5564876 -0.18310971 124.66962169 -0.21557567 C136.07379576 -0.2486209 147.47789591 -0.26632247 158.88212502 -0.26985329 C165.28744374 -0.27220938 171.69259255 -0.28124248 178.09786606 -0.30631447 C184.12084134 -0.32950902 190.14353378 -0.33386318 196.16654205 -0.32355309 C198.38052686 -0.32305554 200.5945252 -0.32943976 202.80846786 -0.34310913 C205.82447849 -0.36069294 208.83945907 -0.35378856 211.85546875 -0.34057617 C213.1783225 -0.35703004 213.1783225 -0.35703004 214.52790058 -0.37381631 C220.4507214 -0.31090958 220.4507214 -0.31090958 223.5671711 2.05265522 C225.87254057 5.29869252 226.17902202 7.07506926 226.17497253 11.01927185 C226.17703453 12.56318604 226.17703453 12.56318604 226.17913818 14.13829041 C226.17554291 15.27188995 226.17194763 16.4054895 226.16824341 17.57344055 C226.16838943 18.76366821 226.16853546 19.95389587 226.16868591 21.18019104 C226.1681076 24.44858042 226.16308375 27.71692729 226.15611196 30.98530817 C226.14987119 34.39927645 226.14927404 37.81324552 226.14808655 41.22721863 C226.14497537 47.69411575 226.13676485 54.16099601 226.12673706 60.6278857 C226.1155693 67.98933744 226.1100638 75.35078998 226.10504162 82.71224809 C226.09458207 97.8572318 226.07698675 113.00219973 226.05471802 128.14717102 C226.73132351 128.14348385 227.407929 128.13979668 228.10503769 128.13599777 C244.5631422 128.04768671 261.02117174 127.981481 277.47945786 127.93992233 C285.43855036 127.91929102 293.39748479 127.89115974 301.35647583 127.84541321 C308.2929896 127.80556264 315.22938889 127.77974234 322.16601396 127.77081704 C325.83946544 127.7655992 329.5125894 127.75332412 333.18593597 127.72425079 C337.28524853 127.69206882 341.38399053 127.69121045 345.48342896 127.69306946 C346.70334534 127.67868835 347.92326172 127.66430725 349.18014526 127.64949036 C350.29631226 127.65498901 351.41247925 127.66048767 352.56246948 127.66615295 C353.5321957 127.66246578 354.50192192 127.65877861 355.50103378 127.65497971 C358.87071561 128.30444455 359.90986028 129.50285076 362.05471802 132.14717102 C362.55611467 134.66556358 362.55611467 134.66556358 362.55808258 137.5632782 C362.56851357 138.6695286 362.57894456 139.775779 362.58969164 140.91555214 C362.58076875 142.13071196 362.57184587 143.34587177 362.56265259 144.59785461 C362.56889255 145.8888526 362.57513251 147.17985058 362.58156157 148.50996971 C362.59829066 152.09624815 362.58999261 155.68210192 362.57761669 159.26838207 C362.56858302 163.13484797 362.58252753 167.00123977 362.59353638 170.86769104 C362.61134426 178.4431807 362.60747156 186.01851205 362.59588581 193.59400797 C362.58686066 199.74949858 362.5856235 205.90494474 362.58998108 212.06044006 C362.59059401 212.93575736 362.59120694 213.81107466 362.59183845 214.71291673 C362.59311732 216.49097968 362.59441417 218.26904262 362.59572881 220.04710555 C362.60714126 236.72899579 362.59401051 253.41079818 362.57252735 270.09267402 C362.55465576 284.41361807 362.55775968 298.73443244 362.57620239 313.05537415 C362.59759739 329.67663268 362.60604256 346.29781417 362.59375334 362.91908455 C362.59247911 364.69069035 362.59122163 366.46229616 362.58998108 368.23390198 C362.58936398 369.10561802 362.58874687 369.97733407 362.58811107 370.87546575 C362.58465405 377.02519602 362.59049408 383.17487751 362.59989929 389.32460022 C362.61110545 396.81675324 362.60810848 404.30873858 362.58677632 411.80087233 C362.57624713 415.62519277 362.57217555 419.44923342 362.58537292 423.27355194 C362.59944801 427.41477517 362.58266883 431.55528891 362.56265259 435.69648743 C362.57157547 436.91164724 362.58049836 438.12680706 362.58969164 439.3787899 C362.57926065 440.4850403 362.56882966 441.5912907 362.55808258 442.73106384 C362.55743317 443.68730967 362.55678376 444.64355549 362.55611467 445.62877846 C361.90296294 448.90939961 360.63578856 450.08331835 358.05471802 452.14717102 C355.23060037 453.08854357 353.5255377 453.26442484 350.60549927 453.24482727 C349.75794067 453.24160461 348.91038208 453.23838196 348.03713989 453.23506165 C347.15606567 453.22668274 346.27499146 453.21830383 345.36721802 453.20967102 C344.47454224 453.2051593 343.58186646 453.20064758 342.66213989 453.19599915 C340.45959815 453.18422085 338.25719203 453.16777266 336.05471802 453.14717102 C336.38471802 454.13717102 336.71471802 455.12717102 337.05471802 456.14717102 C337.1566238 457.76187504 337.2031021 459.38037895 337.21585083 460.99824524 C337.22545837 461.98291779 337.23506592 462.96759033 337.2449646 463.98210144 C337.25133942 465.5758812 337.25133942 465.5758812 337.25784302 467.20185852 C337.26354309 468.29555756 337.26924316 469.38925659 337.27511597 470.51609802 C337.28456588 472.83110079 337.29109991 475.14611701 337.29495239 477.46113586 C337.30466065 481.00125086 337.33568585 484.54078599 337.36721802 488.08076477 C337.37374787 490.32945924 337.37899841 492.57815786 337.38284302 494.82685852 C337.39518982 495.8853299 337.40753662 496.94380127 337.42025757 498.03434753 C337.39223172 507.28861516 337.39223172 507.28861516 334.05471802 511.14717102 C331.07363192 512.63771407 328.02965794 512.28813954 324.76074409 512.2813921 C323.99648989 512.28374433 323.23223568 512.28609656 322.44482225 512.28852007 C319.85702002 512.29523257 317.26926775 512.29475117 314.68145752 512.29434204 C312.81817163 512.29763926 310.95488646 512.30136452 309.09160221 512.30548352 C303.95033092 512.31552763 298.80907131 512.31922417 293.6677916 512.32187283 C288.13122448 512.32576868 282.59466667 512.33534741 277.05810547 512.34408569 C263.67801289 512.36386914 250.29791953 512.3739181 236.91781598 512.38281348 C230.62336033 512.38719278 224.32890552 512.39256046 218.03445053 512.39780235 C197.12205501 512.41481552 176.20965966 512.42933634 155.29725838 512.43655109 C153.94444646 512.43702585 152.59163455 512.43750174 151.23882263 512.43797876 C150.2324925 512.43833332 150.2324925 512.43833332 149.20583247 512.43869505 C145.80666541 512.43989627 142.40749835 512.44111171 139.0083313 512.44233704 C137.99646117 512.44269726 137.99646117 512.44269726 136.96414921 512.44306476 C115.08263063 512.45096127 93.2011662 512.47440029 71.31967127 512.50689298 C48.19732287 512.54116573 25.07500487 512.56089865 1.95262706 512.56419533 C-10.65659474 512.56636456 -23.26573696 512.57517346 -35.87493515 512.60065651 C-46.60966612 512.62230069 -57.34429818 512.63044497 -68.0790485 512.62068973 C-73.56000646 512.61612691 -79.04076008 512.61814576 -84.52169037 512.63745117 C-89.53411611 512.65495462 -94.5461865 512.65419033 -99.55861534 512.63855388 C-101.37692314 512.63615819 -103.19525473 512.64060171 -105.01352595 512.65238253 C-107.47599816 512.66735552 -109.93718722 512.65793176 -112.39962578 512.64215565 C-113.11371017 512.65237785 -113.82779456 512.66260006 -114.56351787 512.67313203 C-117.95678029 512.62533655 -119.6569411 512.37528883 -122.3543855 510.24123448 C-124.77105666 507.06022124 -125.07109226 505.31876686 -125.07467651 501.37788391 C-125.07782867 500.38668045 -125.08098083 499.39547699 -125.08422852 498.37423706 C-125.08220428 497.30028183 -125.08018005 496.2263266 -125.07809448 495.11982727 C-125.07952957 493.47004128 -125.07952957 493.47004128 -125.08099365 491.78692627 C-125.0816751 489.45754438 -125.07982328 487.1281606 -125.07565308 484.79878235 C-125.07030944 481.2280196 -125.07559667 477.65738293 -125.08200073 474.08662415 C-125.08133984 471.82685824 -125.08005846 469.56709242 -125.07809448 467.30732727 C-125.08011871 466.23539627 -125.08214294 465.16346527 -125.08422852 464.05905151 C-125.08107635 463.06469589 -125.07792419 462.07034027 -125.07467651 461.04585266 C-125.07388092 460.17030228 -125.07308533 459.29475189 -125.07226562 458.39266968 C-124.94528198 456.14717102 -124.94528198 456.14717102 -123.94528198 453.14717102 C-125.25883667 453.17037415 -126.57239136 453.19357727 -127.92575073 453.21748352 C-129.66142212 453.23624754 -131.39709967 453.25444706 -133.13278198 453.27217102 C-133.99709839 453.28892883 -134.86141479 453.30568665 -135.75192261 453.32295227 C-144.12550543 453.38711766 -144.12550543 453.38711766 -147.94528198 451.14717102 C-150.17288289 447.80576966 -150.1968103 446.75203451 -150.20255089 442.85411167 C-150.20899978 441.74985232 -150.21544867 440.64559297 -150.22209299 439.50787121 C-150.21899578 438.28979855 -150.21589858 437.07172589 -150.21270752 435.81674194 C-150.21723863 434.52659839 -150.22176975 433.23645483 -150.22643816 431.90721601 C-150.23870407 428.31879361 -150.2384035 424.73046419 -150.23604941 421.14202559 C-150.23564216 417.27487531 -150.24667162 413.40775521 -150.25616455 409.5406189 C-150.27279476 401.9616959 -150.27827499 394.38280402 -150.27938931 386.80386431 C-150.28033875 380.6454981 -150.28444381 374.48714218 -150.29079056 368.32877922 C-150.30840783 350.88010212 -150.31762857 333.43144965 -150.31612961 315.9827636 C-150.3160497 315.0416201 -150.31596979 314.1004766 -150.31588745 313.1308136 C-150.31580569 312.18852508 -150.31572393 311.24623656 -150.31563969 310.27539384 C-150.31482646 294.99784247 -150.33397205 279.72038961 -150.36216418 264.44286675 C-150.39086348 248.7672134 -150.40470614 233.09160814 -150.40297663 217.41592783 C-150.40231175 208.61067861 -150.40784713 199.80553269 -150.42933273 191.00030708 C-150.44750565 183.50448647 -150.45192398 176.00881597 -150.43831389 168.51298291 C-150.43176467 164.68663292 -150.43173684 160.86057126 -150.44902039 157.03424835 C-150.46754435 152.89080645 -150.45524795 148.7480378 -150.4397583 144.60458374 C-150.45518899 142.78082084 -150.45518899 142.78082084 -150.47093141 140.92021424 C-150.46173382 139.81334714 -150.45253623 138.70648004 -150.44305992 137.56607151 C-150.44349466 136.60928361 -150.44392939 135.65249572 -150.4443773 134.66671425 C-149.79604864 131.39380819 -148.52438952 130.19747407 -145.94528198 128.14717102 C-143.39159775 127.65497971 -143.39159775 127.65497971 -140.45303345 127.66615295 C-139.33686646 127.6606543 -138.22069946 127.65515564 -137.07070923 127.64949036 C-135.85079285 127.66387146 -134.63087646 127.67825256 -133.37399292 127.69306946 C-132.0859375 127.69248535 -130.79788208 127.69190125 -129.47079468 127.69129944 C-125.94199499 127.69015189 -122.4137393 127.71366699 -118.88506603 127.74159527 C-115.19620205 127.76660255 -111.50732556 127.76895038 -107.81838989 127.7736969 C-100.83437409 127.78612871 -93.85060878 127.81895291 -86.86670327 127.85909486 C-78.91516481 127.90380633 -70.96361437 127.925798 -63.01198149 127.9458766 C-46.65626835 127.98768552 -30.30080714 128.05804134 -13.94528198 128.14717102 C-13.94804736 127.52302464 -13.95081274 126.89887827 -13.95366192 126.25581837 C-14.01992788 111.06581911 -14.0695655 95.87586422 -14.1007185 80.68575764 C-14.11618447 73.33991618 -14.13726874 65.99417123 -14.17160034 58.64839172 C-14.20151107 52.24547183 -14.22085895 45.84262184 -14.22754747 39.43963403 C-14.23145692 36.04957595 -14.24063881 32.65971785 -14.26247215 29.26972389 C-14.28419654 25.48436672 -14.28725091 21.69942604 -14.28585815 17.91401672 C-14.29664398 16.791203 -14.30742981 15.66838928 -14.31854248 14.5115509 C-14.31441849 13.47815079 -14.31029449 12.44475067 -14.30604553 11.3800354 C-14.30881091 10.48497441 -14.31157629 9.58991343 -14.31442547 8.66772938 C-13.86059129 5.56889231 -12.75969877 3.6783108 -10.94528198 1.14717102 C-7.56332585 -0.54380705 -3.72049013 -0.00077386 0 0 Z M4.05471802 18.14717102 C4.05471802 122.09717102 4.05471802 226.04717102 4.05471802 333.14717102 C8.01471802 333.14717102 11.97471802 333.14717102 16.05471802 333.14717102 C25.53136769 334.42779935 33.82870233 338.58131953 39.80862427 346.22138977 C45.46106361 354.95697784 47.57210926 364.5490575 45.52346802 374.80732727 C44.09360135 379.95950989 42.19922835 383.84967356 39.05471802 388.14717102 C38.72471802 389.13717102 38.39471802 390.12717102 38.05471802 391.14717102 C38.80237427 391.66666321 39.55003052 392.1861554 40.32034302 392.72138977 C41.30518677 393.41877258 42.29003052 394.1161554 43.30471802 394.83467102 C44.27924927 395.51916321 45.25378052 396.2036554 46.25784302 396.90888977 C49.00112608 399.1042825 50.97973238 401.32617865 53.05471802 404.14717102 C57.10436753 402.79728785 57.7966236 400.7053804 60.05471802 397.14717102 C64.38723774 390.95785714 70.52951716 386.8175965 77.05471802 383.14717102 C75.72177745 380.26548047 74.19059519 377.97064841 72.17971802 375.52217102 C64.31217869 365.25012701 62.85857741 353.39980483 64.32815552 340.80342102 C66.49091435 330.84656903 72.18529315 321.43973547 80.41018677 315.42451477 C82.90444037 313.85062141 85.41742298 312.46581854 88.05471802 311.14717102 C89.04858521 310.63476868 89.04858521 310.63476868 90.06253052 310.11201477 C99.12015038 306.2936064 111.91916986 306.67155958 121.11721802 309.77217102 C133.42846127 315.15361937 140.86807659 322.81666498 146.05471802 335.14717102 C149.97974051 345.35629689 149.05448818 357.24135572 144.76174927 367.12373352 C142.12129052 372.70331472 139.67985294 377.06616962 135.05471802 381.14717102 C135.05471802 381.80717102 135.05471802 382.46717102 135.05471802 383.14717102 C136.90769031 384.56324852 136.90769031 384.56324852 139.24221802 385.95967102 C146.47924841 390.64112506 152.28036313 396.98563868 157.05471802 404.14717102 C159.73521875 403.09411716 160.99182672 402.23102609 162.74221802 399.89717102 C165.94350394 396.09023641 169.85808657 393.75661493 174.05471802 391.14717102 C172.99103096 389.00990213 171.9154941 386.88346965 170.80081177 384.77217102 C165.81756544 374.77592763 164.85671105 365.74925583 167.98440552 354.97138977 C171.27850164 346.27930403 176.77801615 340.49562076 184.92190552 336.15107727 C192.17093499 333.0078259 200.28137042 333.14717102 208.05471802 333.14717102 C208.05471802 229.19717102 208.05471802 125.24717102 208.05471802 18.14717102 C140.73471802 18.14717102 73.41471802 18.14717102 4.05471802 18.14717102 Z M-131.94528198 146.14717102 C-131.94528198 241.51717102 -131.94528198 336.88717102 -131.94528198 435.14717102 C-127.32528198 435.14717102 -122.70528198 435.14717102 -117.94528198 435.14717102 C-113.71368656 431.01546587 -113.71368656 431.01546587 -111.68356323 427.75654602 C-109.66505955 424.72652251 -107.41549408 422.73767865 -104.58590698 420.49873352 C-102.57135955 418.83913016 -100.76985976 417.01141353 -98.94528198 415.14717102 C-99.35520386 414.52971008 -99.76512573 413.91224915 -100.18746948 413.27607727 C-106.51533975 403.3301185 -108.2461295 394.87053696 -105.94528198 383.14717102 C-102.70007724 373.59699707 -97.30810407 366.60351882 -88.41403198 361.77217102 C-79.00777172 357.78834314 -69.0281803 357.59491717 -59.50778198 361.27217102 C-50.37277987 365.6088675 -44.62002179 371.50255423 -40.83200073 380.91279602 C-39.81766922 384.6126484 -39.56162017 388.08779701 -39.57028198 391.89717102 C-39.57161133 392.94952942 -39.57161133 392.94952942 -39.57296753 394.02314758 C-39.72747719 400.84667071 -41.30095669 406.78969833 -45.58200073 412.22529602 C-47.23456657 414.16227138 -47.23456657 414.16227138 -46.94528198 417.14717102 C-43.29550941 420.0503992 -41.68676019 421.14717102 -36.94528198 421.14717102 C-36.65395386 420.37373352 -36.36262573 419.60029602 -36.06246948 418.80342102 C-31.6580336 407.61227576 -25.00201845 396.84306556 -13.94528198 391.14717102 C-15.39150384 387.2905794 -17.15845695 383.66954108 -19.04293823 380.01435852 C-22.37547335 373.11846333 -22.00774914 363.37074095 -20.15621948 356.01045227 C-18.90303134 352.81051767 -17.78691922 350.02859095 -15.39483166 347.52343369 C-13.33284703 344.14319969 -13.54050873 340.95225268 -13.58451843 337.11134338 C-13.58195516 336.29529876 -13.57939188 335.47925415 -13.57675093 334.6384809 C-13.57180455 331.90061751 -13.58831995 329.16330403 -13.60470581 326.42549133 C-13.6055519 324.46433526 -13.6050773 322.50317823 -13.6033783 320.54202271 C-13.60251621 315.21383414 -13.62017664 309.88584745 -13.64110017 304.55770588 C-13.6598313 298.99100068 -13.6616146 293.42429105 -13.66517639 287.8575592 C-13.67450733 277.31431423 -13.69913534 266.77116238 -13.72922486 256.22795844 C-13.7690001 241.9822412 -13.78521527 227.73649857 -13.80273151 213.49073982 C-13.83095565 191.04281378 -13.89071828 168.59508426 -13.94528198 146.14717102 C-52.88528198 146.14717102 -91.82528198 146.14717102 -131.94528198 146.14717102 Z M226.05471802 146.14717102 C225.87990058 181.27213062 225.87990058 181.27213062 225.76174927 216.39717102 C225.72615223 230.72184644 225.68431274 245.04631006 225.6020813 259.37080383 C225.54222011 269.80344686 225.50355473 280.23591799 225.49018705 290.66872799 C225.48237475 296.1913291 225.46405412 301.71343851 225.42033768 307.23588181 C225.37949082 312.4381726 225.36707349 317.63977103 225.37607193 322.84220695 C225.3744267 324.74731272 225.36256395 326.6524426 225.33948517 328.55740929 C225.01385041 341.68224361 225.01385041 341.68224361 230.66850853 353.25117683 C234.8063292 358.91069944 233.71348763 368.42905862 233.05471802 375.14717102 C231.90506483 379.71163567 230.27939958 383.54543953 227.41799927 387.28779602 C225.85762128 389.03172326 225.85762128 389.03172326 226.05471802 391.14717102 C227.60939083 392.49084741 227.60939083 392.49084741 229.61721802 393.83467102 C238.89006109 400.67502533 243.25327389 407.74615353 248.05471802 418.14717102 C248.71535255 419.48350341 249.37883577 420.81848543 250.05471802 422.14717102 C253.16669867 420.64880997 256.10817952 418.94783344 259.05471802 417.14717102 C258.40811416 413.91415175 257.22348321 411.480191 255.55471802 408.64717102 C250.8235399 400.61517095 250.847248 391.00994711 252.70315552 381.99873352 C255.7497794 372.70262475 260.61770009 367.13711253 269.30471802 362.70967102 C278.51926556 358.41812413 287.94200743 357.48496198 297.80471802 360.58467102 C305.84190546 363.97498903 312.15026873 369.61103847 316.11721802 377.39717102 C319.55715289 386.10679335 320.47149669 396.29391784 317.05471802 405.14717102 C315.20595683 408.90844379 313.19576157 412.54510089 311.05471802 416.14717102 C312.03311646 416.89160461 312.03311646 416.89160461 313.03128052 417.65107727 C319.82486047 422.93163278 324.91852007 428.29890709 330.05471802 435.14717102 C334.67471802 435.14717102 339.29471802 435.14717102 344.05471802 435.14717102 C344.05471802 339.77717102 344.05471802 244.40717102 344.05471802 146.14717102 C305.11471802 146.14717102 266.17471802 146.14717102 226.05471802 146.14717102 Z M85.23831177 335.27217102 C81.29163671 341.52432953 80.03111162 347.79995174 81.05471802 355.14717102 C83.59644621 363.7562504 88.64131265 368.4706639 96.08987427 373.13154602 C101.29429709 375.82170494 107.0433162 375.99054687 112.62112427 374.42842102 C117.82941563 372.50344895 121.4477965 370.49669403 125.05471802 366.14717102 C125.77659302 365.34279602 126.49846802 364.53842102 127.24221802 363.70967102 C131.28531863 357.99356326 131.88801733 351.96788025 131.05471802 345.14717102 C128.75079738 337.38856261 124.57967721 331.33186765 117.49221802 327.27217102 C105.8009717 321.92164522 93.04786468 325.00692301 85.23831177 335.27217102 Z M0.17971802 355.58467102 C-3.67604249 360.23426457 -4.40320536 363.64761359 -4.25387573 369.61201477 C-3.74687254 373.77714225 -2.54783911 375.81055931 0.05471802 379.14717102 C4.82651075 382.86916935 8.59030429 383.80512301 14.62503052 383.52998352 C19.8274123 382.71031565 22.97123619 380.40172893 26.42971802 376.39717102 C29.09807188 371.0604633 29.778335 366.60507649 27.99221802 360.95967102 C25.89506469 356.17289503 22.84560302 353.27386163 17.94534302 351.29560852 C10.77020313 349.242034 5.78783752 350.82996101 0.17971802 355.58467102 Z M188.43753052 354.47529602 C184.41237745 359.00061603 183.02246362 363.11514383 183.11721802 369.08467102 C184.06847078 374.85855406 187.06643769 378.71375962 191.74221802 382.08467102 C197.50224693 383.93222746 203.39156968 384.34779019 208.92971802 381.58467102 C213.29535757 378.17947217 215.58847708 375.13688095 216.43362427 369.71748352 C216.71789287 363.68365317 215.77542755 359.91731145 212.05471802 355.14717102 C204.83968598 349.41707294 195.7943515 348.43346236 188.43753052 354.47529602 Z M-87.74215698 384.12373352 C-89.8599459 387.68546942 -90.24315 391.05693457 -89.94528198 395.14717102 C-88.30325892 401.20213107 -85.02900103 404.70410676 -79.94528198 408.14717102 C-75.59930375 409.59583043 -71.34152951 410.03610155 -67.00778198 408.42842102 C-62.00963248 405.75699629 -58.73747369 402.52374615 -56.94528198 397.14717102 C-56.38097334 391.44982413 -56.6594182 387.01931387 -59.94528198 382.14717102 C-62.30624398 379.85817862 -62.30624398 379.85817862 -64.94528198 378.14717102 C-65.84246948 377.52842102 -65.84246948 377.52842102 -66.75778198 376.89717102 C-75.33390661 373.95678543 -82.33817473 377.38297671 -87.74215698 384.12373352 Z M271.11721802 383.27217102 C268.57756019 387.75392013 268.59092491 392.13992326 269.05471802 397.14717102 C270.88006393 402.42039255 273.66191005 404.94408188 278.05471802 408.14717102 C282.98913651 409.79197718 287.31882301 409.73737532 292.17971802 408.08467102 C296.52662286 405.15523515 300.12777216 402.06190077 301.75784302 396.93623352 C302.59319302 391.61541719 301.88391744 387.83303256 299.05471802 383.14717102 C294.84109368 378.74472861 291.56898987 376.40285968 285.36721802 375.77217102 C279.45197207 375.83765345 275.00512153 379.00801878 271.11721802 383.27217102 Z M75.05471802 406.14717102 C68.06091217 415.12167878 63.91898771 424.24606186 63.94119263 435.68159485 C63.94131348 437.00066833 63.94143433 438.31974182 63.94155884 439.67878723 C63.94659343 441.07059273 63.95175995 442.46239776 63.95706177 443.85420227 C63.95806885 445.12695007 63.95907593 446.39969788 63.96011353 447.71101379 C63.96534136 452.46057538 63.97930263 457.21012412 63.99221802 461.95967102 C64.01284302 472.58154602 64.03346802 483.20342102 64.05471802 494.14717102 C91.77471802 494.14717102 119.49471802 494.14717102 148.05471802 494.14717102 C148.11659302 483.64904602 148.17846802 473.15092102 148.24221802 462.33467102 C148.26953003 459.04135803 148.29684204 455.74804504 148.32498169 452.35493469 C148.3337514 449.71667344 148.34139419 447.0784081 148.34768677 444.44013977 C148.35552689 443.76977188 148.363367 443.09940399 148.3714447 442.40872192 C148.51587992 429.38794968 147.00501577 419.62710897 139.05471802 409.14717102 C138.45659302 408.26029602 137.85846802 407.37342102 137.24221802 406.45967102 C129.1531589 397.90837995 117.96293835 393.69256553 106.42971802 392.89717102 C94.61298215 393.10051829 83.46243463 397.92629255 75.05471802 406.14717102 Z M-13.64059448 413.22529602 C-21.34015236 424.92189214 -22.09995838 434.93769003 -22.04293823 448.73701477 C-22.04193115 449.88979919 -22.04092407 451.04258362 -22.03988647 452.2303009 C-22.03467502 456.51510114 -22.02071381 460.79988713 -22.00778198 465.08467102 C-21.98715698 474.67529602 -21.96653198 484.26592102 -21.94528198 494.14717102 C0.49471802 494.14717102 22.93471802 494.14717102 46.05471802 494.14717102 C46.11659302 484.32967102 46.17846802 474.51217102 46.24221802 464.39717102 C46.26953003 461.32179016 46.29684204 458.2464093 46.32498169 455.07783508 C46.33375378 452.60615937 46.341396 450.13447929 46.34768677 447.66279602 C46.36303467 446.40708801 46.37838257 445.15138 46.39419556 443.85762024 C46.39804236 430.73233304 44.36066132 419.86113207 35.05471802 410.14717102 C20.53513472 398.98342362 -1.26035201 398.04951493 -13.64059448 413.22529602 Z M173.33206177 414.11201477 C165.97942609 424.10220526 165.61529264 435.68026062 165.76174927 447.66279602 C165.76477051 448.84986145 165.76779175 450.03692688 165.77090454 451.25996399 C165.78644638 455.6391231 165.82832863 460.01815701 165.86721802 464.39717102 C165.92909302 474.21467102 165.99096802 484.03217102 166.05471802 494.14717102 C188.49471802 494.14717102 210.93471802 494.14717102 234.05471802 494.14717102 C234.11659302 479.88498352 234.11659302 479.88498352 234.17971802 465.33467102 C234.19792603 462.35460022 234.21613403 459.37452942 234.2348938 456.30415344 C234.24074127 453.91198404 234.24583622 451.51981264 234.25003052 449.12763977 C234.26026245 447.90999939 234.27049438 446.69235901 234.28103638 445.43782043 C234.28358118 432.83978381 233.18404663 422.04266571 224.55471802 412.33467102 C223.72971802 411.61279602 222.90471802 410.89092102 222.05471802 410.14717102 C221.33284302 409.46654602 220.61096802 408.78592102 219.86721802 408.08467102 C204.78201591 397.6926429 185.36411346 400.38838211 173.33206177 414.11201477 Z M-98.82028198 438.95967102 C-105.62965945 447.35897388 -107.11564327 455.99775227 -107.04293823 466.60810852 C-107.04193115 467.30976135 -107.04092407 468.01141418 -107.03988647 468.73432922 C-107.03469398 471.33029335 -107.02073301 473.926234 -107.00778198 476.52217102 C-106.98715698 482.33842102 -106.96653198 488.15467102 -106.94528198 494.14717102 C-84.83528198 494.14717102 -62.72528198 494.14717102 -39.94528198 494.14717102 C-39.86278198 487.56779602 -39.78028198 480.98842102 -39.69528198 474.20967102 C-39.65886597 472.15111877 -39.62244995 470.09256653 -39.58493042 467.97163391 C-39.57323171 466.31270892 -39.56304269 464.65377231 -39.55465698 462.99482727 C-39.52396118 461.73599731 -39.52396118 461.73599731 -39.49264526 460.45173645 C-39.48684617 450.47875305 -44.0132315 442.18505434 -50.94528198 435.14717102 C-66.11311862 423.39460886 -85.64768275 424.85823466 -98.82028198 438.95967102 Z M260.30471802 437.99873352 C254.17720841 445.68875808 251.42516965 453.19661748 251.66409302 462.99482727 C251.66812134 463.79174988 251.67214966 464.58867249 251.67630005 465.40974426 C251.69698739 468.34329256 251.75283005 471.2765087 251.80471802 474.20967102 C251.88721802 480.78904602 251.96971802 487.36842102 252.05471802 494.14717102 C274.16471802 494.14717102 296.27471802 494.14717102 319.05471802 494.14717102 C319.09596802 488.39279602 319.13721802 482.63842102 319.17971802 476.70967102 C319.19792603 474.91215393 319.21613403 473.11463684 319.2348938 471.26264954 C319.24074496 469.80879513 319.24583903 468.35493741 319.25003052 466.90107727 C319.26026245 466.16981628 319.27049438 465.4385553 319.28103638 464.68513489 C319.28457251 454.00778748 316.46210761 445.11237554 309.19924927 437.10029602 C295.13702062 423.96432195 273.81829404 423.70088746 260.30471802 437.99873352 Z " fill="#000000" transform="translate(149.94528198242188,-0.1471710205078125)"/>
<path d="M0 0 C1.06559143 -0.0087616 2.13118286 -0.01752319 3.22906494 -0.02655029 C6.749479 -0.04854695 10.26863579 -0.03398934 13.7890625 -0.01708984 C16.23616782 -0.02045787 18.6832715 -0.02531037 21.13037109 -0.03158569 C26.25830008 -0.03895744 31.38579352 -0.02824101 36.51367188 -0.00488281 C43.08807035 0.02360421 49.66144829 0.00720199 56.23580933 -0.02274513 C61.28873388 -0.04080938 66.34141632 -0.03506388 71.39434814 -0.02210617 C73.81846233 -0.01876979 76.24259846 -0.02286731 78.66668701 -0.03450394 C82.05442563 -0.04719736 85.44050969 -0.02785394 88.828125 0 C89.83087463 -0.01012115 90.83362427 -0.02024231 91.86676025 -0.03067017 C96.3430919 0.03754431 98.73964885 0.19921262 102.53623962 2.71986389 C104.81674123 6.27465935 105.11496787 9.02993777 105.04516602 13.12768555 C105.05232132 13.86326187 105.05947662 14.5988382 105.06684875 15.35670471 C105.08370234 17.77831899 105.06435714 20.19807329 105.04296875 22.61962891 C105.04379768 24.30684054 105.04625797 25.9940521 105.05027771 27.68125916 C105.05313328 31.21280296 105.03845713 34.74371168 105.01098633 38.27514648 C104.97687723 42.8004571 104.9829324 47.32463428 105.0016489 51.84999943 C105.01221916 55.33220357 105.0032814 58.81414414 104.98826408 62.29632378 C104.98308372 63.96487076 104.98356232 65.63344527 104.98980904 67.3019886 C104.99526285 69.63381248 104.97488472 71.96401521 104.94750977 74.2956543 C104.95403564 74.9840741 104.96056152 75.6724939 104.96728516 76.3817749 C104.90041873 79.73311394 104.62055939 81.38760371 102.50572205 84.04393005 C99.48257792 86.36086009 97.84482867 86.77273609 94.10037231 86.78068542 C92.74182632 86.7870829 92.74182632 86.7870829 91.35583496 86.79360962 C90.35942993 86.79315643 89.3630249 86.79270325 88.33642578 86.79223633 C87.28917328 86.79559494 86.24192078 86.79895355 85.16293335 86.80241394 C81.6867353 86.81194491 78.21058532 86.81386816 74.734375 86.81494141 C72.32542907 86.8181526 69.91648335 86.82151657 67.50753784 86.82502747 C62.45179797 86.83102419 57.39607521 86.83286682 52.34033203 86.83227539 C45.85461553 86.83217376 39.36900849 86.84582432 32.88331795 86.8630476 C27.90599054 86.87415393 22.9286897 86.87619502 17.95135117 86.87566566 C15.5599009 86.87684791 13.16844999 86.8812833 10.77701187 86.88899803 C7.43475889 86.89876983 4.09274492 86.89593085 0.75048828 86.88989258 C-0.24186829 86.89551208 -1.23422485 86.90113159 -2.25665283 86.90692139 C-3.16798981 86.9027269 -4.07932678 86.89853241 -5.01828003 86.89421082 C-6.20349652 86.89502797 -6.20349652 86.89502797 -7.41265678 86.89586163 C-9.91251585 86.60957217 -11.46697588 85.99706508 -13.5859375 84.64697266 C-15.96418877 81.07959575 -15.88837705 78.52888871 -15.89233398 74.40917969 C-15.9006575 73.67550171 -15.90898102 72.94182373 -15.91755676 72.18591309 C-15.94166584 69.75881656 -15.95042989 67.33198875 -15.95703125 64.90478516 C-15.96599697 63.2171114 -15.97511881 61.52943846 -15.98439026 59.84176636 C-16.00088531 56.30269438 -16.00858129 52.76371705 -16.01147461 49.22460938 C-16.01685874 44.69259249 -16.05453702 40.16146682 -16.10021877 35.62970161 C-16.12998152 32.14322675 -16.13719799 28.65696669 -16.13820076 25.17037582 C-16.14240473 23.49981479 -16.15484625 21.82925322 -16.17571831 20.15881729 C-16.20261809 17.81973259 -16.19781341 15.48271579 -16.18530273 13.14355469 C-16.20013702 12.45558807 -16.21497131 11.76762146 -16.23025513 11.05880737 C-16.17742992 7.58525724 -15.59154785 5.65573016 -13.71009827 2.71887207 C-9.17426409 -0.28922927 -5.33563245 -0.05385468 0 0 Z M2.4140625 18.64697266 C2.4140625 35.14697266 2.4140625 51.64697266 2.4140625 68.64697266 C30.1340625 68.64697266 57.8540625 68.64697266 86.4140625 68.64697266 C86.4140625 52.14697266 86.4140625 35.64697266 86.4140625 18.64697266 C58.6940625 18.64697266 30.9740625 18.64697266 2.4140625 18.64697266 Z " fill="#000000" transform="translate(211.5859375,33.35302734375)"/>
<path d="M0 0 C5.94 0 11.88 0 18 0 C18 45.21 18 90.42 18 137 C12.06 137 6.12 137 0 137 C0 91.79 0 46.58 0 0 Z " fill="#000000" transform="translate(452,196)"/>
<path d="M0 0 C5.94 0 11.88 0 18 0 C18 45.21 18 90.42 18 137 C12.06 137 6.12 137 0 137 C0 91.79 0 46.58 0 0 Z " fill="#000000" transform="translate(401,196)"/>
<path d="M0 0 C5.94 0 11.88 0 18 0 C18 45.21 18 90.42 18 137 C12.06 137 6.12 137 0 137 C0 91.79 0 46.58 0 0 Z " fill="#000000" transform="translate(93,196)"/>
<path d="M0 0 C5.94 0 11.88 0 18 0 C18 45.21 18 90.42 18 137 C12.06 137 6.12 137 0 137 C0 91.79 0 46.58 0 0 Z " fill="#000000" transform="translate(42,196)"/>
<path d="M0 0 C5.94 0 11.88 0 18 0 C18 5.94 18 11.88 18 18 C12.06 18 6.12 18 0 18 C0 12.06 0 6.12 0 0 Z " fill="#000000" transform="translate(315,273)"/>
<path d="M0 0 C5.94 0 11.88 0 18 0 C18 5.94 18 11.88 18 18 C12.06 18 6.12 18 0 18 C0 12.06 0 6.12 0 0 Z " fill="#000000" transform="translate(281,273)"/>
<path d="M0 0 C5.94 0 11.88 0 18 0 C18 5.94 18 11.88 18 18 C12.06 18 6.12 18 0 18 C0 12.06 0 6.12 0 0 Z " fill="#000000" transform="translate(247,273)"/>
<path d="M0 0 C5.94 0 11.88 0 18 0 C18 5.94 18 11.88 18 18 C12.06 18 6.12 18 0 18 C0 12.06 0 6.12 0 0 Z " fill="#000000" transform="translate(213,273)"/>
<path d="M0 0 C5.94 0 11.88 0 18 0 C18 5.94 18 11.88 18 18 C12.06 18 6.12 18 0 18 C0 12.06 0 6.12 0 0 Z " fill="#000000" transform="translate(179,273)"/>
<path d="M0 0 C5.94 0 11.88 0 18 0 C18 5.94 18 11.88 18 18 C12.06 18 6.12 18 0 18 C0 12.06 0 6.12 0 0 Z " fill="#000000" transform="translate(315,238)"/>
<path d="M0 0 C5.94 0 11.88 0 18 0 C18 5.94 18 11.88 18 18 C12.06 18 6.12 18 0 18 C0 12.06 0 6.12 0 0 Z " fill="#000000" transform="translate(281,238)"/>
<path d="M0 0 C5.94 0 11.88 0 18 0 C18 5.94 18 11.88 18 18 C12.06 18 6.12 18 0 18 C0 12.06 0 6.12 0 0 Z " fill="#000000" transform="translate(247,238)"/>
<path d="M0 0 C5.94 0 11.88 0 18 0 C18 5.94 18 11.88 18 18 C12.06 18 6.12 18 0 18 C0 12.06 0 6.12 0 0 Z " fill="#000000" transform="translate(213,238)"/>
<path d="M0 0 C5.94 0 11.88 0 18 0 C18 5.94 18 11.88 18 18 C12.06 18 6.12 18 0 18 C0 12.06 0 6.12 0 0 Z " fill="#000000" transform="translate(179,238)"/>
<path d="M0 0 C5.94 0 11.88 0 18 0 C18 5.94 18 11.88 18 18 C12.06 18 6.12 18 0 18 C0 12.06 0 6.12 0 0 Z " fill="#000000" transform="translate(315,204)"/>
<path d="M0 0 C5.94 0 11.88 0 18 0 C18 5.94 18 11.88 18 18 C12.06 18 6.12 18 0 18 C0 12.06 0 6.12 0 0 Z " fill="#000000" transform="translate(281,204)"/>
<path d="M0 0 C5.94 0 11.88 0 18 0 C18 5.94 18 11.88 18 18 C12.06 18 6.12 18 0 18 C0 12.06 0 6.12 0 0 Z " fill="#000000" transform="translate(247,204)"/>
<path d="M0 0 C5.94 0 11.88 0 18 0 C18 5.94 18 11.88 18 18 C12.06 18 6.12 18 0 18 C0 12.06 0 6.12 0 0 Z " fill="#000000" transform="translate(213,204)"/>
<path d="M0 0 C5.94 0 11.88 0 18 0 C18 5.94 18 11.88 18 18 C12.06 18 6.12 18 0 18 C0 12.06 0 6.12 0 0 Z " fill="#000000" transform="translate(179,204)"/>
<path d="M0 0 C5.94 0 11.88 0 18 0 C18 5.94 18 11.88 18 18 C12.06 18 6.12 18 0 18 C0 12.06 0 6.12 0 0 Z " fill="#000000" transform="translate(315,170)"/>
<path d="M0 0 C5.94 0 11.88 0 18 0 C18 5.94 18 11.88 18 18 C12.06 18 6.12 18 0 18 C0 12.06 0 6.12 0 0 Z " fill="#000000" transform="translate(281,170)"/>
<path d="M0 0 C5.94 0 11.88 0 18 0 C18 5.94 18 11.88 18 18 C12.06 18 6.12 18 0 18 C0 12.06 0 6.12 0 0 Z " fill="#000000" transform="translate(247,170)"/>
<path d="M0 0 C5.94 0 11.88 0 18 0 C18 5.94 18 11.88 18 18 C12.06 18 6.12 18 0 18 C0 12.06 0 6.12 0 0 Z " fill="#000000" transform="translate(213,170)"/>
<path d="M0 0 C5.94 0 11.88 0 18 0 C18 5.94 18 11.88 18 18 C12.06 18 6.12 18 0 18 C0 12.06 0 6.12 0 0 Z " fill="#000000" transform="translate(179,170)"/>
<path d="M0 0 C5.94 0 11.88 0 18 0 C18 5.94 18 11.88 18 18 C12.06 18 6.12 18 0 18 C0 12.06 0 6.12 0 0 Z " fill="#000000" transform="translate(281,136)"/>
<path d="M0 0 C5.94 0 11.88 0 18 0 C18 5.94 18 11.88 18 18 C12.06 18 6.12 18 0 18 C0 12.06 0 6.12 0 0 Z " fill="#000000" transform="translate(247,136)"/>
<path d="M0 0 C5.94 0 11.88 0 18 0 C18 5.94 18 11.88 18 18 C12.06 18 6.12 18 0 18 C0 12.06 0 6.12 0 0 Z " fill="#000000" transform="translate(213,136)"/>
</svg>
