<?xml version="1.0" encoding="UTF-8"?>
<svg version="1.1" xmlns="http://www.w3.org/2000/svg" width="1042" height="1042">
<path d="M0 0 C1.66997441 1.66997441 1.2114271 3.64562688 1.25 5.9375 C1.08234882 15.91919331 -1.34098729 22.51307935 -8.3671875 29.75390625 C-12.80661132 33.54124853 -17.65515604 35.74494929 -23 38 C-25.56467091 39.09914468 -28.12658958 40.20462381 -30.6875 41.3125 C-31.35765137 41.60237793 -32.02780273 41.89225586 -32.71826172 42.19091797 C-45.94719199 47.98033621 -57.98760358 54.61867829 -69 64 C-69.77102051 64.64557861 -69.77102051 64.64557861 -70.55761719 65.30419922 C-86.31047476 78.60584508 -99.45028287 96.03637749 -101.27734375 117.21484375 C-101.80271787 134.88842904 -94.52422587 149.96510782 -83 163 C-82.31164062 163.81984375 -81.62328125 164.6396875 -80.9140625 165.484375 C-34.77540403 219.1184834 52.14656289 234.18186593 119.02587891 239.31201172 C206.76029177 245.85048249 307.80772691 236.50883991 401.48046875 174.078125 C404.41600348 171.48033028 407.22792162 168.77207838 410 166 C410.66257812 165.33742188 411.32515625 164.67484375 412.0078125 163.9921875 C423.44686324 151.7323977 430.17012007 136.82062164 430 120 C428.23975032 98.90843682 412.36902382 79.6140557 396.87109375 66.2734375 C383.9207231 56.01885829 370.22321341 47.47822913 355.38671875 40.24609375 C353.92528442 39.53078491 353.92528442 39.53078491 352.43432617 38.80102539 C350.53317671 37.87710376 348.62606304 36.96531574 346.7121582 36.06811523 C338.69127168 32.19462819 331.02571677 27.42110275 327.609375 18.8203125 C326.2765103 12.65154124 326.72302795 6.27033941 327 0 C335.07790686 0.56825102 342.5112731 2.63872666 350.25 4.9375 C350.92340424 5.13563293 351.59680847 5.33376587 352.2906189 5.53790283 C406.90638257 21.63894387 462.30648138 44.84324736 504.734375 83.91796875 C506.80892036 85.8244044 508.92265931 87.6676561 511.0625 89.5 C519.23533663 96.65533488 526.27516936 104.48339324 533 113 C533.81597656 113.99902344 534.63195312 114.99804688 535.47265625 116.02734375 C542.02323222 124.14833278 547.2148612 132.73997513 552 142 C552.32629395 142.62664551 552.65258789 143.25329102 552.98876953 143.89892578 C568.14332361 173.40797291 571.07989843 207.39184167 561 239 C560.79922852 239.63083496 560.59845703 240.26166992 560.39160156 240.91162109 C549.73398546 273.59880884 525.56566272 301.87687276 499 323 C498.16210938 323.70511719 497.32421875 324.41023438 496.4609375 325.13671875 C447.83591257 366.04931525 383.99353853 389.0921819 323 404 C321.91090332 404.27005859 320.82180664 404.54011719 319.69970703 404.81835938 C286.67417358 412.91358773 252.8450924 417.18466287 219 420 C218.27417725 420.06058594 217.54835449 420.12117188 216.80053711 420.18359375 C136.59060953 426.76492114 54.486329 419.41677692 -168 324 C-168.54833496 323.57170898 -169.09666992 323.14341797 -169.66162109 322.70214844 C-185.15249846 310.44637182 -199.51960857 296.08838946 -211 280 C-211.41507813 279.43458496 -211.83015625 278.86916992 -212.2578125 278.28662109 C-223.30785618 263.15636573 -231.23953209 246.10230561 -236 228 C-236.23203125 227.11957031 -236.4640625 226.23914063 -236.703125 225.33203125 C-244.66242496 192.30093641 -235.01583407 159.71362019 -218.125 131.3125 C-206.03621419 112.21504071 -190.45498377 94.38044219 -172.73339844 80.39477539 C-171.3438233 79.27665669 -169.97040346 78.13847304 -168.60253906 76.99389648 C-162.18562312 71.64589461 -155.59570802 66.78686112 -148.625 62.1875 C-147.05818481 61.15230225 -147.05818481 61.15230225 -145.4597168 60.09619141 C-110.74663575 37.38207683 -43.18237703 -3.0844555 0 0 Z " fill="#1B475D" transform="translate(357,560)"/>
<path d="M0 0 C1.00039307 0.27287842 1.00039307 0.27287842 2.02099609 0.55126953 C33.31826457 9.27831748 60.64617385 31.16549092 76.94140625 59.12255859 C94.68516587 90.59154186 98.45346052 126.6203129 89.45849609 161.47680664 C80.54029306 193.35471816 59.00865751 221.09833233 30.4453125 237.70703125 C11.2292756 248.43803903 -8.98714498 254.05827358 -31 255 C-32.16789062 255.061875 -32.16789062 255.061875 -33.359375 255.125 C-67.53383644 256.06774376 -100.28708668 242.98999717 -125.3203125 220 C-148.38110781 198.11449342 -164.01693938 167.11331353 -165 135 C-165.02578125 134.31808594 -165.0515625 133.63617187 -165.078125 132.93359375 C-166.37817651 94.51707159 -154.44776426 62.41872855 -128.99609375 33.7421875 C-112.28408961 16.0471243 -91.11893937 5.57791106 -68 -1 C-66.75734375 -1.36222656 -65.5146875 -1.72445313 -64.234375 -2.09765625 C-44.08694821 -6.8682474 -19.80138087 -5.63702468 0 0 Z " fill="#1B475D" transform="translate(554,476)"/>
<path d="M0 0 C19.77938834 17.01202179 34.39338312 36.17797217 42.875 61 C43.10550049 61.6707959 43.33600098 62.3415918 43.57348633 63.03271484 C47.80969304 76.19093605 49.11254678 88.91600563 49 102.625 C48.99543793 103.8069696 48.99543793 103.8069696 48.99078369 105.01281738 C48.9206005 117.32949873 48.22495578 129.09444475 44.5625 140.9375 C44.34819336 141.63633301 44.13388672 142.33516602 43.91308594 143.05517578 C39.28322925 157.58160387 32.08052568 171.03582963 22.5625 182.9375 C22.12953613 183.4826123 21.69657227 184.02772461 21.25048828 184.58935547 C-1.03682953 212.40001832 -32.05856208 228.16811495 -67.2890625 232.4375 C-101.16346329 236.02049062 -133.46840807 225.72439733 -160.375 205.3125 C-182.81518166 186.68012511 -198.91454716 163.28233601 -206.4375 134.9375 C-206.61394043 134.27669434 -206.79038086 133.61588867 -206.97216797 132.93505859 C-215.23035983 100.17238066 -207.93406004 63.38467555 -190.83569336 34.63061523 C-186.36499854 27.36862946 -181.34811188 21.10109527 -175.4375 14.9375 C-174.47147599 13.75624785 -173.5124471 12.56921921 -172.5625 11.375 C-131.08180839 -37.00030248 -48.11656313 -37.92298013 0 0 Z " fill="#1B475D" transform="translate(511.4375,86.0625)"/>
<path d="M0 0 C2.0214066 1.74898226 4.01215537 3.52482993 6 5.3125 C6.66386719 5.90417969 7.32773437 6.49585938 8.01171875 7.10546875 C21.88394847 20.20162967 31.68641652 37.49502515 38 55.3125 C38.37898437 56.3334375 38.75796875 57.354375 39.1484375 58.40625 C49.94392645 89.89985685 46.20135457 125.81440581 32.72265625 155.83984375 C27.36175882 166.64673222 20.98261494 176.243815 13 185.3125 C11.86304688 186.66601562 11.86304688 186.66601562 10.703125 188.046875 C-3.61568625 204.61177429 -23.91587422 218.11477526 -45 224.3125 C-48.5 224.5 -48.5 224.5 -52 223.3125 C-54.52177834 220.63563903 -56.19633142 217.50097574 -58 214.3125 C-66.56833683 199.51732379 -76.20413076 186.68793507 -88 174.3125 C-88.78890625 173.45914063 -89.5778125 172.60578125 -90.390625 171.7265625 C-101.47457353 160.09208672 -114.81592395 151.66365653 -129 144.3125 C-129.91168945 143.83321045 -129.91168945 143.83321045 -130.84179688 143.34423828 C-152.51765159 132.08856237 -176.90656167 127.4987677 -201.09472656 125.99511719 C-202.53283691 125.90085449 -202.53283691 125.90085449 -204 125.8046875 C-205.2684375 125.73290283 -205.2684375 125.73290283 -206.5625 125.65966797 C-210.62440321 125.08113969 -213.15902257 124.354361 -215.78759766 121.09790039 C-217.22972115 117.78473347 -217.3877717 115.35595754 -217.3984375 111.74609375 C-217.40480225 110.46589355 -217.41116699 109.18569336 -217.41772461 107.86669922 C-217.40552854 106.49444644 -217.39124335 105.12221084 -217.375 103.75 C-217.36752243 102.70564789 -217.36752243 102.70564789 -217.3598938 101.64019775 C-217.03847924 63.39900761 -204.10352977 30.53023704 -176.70629883 3.54785156 C-127.90268247 -42.91760704 -50.87009601 -42.85228689 0 0 Z " fill="#1B475D" transform="translate(727,303.6875)"/>
</svg>
