<?xml version="1.0" encoding="UTF-8"?>
<svg version="1.1" xmlns="http://www.w3.org/2000/svg" width="512" height="512">
<path d="M0 0 C0.81136268 -0.00226556 1.62272536 -0.00453111 2.45867479 -0.00686532 C5.18741983 -0.01321357 7.91611531 -0.01237539 10.64486694 -0.0115509 C12.59799769 -0.01454216 14.55112783 -0.01794462 16.5042572 -0.02172852 C21.82117029 -0.03058308 27.1380673 -0.03290744 32.45498705 -0.0335443 C35.78137791 -0.03425479 39.10776467 -0.03638924 42.43415451 -0.03904152 C54.05338551 -0.04830467 65.67260503 -0.05237581 77.2918396 -0.05158997 C88.09508503 -0.05099116 98.8982802 -0.06150158 109.70151293 -0.07733363 C118.99093662 -0.0904582 128.28034401 -0.0957717 137.56977689 -0.09513456 C143.11080207 -0.09488071 148.65178273 -0.09766807 154.19279861 -0.10831261 C159.41797798 -0.11807474 164.6430711 -0.11801778 169.86825371 -0.11079597 C171.77360982 -0.10975964 173.67897153 -0.11205555 175.58431816 -0.11815643 C190.32851621 -0.16226031 205.17813315 0.3081543 219.49789429 4.19621277 C220.66324707 4.511026 220.66324707 4.511026 221.85214233 4.8321991 C247.57513417 12.23882937 265.9682775 28.78503443 284.45565796 47.33610535 C286.31431537 49.20014521 288.17829043 51.05874789 290.04281616 52.91691589 C291.25081933 54.12557965 292.45851238 55.33455346 293.66586304 56.54386902 C294.21082932 57.08681107 294.75579559 57.62975311 295.317276 58.18914795 C300.07064906 62.97091072 304.59992686 67.95196371 308.79069519 73.23699951 C320.70474825 88.20496205 333.4854873 92.01343135 351.8243103 95.49943542 C356.44991858 96.39442097 361.05350803 97.39914941 365.66093445 98.3825531 C368.09603076 98.89581238 370.53468867 99.39259815 372.97731018 99.86875916 C398.26089141 104.92509073 420.03578787 116.85702424 435.12289429 138.13371277 C444.53103508 152.61554391 448.07523472 167.93334193 448.24789429 185.00871277 C448.2591333 185.76063904 448.27037231 186.51256531 448.2819519 187.28727722 C448.36338098 203.16846518 443.45348436 215.77876788 433.12289429 228.13371277 C429.29125054 231.38424541 426.2586082 232.26002566 421.28427124 232.24723816 C419.81308586 232.24712486 419.81308586 232.24712486 418.31217957 232.24700928 C417.25584824 232.24184799 416.19951691 232.23668671 415.11117554 232.23136902 C413.4861335 232.2292466 413.4861335 232.2292466 411.82826233 232.2270813 C408.36394504 232.22147836 404.89969209 232.20892535 401.43539429 232.19621277 C399.08839001 232.19119815 396.74138472 232.18663518 394.39437866 232.18254089 C388.63719521 232.17150798 382.88004934 232.15476697 377.12289429 232.13371277 C376.92325829 233.06161118 376.92325829 233.06161118 376.71958923 234.008255 C376.54274094 234.81938751 376.36589264 235.63052002 376.1836853 236.4662323 C376.00934464 237.27045624 375.83500397 238.07468018 375.65538025 238.90327454 C372.84500114 250.6751849 363.7595378 261.20764191 353.78305054 267.63761902 C339.34754549 275.75626576 324.09901906 278.2496818 307.93539429 273.94621277 C293.35160089 268.95764842 282.33319544 259.75104546 275.12289429 246.13371277 C272.84642296 241.32407602 271.12289429 237.49991842 271.12289429 232.13371277 C270.49728607 232.14259521 269.87167786 232.15147766 269.22711182 232.16062927 C262.70581209 232.24923972 256.18468387 232.30950407 249.66293335 232.35343933 C247.23024548 232.37353348 244.79760578 232.40081365 242.36508179 232.43547058 C238.86496074 232.48408337 235.36547927 232.50670416 231.86508179 232.52433777 C230.78048676 232.54498291 229.69589172 232.56562805 228.57843018 232.5868988 C222.44639409 232.58871404 218.75557786 232.30264791 214.12289429 228.13371277 C212.22365803 225.07841966 212.12289429 223.24844495 212.12289429 219.63371277 C213.14664981 216.05056844 214.18010094 214.45451148 217.0975647 212.17048645 C221.36839324 209.98423358 226.17016623 210.40965816 230.86508179 210.42668152 C232.5503447 210.40399956 232.5503447 210.40399956 234.26965332 210.38085938 C237.84593794 210.33799023 241.42137834 210.32914456 244.99789429 210.32121277 C247.42760422 210.29806805 249.85729408 210.27270278 252.28695679 210.24504089 C258.23227731 210.18219609 264.17726802 210.14725579 270.12289429 210.13371277 C270.44540161 209.18544617 270.76790894 208.23717957 271.10018921 207.26017761 C271.53841046 205.99655168 271.97698737 204.73304906 272.41586304 203.46965027 C272.84149536 202.23263367 273.26712769 200.99561707 273.70565796 199.72111511 C275.75598127 194.53120112 278.57089392 190.40208295 282.12289429 186.13371277 C282.69523804 185.43761902 283.26758179 184.74152527 283.85726929 184.02433777 C293.21011026 173.71223105 306.2126888 167.93587079 319.93539429 166.82511902 C335.91205246 166.1161645 349.12110837 171.05655095 361.31039429 181.32121277 C369.20600498 188.72102373 374.28660959 197.70464109 377.12289429 208.13371277 C377.12289429 209.12371277 377.12289429 210.11371277 377.12289429 211.13371277 C382.81702398 211.33783906 388.50280178 211.44859275 394.20053101 211.47550964 C396.13490135 211.49748745 398.069163 211.54433625 400.00228882 211.61711121 C410.39649599 212.36510685 410.39649599 212.36510685 419.80673218 208.8681488 C424.95100105 203.11289118 427.05528921 195.41709388 426.82601929 187.79386902 C426.75898804 186.95726746 426.69195679 186.12066589 426.62289429 185.25871277 C426.58680054 184.36797058 426.55070679 183.47722839 426.51351929 182.55949402 C426.42130858 180.41559499 426.27792417 178.27398648 426.12289429 176.13371277 C424.50447632 176.15727844 424.50447632 176.15727844 422.85336304 176.18132019 C418.8203997 176.23594176 414.78746856 176.27017916 410.75424194 176.29850769 C409.01427701 176.31352131 407.27434944 176.33393854 405.53451538 176.36003113 C403.02221408 176.39674384 400.51041649 176.41351346 397.99789429 176.42668152 C397.22985474 176.44216537 396.46181519 176.45764923 395.67050171 176.47360229 C387.874688 176.4759889 381.46393559 174.19166383 375.66195679 168.87980652 C370.79884078 163.36251501 368.77675725 156.61838518 368.91195679 149.34465027 C369.6248012 141.87298474 372.66305542 136.20356314 378.12289429 131.13371277 C380.39589964 129.33082699 382.69715241 127.73470241 385.12289429 126.13371277 C376.49794445 123.3655505 367.86353487 121.01495698 359.03305054 119.00480652 C356.5961668 118.43920114 354.15931886 117.8734415 351.72250366 117.30754089 C347.93559178 116.43386577 344.14813281 115.56267323 340.35995483 114.69450378 C336.66611687 113.84610249 332.97451433 112.98846978 329.28305054 112.12980652 C328.1517421 111.87347946 327.02043365 111.6171524 325.85484314 111.35305786 C316.02579388 109.05872327 310.38020209 105.84488064 303.34555054 98.68449402 C302.61597641 97.95304672 301.88640228 97.22159943 301.13471985 96.46798706 C299.5957585 94.92232023 298.06039075 93.37306809 296.52841187 91.82048035 C294.2036236 89.46468522 291.86847938 87.11958467 289.53109741 84.77629089 C288.03112704 83.26714265 286.53175854 81.75739591 285.03305054 80.24699402 C284.34429337 79.55398697 283.65553619 78.86097992 282.94590759 78.14697266 C279.03745839 74.18169841 275.30079866 70.11448096 271.66026306 65.90213013 C251.52753751 42.74369089 227.54952407 25.28747077 196.25598526 22.33197212 C189.42704858 21.89984277 182.57928201 22.00462121 175.73959351 22.02018738 C173.99429832 22.02046986 172.24900301 22.02031033 170.50370789 22.01974487 C165.79162988 22.01945926 161.0795776 22.02531772 156.36750555 22.03231883 C151.43344092 22.03859178 146.49937562 22.03915928 141.56530762 22.04034424 C132.23352761 22.04344596 122.90175939 22.05164368 113.56998456 22.06169373 C102.94117777 22.07289092 92.3123704 22.07837439 81.68355918 22.08338916 C59.82999765 22.0938273 37.97644671 22.11140423 16.12289429 22.13371277 C16.3351062 22.6706073 16.54731812 23.20750183 16.76596069 23.76066589 C17.17854126 24.82704285 17.17854126 24.82704285 17.59945679 25.91496277 C17.8735437 26.6168573 18.14763062 27.31875183 18.43002319 28.04191589 C20.16894177 33.29175888 19.28262163 38.13674066 17.21273804 43.10636902 C11.33871794 54.03330962 -0.60694495 62.16119334 -10.06069946 69.78605652 C-14.55328221 73.53091398 -18.87141584 77.49384084 -23.02456665 81.61296082 C-24.87710571 83.13371277 -24.87710571 83.13371277 -27.67495728 84.50798035 C-31.27199889 86.572251 -33.97471386 88.42811184 -35.87710571 92.13371277 C-37.78131065 101.12224399 -36.9173419 110.69958666 -36.62710571 119.82121277 C-35.86465933 148.67446739 -35.86465933 148.67446739 -42.25259399 158.98503113 C-45.40594799 165.09696478 -45.06556292 171.84372918 -44.93960571 178.57121277 C-44.93458038 179.2937323 -44.92955505 180.01625183 -44.92437744 180.76066589 C-44.80231179 190.89225525 -44.00826234 200.1155454 -36.83413696 207.88761902 C-32.86925584 210.89925264 -29.86437057 211.66775673 -24.93179321 211.44230652 C-23.9147229 211.28955261 -23.9147229 211.28955261 -22.87710571 211.13371277 C-22.65023071 209.85496277 -22.42335571 208.57621277 -22.18960571 207.25871277 C-18.86912315 192.6256896 -9.28634599 182.01056485 3.12289429 174.13371277 C15.34998765 166.54688254 30.34598675 165.24343294 44.24789429 168.19621277 C59.31458678 172.50679146 69.87852052 181.10172572 78.12289429 194.13371277 C81.15135506 199.77188418 83.1348723 204.80765025 84.12289429 211.13371277 C84.80083542 211.12483032 85.47877655 211.11594788 86.17726135 211.10679626 C93.23367888 211.01829787 100.28993873 210.95796771 107.34677124 210.91398621 C109.98029992 210.89387179 112.61378395 210.86657673 115.24716187 210.83195496 C119.03267436 210.78343189 122.81759629 210.76074164 126.60336304 210.74308777 C127.78061447 210.72244263 128.95786591 210.70179749 130.17079163 210.68052673 C138.3508272 210.67828158 138.3508272 210.67828158 142.34286499 213.03312683 C145.37221653 216.60801925 145.51515534 219.3023895 145.47836304 223.87199402 C144.90961606 227.49072476 142.97123816 229.014015 140.12289429 231.13371277 C137.12814715 232.13196182 135.04944095 232.28695309 131.91708374 232.33903503 C130.85621048 232.35898026 129.79533722 232.37892548 128.70231628 232.3994751 C126.98657661 232.42454384 126.98657661 232.42454384 125.23617554 232.45011902 C123.47795723 232.48129066 123.47795723 232.48129066 121.68421936 232.51309204 C117.93467143 232.57855095 114.18505266 232.63745573 110.43539429 232.69621277 C107.89567338 232.73940145 105.35595967 232.78301585 102.81625366 232.82707214 C96.58520906 232.93422863 90.35409377 233.03600197 84.12289429 233.13371277 C83.71770821 234.37632622 83.71770821 234.37632622 83.30433655 235.64404297 C82.94757339 236.72836105 82.59081024 237.81267914 82.22323608 238.92985535 C81.6943 240.5437188 81.6943 240.5437188 81.15467834 242.19018555 C76.65996766 255.01292996 66.20022022 265.29959951 54.12289429 271.13371277 C39.48036703 277.4876328 23.75272586 277.65328741 8.87289429 271.94621277 C3.25567233 269.42253334 -1.29517655 266.21934013 -5.87710571 262.13371277 C-6.49198853 261.61164246 -7.10687134 261.08957214 -7.74038696 260.55168152 C-16.05800633 252.97176675 -20.62852796 243.01254608 -22.87710571 232.13371277 C-24.17905884 232.16851746 -25.48101196 232.20332214 -26.82241821 232.23918152 C-28.54896775 232.26733178 -30.27553132 232.29463061 -32.00210571 232.32121277 C-32.85804321 232.34634949 -33.71398071 232.37148621 -34.59585571 232.39738464 C-35.43374634 232.40705261 -36.27163696 232.41672058 -37.13491821 232.42668152 C-38.28178101 232.45024719 -38.28178101 232.45024719 -39.45181274 232.47428894 C-44.00718317 231.83459277 -47.04319111 230.11531068 -50.01113892 226.62174988 C-50.64366577 225.64472107 -51.27619263 224.66769226 -51.92788696 223.66105652 C-52.97492798 222.06487488 -52.97492798 222.06487488 -54.04312134 220.43644714 C-54.75146118 219.3259198 -55.45980103 218.21539246 -56.18960571 217.07121277 C-56.92336367 215.94473472 -57.65837891 214.81907456 -58.39468384 213.69425964 C-64.99103289 203.55690681 -64.99103289 203.55690681 -65.08584595 198.58317566 C-65.10513657 197.63781448 -65.12442719 196.69245331 -65.14430237 195.71844482 C-65.20223873 191.36301011 -65.25139753 187.00774175 -65.28213501 182.65202332 C-65.3036322 180.36410858 -65.33763519 178.07627421 -65.38467407 175.78874207 C-65.45212145 172.47757998 -65.47921569 169.16812392 -65.49819946 165.85636902 C-65.52603012 164.84760208 -65.55386078 163.83883514 -65.58253479 162.79949951 C-65.56647622 157.16363947 -64.84504457 153.59992435 -61.88198853 148.76383972 C-58.02960344 142.34651068 -58.06630294 136.67401682 -58.17788696 129.32902527 C-58.16781671 127.37016584 -58.1577317 125.41130635 -58.14676952 123.45245171 C-58.13870383 120.74135387 -58.15738551 118.03070952 -58.17642212 115.31968689 C-58.20693575 110.54953005 -58.2059983 105.77962549 -58.18916321 101.00941467 C-58.18178164 98.47744807 -58.18997486 95.94537653 -58.21556091 93.41352844 C-58.2151329 92.26818634 -58.2147049 91.12284424 -58.21426392 89.9427948 C-58.22125809 88.93894745 -58.22825226 87.9351001 -58.23545837 86.90083313 C-57.50243615 81.24059688 -54.21534229 78.307085 -49.87710571 74.94621277 C-45.90932024 71.79808824 -42.09760918 68.57090203 -38.37710571 65.13371277 C-34.82040327 61.85952854 -31.20548761 58.72728844 -27.43960571 55.69621277 C-22.82582502 51.9735056 -18.44753461 48.06108421 -14.10293579 44.03312683 C-10.43729204 40.63490225 -6.70234208 37.3503888 -2.87710571 34.13371277 C-5.62909138 29.92701614 -8.52085755 25.88837977 -11.56460571 21.88371277 C-15.74396176 16.38420007 -17.28948278 14.15671981 -16.45523071 7.32902527 C-15.87710571 5.13371277 -15.87710571 5.13371277 -13.50210571 2.63371277 C-8.96121854 0.0389201 -5.08842418 -0.01034458 0 0 Z M405.12289429 139.13371277 C402.61580715 140.4403476 400.34854013 141.77548505 397.99789429 143.32121277 C397.02916382 143.92159363 397.02916382 143.92159363 396.04086304 144.53410339 C392.51656046 146.71958302 392.51656046 146.71958302 390.30697632 150.09587097 C389.87966609 152.44845271 389.87966609 152.44845271 392.12289429 155.13371277 C394.93564181 155.55135659 394.93564181 155.55135659 398.22445679 155.42668152 C399.43617554 155.41701355 400.64789429 155.40734558 401.89633179 155.39738464 C403.16734741 155.37224792 404.43836304 155.34711121 405.74789429 155.32121277 C407.02664429 155.30767761 408.30539429 155.29414246 409.62289429 155.28019714 C412.78997711 155.24474472 415.9562297 155.19532718 419.12289429 155.13371277 C417.55594534 150.9346935 415.71950965 148.21177363 412.68539429 144.88371277 C411.90293335 144.01230652 411.12047241 143.14090027 410.31430054 142.24308777 C408.22410647 139.92851936 408.22410647 139.92851936 405.12289429 139.13371277 Z M6.12289429 198.13371277 C-0.41373805 206.94636995 -4.03819192 215.02045909 -2.87710571 226.13371277 C-0.97810681 236.39469005 4.57123129 244.21603221 13.12289429 250.13371277 C20.68857544 254.62718184 28.9991071 256.05722663 37.68539429 254.57121277 C46.60327727 252.16226763 53.93807953 246.71788329 59.12289429 239.13371277 C64.13083405 230.00338356 65.53512191 221.3493392 62.68539429 211.25871277 C59.30468905 201.80946245 52.16792349 194.43103992 43.12289429 190.13371277 C30.5260703 185.04653385 15.44199239 188.16444504 6.12289429 198.13371277 Z M297.12289429 201.13371277 C291.59948248 209.57600074 289.15934247 217.24446008 290.81039429 227.19621277 C293.14724899 237.19361765 298.25997337 244.89125333 306.93539429 250.44621277 C315.2041777 255.06192172 322.82399912 255.98811672 332.12289429 254.13371277 C335.32398395 253.10406291 338.19166232 251.77453522 341.12289429 250.13371277 C341.75066772 249.78437683 342.37844116 249.43504089 343.02523804 249.07511902 C349.63287637 244.89654686 354.18790504 237.78135927 356.65414429 230.42668152 C358.54798192 221.1626591 357.71497846 211.8259308 352.64633179 203.79386902 C346.87657143 195.87691474 339.91626096 190.00279379 330.12289429 188.13371277 C316.62545171 186.63605133 305.95809928 190.75389151 297.12289429 201.13371277 Z " fill="#000000" transform="translate(64.87710571289063,117.86628723144531)"/>
<path d="M0 0 C1.65847961 -0.01062721 1.65847961 -0.01062721 3.35046387 -0.02146912 C4.54897476 -0.0189917 5.74748566 -0.01651428 6.98231506 -0.01396179 C8.89332504 -0.02162819 8.89332504 -0.02162819 10.84294128 -0.02944946 C14.3290485 -0.04280953 17.81504707 -0.04342073 21.30117488 -0.04088616 C24.22281683 -0.03981291 27.14443714 -0.04470965 30.06607443 -0.04949158 C36.97160223 -0.06057969 43.87707565 -0.06103024 50.78260803 -0.05497742 C57.87161727 -0.04895832 64.96042698 -0.06119743 72.04940218 -0.08254749 C78.16012318 -0.10026475 84.27078131 -0.10614842 90.38152701 -0.10290974 C94.01993929 -0.10111037 97.65820973 -0.10359513 101.29659843 -0.11762428 C132.01600769 -0.22586045 158.68803402 3.93075033 181.4122467 26.22554016 C184.87052467 29.74866783 187.97007241 33.52067959 191.0138092 37.40522766 C193.69134492 40.70586612 196.54583012 43.7903763 199.45521545 46.88569641 C213.72422581 62.12095472 213.72422581 62.12095472 213.61146545 70.87397766 C213.14190058 74.85875734 211.72139413 77.02937387 209.33021545 80.26069641 C205.46107525 83.14927693 202.74312071 83.63667574 197.95874023 83.55323792 C197.31493186 83.54234265 196.67112348 83.53144738 196.00780576 83.52022195 C186.07769695 83.27600675 176.17059752 82.38010794 166.27381897 81.58003235 C163.97923363 81.39887045 161.68461071 81.21818403 159.38995361 81.03793335 C153.19992985 80.54989997 147.01055889 80.05403675 140.82135129 79.55576992 C136.95031702 79.24436311 133.07916643 78.93444384 129.20797539 78.62499237 C118.46609175 77.76606431 107.72436737 76.90524335 96.98330784 76.03606796 C96.29892611 75.9806896 95.61454439 75.92531123 94.90942382 75.86825474 C93.5224402 75.75601727 92.13545661 75.64377943 90.74847306 75.5315412 C90.06009893 75.47583918 89.3717248 75.42013715 88.66249084 75.36274719 C87.97326799 75.30697475 87.28404514 75.25120231 86.57393675 75.1937398 C75.38124042 74.28842603 64.18738276 73.39843145 52.99293972 72.51500484 C41.46979507 71.60542546 29.94774147 70.68306004 18.42657989 69.74867654 C11.96946149 69.22526126 5.51202121 68.70719526 -0.94657707 68.20233917 C-7.01276362 67.72778108 -13.07746127 67.23736455 -19.14138603 66.73475456 C-21.3645116 66.55322217 -23.58810927 66.3773672 -25.81216812 66.20765114 C-28.85131556 65.97484977 -31.88808419 65.72150296 -34.92514038 65.46302795 C-35.80208775 65.4007513 -36.67903513 65.33847465 -37.58255666 65.27431083 C-43.8621658 64.70771411 -49.93544754 63.20973886 -54.3611908 58.43647766 C-56.79950733 53.22088579 -57.62721481 48.80022406 -55.66978455 43.26069641 C-51.77551636 36.99491876 -45.49073009 32.21716146 -40.05259705 27.32710266 C-36.98535097 24.563679 -33.98185402 21.73708954 -30.98204041 18.90083313 C-10.97254228 0.02356748 -10.97254228 0.02356748 0 0 Z M-13.24326515 31.69481659 C-15.63878553 34.32436165 -18.30900852 36.60403047 -20.98228455 38.94819641 C-22.56478796 40.36364526 -24.13503207 41.79360837 -25.66978455 43.26069641 C-25.66978455 43.59069641 -25.66978455 43.92069641 -25.66978455 44.26069641 C-8.71643047 46.20442996 8.28841437 47.57604154 25.29335022 48.97505188 C29.45432303 49.31762152 33.61471865 49.66674564 37.77501583 50.01741219 C41.02381083 50.29016634 44.27296616 50.55842428 47.52223396 50.82548141 C49.05592172 50.95224916 50.58948047 51.08058948 52.12289238 51.2106514 C54.27098508 51.39237789 56.41951717 51.56771242 58.56825256 51.74165344 C59.78113449 51.84221039 60.99401642 51.94276733 62.24365234 52.04637146 C67.59895582 52.3272371 72.96755186 52.26069641 78.33021545 52.26069641 C78.33021545 42.03069641 78.33021545 31.80069641 78.33021545 21.26069641 C68.1241544 20.98839514 57.92054667 20.76877589 47.71165943 20.63895035 C42.96992718 20.57660438 38.23083092 20.49221623 33.49061584 20.35542297 C28.90621214 20.22397074 24.32432441 20.15307378 19.73818016 20.12216949 C17.99851072 20.1001812 16.25896237 20.05724003 14.52038002 19.99193573 C1.70533173 19.53020838 -4.76551094 21.98582435 -13.24326515 31.69481659 Z M99.33021545 21.26069641 C99.33021545 32.15069641 99.33021545 43.04069641 99.33021545 54.26069641 C103.14213278 55.21367574 106.58799275 55.60882136 110.49794006 55.92500305 C111.21225693 55.9836705 111.92657379 56.04233795 112.66253662 56.1027832 C115.01895589 56.29543747 117.37573298 56.48324771 119.7325592 56.67085266 C121.37398146 56.80370967 123.01538441 56.93680537 124.6567688 57.07012939 C128.09552242 57.34872388 131.53444979 57.62502948 134.973526 57.89961243 C139.37652111 58.25125428 143.77911714 58.60762685 148.18160152 58.96560001 C151.57097912 59.24082975 154.96051885 59.51401695 158.35011482 59.78654289 C159.97322828 59.91719805 161.59629985 60.04837468 163.21932793 60.18008614 C165.49042906 60.36398587 167.76172553 60.54524956 170.03309631 60.7257843 C171.97024757 60.88114403 171.97024757 60.88114403 173.9465332 61.03964233 C176.75664108 61.22322512 179.51609486 61.30672621 182.33021545 61.26069641 C180.64702104 57.0268945 177.6077896 54.12896649 174.51771545 50.88569641 C173.46808641 49.77508769 172.41989709 48.66311644 171.3731842 47.54975891 C170.85788147 47.00279358 170.34257874 46.45582825 169.81166077 45.89228821 C168.41226017 44.35105647 167.11795616 42.76343962 165.8263092 41.13179016 C155.97092201 29.79578141 140.80378787 23.69748331 126.33021545 21.26069641 C121.54644955 20.94121361 116.80894964 20.97185315 112.01771545 21.07319641 C107.83084045 21.13507141 103.64396545 21.19694641 99.33021545 21.26069641 Z " fill="#000000" transform="translate(127.66978454589844,154.7393035888672)"/>
<path d="M0 0 C2.01056207 0.00315859 4.01964907 -0.02031234 6.0300293 -0.0456543 C7.30426758 -0.04629883 8.57850586 -0.04694336 9.89135742 -0.04760742 C11.63630493 -0.05207886 11.63630493 -0.05207886 13.41650391 -0.05664062 C16.90462081 0.3535204 18.77116819 1.25400633 21.58276367 3.31567383 C24.14908884 6.73744072 23.94711418 10.16207804 23.58276367 14.31567383 C22.3487824 17.09213168 21.42967631 18.7585681 18.88330078 20.43359375 C14.23662645 22.21523806 9.08210913 21.64754233 4.16552734 21.63134766 C2.15496527 21.62818907 0.14587827 21.65165999 -1.86450195 21.67700195 C-3.13874023 21.67764648 -4.41297852 21.67829102 -5.72583008 21.67895508 C-6.88912842 21.68193604 -8.05242676 21.68491699 -9.25097656 21.68798828 C-12.73909346 21.27782726 -14.60564085 20.37734133 -17.41723633 18.31567383 C-19.9835615 14.89390694 -19.78158684 11.46926962 -19.41723633 7.31567383 C-18.18325506 4.53921598 -17.26414897 2.87277956 -14.71777344 1.19775391 C-10.0710991 -0.58389041 -4.91658178 -0.01619467 0 0 Z " fill="#000000" transform="translate(225.417236328125,254.684326171875)"/>
<path d="M0 0 C1.83691406 -0.00580078 1.83691406 -0.00580078 3.7109375 -0.01171875 C4.98195313 -0.00011719 6.25296875 0.01148438 7.5625 0.0234375 C8.83351563 0.01183594 10.10453125 0.00023437 11.4140625 -0.01171875 C12.63867188 -0.00785156 13.86328125 -0.00398437 15.125 0 C16.24003906 0.00338379 17.35507813 0.00676758 18.50390625 0.01025391 C22.93669482 0.57284441 25.5547974 2.22278447 28.4375 5.5859375 C29.72924244 8.81529361 29.74057709 10.928534 29.47265625 14.3359375 C27.91278718 17.8707481 26.0263619 19.83352833 22.5625 21.3984375 C18.21938135 22.02024602 13.95021595 22.07634559 9.56713867 21.99536133 C7.50106033 21.96095516 5.43924579 21.97474315 3.37304688 21.99414062 C-7.93640108 21.91069659 -7.93640108 21.91069659 -12.4375 17.3984375 C-14.36108449 13.15052176 -14.65342126 11.16051253 -13.375 6.6484375 C-10.02336328 1.0263372 -6.35181839 0.01927575 0 0 Z " fill="#000000" transform="translate(85.4375,240.6015625)"/>
<path d="M0 0 C2.8100346 1.79363911 4.50940468 3.01880935 6 6 C6.34411038 11.24768331 6.5679453 14.81689172 3 19 C-0.05287544 20.8656461 -1.90438162 21.00170747 -5.5 20.9375 C-9.77956526 19.79118788 -11.37476963 18.55178226 -14 15 C-15.11799235 11.08702676 -15.43487854 9.00708715 -13.8125 5.25 C-9.8740174 0.36084919 -6.36960503 -1.17534379 0 0 Z " fill="#000000" transform="translate(249,329)"/>
</svg>
