<?xml version="1.0" encoding="UTF-8"?>
<svg version="1.1" xmlns="http://www.w3.org/2000/svg" width="1042" height="1042">
<path d="M0 0 C1.47929101 1.37995568 2.94878667 2.7691185 4.41162109 4.16650391 C5.3860153 5.09603111 6.3655249 6.02022582 7.35009766 6.93896484 C20.55383181 19.28130217 31.22751058 33.71772126 39.875 49.5625 C40.21869629 50.18946777 40.56239258 50.81643555 40.91650391 51.46240234 C64.51936859 95.11274947 69.19816079 147.10760111 55.7265625 194.6640625 C44.63825635 231.35205231 22.44511737 263.82045356 -3.44140625 291.65625 C-5.86074903 294.27632428 -8.2143393 296.94138777 -10.5625 299.625 C-64.33034871 359.27222546 -148.24323148 390.66084996 -226.125 401.5625 C-226.77334808 401.65432556 -227.42169617 401.74615112 -228.08969116 401.84075928 C-241.28067306 403.65819648 -254.38493318 403.96302336 -267.6875 403.9375 C-268.75915405 403.93695618 -269.83080811 403.93641235 -270.93493652 403.93585205 C-306.81636461 403.85256183 -341.85652038 398.38449002 -376.125 387.5625 C-376.90472168 387.32515137 -377.68444336 387.08780273 -378.48779297 386.84326172 C-399.88588181 380.2732444 -421.53623521 370.05166453 -440.125 357.5625 C-440.79885742 357.11197266 -441.47271484 356.66144531 -442.16699219 356.19726562 C-452.0006822 349.56472729 -461.28578208 342.46884046 -470.125 334.5625 C-470.68735352 334.06186035 -471.24970703 333.5612207 -471.82910156 333.04541016 C-473.56055257 331.49700935 -475.28242782 329.93877456 -477 328.375 C-477.76715332 327.68083984 -477.76715332 327.68083984 -478.54980469 326.97265625 C-513.53507827 294.64362992 -532.790273 246.54264744 -535.125 199.5625 C-536.76051092 135.465498 -503.57631771 77.88129859 -460.90234375 32.4296875 C-458.07973598 29.51577174 -455.19365616 26.80923936 -452.08203125 24.2109375 C-449.88027096 22.35636097 -447.79433433 20.39915751 -445.6875 18.4375 C-371.07618406 -48.65572914 -264.66436126 -75.85128234 0 0 Z M-425.3125 75.5625 C-426.25687783 76.55600731 -427.19381296 77.55661882 -428.125 78.5625 C-428.84816406 79.31273437 -428.84816406 79.31273437 -429.5859375 80.078125 C-458.7490063 111.65959463 -478.72986223 157.95764472 -477.26123047 201.21386719 C-475.23770698 236.09970231 -458.51814227 270.5652705 -432.5 293.9375 C-431.05156436 295.15768022 -429.59175725 296.36440621 -428.125 297.5625 C-427.11695313 298.39652344 -426.10890625 299.23054687 -425.0703125 300.08984375 C-372.52432383 342.89916815 -303.66856559 354.54204256 -237.67724609 347.96044922 C-191.49207567 342.78644044 -147.70604649 327.57051373 -106.875 305.6875 C-105.91779053 305.17670898 -104.96058105 304.66591797 -103.97436523 304.13964844 C-93.31719767 298.28912307 -93.31719767 298.28912307 -85.125 289.5625 C-91.3525715 291.03141121 -96.96238748 293.36991606 -102.6875 296.1875 C-130.15615092 309.4694881 -159.99254551 316.60435775 -190.125 320.5625 C-190.95370605 320.67964355 -191.78241211 320.79678711 -192.63623047 320.91748047 C-221.54524777 324.89047795 -253.38675972 324.58028799 -282.125 319.5625 C-283.13852539 319.38557617 -284.15205078 319.20865234 -285.19628906 319.02636719 C-327.98285489 311.2822529 -369.28763562 293.67618542 -401.125 263.5625 C-401.99640625 262.75554687 -402.8678125 261.94859375 -403.765625 261.1171875 C-428.4962465 237.44644978 -445.43525996 203.28675773 -446.328125 168.76171875 C-446.48991993 155.41875704 -446.1266475 142.59472257 -443.125 129.5625 C-442.94759277 128.78841797 -442.77018555 128.01433594 -442.58740234 127.21679688 C-438.73060278 111.21385925 -431.46168826 96.68443202 -423.86816406 82.15820312 C-421.70658404 78.07968548 -421.70658404 78.07968548 -421.125 73.5625 C-423.37298647 73.33757693 -423.37298647 73.33757693 -425.3125 75.5625 Z " fill="#1B475D" transform="translate(748.125,231.4375)"/>
<path d="M0 0 C8.86882304 3.75042503 13.05194105 14.41305134 16.875 22.625 C17.38893311 23.71530518 17.90286621 24.80561035 18.43237305 25.92895508 C54.83852019 104.22168383 58.74551724 190.05775269 29.046875 271.39624023 C24.85844729 282.4750055 20.06434889 293.29690785 15 304 C14.61086426 304.8235498 14.22172852 305.64709961 13.82080078 306.49560547 C-0.5525982 336.64971289 -19.48733592 364.48497982 -41 390 C-41.47469727 390.56493164 -41.94939453 391.12986328 -42.43847656 391.71191406 C-52.87161435 404.10581934 -52.87161435 404.10581934 -58.31420898 409.3112793 C-60.04729345 411.04737564 -61.62423309 412.86013798 -63.2109375 414.73046875 C-66.8434833 418.90734683 -70.74457962 422.68924064 -74.8125 426.4375 C-75.51463623 427.08928223 -76.21677246 427.74106445 -76.94018555 428.41259766 C-78.95568824 430.27994594 -80.97678567 432.14101443 -83 434 C-83.94875 434.87527344 -84.8975 435.75054688 -85.875 436.65234375 C-156.88670365 501.40500301 -249.76591325 542.93496982 -465.77662659 571.58970642 C-562.87901364 567.02149504 -658.02820829 539.11163758 -771.8125 443.875 C-773.55183911 441.92569596 -775.2811477 439.96739258 -777 438 C-777.43586426 437.50886719 -777.87172852 437.01773437 -778.32080078 436.51171875 C-812.83142801 397.55987701 -837.40259115 348.258122 -849.375 297.75 C-849.60155273 296.80729248 -849.82810547 295.86458496 -850.06152344 294.89331055 C-854.32938645 275.77617227 -855.49091718 256.71596911 -855.3125 237.1875 C-855.30690063 236.09503967 -855.30130127 235.00257935 -855.29553223 233.87701416 C-855.21305661 217.86592382 -855.04474621 201.9023469 -853 186 C-852.87109375 184.99517578 -852.7421875 183.99035156 -852.609375 182.95507812 C-850.18826346 165.00970968 -845.39876419 148.23559282 -839.16796875 131.27734375 C-837.25540061 125.91063917 -835.62347342 120.45994973 -834 115 C-833.01 115 -832.02 115 -831 115 C-827.5511282 121.89774361 -830.76267078 130.97038201 -832.4296875 138.03979492 C-847.68343004 203.36178369 -828.83645479 274.5867811 -794.55810547 330.84399414 C-785.0153193 346.16024302 -774.27641019 360.32678364 -762.1171875 373.6640625 C-760.20919797 375.76918748 -758.34952931 377.90613634 -756.5 380.0625 C-735.04011799 404.6447205 -707.17121698 423.94576928 -679 440 C-677.62400635 440.78673096 -677.62400635 440.78673096 -676.22021484 441.58935547 C-626.84983855 469.60264722 -573.01716783 485.24475472 -517 493 C-515.23197021 493.24991699 -515.23197021 493.24991699 -513.42822266 493.50488281 C-473.25977944 498.91443476 -431.19810995 497.67084768 -391 493 C-390.2511554 492.91514343 -389.50231079 492.83028687 -388.73077393 492.74285889 C-332.02794264 486.30740356 -277.95991158 471.59829136 -226 448 C-224.373741 447.27334107 -222.74744475 446.5467655 -221.12109375 445.8203125 C-182.98628621 428.5513066 -145.51764921 404.97794557 -113.921875 377.51953125 C-111.08075683 375.06963657 -108.17959478 372.71786655 -105.25 370.375 C-100.91740852 366.85359038 -96.98397999 363.09356394 -93.09375 359.09375 C-91.23461715 357.23461715 -89.33313544 355.55315486 -87.3125 353.875 C-80.66536379 348.15107716 -74.8790535 341.49158818 -69 335 C-68.45150391 334.39623535 -67.90300781 333.7924707 -67.33789062 333.17041016 C-23.81105637 284.96483885 7.32936002 223.92004039 19 160 C19.16516113 159.11554199 19.33032227 158.23108398 19.50048828 157.31982422 C28.7453727 105.09148546 21.30878573 48.31300728 0 0 Z " fill="#1B475D" transform="translate(924,309)"/>
<path d="M0 0 C17.97753803 16.61778475 20.72551449 53.131372 22 76 C22.17912156 81.3757255 22.24551145 86.74688535 22.25 92.125 C22.25101212 93.23000351 22.25101212 93.23000351 22.25204468 94.35733032 C22.19522517 133.83732695 13.42262727 171.53278643 -4 207 C-4.33402832 207.69641602 -4.66805664 208.39283203 -5.01220703 209.11035156 C-13.98123228 227.68431523 -26.02637136 245.0060557 -39 261 C-40.08087891 262.36705078 -40.08087891 262.36705078 -41.18359375 263.76171875 C-46.63305586 270.57111792 -52.47613821 276.95627783 -58.43408203 283.31640625 C-60.0204011 285.0219342 -61.58857275 286.74254077 -63.15234375 288.46875 C-67.94845563 293.75168526 -72.7334415 298.8826724 -78.21875 303.46875 C-80.02434739 305.02093021 -81.6608049 306.66097678 -83.3125 308.375 C-86.98576164 312.10643547 -90.99182373 315.35174657 -95.0703125 318.62890625 C-97.9446717 320.95522096 -100.75148596 323.34778994 -103.5625 325.75 C-174.72990971 385.11763193 -266.34602728 413.04772973 -357 424 C-357.82870605 424.1023999 -358.65741211 424.2047998 -359.51123047 424.31030273 C-398.99199045 428.56084306 -440.2673176 423.84651983 -479 416 C-480.17691406 415.76474609 -481.35382813 415.52949219 -482.56640625 415.28710938 C-512.73967786 409.11900261 -542.28073135 399.45917977 -570 386 C-571.35254883 385.34547852 -571.35254883 385.34547852 -572.73242188 384.67773438 C-593.68500031 374.4068626 -612.97376081 361.78962971 -631 347 C-631.60714844 346.50854492 -632.21429687 346.01708984 -632.83984375 345.51074219 C-648.20363916 333.02979703 -662.34237412 319.0164429 -674 303 C-674.85649066 301.85005169 -675.71326433 300.70031411 -676.5703125 299.55078125 C-691.93208559 278.72834362 -703.26763589 255.68208138 -711 231 C-711.22880859 230.2972998 -711.45761719 229.59459961 -711.69335938 228.87060547 C-719.10037516 205.93818049 -722.22384394 181.14577371 -722.25 157.125 C-722.25133942 156.39722351 -722.25267883 155.66944702 -722.25405884 154.9196167 C-722.24934156 143.07143309 -721.5272612 131.60149893 -719 120 C-718.74863281 118.81921875 -718.49726562 117.6384375 -718.23828125 116.421875 C-716.52465596 109.34977064 -716.52465596 109.34977064 -713 107 C-709.8374232 115.03238531 -708.7713507 123.1709699 -707.55352783 131.66213989 C-703.377835 160.4717745 -695.84475148 187.25362005 -682 213 C-681.48832275 213.97114746 -681.48832275 213.97114746 -680.96630859 214.96191406 C-672.48467582 231.00867341 -662.01218948 245.4249538 -650 259 C-649.24074219 259.87011719 -648.48148438 260.74023438 -647.69921875 261.63671875 C-638.84546382 271.6541999 -629.46089202 280.68224202 -619 289 C-618.16210938 289.70511719 -617.32421875 290.41023438 -616.4609375 291.13671875 C-542.20743909 353.61284959 -442.45947127 369.7122221 -344 362 C-294.78719105 357.57637672 -246.7230604 345.12839633 -202 324 C-200.41324463 323.25194092 -200.41324463 323.25194092 -198.79443359 322.48876953 C-163.69842108 305.78667257 -131.29399818 284.52819327 -102 259 C-101.22269531 258.33484375 -100.44539062 257.6696875 -99.64453125 256.984375 C-86.80037109 245.75402498 -74.36905109 233.56374113 -64 220 C-62.92934885 218.66614711 -61.85620803 217.33429065 -60.78125 216.00390625 C-25.39010104 171.87107033 1.90894008 112.76430424 2.203125 55.42578125 C2.20882507 54.53948532 2.21452515 53.65318939 2.22039795 52.74003601 C2.22978302 50.87528655 2.23635584 49.01052099 2.24023438 47.14575195 C2.24991522 44.33709816 2.28099104 41.52918516 2.3125 38.72070312 C2.36537659 29.45859022 2.06782634 20.98705741 -0.35253906 11.99682617 C-1.2229743 7.96794513 -1.8907602 3.7815204 0 0 Z " fill="#1B475D" transform="translate(866,326)"/>
</svg>
