<?xml version="1.0" encoding="UTF-8"?>
<svg version="1.1" xmlns="http://www.w3.org/2000/svg" width="1042" height="1042">
<path d="M0 0 C3.62401213 1.49846794 5.6317703 3.55788493 8.1875 6.5 C11.61775741 10.42900814 11.61775741 10.42900814 15.12890625 14.28515625 C31.36960917 31.72222771 44.87937874 51.97220268 56 73 C56.50974365 73.96172119 56.50974365 73.96172119 57.02978516 74.94287109 C73.461518 106.22681583 83.92024658 139.87294876 88 175 C88.0942627 175.77738525 88.18852539 176.55477051 88.28564453 177.35571289 C89.25381698 186.40266959 89.24358591 195.47395179 89.25 204.5625 C89.25067474 205.42449005 89.25134949 206.2864801 89.25204468 207.17459106 C89.23375419 221.9517647 88.45818936 236.40329091 86 251 C85.83371094 251.98887207 85.66742187 252.97774414 85.49609375 253.99658203 C75.42424598 311.43409166 46.96342942 364.53958735 7.5546875 407.19921875 C5.56282177 409.38296146 3.62163703 411.59089275 1.69140625 413.828125 C-2.01798798 418.07980783 -5.93734711 422.08549167 -9.9375 426.0625 C-10.60201172 426.73087891 -11.26652344 427.39925781 -11.95117188 428.08789062 C-16.46898454 432.59693935 -21.15308339 436.84867336 -26 441 C-27.00912009 441.87759784 -28.01823512 442.75520149 -29.02734375 443.6328125 C-103.57687769 507.47523217 -197.19215461 545.67460718 -374 576 C-374 575.34 -374 574.68 -374 574 C-371.96926829 572.41682085 -369.93576339 570.94995919 -367.8125 569.5 C-366.51694533 568.59428157 -365.22270288 567.68668363 -363.9296875 566.77734375 C-363.2706543 566.31440918 -362.61162109 565.85147461 -361.93261719 565.37451172 C-349.41848208 556.47423625 -337.71789363 546.48247036 -326.37109375 536.15234375 C-324.83336246 534.75647894 -323.2844377 533.37280903 -321.72265625 532.00390625 C-316.22918707 527.1685565 -310.99552651 522.10088031 -305.8125 516.9375 C-305.14718262 516.2767749 -304.48186523 515.6160498 -303.79638672 514.93530273 C-299.32814818 510.45318078 -295.12343903 505.79927112 -291 501 C-290.05035253 499.91720216 -289.09987913 498.83512793 -288.1484375 497.75390625 C-263.53082598 469.53543111 -243.78737285 438.4112119 -227 405 C-226.43804932 403.89011719 -226.43804932 403.89011719 -225.86474609 402.7578125 C-211.01421977 373.21007359 -201.15953455 341.14646038 -194.63500977 308.81298828 C-194.42545654 307.88470215 -194.21590332 306.95641602 -194 306 C-193.76144287 304.80479736 -193.52288574 303.60959473 -193.27709961 302.37817383 C-191.68679778 298.17151995 -190.32860758 297.40261621 -186.375 295.37890625 C-185.80491714 295.0773764 -185.23483429 294.77584656 -184.6474762 294.46517944 C-183.41754769 293.81695528 -182.18228119 293.17877845 -180.94241333 292.54977417 C-177.61100464 290.85651265 -174.3225356 289.08271355 -171.02734375 287.3203125 C-170.3527562 286.9620488 -169.67816864 286.6037851 -168.98313904 286.23466492 C-135.36887088 268.30320621 -103.41441774 245.66809179 -75.25 220.03125 C-73.25783524 218.23276792 -71.23220489 216.48799915 -69.1875 214.75 C-60.43133036 207.09278283 -52.30063047 198.76820313 -45.08984375 189.640625 C-43.74090763 187.93617487 -42.35976685 186.25650344 -40.94140625 184.609375 C-7.42784618 145.49997279 11.01168602 94.33601803 7.7578125 42.8203125 C6.96100364 32.83551192 4.77251989 23.41661988 2.03271484 13.79077148 C0.70402832 9.07389328 -0.38268383 4.95825134 0 0 Z " fill="#1B475D" transform="translate(782,316)"/>
<path d="M0 0 C0.77899658 0.08485657 1.55799316 0.16971313 2.3605957 0.25714111 C79.13798772 8.68340315 156.44929785 28.18197822 225.21435547 64.07470703 C226.98884114 64.99421766 228.77765308 65.88590597 230.56640625 66.77734375 C248.86833587 76.02617322 265.58192551 88.10271707 280.6875 101.91015625 C282.64985514 103.68356841 284.64661409 105.38150245 286.6875 107.0625 C290.55024713 110.36958513 293.77332307 114.07873508 297 118 C297.81339844 118.97582031 298.62679688 119.95164062 299.46484375 120.95703125 C326.23375358 153.65341235 342.38491361 193.56001379 338.3125 236.25 C334.85333161 267.31901679 321.67001985 296.11112711 303 321 C302.55301758 321.60102539 302.10603516 322.20205078 301.64550781 322.82128906 C286.95959326 342.43422751 269.33006293 360.97554299 250 376 C248.14289454 377.57988537 246.28890671 379.1634403 244.4375 380.75 C219.04141329 401.93533658 190.1586591 418.63068656 161 434 C160.03271973 434.51216064 160.03271973 434.51216064 159.04589844 435.03466797 C155.24832166 437 155.24832166 437 153 437 C153.144375 435.69417969 153.28875 434.38835937 153.4375 433.04296875 C160.55388036 361.9297705 148.83069428 290.90768652 119 226 C118.26415972 224.36465676 117.52847787 222.72924221 116.79296875 221.09375 C104.6469914 194.42743493 88.56252018 168.69873391 70 146 C69.2471875 145.05769531 68.494375 144.11539063 67.71875 143.14453125 C63.41809798 137.80553688 58.96147005 132.6417613 54.3359375 127.58203125 C53.04301431 126.15289709 51.75690314 124.71715892 50.50073242 123.25561523 C45.75615855 117.73804513 40.71912942 112.56955454 35.5625 107.4375 C34.75490234 106.62603516 33.94730469 105.81457031 33.11523438 104.97851562 C28.23997228 100.11111052 23.2548194 95.45414825 18 91 C17.36425049 90.45754639 16.72850098 89.91509277 16.07348633 89.35620117 C-25.42842041 54.17173149 -71.62735823 30.69092435 -123.11239624 14.01945496 C-125.01542814 13.40199182 -126.91715597 12.78051409 -128.81884766 12.15893555 C-131.12218497 11.40828731 -133.42899212 10.66817067 -135.73974609 9.94067383 C-145.55915564 6.75916036 -145.55915564 6.75916036 -149 3 C-149 2.01 -149 1.02 -149 0 C-100.07176201 -5.42205054 -48.93107969 -5.41951547 0 0 Z " fill="#1B475D" transform="translate(426,153)"/>
<path d="M0 0 C-13.4474453 73.3711489 -46.71290282 140.81723607 -97.6015625 195.48388672 C-98.97908005 196.97731968 -100.33599677 198.48692291 -101.6875 200.00390625 C-121.87370602 222.58639602 -159.15323058 261.21048459 -190.25 265.875 C-191.61125 265.936875 -191.61125 265.936875 -193 266 C-195.17191259 261.21702868 -197.25988206 256.41032591 -199.2265625 251.5390625 C-211.17442822 221.97581762 -226.89138577 194.91516521 -248.71484375 171.47265625 C-250.62903883 169.40139901 -252.44587611 167.29085299 -254.25 165.125 C-280.66585579 134.8735867 -319.61098511 111.39261749 -358.28125 101.359375 C-359.41667236 101.06248779 -360.55209473 100.76560059 -361.72192383 100.4597168 C-363.96543093 99.87888632 -366.21253898 99.31172103 -368.46362305 98.76098633 C-388.01433894 93.7604718 -388.01433894 93.7604718 -393 86 C-391.41529907 85.94054199 -391.41529907 85.94054199 -389.79858398 85.87988281 C-300.71434262 82.45832124 -212.2830211 70.35241662 -8.67138672 2.89355469 C-7.81174316 2.50973633 -6.95209961 2.12591797 -6.06640625 1.73046875 C-5.32334229 1.39426514 -4.58027832 1.05806152 -3.81469727 0.71166992 C-2 0 -2 0 0 0 Z " fill="#1B475D" transform="translate(563,612)"/>
</svg>
