<?xml version="1.0" standalone="no"?>
<!DOCTYPE svg PUBLIC "-//W3C//DTD SVG 20010904//EN"
 "http://www.w3.org/TR/2001/REC-SVG-20010904/DTD/svg10.dtd">
<svg version="1.0" xmlns="http://www.w3.org/2000/svg"
 width="1042.000000pt" height="1042.000000pt" viewBox="0 0 1042.000000 1042.000000"
 preserveAspectRatio="xMidYMid meet">

<g transform="translate(0.000000,1042.000000) scale(0.100000,-0.100000)"
fill="#000000" stroke="none">
<path d="M5515 8604 c-11 -2 -45 -9 -75 -15 -91 -17 -233 -67 -325 -114 -266
-136 -427 -319 -486 -555 -32 -125 -24 -249 35 -515 25 -115 67 -284 92 -375
26 -91 59 -212 74 -270 58 -221 253 -950 280 -1047 63 -224 124 -548 155 -823
32 -275 30 -749 -4 -910 -7 -34 -8 -33 -53 75 -78 184 -174 453 -295 820 -538
1646 -623 1879 -849 2340 -304 622 -588 911 -1038 1054 -290 93 -670 105
-1082 36 -395 -67 -932 -246 -1312 -439 l-51 -26 85 -106 c652 -818 1170
-1815 1399 -2699 25 -93 74 -298 110 -455 178 -771 285 -1099 466 -1423 125
-226 225 -362 410 -559 128 -137 227 -218 393 -324 380 -243 738 -371 1218
-436 219 -30 602 -32 783 -4 515 78 918 284 1271 648 212 219 370 459 488 741
87 207 132 388 173 692 19 145 24 493 10 703 l-9 122 27 -10 c59 -22 302 -60
454 -71 321 -22 640 18 906 111 170 61 420 195 580 313 140 103 498 437 484
451 -3 3 -68 10 -144 15 -275 20 -492 79 -750 205 -426 209 -841 570 -1230
1071 -94 121 -223 308 -435 630 -337 512 -677 847 -1035 1020 -202 97 -366
136 -574 134 -69 -1 -135 -3 -146 -5z m-745 -598 c0 -81 31 -221 80 -368 126
-375 335 -786 603 -1188 527 -790 904 -1220 1302 -1483 85 -56 327 -182 424
-220 l43 -18 -6 -117 c-24 -429 -86 -721 -201 -946 -231 -453 -650 -585 -1115
-351 -195 98 -448 329 -558 510 l-31 51 14 79 c8 44 20 168 26 275 23 365 -25
867 -125 1295 -28 118 -305 1162 -376 1415 -63 225 -91 335 -135 545 -54 252
-51 377 14 528 24 57 41 53 41 -7z"/>
</g>
</svg>
