<?xml version="1.0" encoding="UTF-8"?>
<svg id="Layer_1" xmlns="http://www.w3.org/2000/svg" version="1.1" viewBox="0 0 500 500">
  <!-- Generator: Adobe Illustrator 29.2.1, SVG Export Plug-In . SVG Version: 2.1.0 Build 116)  -->
  <defs>
    <style>
      .st0 {
        fill: #0d2139;
      }

      .st1 {
        fill: #f0b501;
      }
    </style>
  </defs>
  <path class="st0" d="M286.13,206.63c.35.05,5.99,1.75,6.7,2.02,12.11,4.55,14.56,23.91.85,28.5,0,.83,4.93,2.34,6.01,3.09.49.34,4.69,4.35,4.83,4.66.27.58,1.91,6.63,1.92,7.3.02,1.49-1.75,7.33-2.42,8.82-1.41,3.15-7.58,7.33-10.81,8.18-.92.24-6.71,1.63-7.08,1.63h-34.48v-64.21c10.59,1.12,24.28-1.51,34.48,0ZM280.79,222.67c-1.13-1.13-6.43-1.61-7.39-.24l-.35,8.77,8.37-1.54c.85-1.21.44-5.93-.63-6.99ZM273.05,255.77c3.73.82,11.97-1.42,11.97-5.94-1.16-5.39-7.06-6.61-11.97-5.95v11.89Z"/>
  <path class="st0" d="M441.89,200.29v40.03c0,.27,1.05,1.17.8,1.98l9.5-16.64h24.57l-14.87,21.66,16.45,23.53h-26.16l-8.71-16.26c-.44-.78-1.59.71-1.59.8v15.46h-21.4v-69.36l1.19-1.19h20.21Z"/>
  <path class="st0" d="M416.52,270.83h-21.4v-26.55c0-1.64-4.57-2.66-6.34-1.58-.17.1-2.38,2.97-2.38,3.16v24.97h-20.21l-1.19-1.19v-43.99h21.4c.51,9.1,2.15,3.14,4.64,1.69,6.92-4.04,15.23-4.75,21.14,1.46,1.03,1.09,4.34,7.5,4.34,8.35v33.69Z"/>
  <path class="st0" d="M341.22,269.25v-4.36s-1.57-.38-1.57-.38c.04.61-.11,1.15-.6,1.55-.79.65-5.94,4.66-6.33,4.74-1.98.44-10.12.26-12.08-.4-4.02-1.36-9.05-8.63-10.5-12.5-2.32-6.19-2.1-11.79-.4-18.15,2.8-10.48,9.06-17.42,20.72-15.64l10.75,6.29,1.19-4.75h18.63v43.6h-19.82ZM339.27,252.26c7.53-10.32-9.33-17.8-9.72-5.39-.17,5.56,1.58,8.19,7.34,7.36.86-.12,1.89-1.31,2.37-1.97Z"/>
  <path class="st1" d="M116.1,270.83h-20.21l-1.19-1.19v-26.16c0-2.58-7.13-.57-7.13,1.59v25.76h-21.4v-42.41l1.19-1.19h18.63c.47,8.86,2.06,3.41,4.56,1.56,6.56-4.87,17.89-4.74,22.84,2.35.39.56,2.72,4.91,2.72,5.2v34.48Z"/>
  <path class="st1" d="M206.47,257.36c.33,1.29-1.06.47-1.37.97-.49.78.03,2.06-.44,2.76-.69,1.02-5.8,6.24-6.85,7.03-2.73,2.07-5.34,2.1-8.24,2.73-.65.14-.2,1.44-1.68,1.64-4.76.63-14.07-.25-18.46-1.9-1.36-.51-8.44-6.6-9.69-8.29-2.6-3.52-5.55-11.22-4.75-15.6.2-1.09,1.11-1.8,1.33-2.63.48-1.84,1.01-5.5,2.03-7.07,5.99-9.25,18.08-12.77,28.74-11.38,7.47.97,17.41,9.05,19.17,16.5.76,3.21-.61,6.68,1,9.7h-29.72c-3.58,3.96.05,8.99,4.76,8.81,1.9-.08,2.55-3.26,2.77-3.26h21.4ZM186.65,243.09c.91-6.23-3.68-6.08-8.56-5.37l-1.75,5.37h10.31Z"/>
  <path class="st0" d="M251.65,288.27v-7.14s185.79-.71,185.79-.71c8.99.57,18,.48,27,.75,4.5.14,9-.53,13.43-.12,1.02.76.9,6.37-.71,7.22h-225.51Z"/>
  <polygon class="st1" points="146.23 211.38 146.23 227.24 152.57 227.24 152.57 242.3 147.54 242.42 146.23 243.49 146.23 270.83 124.82 270.83 124.82 242.3 118.48 242.3 118.48 227.24 124.82 227.24 124.82 211.38 146.23 211.38"/>
  <path class="st1" d="M62.2,208.21v60.64c0,.28,1.41.88-.4,1.98h-21.4v-62.62h21.8Z"/>
  <path class="st1" d="M246.1,225.65v19.82c-4.78-1.52-5.73-2.48-10.41.11-1.37.75-1.95,3.04-3.85,3.06v22.19h-21.4v-43.6h20.61c-.24,1.28.11,4.38,1.97,3.96,3.81-3.54,7.56-6.57,13.09-5.54Z"/>
</svg>