<?xml version="1.0" encoding="UTF-8"?>
<svg id="Layer_1" xmlns="http://www.w3.org/2000/svg" version="1.1" viewBox="0 0 500 500">
  <!-- Generator: Adobe Illustrator 29.2.1, SVG Export Plug-In . SVG Version: 2.1.0 Build 116)  -->
  <defs>
    <style>
      .st0 {
        fill: #0d2139;
      }

      .st1 {
        fill: #f0b501;
      }
    </style>
  </defs>
  <path class="st0" d="M215.33,246.85c.34,3.07-.65,6.37.45,9.41,1.25,1.84,5.01.58,6.81.97,14.01,3.02,39.28,12.47,53.22,17.92,1.64.64,3.36.26,2.82,2.84l-2.09,6.23c-1.39-1.02-2.84-.72-4.14-1.05,4.93.84,4.82,18.32,4.14,22.3-.79,4.58-7.85,6.14-11.37,3.09-2.85-2.47-3.71-15.72-3.09-19.62.83-5.21,5.5-6.59,10.32-5.77-.13-.03-.04-1.01-2.48-1.12-5.84-.28-9.65.9-10.06,7.28-.64.2-1.32.12-1.99.07,1.37,4.18,2.85,16.8,1.61,20.81-1.91,6.18-12.37,5.94-13.85-.79-.39-1.77-.98-15.19-.59-16.67,1.91-7.21,7.9-3.75,12.83-3.35-1.38-4.2-5.29-3.94-9.65-2.91-4.09.97-1.73,2.82-7.99,1.87,2.01,5.52,3.58,17.17,1.38,22.6-1.27,3.14-10.13,3.12-11.83.57-2.19-3.29-2.87-16.66-1.8-20.37,1.67-5.77,8.28-3.4,12.25-2.8-1.29-3.55-1.32-3.39-5.69-3.14-15.01.86-5.88,17.61-9.85,26.52l-39.46,8.8c3.35,8.51,8.64,17.02,17.61,20.27,28.6-.83,60.45,2.76,88.81.53,4.25-.33,14.64-4.94,17.14-8.03,6.94-8.6,14.35-26.38,20.28-36.54,6.93-11.87,15.26-23.37,21.36-35.72,1.78-3.59,2.75-4.76,2.93-9l4.1,11.98c-.61,35.62,3.3,110.5-31.09,132.27-7.74,4.9-20.9,3-30.1,3.11-1.09-11.5-1.71-23.2-3.23-34.65-.26-1.96-.97-9.67-2.5-9.98-1.89-.38-12.66,8.86-15.31,10.61-19.01,12.56-53.61,30.38-76.09,32.87-4.19.47-9.2-1-12.87,1.14-15.94-1.2-25.36-7.35-34.25-19.72l45.17-36.29.49-3.14c-31.43-6.95-65.6-25.38-89.27-47.21-6.67-6.15-11.81-15.13-17.62-20.26-.19-.17-.82.17-1.04,0,.18-1.99.27-4.52-2.08-5.19-.07-.32.06-.69,0-1.04-.23-1.4-1.1-2.67-1.03-4.15,18.88,1.11,37.72,4.39,56.56,6.21,3.44.33,7.57.93,10.89.01,1.92,3.11,4.54,5.81,5.82,9.42,13.88-4.66,28.65-4.23,38.2-16.77,3.86-5.07,5.46-10.75,7.87-16.52l9.34,2.08Z"/>
  <path class="st0" d="M348.16,121.28c-16.42,11.51-35.3,20.48-51.8,31.74-1.7,1.16-4.59,2.1-4.24,4.58,10.31-.19,20.77,2.98,30.35,6.49,22.85,8.38,48.07,26.06,65.65,41.24,3.97,3.43,14.07,15.06,16.75,19.04.71,1.05,5.45,9.88,5.57,10.53.37,1.91-.14,1.51-1.56,1.57-19.24.84-38.39,3.22-57.62,4.15l-27.5-46.68-14.09,22.76c-1.77,1.23-8.62-5.98-11.8-6.05-2.77-.06-7.3,1.7-10.44,1.95-14.66,1.17-29.72.8-44.11,4.66-16.43,4.41-8.44,9.75-10.42,22.79-1.12,7.34-7.13,14.5-14.46,16.14-1-10.27-5.64-26.31-2.32-36.04,3.71-10.89,32.5-23.56,37.6-36.61,1.76,1.17,15.86,9.05,16.6,8.3.45-1.95-.61-2.86-1.41-4.29-3.47-6.21-8.39-12.39-12.07-18.54,2.12-3.75,4.22-7.59,6.23-11.41l-59.7-.04c-2.12.07-3.94,1.07-5.68,2.11,2.85-5.07,8.06-10.09,12.44-14.03,26-23.4,73.06-45.17,107.95-46.16,11.75-.33,23.48,9.46,29.52,18.78.67,1.04.36,2.67.58,3.01ZM311.58,191.07c-4.18-3.99-12.47.92-12.04,5.28.04.37,2.87,5.51,3.15,5.67.85.49,7.06.49,7.91,0,.28-.16,3.06-5.19,3.11-5.66.1-.87-1.54-4.72-2.14-5.29Z"/>
  <path class="st1" d="M326.37,396.29c34.38-21.77,30.47-96.65,31.09-132.27l-4.1-11.98c.19-4.37-.77-7.36-2.08-11.42,19.22-.93,38.38-3.31,57.62-4.15,1.41-.06,1.92.34,1.56-1.57-.13-.65-4.86-9.48-5.57-10.53-2.68-3.98-12.78-15.61-16.75-19.04-17.58-15.18-42.8-32.86-65.65-41.24-9.58-3.51-20.04-6.69-30.35-6.49-.36-2.48,2.54-3.42,4.24-4.58,16.5-11.26,35.38-20.23,51.8-31.74,20.65,32.56,44.04,70.51,61.77,104.79,10.1,19.53,8.47,30.65-1.4,49.5-19.22,36.7-42.98,72.69-63.51,108.77-4.92,5.62-11.24,10.35-18.66,11.95Z"/>
  <path class="st0" d="M189.38,99.48c.63,21.23-.84,42.64,0,63.87.08,2.01-1.07,4.16,2.08,3.59-15.84,23.24-28.11,50.77-43.04,74.74l-2.62,10.35c-14.11-34.54-11.66-81.26-2.08-117.27,4.67-17.55,25.96-37.11,45.66-35.28Z"/>
  <path class="st1" d="M145.79,252.04c2.41,5.89,4.97,11.21,8.3,16.6-3.32.92-7.45.32-10.89-.01-18.85-1.82-37.68-5.09-56.56-6.21-.07,1.47.81,2.75,1.03,4.15-2.8.59-2.03-1.38-2.55-3.11-3.35-11.08-2.06-21.39,2.37-31.84,12.95-30.58,37.54-60.89,51.89-91.32l4.33-5.53c-9.58,36.01-12.04,82.74,2.08,117.27Z"/>
  <path class="st1" d="M318.07,99.48c-34.89.99-81.95,22.76-107.95,46.16-4.38,3.94-9.59,8.96-12.44,14.03-3.68,2.18-4.14,4.2-6.23,7.26-3.14.57-2-1.58-2.08-3.59-.84-21.22.63-42.64,0-63.87h128.69Z"/>
  <path class="st1" d="M90.79,272.79c5.81,5.12,10.96,14.1,17.62,20.26,23.67,21.83,57.84,40.26,89.27,47.21l-.49,3.14-45.17,36.29c-2.29-3.19-4.35-6.33-6.41-9.67-17.55-28.58-37.45-61.76-52.93-91.32-1-1.91-2.08-3.61-1.89-5.9Z"/>
  <path class="st1" d="M296.27,399.4c-34.44.44-76.29,2.54-110.01,0,3.67-2.14,8.68-.67,12.87-1.14,22.48-2.5,57.08-20.31,76.09-32.87,2.66-1.75,13.42-11,15.31-10.61,1.53.31,2.24,8.02,2.5,9.98,1.52,11.45,2.14,23.16,3.23,34.65Z"/>
  <path class="st1" d="M89.75,272.79c-2.3-1.78-1.56-3.02-2.08-5.19,2.35.67,2.25,3.2,2.08,5.19Z"/>
  <path class="st1" d="M222.59,257.23c1.19-1.63,3.06-3.48,4.55-4.83.5-.46,1.96-.12,2.45-.62s.15-1.87.62-2.45c1.3-1.64,2.23-1.4,3.26-4.55,2.51-7.63.87-11.11.47-18.18-.31-5.48,5.81-6.21,10.4-7.28,11.03-2.57,27.49-4.19,38.91-4.68,7.63-.33,22.52-2.28,24.24,7.05,2.35,12.76-20.03,12.44-27.87,14.27-1.86.44-2.41.41-2.02,2.59l26.5-4.19c9.24-.29,11.71,7.12,8.88,14.96-9.31,4-19.57,4.76-29.37,7.19-1.05.26-3.14.3-2.89,1.76,7.86,1.12,19.98-3.98,27.29-1.86,5.8,1.68,5.46,11.13-1.06,14.09-8.96,4.06-19.11,4.35-28.31,7.5.54-2.57-1.19-2.2-2.82-2.84-13.93-5.45-39.21-14.9-53.22-17.92Z"/>
  <path class="st1" d="M205.98,244.77c1.69-4.06,2.58-8.07,4.95-12.15.66-1.14-.09-1.8,2.31-1.33-.29,5.26,1.51,10.45,2.08,15.56l-9.34-2.08Z"/>
  <path class="st1" d="M256.84,169.02c3.68,6.15,8.6,12.34,12.07,18.54.8,1.43,1.86,2.34,1.41,4.29-.74.75-14.84-7.13-16.6-8.3-6.55-4.36.23-9.43,3.11-14.53Z"/>
  <path class="st1" d="M283.53,278.19c2.96-.65,6.73-.22,8.48,2.5,1.65,2.56,1.67,16.06.93,19.39-1.48,6.68-11.61,6.16-13.04-.01-1.32-5.68-3.77-20.25,3.63-21.88Z"/>
  <path class="st1" d="M307.45,276.15c1.82,1.82,1.75,7.46.31,9.69-1.89,2.91-9,5.47-12.51,5.64-1.24-4.52.26-10.74-3.1-14.02-.05-1.94,12.63-3.99,15.31-1.31Z"/>
</svg>