<?xml version="1.0" encoding="UTF-8"?>
<svg id="Layer_1" xmlns="http://www.w3.org/2000/svg" version="1.1" viewBox="0 0 500 500">
  <!-- Generator: Adobe Illustrator 29.2.1, SVG Export Plug-In . SVG Version: 2.1.0 Build 116)  -->
  <defs>
    <style>
      .st0 {
        fill: #0d2139;
      }

      .st1 {
        fill: #f0b501;
      }
    </style>
  </defs>
  <path class="st0" d="M271.33,77.5c26.15.52,57.97,9.05,84.85,31.66,18.45,15.52,29.33,35.41,32.24,59.43,3.49,28.74-7.32,53.06-24.74,74.68-24.22,30.06-56.53,47.4-93.6,56.34-16.78,4.05-33.84,6.15-51.16,4.73-30.29-2.48-58.45-10.81-82.3-30.57-17.38-14.4-28.5-32.74-32.58-54.89-3.56-19.35.17-37.94,8.62-55.54,15.23-31.68,40.45-52.98,71.58-67.91,24.87-11.92,51.2-17.77,87.09-17.94ZM157.91,145.58c-2.77.74-4.24,2.59-5.64,4.37-6.65,8.43-12.57,17.29-16.53,27.37-5.15,13.1-7.6,26.47-4.35,40.43,4.48,19.2,15.98,33.43,32.27,43.82,23.25,14.82,48.98,18.84,76.11,17.02,24.61-1.65,47.21-9.43,68.69-21.04,3.71-2,7.55-3.91,11.26-8.35-2.82.97-4.46,1.33-5.91,2.07-17.52,8.99-36.42,13.24-55.79,14.59-27.12,1.9-53.22-2.56-76.8-17.06-30.22-18.58-45.38-52.04-31.15-86.75,2.28-5.55,5.81-10.48,7.83-16.46Z"/>
  <path class="st0" d="M43.97,203.52c2.08,3.04.37,5.78-.14,8.25-4.2,20.43-3.7,40.69,2.36,60.62,14.29,47.09,46.39,77.82,90.41,97.35,19.37,8.59,39.75,13.4,60.75,15.97,21.09,2.57,41.99,1.74,63.08-.74,35.56-4.17,68.5-15.61,98.98-33.94,38.68-23.27,68.83-54.43,85.71-97.07,9.2-23.25,11.84-47.43,8.54-72.1-1.53-11.41-4.56-22.62-9.65-33.22,3.28,2.63,4.91,6.42,6.63,9.92,10.98,22.3,17.18,45.82,16.08,70.8-1.31,29.72-10.46,57.09-26.17,82.32-24.2,38.87-58.52,65.9-99.41,85.34-26.12,12.42-53.72,19.87-82.22,23.77-17.86,2.44-35.9,1.97-53.91.4-28.74-2.5-56.03-9.96-81.66-23.12-33.75-17.33-60.18-42.16-76.44-76.89-9.04-19.31-14.37-39.7-13.67-61.08.52-15.87.9-31.97,7.64-46.92,1.35-2.99.88-6.6,3.1-9.67Z"/>
  <path class="st1" d="M415.85,156.87c7.06,11.43,9.1,23.51,9.88,35.87,2.95,46.34-18.17,81.93-50.94,111.83-31.87,29.08-70.1,45.1-112.33,52.2-13,2.19-26.06,4.27-39.27,3.51-40.88-2.35-79.3-11.98-111.66-38.92-21.45-17.87-35.06-40.6-40.05-67.92-2.69-14.73-3.52-29.87,1-44.65.07-.23.45-.38.79-.65,2.76,8.66,2.61,17.81,4.93,26.47,8.05,30.08,26.42,52.65,51.77,69.87,20.06,13.62,42.39,21.64,66.29,25.17,17.87,2.64,35.81,2.62,53.84,1.14,34.93-2.86,66.83-14.31,95.9-33.49,30.4-20.06,53.25-46.37,65.12-81.4,5.3-15.62,7.37-31.58,6.06-48.02-.28-3.51-2.31-6.77-1.36-11.01Z"/>
</svg>