<svg id="svg" version="1.1" xmlns="http://www.w3.org/2000/svg" xmlns:xlink="http://www.w3.org/1999/xlink" width="400" height="400" viewBox="0, 0, 400,400"><g id="svgg"><path id="path0" d="M188.800 79.614 C 137.381 86.903,105.517 123.445,113.399 166.084 C 119.292 197.959,143.101 216.732,191.600 227.740 C 209.078 231.708,210.590 232.135,217.988 235.192 C 230.957 240.552,236.142 249.058,231.608 257.534 C 226.594 266.906,207.624 269.396,185.640 263.566 C 168.061 258.905,158.885 252.892,143.094 235.688 C 139.488 231.758,138.386 231.672,135.156 235.064 C 133.003 237.326,122.391 249.280,115.152 257.600 C 112.377 260.790,108.551 265.110,106.651 267.200 C 104.751 269.290,102.825 271.757,102.372 272.682 L 101.546 274.363 102.376 276.238 C 104.550 281.153,122.619 297.093,133.500 303.694 C 165.438 323.072,217.538 327.130,252.194 312.938 C 282.921 300.355,299.600 276.270,299.600 244.480 C 299.600 203.296,273.198 180.204,212.400 168.214 C 188.946 163.589,178.577 156.900,179.732 147.141 C 180.594 139.863,187.689 135.568,200.890 134.331 C 219.036 132.632,236.092 138.471,251.158 151.540 C 257.073 156.671,254.671 158.045,276.722 136.920 C 297.187 117.315,296.325 118.866,290.574 112.000 C 275.130 93.560,255.432 83.562,227.400 79.932 C 217.919 78.704,196.467 78.527,188.800 79.614 " stroke="none" fill="#faf9f9" fill-rule="evenodd"></path><path id="path1" d="M0.000 200.000 L 0.000 400.000 200.000 400.000 L 400.000 400.000 400.000 200.000 L 400.000 0.000 200.000 0.000 L 0.000 0.000 0.000 200.000 M227.400 79.932 C 255.432 83.562,275.130 93.560,290.574 112.000 C 296.325 118.866,297.187 117.315,276.722 136.920 C 254.671 158.045,257.073 156.671,251.158 151.540 C 236.092 138.471,219.036 132.632,200.890 134.331 C 187.689 135.568,180.594 139.863,179.732 147.141 C 178.577 156.900,188.946 163.589,212.400 168.214 C 273.198 180.204,299.600 203.296,299.600 244.480 C 299.600 291.795,263.251 321.010,204.400 320.997 C 169.804 320.989,145.901 313.794,123.116 296.532 C 115.870 291.042,103.623 279.059,102.376 276.238 L 101.546 274.363 102.372 272.682 C 102.825 271.757,104.751 269.290,106.651 267.200 C 108.551 265.110,112.377 260.790,115.152 257.600 C 122.391 249.280,133.003 237.326,135.156 235.064 C 138.386 231.672,139.488 231.758,143.094 235.688 C 158.885 252.892,168.061 258.905,185.640 263.566 C 207.624 269.396,226.594 266.906,231.608 257.534 C 236.142 249.058,230.957 240.552,217.988 235.192 C 210.590 232.135,209.078 231.708,191.600 227.740 C 143.101 216.732,119.292 197.959,113.399 166.084 C 105.517 123.445,137.381 86.903,188.800 79.614 C 196.467 78.527,217.919 78.704,227.400 79.932 " stroke="none" fill="#8b040d" fill-rule="evenodd"></path></g></svg>