<svg width="26" height="23" viewBox="0 0 26 23" fill="none" xmlns="http://www.w3.org/2000/svg">
<path d="M8.33739 23C6.10896 23 4.01462 22.1605 2.43938 20.6355C-0.813127 17.4887 -0.813127 12.3674 2.43938 9.21999L11.9672 0L13.7818 1.75595L4.25396 10.9766C2.00242 13.156 2.00242 16.7008 4.25396 18.8802C5.34475 19.9358 6.79488 20.517 8.33739 20.517C9.87991 20.517 11.33 19.9358 12.4208 18.8802L22.3965 9.22682C23.0651 8.58045 23.4328 7.72048 23.4328 6.80649C23.4328 5.8925 23.0651 5.03253 22.3965 4.38554C21.0195 3.05367 18.7802 3.05181 17.3994 4.37933V4.37995L7.87156 13.6006C7.62645 13.8384 7.49106 14.1544 7.49106 14.4903C7.49106 14.8263 7.62645 15.1423 7.87156 15.3801C8.37846 15.87 9.20298 15.87 9.70988 15.3801L19.2383 6.15887L21.0529 7.91483L11.5251 17.1348C10.0179 18.594 7.56485 18.594 6.05762 17.1348C5.32743 16.4282 4.92512 15.4888 4.92512 14.4891C4.92512 13.4894 5.32743 12.55 6.05762 11.8434L15.579 2.62834C17.9589 0.325981 21.8319 0.32536 24.2117 2.62834C25.3648 3.74413 26 5.22812 26 6.80587C26 8.38362 25.3648 9.86761 24.2117 10.9828L14.2354 20.6362C12.6602 22.1605 10.5652 23 8.33739 23Z" fill="#182F48"/>
</svg>
