<?xml version="1.0" encoding="UTF-8"?>
<svg version="1.1" xmlns="http://www.w3.org/2000/svg" width="512" height="512">
<path d="M0 0 C1.20932693 -0.00779995 2.41865387 -0.01559991 3.66462708 -0.02363622 C7.02322587 -0.04015199 10.38043039 -0.03417949 13.73894501 -0.01870513 C17.36002954 -0.00741009 20.98099063 -0.02484507 24.60205078 -0.03860474 C31.69630498 -0.06086162 38.79029499 -0.05602517 45.88455963 -0.04154153 C51.64913607 -0.03025886 57.41363835 -0.02871416 63.17822266 -0.03416061 C63.99803273 -0.03492678 64.81784281 -0.03569294 65.66249561 -0.03648233 C67.32781857 -0.03808092 68.99314151 -0.03970199 70.65846443 -0.04134528 C86.28167499 -0.05560996 101.90473897 -0.03919884 117.52792549 -0.01234345 C130.93926334 0.00999601 144.35038481 0.00611608 157.76171875 -0.01693726 C173.32823755 -0.04368263 188.89462781 -0.05423659 204.46116638 -0.03887594 C206.12043252 -0.03728316 207.77969867 -0.0357113 209.43896484 -0.03416061 C210.6636156 -0.03300355 210.6636156 -0.03300355 211.91300678 -0.03182311 C217.67201632 -0.0275023 223.43094447 -0.03480082 229.18994141 -0.04655838 C236.20636464 -0.06056794 243.22250813 -0.05681625 250.23889923 -0.03015466 C253.82025045 -0.01699532 257.40113493 -0.01189935 260.98248291 -0.02840042 C264.86098289 -0.04600062 268.7387152 -0.02501549 272.6171875 0 C273.75452835 -0.01115361 274.8918692 -0.02230722 276.06367493 -0.03379881 C283.64341053 0.0615435 283.64341053 0.0615435 286.99633789 2.95170021 C288.65269889 6.3385227 289.05201629 9.49429767 289.30859375 13.19741821 C291.17830546 32.07332109 299.77785125 46.73683648 314.18359375 58.94741821 C325.66526495 67.74944127 338.88238922 70.67396273 353.0234375 71.81460571 C357.23013795 72.86503032 358.06917025 73.95533304 360.30859375 77.63491821 C360.87169897 80.57360854 360.83525749 83.44996911 360.79443359 86.4347229 C360.79823029 87.31213135 360.80202698 88.18953979 360.80593872 89.09353638 C360.8133513 91.99831841 360.79191813 94.90209956 360.76953125 97.80679321 C360.76714288 99.84725833 360.76624233 101.88772568 360.76675415 103.92819214 C360.7636228 108.2189196 360.74705715 112.5093138 360.72021484 116.79995728 C360.68665961 122.22505484 360.67875715 127.64978269 360.67984104 133.0749712 C360.6777594 176.36075532 360.6777594 176.36075532 358.30859375 196.63491821 C358.09783203 198.54603394 358.09783203 198.54603394 357.8828125 200.49575806 C357.51919029 203.49252194 357.09734896 206.46672201 356.62109375 209.44741821 C356.45375732 210.50179077 356.2864209 211.55616333 356.11401367 212.64248657 C348.32202383 259.22659815 329.33332693 301.76706781 301.30859375 339.63491821 C300.87305176 340.22353638 300.43750977 340.81215454 299.98876953 341.41860962 C284.07697355 362.77504167 266.48547596 381.44944798 245.30859375 397.63491821 C244.72480957 398.08625122 244.14102539 398.53758423 243.53955078 399.00259399 C232.99752087 407.12648542 221.86618059 414.04991264 210.30859375 420.63491821 C209.54595215 421.0719104 208.78331055 421.50890259 207.99755859 421.95913696 C190.06657976 432.12276133 170.86543153 439.95488837 151.12109375 445.82241821 C150.14825439 446.11398804 149.17541504 446.40555786 148.1730957 446.70596313 C139.09003323 449.26662644 132.16672566 448.99815051 123.18359375 446.13491821 C122.32032471 445.86574585 121.45705566 445.59657349 120.56762695 445.31924438 C117.80740613 444.44515378 115.05696122 443.54555977 112.30859375 442.63491821 C111.41736816 442.34052856 110.52614258 442.04613892 109.60791016 441.74282837 C81.5319028 432.32631618 54.86644566 418.63939541 31.30859375 400.63491821 C30.72674316 400.1943811 30.14489258 399.75384399 29.54541016 399.29995728 C22.31276928 393.80478823 15.41164974 388.08421991 8.7578125 381.89663696 C6.63141059 379.93302181 4.4612518 378.05885841 2.24609375 376.19741821 C-6.03529728 368.98295486 -13.01818983 360.32103925 -19.69140625 351.63491821 C-20.49819824 350.5883606 -20.49819824 350.5883606 -21.32128906 349.5206604 C-72.11765325 283.42254046 -88.32024902 212.58286287 -88.13745117 130.47988892 C-88.12575921 124.96573259 -88.1465562 119.45219768 -88.17536831 113.93812275 C-88.19366523 109.64962214 -88.19345464 105.36127417 -88.18773079 101.07274437 C-88.18757795 99.03658336 -88.19359157 97.00041178 -88.20602226 94.96428871 C-88.22087069 92.14485666 -88.21031477 89.32662648 -88.19311523 86.50723267 C-88.2027832 85.67781158 -88.21245117 84.8483905 -88.22241211 83.99383545 C-88.17141375 80.00909603 -87.97311576 78.08046611 -85.7902832 74.62812805 C-83.48890344 72.44261033 -82.49175587 71.95273822 -79.3828125 71.66616821 C-78.55966553 71.57303345 -77.73651855 71.47989868 -76.88842773 71.38394165 C-76.01903564 71.30176392 -75.14964355 71.21958618 -74.25390625 71.13491821 C-56.40446417 68.93243287 -41.2828447 61.72534008 -29.69140625 47.63491821 C-21.87980358 36.56820373 -17.48716532 24.64705128 -16.54931641 11.15298462 C-15.5822307 0.07722082 -9.51917646 -0.09335211 0 0 Z M1.30859375 16.63491821 C-0.256512 22.09854499 -0.256512 22.09854499 -1.734375 27.58023071 C-7.76338667 49.94711967 -20.20859237 66.9250258 -40.234375 78.81460571 C-47.97936097 82.89275652 -55.95167518 85.26453885 -64.43359375 87.20401001 C-65.60519043 87.47247238 -66.77678711 87.74093475 -67.98388672 88.01753235 C-69.32410889 88.32313835 -69.32410889 88.32313835 -70.69140625 88.63491821 C-70.7619641 99.0517213 -70.81473964 109.4684645 -70.84684277 119.88546085 C-70.86227664 124.72626954 -70.88308791 129.5669109 -70.91772461 134.40762329 C-71.25332881 182.6352355 -67.16729321 228.87672809 -47.69140625 273.63491821 C-47.38654297 274.34631958 -47.08167969 275.05772095 -46.76757812 275.79067993 C-29.98329561 314.58847336 -1.34231426 353.70210837 32.30859375 379.63491821 C33.16396729 380.30490845 33.16396729 380.30490845 34.03662109 380.98843384 C58.65801711 400.23753371 85.83790445 415.20454856 115.30859375 425.63491821 C116.20465332 425.95637817 117.10071289 426.27783813 118.02392578 426.60903931 C120.59005904 427.51835839 123.16414844 428.39663288 125.74609375 429.25991821 C126.49681152 429.52022827 127.2475293 429.78053833 128.02099609 430.04873657 C137.53707136 433.08049229 145.47964439 429.83622802 154.55859375 426.63491821 C156.27961304 426.03151611 156.27961304 426.03151611 158.03540039 425.41592407 C168.40747984 421.71289773 178.41903074 417.47291872 188.30859375 412.63491821 C189.0871875 412.25786743 189.86578125 411.88081665 190.66796875 411.49234009 C223.48076053 395.43906199 254.85931868 371.63035752 277.30859375 342.63491821 C277.79827637 342.01101196 278.28795898 341.38710571 278.79248047 340.74429321 C301.29316998 312.06600485 318.85244994 281.34351087 330.30859375 246.63491821 C330.56866211 245.86373657 330.82873047 245.09255493 331.09667969 244.29800415 C343.31350684 207.71529981 343.79160358 169.08958045 343.5145874 130.96200562 C343.48321926 126.16682078 343.47005553 121.37158353 343.45507812 116.57632446 C343.42344538 107.26239158 343.37264063 97.94868094 343.30859375 88.63491821 C342.75888412 88.4932724 342.2091745 88.35162659 341.64280701 88.20568848 C339.13351329 87.55737288 336.62535109 86.90477919 334.1171875 86.25210571 C332.81992737 85.91795654 332.81992737 85.91795654 331.49645996 85.57705688 C325.79625046 84.08957104 320.49984787 82.46386006 315.30859375 79.63491821 C313.93574219 78.93302368 313.93574219 78.93302368 312.53515625 78.21694946 C294.64626401 68.53671343 282.62383629 53.0989018 276.015625 33.87319946 C274.30933317 28.07673517 273.1675132 22.64735434 272.30859375 16.63491821 C182.87859375 16.63491821 93.44859375 16.63491821 1.30859375 16.63491821 Z " fill="#000000" transform="translate(119.69140625,31.365081787109375)"/>
<path d="M0 0 C1.45894464 -0.00701996 1.45894464 -0.00701996 2.9473629 -0.01418173 C6.20935033 -0.02615614 9.47091954 -0.01666475 12.73291016 -0.00723267 C15.07033534 -0.01129727 17.40775861 -0.01663852 19.74517822 -0.02316284 C26.09630278 -0.03685538 32.44728136 -0.03152971 38.79840851 -0.02202559 C44.7669081 -0.01520775 50.73538955 -0.02040764 56.70388961 -0.02480717 C69.24542095 -0.0333612 81.7868865 -0.02352675 94.32840705 -0.00740607 C105.08892541 0.00599714 115.84934667 0.00366905 126.60986328 -0.01016235 C139.10660463 -0.02621796 151.60328831 -0.03253722 164.10003853 -0.02332556 C170.71488909 -0.01864446 177.32967276 -0.01803626 183.94451904 -0.02793503 C190.16286641 -0.03659017 196.38103011 -0.03060916 202.5993576 -0.01325226 C204.88386479 -0.00927968 207.1683874 -0.01043459 209.45288849 -0.01704025 C212.56678399 -0.02521514 215.68008771 -0.01498285 218.79394531 0 C219.7020162 -0.00669217 220.61008709 -0.01338433 221.54567528 -0.02027929 C226.31319823 0.0243392 229.53465886 0.25981691 233.39697266 3.38095093 C234.57202148 5.27523804 234.57202148 5.27523804 235.35400391 7.40829468 C235.65749756 8.19470337 235.96099121 8.98111206 236.27368164 9.79135132 C236.58249268 10.62529419 236.89130371 11.45923706 237.20947266 12.31845093 C242.17524395 24.84201052 248.9074875 34.73224622 258.39697266 44.38095093 C259.14462891 45.1414978 259.89228516 45.90204468 260.66259766 46.68563843 C270.68144857 56.2732143 282.36382449 62.43259825 295.35009766 66.99423218 C298.66550035 68.50316546 299.60409969 69.28399682 301.39697266 72.38095093 C301.77119446 75.24404907 301.77119446 75.24404907 301.76928711 78.60458374 C301.7755159 79.8682074 301.78174469 81.13183105 301.78816223 82.43374634 C301.77945506 83.81719341 301.77013504 85.20063674 301.76025391 86.58407593 C301.75973402 88.02302042 301.76025669 89.46196563 301.76176453 90.90090942 C301.7616747 93.93065903 301.75124957 96.96014323 301.7331543 99.98983765 C301.71086854 103.79750341 301.71003769 107.60477185 301.71640587 111.41248417 C301.74351341 132.83119439 301.38862873 154.28993052 297.64697266 175.44345093 C297.4777832 176.41911011 297.30859375 177.39476929 297.13427734 178.3999939 C287.30759268 232.72602592 260.23148315 280.63981944 222.39697266 320.38095093 C221.37023437 321.46956421 221.37023437 321.46956421 220.32275391 322.58016968 C215.07386187 327.99941115 209.35523001 332.76449511 203.39697266 337.38095093 C202.72230957 337.90495483 202.04764648 338.42895874 201.35253906 338.96884155 C176.91724588 357.80247426 149.46500925 372.2769033 120.14697266 381.94345093 C119.37313232 382.20722534 118.59929199 382.47099976 117.80200195 382.74276733 C109.43283691 385.38335007 102.64279976 383.03827577 94.58447266 380.31845093 C93.20449097 379.85426758 93.20449097 379.85426758 91.79663086 379.38070679 C82.73045979 376.26087045 74.05138908 372.49109528 65.39697266 368.38095093 C64.3948877 367.91567993 64.3948877 367.91567993 63.37255859 367.44100952 C31.54846202 352.62580356 2.18206699 329.89896482 -19.60302734 302.38095093 C-20.55953114 301.21278383 -21.51796643 300.04619637 -22.47802734 298.88095093 C-43.82257885 272.84732619 -60.71084474 242.60209161 -70.60302734 210.38095093 C-70.86954102 209.51679565 -71.13605469 208.65264038 -71.41064453 207.76229858 C-74.52829484 197.46352251 -77.02401717 187.11088606 -78.85302734 176.50595093 C-79.00408936 175.64775757 -79.15515137 174.78956421 -79.31079102 173.90536499 C-82.71429715 152.6435297 -82.9540446 131.20950665 -82.91870117 109.73739624 C-82.91279849 105.84617937 -82.930162 101.955422 -82.95304585 98.06428146 C-82.96774215 95.03426349 -82.96866269 92.00435911 -82.96553612 88.97431183 C-82.96604728 87.53740752 -82.97124626 86.10049652 -82.98134804 84.66362762 C-82.9936695 82.67458244 -82.98499356 80.68544054 -82.9753418 78.69638062 C-82.97597122 77.56963928 -82.97660065 76.44289795 -82.97724915 75.28201294 C-82.56094389 72.05470936 -81.82655602 70.71112765 -79.60302734 68.38095093 C-77.70874023 67.31942749 -77.70874023 67.31942749 -75.57568359 66.52157593 C-74.39607056 66.06150146 -74.39607056 66.06150146 -73.19262695 65.59213257 C-72.35868408 65.27494263 -71.52474121 64.95775269 -70.66552734 64.63095093 C-58.1718631 59.61112257 -48.24554778 52.86435387 -38.60302734 43.38095093 C-37.84248047 42.63329468 -37.08193359 41.88563843 -36.29833984 41.11532593 C-26.71232194 31.09810306 -20.53933621 19.45385464 -16.08740234 6.42782593 C-12.70883612 -0.50712579 -6.84297031 -0.0504303 0 0 Z M-1.60302734 17.38095093 C-4.24302734 22.99095093 -6.88302734 28.60095093 -9.60302734 34.38095093 C-23.36772505 55.29614095 -41.25802366 73.2659497 -65.60302734 81.38095093 C-65.65011538 88.67633951 -65.68527324 95.97169347 -65.70665169 103.26720524 C-65.71693083 106.65765496 -65.7319431 110.04791856 -65.75390625 113.43832397 C-65.88355692 133.99558162 -65.59796605 154.52775006 -61.91552734 174.81845093 C-61.74964111 175.7461731 -61.58375488 176.67389526 -61.4128418 177.62973022 C-52.17148873 226.43600929 -25.47430141 279.89864532 13.00634766 312.35751343 C14.81230426 313.88608454 16.58867765 315.44970223 18.35009766 317.02938843 C39.15978962 335.58904799 63.6485034 349.83959599 89.39697266 360.38095093 C90.18185059 360.70386108 90.96672852 361.02677124 91.77539062 361.35946655 C94.03478281 362.27172271 96.30435671 363.14696129 98.58447266 364.00595093 C99.24286133 364.26618042 99.90125 364.52640991 100.57958984 364.79452515 C109.3523522 367.93338298 116.98952859 365.17107612 125.27197266 361.88095093 C126.63890259 361.34582886 126.63890259 361.34582886 128.03344727 360.79989624 C151.04063026 351.6472075 171.98849068 339.77598469 191.39697266 324.38095093 C192.37923828 323.61138062 193.36150391 322.8418103 194.37353516 322.04891968 C204.47219395 313.97290292 214.12855831 305.33939283 222.39697266 295.38095093 C223.17943359 294.50954468 223.96189453 293.63813843 224.76806641 292.74032593 C252.52099029 261.58908483 270.27920288 221.24819937 278.77197266 180.69345093 C279.11156006 179.07817505 279.11156006 179.07817505 279.45800781 177.43026733 C280.17886936 173.75771877 280.80867106 170.07647927 281.39697266 166.38095093 C281.52927277 165.57139954 281.66157288 164.76184814 281.79788208 163.92776489 C284.51842182 146.77192119 284.77443944 129.77347496 284.60296631 112.45571899 C284.57158189 108.93476018 284.5584312 105.41372973 284.54345703 101.89266968 C284.51183673 95.0552641 284.46104213 88.21812791 284.39697266 81.38095093 C283.25534668 80.86000854 282.1137207 80.33906616 280.9375 79.80233765 C279.41082447 79.09708631 277.88430269 78.39150206 276.35791016 77.68563843 C275.23437134 77.17456543 275.23437134 77.17456543 274.08813477 76.65316772 C248.24472151 64.64893728 231.70166 42.81649746 220.39697266 17.38095093 C147.13697266 17.38095093 73.87697266 17.38095093 -1.60302734 17.38095093 Z " fill="#000000" transform="translate(146.60302734375,63.619049072265625)"/>
<path d="M0 0 C3.66092895 3.07785671 7.12910193 6.3063194 10.56542969 9.63037109 C12.72040064 11.68778891 14.95536275 13.65201181 17.1875 15.625 C21.14163701 19.16790676 24.90665352 22.85231845 28.6015625 26.6640625 C30.58715605 28.5979142 32.60481954 30.41451626 34.69921875 32.2265625 C39.33755652 36.25919555 43.78881425 40.45823956 48.1875 44.75 C48.96802734 45.48476563 49.74855469 46.21953125 50.55273438 46.9765625 C58.36178285 54.63327161 63.11784584 64.00457847 64 75 C64.13600551 89.58659142 59.74311058 102.66821372 50 113.6875 C40.53328007 122.62357419 28.62580912 125.41782578 16.03125 125.21875 C9.84480333 124.98262608 3.97754708 123.5313845 -2 122 C-3.40733878 121.64758458 -4.81489932 121.29605384 -6.22265625 120.9453125 C-8.31570931 120.42352889 -10.40755477 119.89892833 -12.49584961 119.35839844 C-32.76587826 114.14647542 -51.2095489 117.81721566 -70.98999023 123.24389648 C-84.69736901 126.68714023 -98.92402466 126.48879662 -111.48828125 119.64453125 C-123.153141 112.3319385 -129.95694374 102.07342245 -133.52734375 88.75390625 C-135.75751661 75.75992387 -133.82830599 64.19070571 -126.375 53.3125 C-122.90417803 48.83175194 -119.07275685 45.13301666 -114.77734375 41.453125 C-111.49955014 38.55797115 -108.44236144 35.48963998 -105.375 32.375 C-101.32305702 28.27438679 -97.22151683 24.33902373 -92.82421875 20.60546875 C-90.79194494 18.81689372 -88.89942105 16.92881247 -87 15 C-76.9582627 4.86058043 -66.59246175 -3.22678984 -53 -8 C-52.29746094 -8.2475 -51.59492188 -8.495 -50.87109375 -8.75 C-34.26787373 -13.4287939 -13.94176635 -9.83646489 0 0 Z M-74.44921875 27.41015625 C-76.56586607 29.55921777 -78.7036342 31.54972599 -81 33.5 C-84.8496396 36.78165999 -88.38002309 40.35105176 -91.92919922 43.94873047 C-94.57704273 46.61863168 -97.26947218 49.17902996 -100.125 51.625 C-101.41836587 52.74804608 -102.70996394 53.87313056 -104 55 C-104.77601563 55.67289063 -105.55203125 56.34578125 -106.3515625 57.0390625 C-113.13222513 63.28964076 -116.31105007 69.38997911 -117.4375 78.5625 C-116.16481704 88.56215187 -112.64966501 96.23983092 -105 103 C-96.14656376 108.82411479 -87.56623013 109.12303651 -77.234375 107.35595703 C-73.46714447 106.49640979 -69.73424913 105.55532066 -66 104.5625 C-63.47956841 103.91639952 -60.95874855 103.27181137 -58.4375 102.62890625 C-57.34308594 102.34088135 -56.24867188 102.05285645 -55.12109375 101.75610352 C-35.48781848 96.99982586 -15.13139827 100.41975972 4 105.6875 C15.05599206 108.72271722 23.70779149 109.33629252 34.12890625 103.88671875 C40.91047644 99.52438043 44.35557865 92.45150594 46.64453125 84.86328125 C47.9080771 78.24007937 47.09794809 71.96678747 44 66 C38.70267017 58.80653421 31.7994907 52.93769191 25.2109375 46.95703125 C22.28150735 44.28464509 19.47237759 41.51093744 16.6875 38.6875 C13.24941411 35.20505172 9.71206849 31.94890603 5.98828125 28.77734375 C3.75528886 26.78125036 1.70225962 24.65729414 -0.375 22.5 C-10.37868488 12.44492633 -20.70290259 6.67545164 -35 6.5 C-52.09206954 6.7271898 -62.92057106 15.52276704 -74.44921875 27.41015625 Z " fill="#000000" transform="translate(291,232)"/>
<path d="M0 0 C8.48628838 5.1923753 13.00228539 14.34062945 15.4765625 23.69921875 C18.85289299 38.53995499 17.06611144 53.91981929 9 67 C4.97625209 72.97813975 -1.09393243 77.39998582 -7.98828125 79.6484375 C-17.19481513 81.25734633 -25.09391039 79.74989817 -32.96875 74.75 C-42.17183346 67.6458654 -46.43154899 56.1734784 -48 45 C-48.92261572 30.50428766 -46.8904024 16.29198704 -37.21875 4.90234375 C-26.43389184 -5.50681238 -13.01809463 -6.32138131 0 0 Z M-23 16 C-30.22272126 23.85313334 -31.45083285 31.39879915 -31.24609375 41.81640625 C-30.64058752 49.64954244 -27.94853021 55.74958581 -22 61 C-19.1369694 62.72798297 -18.08793862 63.00162849 -14.625 62.9375 C-10.41967523 61.84991601 -7.71993523 60.33309982 -5 57 C-0.25595987 48.66015875 1.35765694 39.79826749 -0.53125 30.33984375 C-1.93802482 25.27086707 -3.72891677 21.19107539 -7 17 C-7.4125 16.401875 -7.825 15.80375 -8.25 15.1875 C-13.16480518 11.85245363 -18.67784731 12.24655161 -23 16 Z " fill="#000000" transform="translate(310,131)"/>
<path d="M0 0 C7.99674975 6.7229312 12.81975025 16.81497469 14.3125 27.0625 C15.46172628 41.98625539 12.80441784 56.38939089 3.4609375 68.453125 C-2.51393058 74.88027393 -8.70227225 78.15986574 -17.5 78.6875 C-25.93453211 78.37550838 -33.27966688 74.52336978 -39.5625 69 C-48.79722056 58.81697072 -51.20256714 45.13163384 -51.00390625 31.9140625 C-50.05115058 20.3163207 -45.07853226 8.26706488 -36.6875 0.0625 C-24.68598481 -7.25743241 -11.88919926 -8.30421073 0 0 Z M-26.6875 15.0625 C-32.85638009 22.95729945 -34.54421277 31.18990526 -33.6875 41.0625 C-32.4370445 48.18694395 -29.65455941 53.78499937 -24.6875 59.0625 C-20.95530844 61.55062771 -19.2035216 61.33220811 -14.90234375 60.71875 C-11.22928331 59.6304358 -9.48521023 57.25326982 -7.6875 54.0625 C-2.88540558 44.80015517 -1.10796502 36.08593058 -3.9375 25.875 C-5.28553706 21.78001951 -7.01697163 18.48411447 -9.6875 15.0625 C-10.1 14.464375 -10.5125 13.86625 -10.9375 13.25 C-16.64776326 9.3751785 -21.92276998 10.72130154 -26.6875 15.0625 Z " fill="#000000" transform="translate(235.6875,132.9375)"/>
<path d="M0 0 C0.886875 0.763125 1.77375 1.52625 2.6875 2.3125 C3.24824219 2.77269531 3.80898437 3.23289063 4.38671875 3.70703125 C13.5888124 11.91106702 17.98587497 24.55657099 18.8515625 36.59375 C19.21567078 47.05358784 16.5210071 56.28353303 9.6875 64.3125 C4.69078686 69.43444405 -1.28621788 70.92709212 -8.3125 71.3125 C-16.76181504 70.66458695 -22.78209545 66.46801689 -28.57421875 60.49609375 C-38.39279779 48.16219334 -39.60884082 33.42459311 -38.3125 18.3125 C-36.90190271 11.58811859 -33.54026045 5.8105273 -28.3125 1.3125 C-19.30419928 -4.49245606 -9.6531835 -4.91765952 0 0 Z M-18.3125 16.3125 C-22.63668329 22.17509465 -21.98607456 28.32229287 -21.3125 35.3125 C-19.74930768 42.08633338 -17.22983385 47.39516615 -12.3125 52.3125 C-9.386584 53.775458 -7.55632653 53.75773109 -4.3125 53.3125 C-0.24914873 49.97152229 0.99547243 47.31892733 1.6875 42.125 C2.11437159 32.88448554 -0.6672886 24.60996839 -6.3125 17.3125 C-10.49926285 12.7856955 -13.26949412 12.43326471 -18.3125 16.3125 Z " fill="#000000" transform="translate(169.3125,187.6875)"/>
<path d="M0 0 C6.99567938 6.40407859 10.78064497 13.19267829 11.37890625 22.69921875 C11.71119383 32.07593108 11.45895574 40.54048585 7 49 C6.57589844 49.85722656 6.15179688 50.71445313 5.71484375 51.59765625 C1.58794637 59.21919654 -4.46274225 66.40608393 -13 69 C-20.8535818 69.80693911 -28.59740265 70.1105934 -35 65 C-42.41077562 58.21929033 -45.40432674 50.81639552 -46.16015625 40.8984375 C-46.66419451 27.44280742 -42.67772815 15.34383409 -34.625 4.625 C-25.24015713 -4.75984287 -11.2867891 -8.9929382 0 0 Z M-16.9375 12.8125 C-24.45268312 18.18048794 -27.42857952 25.05599845 -29 34 C-29.76379002 39.97241361 -28.50543821 44.61794755 -26 50 C-22.48746854 52.34168764 -21.13530644 52.49623677 -17 52 C-11.04122748 47.95888582 -8.29132357 42.71357806 -6 36 C-5.02846039 28.67427794 -4.90931082 21.34762114 -9 15 C-11.98182753 12.25994227 -13.00119717 11.72373539 -16.9375 12.8125 Z " fill="#000000" transform="translate(370,189)"/>
</svg>
