<?xml version="1.0" encoding="UTF-8"?>
<svg id="Layer_1" xmlns="http://www.w3.org/2000/svg" version="1.1" viewBox="0 0 500 500">
  <!-- Generator: Adobe Illustrator 29.2.1, SVG Export Plug-In . SVG Version: 2.1.0 Build 116)  -->
  <defs>
    <style>
      .st0 {
        fill: #0d2139;
      }

      .st1 {
        fill: #f0b501;
      }
    </style>
  </defs>
  <path class="st0" d="M250.12,43.25c114.13-.09,206.73,92.5,206.72,206.69,0,113.54-92.41,206.19-205.11,206.81-115.23.64-207.35-92.34-208.55-204.62-1.24-115.96,92.97-209.52,206.94-208.88ZM63.17,249.78c.08,103.93,84.72,189.28,191.38,186.92,98.92-2.18,183-82.62,182.24-188.67-.74-102.12-84.36-187.54-192.13-184.81-100.37,2.55-180.99,84.25-181.48,186.56Z"/>
  <path class="st1" d="M191.24,297.52c-15.17,0-30.34-.07-45.51.02-17.8.11-32.8-16.49-30.28-34.11,4.21-29.39,18.27-53.46,40.6-72.75,6.14-5.31,13.67-7.72,21.85-7.3,3.35.17,5.1-.46,6.61-4,4.81-11.32,14.61-16.63,25.88-19.89,29.48-8.52,58.79-8.22,87.92,1.61,10.05,3.39,17.07,10.23,21.54,19.67.91,1.92,1.51,2.5,3.71,2.13,7.7-1.28,15.13.43,21.03,5.24,23.07,18.8,38.33,42.65,43.37,72.19,3.59,21.06-10.75,37.01-32.17,36.95-21.47-.06-42.93-.3-64.4-.36-8.44-.02-16.88.37-25.31.25-3.51-.05-4.3,1.25-4.27,4.51.13,18.33-.03,36.66.12,54.98.03,3.28-.69,4.6-4.21,4.33-4.13-.32-8.31-.24-12.45-.01-3.08.17-3.88-1-3.87-3.95.09-18.47-.09-36.94.08-55.41.03-3.42-.92-4.39-4.25-4.36-15.32.14-30.64.06-45.96.06v.2ZM251.02,173.98c-3.05.19-6.91.35-10.75.7-10.41.95-20.62,2.97-30.34,6.87-7.81,3.14-10.72,10.96-6.73,17.85,14.17,24.52,28.43,48.99,42.71,73.44,2.88,4.94,8.48,5.04,11.31.2,14.31-24.43,28.61-48.86,42.76-73.39,4.27-7.4,1.01-15.22-7.12-18.33-13.21-5.05-27-6.86-41.83-7.35ZM180.1,276.94s0-.04,0-.05c11.01,0,22.03.02,33.04,0,7.15-.02,9.18-3.36,5.69-9.48-10.62-18.61-21.28-37.2-31.97-55.76-5.55-9.64-12.26-10.66-20.31-3.09-16.09,15.13-26.33,33.53-30.55,55.24-1.42,7.32,3.26,13.13,10.64,13.14,11.16.02,22.31,0,33.47,0ZM367.75,265.25c.1-1.78-.57-4.12-1.15-6.47-4.93-20.31-15.32-37.39-30.75-51.37-6.94-6.28-14-4.87-18.68,3.32-3.26,5.71-6.53,11.41-9.8,17.11-7.67,13.38-15.37,26.75-23.01,40.15-2.75,4.82-.95,8.13,4.48,8.46.29.02.57,0,.86,0,22.59.18,45.19-.46,67.79.34,5.86.21,10.28-4.71,10.26-11.55Z"/>
</svg>