<?xml version="1.0" encoding="UTF-8"?>
<svg id="Layer_1" xmlns="http://www.w3.org/2000/svg" version="1.1" viewBox="0 0 500 500">
  <!-- Generator: Adobe Illustrator 29.2.1, SVG Export Plug-In . SVG Version: 2.1.0 Build 116)  -->
  <defs>
    <style>
      .st0 {
        fill: #0d2139;
      }

      .st1 {
        fill: #f0b501;
      }
    </style>
  </defs>
  <path class="st0" d="M128.29,158.1c.25-.27,2.33-.28,3.33-1.29,8.2-8.31,19.81-17.62,31.13-21.06,3.04-.93,5.68-1.44,8.78-.31,48.74,25.97,113.55,29.32,119.45,96.92.75,8.56.47,17.48-1.18,25.86-8.8-2.67-63.99-35.43-68.09-32.79-1.49.96-6.32,14.36-7.03,17.07-4.38,16.8-1.81,32.85-.9,49.7.3,5.53-2.68,12.41,1.34,16.02,15.27,5.62,41.21,26.85,56.64,27.52,11.83.51,35.97-14.82,47.84-20.35,4.2-1.96,10.81-3.43,14.25-5.1,1.45,25.98-1.08,57.73-22.81,75.31-6.82,5.52-57.83,33.38-65.22,34.9-8.12,1.68-13.19.67-20.57-2.28-30.84-12.29-63.01-39.16-94.19-52.65-12.22-7.42-16.49-19.42-17.52-33.2-2.58-34.41.39-74.41.11-109.57-.16-20.69-1.51-47.83,14.63-64.69Z"/>
  <path class="st1" d="M128.29,158.1c-.71-14.86,3.39-25.91,16.14-33.92,25.15-15.81,61.52-25.6,87.09-42.4,11.36-4.76,17.81-2.65,28.5,1.34,25.09,9.35,59.51,25.58,83.68,37.8,20.6,10.42,35.23,27.21,40.73,50.04,5.02,20.82,3.07,79.04.05,101.16-1.58,11.58-10.87,17.36-20.11,22.61-9.02,5.12-21.03,10.95-30.5,15.56-3.44,1.68-10.05,3.15-14.25,5.1-11.87,5.52-36.01,20.86-47.84,20.35-15.44-.67-41.38-21.9-56.64-27.52-4.02-3.6-1.04-10.48-1.34-16.02-.92-16.85-3.49-32.9.9-49.7.71-2.71,5.54-16.11,7.03-17.07,4.1-2.64,59.29,30.12,68.09,32.79,1.65-8.38,1.92-17.3,1.18-25.86-5.9-67.6-70.71-70.95-119.45-96.92-3.11-1.13-5.74-.62-8.78.31-11.32,3.44-22.92,12.75-31.13,21.06-1,1.02-3.08,1.02-3.33,1.29Z"/>
</svg>