<?xml version="1.0" encoding="UTF-8"?>
<svg version="1.1" xmlns="http://www.w3.org/2000/svg" width="1042" height="1042">
<path d="M0 0 C0.85948242 0.62406738 0.85948242 0.62406738 1.73632812 1.26074219 C21.06064812 15.37891572 39.5582435 32.95476921 54 52 C54.97376657 53.2355538 55.94916036 54.46982611 56.92578125 55.703125 C78.69733504 83.41207407 95.89420669 114.12880601 112.05859375 145.33984375 C113.8846297 148.8640753 115.72676968 152.37828241 117.59765625 155.87890625 C121.92505652 163.97801119 126.06868929 172.13446452 130 180.43359375 C135.68877117 192.38079857 141.46205825 204.28539311 147.27905273 216.1706543 C148.3850458 218.43262421 149.48888653 220.69564778 150.59057617 222.9597168 C156.37972319 234.85586987 162.24463645 246.71226406 168.44140625 258.40234375 C168.91303696 259.31625381 169.38466766 260.23016388 169.87059021 261.17176819 C172.60879322 266.24897867 174.76763643 269.42007684 180 272 C183.56709633 272.49082791 183.56709633 272.49082791 187 271 C191.96184813 265.82773491 195.28510186 259.21132931 198.625 252.9375 C199.14151123 251.97779297 199.65802246 251.01808594 200.19018555 250.02929688 C201.80245189 247.02422987 203.40302825 244.01321928 205 241 C205.48774902 240.08234863 205.97549805 239.16469727 206.47802734 238.21923828 C219.766203 213.16140687 232.29142144 187.76652339 244.09375 161.97717285 C245.74459031 158.37552138 247.40419571 154.77790671 249.0625 151.1796875 C255.58777962 137.01408738 262.08461805 122.83594736 268.52679443 108.63235474 C271.34567123 102.41905606 274.17106158 96.20872337 277 90 C277.3416217 89.25016846 277.68324341 88.50033691 278.03521729 87.7277832 C292.1610841 56.74075257 306.70012682 25.95749525 322.3125 -4.3125 C322.90442139 -5.46186035 323.49634277 -6.6112207 324.10620117 -7.79541016 C335.59439925 -29.86479975 335.59439925 -29.86479975 342 -32 C352.18677828 -32.80805393 360.43334318 -32.25163499 368.6953125 -25.94140625 C375.4672589 -20.08752255 380.3560283 -15.11472193 381.31347656 -6.0234375 C381.27780777 -0.65234012 378.61197747 3.74642769 376.234375 8.4375 C375.49039459 9.94715332 375.49039459 9.94715332 374.73138428 11.48730469 C373.68581904 13.60677695 372.63454001 15.72343906 371.57788086 17.83740234 C369.59207395 21.81761938 367.64451365 25.81587533 365.69677734 29.81481934 C363.74042669 33.82714035 361.77162624 37.83330133 359.80297852 41.83959961 C357.63114909 46.25939712 355.46192096 50.68046995 353.29248047 55.10144043 C352.17053889 57.3877178 351.04846861 59.67393202 349.92626953 61.96008301 C344.91089231 72.17812609 339.90667689 82.40160897 334.90545654 92.62658691 C326.48675236 109.83837114 318.05936057 127.04588276 309.625 144.25 C309.10649475 145.3076355 308.5879895 146.365271 308.05377197 147.45495605 C303.84171602 156.04644525 299.62924016 164.63772855 295.41674805 173.22900391 C291.73596974 180.7359067 288.05535654 188.24289042 284.375 195.75 C283.59700043 197.33693665 283.59700043 197.33693665 282.80328369 198.95593262 C274.89110757 215.09557725 266.98684413 231.2390797 259.08850098 247.38549805 C253.59842901 258.60869576 248.10406992 269.82976821 242.6015625 281.046875 C242.06577576 282.13948135 241.52998901 283.23208771 240.97796631 284.35780334 C238.30468402 289.80892892 235.62920289 295.25895304 232.94921875 300.70678711 C228.22250175 310.32341705 223.52768008 319.9507774 218.9609375 329.64453125 C217.82548738 332.03956915 216.68912256 334.4341714 215.55267334 336.82873535 C214.54316899 338.97089575 213.55264845 341.12108112 212.56298828 343.27246094 C207.34752219 354.39148612 200.8916417 364.29063436 189 368.75 C181.49351978 369.68831003 175.58786318 368.6739735 169.515625 364.1484375 C160.19171392 356.15247739 154.18593409 345.95555707 147.9375 335.5 C147.29119629 334.41904053 146.64489258 333.33808105 145.97900391 332.22436523 C129.13518382 303.81041077 114.74872855 274.10646567 100.97131348 244.11376953 C64.36452492 162.37135619 64.36452492 162.37135619 15 88 C14.35804688 87.20142578 14.35804688 87.20142578 13.703125 86.38671875 C0.94185053 70.66032462 -13.44168689 55.73213811 -30 44 C-30.65194336 43.53078125 -31.30388672 43.0615625 -31.97558594 42.578125 C-88.17468393 2.45476711 -154.07340306 -2.14515429 -220.92578125 -2.16796875 C-223.21811441 -2.17119972 -225.51044738 -2.17456499 -227.80278015 -2.17805481 C-232.56310503 -2.18397401 -237.32341195 -2.18590212 -242.08374023 -2.18530273 C-246.89758047 -2.1852214 -251.71132569 -2.19218868 -256.52514648 -2.20581055 C-323.29963773 -5.90144258 -323.29963773 -5.90144258 -381.79296875 19.8046875 C-382.88544922 20.89136719 -382.88544922 20.89136719 -384 22 C-384.55300781 22.51820313 -385.10601562 23.03640625 -385.67578125 23.5703125 C-397.20975857 35.44626759 -402 53.98202798 -402 70 C-400.78391231 86.51219062 -394.17062902 102.56567238 -382 114 C-350.05499538 139.97495458 -298.79773317 134.91080738 -260.15185547 133.63916016 C-241.5905944 133.02984879 -223.02970289 132.8287749 -204.45953369 132.76782227 C-201.43385538 132.75758366 -198.40835319 132.74030489 -195.38275146 132.71655273 C-154.68646548 132.41118255 -118.81365733 139.38194182 -88.8125 168.875 C-83.86946312 173.86380574 -79.68014534 178.99555234 -76 185 C-75.65372559 185.54543457 -75.30745117 186.09086914 -74.95068359 186.65283203 C-57.40765688 214.50723466 -52.93227572 248.07141268 -60 280 C-64.30408625 296.99293742 -71.78267214 312.50836856 -83 326 C-83.70898438 326.86109375 -84.41796875 327.7221875 -85.1484375 328.609375 C-109.25730632 356.63484706 -143.68286715 365.82238799 -179.28759766 368.56054688 C-201.59576012 369.95917775 -224.05969029 369.11288549 -246.36364746 368.14083862 C-288.45093483 366.32333637 -330.05512074 366.99189501 -372.09666061 369.43365288 C-389.78088402 370.45814027 -407.40759604 371.18632343 -425.125 371.171875 C-425.93420458 371.17171387 -426.74340916 371.17155273 -427.57713509 371.17138672 C-465.38457843 371.11712759 -465.38457843 371.11712759 -474 365 C-478.82343583 359.02111372 -479.20189109 352.75971741 -479.25 345.375 C-479.270625 344.63765625 -479.29125 343.9003125 -479.3125 343.140625 C-479.35185745 337.17797147 -478.49390148 331.49518086 -477.47949219 325.63916016 C-477.26708389 324.39045891 -477.26708389 324.39045891 -477.05038452 323.11653137 C-476.70307457 321.07720562 -476.35192468 319.03853446 -476 317 C-475.34187842 316.99902319 -474.68375684 316.99804638 -474.00569218 316.99703997 C-434.98330892 316.93874349 -395.96098253 316.86492819 -356.93866802 316.77101372 C-352.25118585 316.75974582 -347.56370338 316.74860732 -342.8762207 316.73754883 C-341.94304369 316.73534514 -341.00986669 316.73314146 -340.04841159 316.730871 C-324.9468124 316.69551726 -309.84521326 316.67064227 -294.74358805 316.64965298 C-279.24312176 316.62787561 -263.74270908 316.59480678 -248.24228841 316.55129844 C-238.68091768 316.5248151 -229.11961373 316.5070953 -219.55820815 316.50065396 C-212.99788593 316.49538992 -206.43764769 316.47913888 -199.8773705 316.45433434 C-196.09479414 316.44035411 -192.31236797 316.43113548 -188.52976418 316.43499184 C-184.42151397 316.43905302 -180.31368754 316.4199355 -176.20549011 316.39872742 C-175.01966455 316.40357499 -173.83383899 316.40842257 -172.61207932 316.41341704 C-155.46484723 316.26762234 -142.10281411 309.78710117 -129.875 297.94140625 C-115.66776913 282.81847495 -109.41645285 265.51522402 -109.7265625 245.15625 C-110.33631018 228.66287724 -118.46278478 214.41948854 -130 203 C-131.01320313 201.93652344 -131.01320313 201.93652344 -132.046875 200.8515625 C-150.47622354 182.76863029 -178.44498725 183.8219028 -202.45849609 183.92651367 C-212.37012447 184.02208412 -222.27668322 184.43353073 -232.18183517 184.78345585 C-376.10596516 189.85952371 -376.10596516 189.85952371 -421.49609375 149.796875 C-442.32508465 130.17018155 -453.12133679 100.33089712 -454.21484375 72.14453125 C-455.04104902 39.42740987 -445.05096149 9.55563947 -422.7109375 -14.59765625 C-409.01100697 -29.00458081 -392.86324279 -38.80945787 -374.125 -45.3125 C-373.47958252 -45.54283936 -372.83416504 -45.77317871 -372.16918945 -46.01049805 C-358.24217777 -50.56044492 -343.14900678 -51.57041426 -328.625 -52.625 C-327.79708954 -52.68692535 -326.96917908 -52.74885071 -326.11618042 -52.81265259 C-238.55618646 -59.33958411 -133.15349715 -62.9555454 0 0 Z " fill="#1B475D" transform="translate(570,369)"/>
<path d="M0 0 C0.70705078 0.35288086 1.41410156 0.70576172 2.14257812 1.06933594 C78.18658024 39.7400536 114.93220926 140.73929747 147.14312744 214.05517578 C148.34207242 216.77639402 149.55297093 219.49224547 150.76287842 222.20860291 C156.50464091 235.10997756 162.14275988 248.04376959 167.3125 261.1875 C167.67972168 262.11965332 168.04694336 263.05180664 168.42529297 264.01220703 C171.76707155 272.67408407 173.85996957 281.16222463 170.09375 290.0546875 C166.20048832 296.97913149 159.4836365 301.63729418 152 304 C144.48558804 305.12305306 138.43583372 304.53222192 131.90234375 300.58203125 C127.16516364 296.64248722 124.40290325 291.44806859 121.5 286.125 C121.06985596 285.34108887 120.63971191 284.55717773 120.1965332 283.74951172 C118.78890432 281.17099955 117.39279558 278.58655234 116 276 C115.29496338 274.69482422 115.29496338 274.69482422 114.57568359 273.36328125 C100.82724887 247.79781729 89.23236885 221.18814249 77.359375 194.71875 C77.00198242 193.92206406 76.64458984 193.12537811 76.27636719 192.30455017 C73.31892972 185.71155497 73.31892972 185.71155497 71.86578369 182.46948242 C61.76530829 159.94034112 51.63713473 137.4120813 40 115.625 C39.41395996 114.52220703 38.82791992 113.41941406 38.22412109 112.28320312 C17.86839784 74.71937058 -12.31034166 48.69866335 -53 36 C-75.85112726 29.3435203 -99.58713134 26.82782734 -123.32421875 26.8671875 C-124.79742956 26.86651015 -126.27064027 26.8655366 -127.74385071 26.86428833 C-130.82916327 26.86282185 -133.91444672 26.86492538 -136.99975586 26.86962891 C-140.84471929 26.87522114 -144.68961183 26.87201739 -148.5345726 26.86617851 C-165.62008067 26.84435414 -182.67560631 27.06588011 -199.75166321 27.63934326 C-209.79645172 27.97563027 -219.82503474 28.16417197 -229.875 28.125 C-230.61730865 28.1234491 -231.35961731 28.12189819 -232.12442017 28.12030029 C-240.81568573 28.09926418 -249.50452211 28.03779438 -258.1875 27.625 C-258.88020996 27.59422363 -259.57291992 27.56344727 -260.28662109 27.53173828 C-268.43691019 27.03833972 -275.99373575 25.8564821 -282 20 C-287.51477731 13.69530764 -289.35628209 5.75395571 -288.84375 -2.5234375 C-287.90623034 -7.80600022 -285.9476781 -12.30135767 -282 -16 C-236.77376224 -45.80820216 -48.99442145 -24.53926602 0 0 Z " fill="#1B475D" transform="translate(496,433)"/>
<path d="M0 0 C2.78141817 -0.00355481 5.56283536 -0.00769184 8.3442527 -0.01183966 C20.67425682 -0.03018888 33.00426126 -0.04594485 45.33427694 -0.05373761 C48.30357786 -0.05564581 51.27287877 -0.0575665 54.24217966 -0.05952355 C55.34846972 -0.06024916 55.34846972 -0.06024916 56.47710908 -0.06098943 C68.52761092 -0.06936012 80.57801587 -0.09486692 92.62847506 -0.12710423 C105.09850669 -0.16018658 117.56848858 -0.17818434 130.03856429 -0.18138185 C137.00233916 -0.18353754 143.96596919 -0.19215641 150.92970064 -0.21784303 C157.44488023 -0.24183121 163.95984538 -0.24536982 170.47507647 -0.23508164 C172.85912044 -0.23458622 175.24317731 -0.24090838 177.6271818 -0.25463769 C180.88617962 -0.27235753 184.14423723 -0.26525082 187.40323618 -0.25210473 C188.33949514 -0.26307398 189.2757541 -0.27404322 190.24038455 -0.28534487 C199.08010731 -0.19952973 206.99547698 2.44274442 213.55297068 8.52079871 C218.96423584 14.83873862 220.39884254 21.99050389 220.29125193 30.09892371 C219.62733835 37.82533823 216.20347518 42.68051107 210.51000193 47.72782996 C202.89733511 52.34084314 195.22096589 52.67211985 186.50798777 52.63678077 C185.27059296 52.64357744 184.03319815 52.65037411 182.75830653 52.65737674 C179.34486034 52.67302039 175.93189029 52.67534236 172.51844242 52.67179361 C168.82927481 52.67117903 165.14017678 52.68776152 161.45104197 52.70196632 C154.23355122 52.72682638 147.016134 52.73512795 139.79860401 52.73680345 C133.93357607 52.73823084 128.06857232 52.74440458 122.20355204 52.75390533 C105.57010783 52.78030132 88.93672158 52.79416604 72.30325627 52.7919139 C71.40758585 52.79179404 70.51191544 52.79167417 69.58910349 52.79155067 C68.69233889 52.79142802 67.7955743 52.79130538 66.87163502 52.79117902 C52.31933412 52.78995812 37.76726552 52.81871085 23.21503186 52.86096577 C8.26803217 52.90402455 -6.67885409 52.92477843 -21.6259174 52.92218444 C-30.01589412 52.92118786 -38.40562684 52.92945907 -46.79554769 52.96171859 C-53.93369629 52.98899012 -61.07149011 52.99559512 -68.20966816 52.97519032 C-71.85202788 52.96537463 -75.4937063 52.96529401 -79.1360018 52.99125007 C-83.08181297 53.01908075 -87.02662181 53.00057159 -90.97248098 52.97735694 C-92.70402563 53.00050297 -92.70402563 53.00050297 -94.47055098 53.02411661 C-102.02307603 52.92548114 -102.02307603 52.92548114 -104.79352924 50.92468634 C-111.08243204 43.60633665 -110.29334345 33.76585434 -110.22827932 24.67314246 C-110.2360137 23.58839637 -110.24374807 22.50365028 -110.25171682 21.38603309 C-110.23710553 15.36983512 -110.13022301 9.89421727 -107.97827932 4.23564246 C-103.86718548 0.89130383 -99.85129378 0.76971333 -94.75713369 0.73230079 C-93.93069675 0.71495914 -93.10425982 0.6976175 -92.25277933 0.67975035 C-89.4747158 0.62599174 -86.69686828 0.59414614 -83.91846487 0.56303504 C-81.91121534 0.53060705 -79.90397861 0.49737868 -77.89675447 0.46341518 C-51.93399295 0.05606139 -25.96536972 0.03193114 0 0 Z " fill="#1B475D" transform="translate(200.9782793223858,593.7643575370312)"/>
<path d="M0 0 C9.76862124 3.28131 21.07441877 7.88234228 26.546875 17.12890625 C29.74550684 35.04124454 11.87969592 59.00633275 3.609375 73.94140625 C-9.2498014 97.23910966 -19.78892075 121.66466708 -30.5111084 145.99237061 C-74.20297728 245.08747688 -74.20297728 245.08747688 -90.515625 254.44140625 C-91.35222656 254.93253906 -92.18882812 255.42367188 -93.05078125 255.9296875 C-98.77506811 258.78717704 -104.83418985 258.99502335 -111.015625 257.515625 C-118.3144009 254.98998151 -123.13858963 250.86543756 -126.546875 243.890625 C-129.25226309 236.63868192 -129.18478615 230.40701916 -126.453125 223.12890625 C-125.33761109 220.8248542 -124.19727813 218.56628246 -122.99609375 216.30859375 C-122.29525709 214.97033759 -121.59466531 213.63195318 -120.89428711 212.29345703 C-120.52705536 211.59512756 -120.15982361 210.8967981 -119.78146362 210.17730713 C-112.12439708 195.58990203 -104.95183012 180.84907468 -98.14257812 165.84472656 C-96.32788979 161.84701677 -94.49223404 157.85905697 -92.65625 153.87109375 C-85.7324929 138.81594626 -78.91288622 123.71813537 -72.203125 108.56640625 C-65.75945034 94.0212831 -59.23011242 79.52264297 -52.453125 65.12890625 C-51.64609131 63.4121167 -51.64609131 63.4121167 -50.82275391 61.66064453 C-44.62750588 48.52900465 -38.26314103 35.49015946 -31.48257446 22.64935303 C-30.54584124 20.87368407 -29.61786327 19.09340493 -28.69018555 17.31298828 C-21.58958279 4.04320264 -15.97195369 -4.02912406 0 0 Z " fill="#1B475D" transform="translate(851.453125,302.87109375)"/>
</svg>
