<?xml version="1.0" standalone="no"?>
<!DOCTYPE svg PUBLIC "-//W3C//DTD SVG 20010904//EN"
 "http://www.w3.org/TR/2001/REC-SVG-20010904/DTD/svg10.dtd">
<svg version="1.0" xmlns="http://www.w3.org/2000/svg"
 width="512.000000pt" height="512.000000pt" viewBox="0 0 512.000000 512.000000"
 preserveAspectRatio="xMidYMid meet">

<g transform="translate(0.000000,512.000000) scale(0.100000,-0.100000)"
fill="#000000" stroke="none">
<path d="M519 3901 c-22 -23 -29 -39 -29 -70 0 -35 9 -52 70 -127 39 -48 70
-93 70 -100 0 -6 -116 -112 -257 -234 -142 -123 -266 -233 -275 -244 -16 -19
-18 -51 -18 -309 l0 -287 -40 -80 -40 -80 0 -222 0 -222 91 -137 c50 -76 98
-141 107 -145 10 -5 64 -11 121 -14 l104 -5 22 -68 c74 -218 283 -367 514
-367 195 1 384 118 471 292 22 43 42 94 46 113 l6 35 277 0 c246 0 278 2 297
18 52 41 55 109 8 153 l-26 24 -278 3 -278 3 -6 34 c-13 66 -75 171 -139 237
-214 215 -545 216 -762 3 -64 -63 -128 -173 -141 -241 l-6 -34 -63 0 -62 0
-52 78 -51 78 0 170 0 170 38 69 37 70 5 281 5 281 205 178 c264 228 298 262
321 310 23 49 24 123 4 172 -8 19 -15 37 -15 40 0 2 426 2 948 0 l947 -3 80
-23 c99 -28 222 -85 306 -141 40 -27 186 -166 384 -367 l320 -324 315 -75
c340 -81 422 -104 418 -115 -2 -5 -28 -25 -58 -46 -163 -112 -141 -352 40
-431 26 -12 83 -17 228 -20 l192 -4 0 -99 c0 -99 0 -100 -42 -174 l-43 -75
-208 2 -208 3 -23 66 c-46 132 -142 242 -266 304 -172 86 -372 77 -529 -24
-104 -67 -200 -195 -230 -309 l-12 -42 -245 0 c-201 0 -252 -3 -279 -15 -61
-30 -74 -107 -26 -156 l29 -29 259 0 259 0 22 -69 c111 -344 528 -480 824
-268 95 68 163 161 199 277 l17 55 259 5 c193 4 264 8 276 18 8 7 50 74 92
148 l77 136 -4 171 c-4 141 -9 184 -27 242 -74 230 -259 426 -494 523 -40 16
-216 65 -392 107 l-320 77 -310 314 c-255 258 -325 323 -397 369 -103 66 -208
115 -309 145 -165 50 -175 50 -1282 50 l-1039 0 -29 -29z m4297 -1452 c19 -26
34 -52 34 -58 0 -14 -238 -15 -275 -1 -21 8 -26 16 -23 38 2 21 19 38 82 80
l79 53 34 -33 c19 -18 50 -54 69 -79z m-3723 -417 c210 -92 264 -376 103 -537
-78 -78 -132 -100 -241 -100 -80 0 -97 3 -148 30 -74 37 -139 109 -167 183
-18 46 -21 72 -18 137 6 99 34 160 106 227 104 98 232 119 365 60z m2923 6
c73 -27 137 -87 175 -164 27 -53 32 -77 33 -137 0 -45 -6 -91 -18 -125 -24
-70 -100 -153 -174 -189 -50 -24 -69 -28 -147 -28 -83 0 -95 2 -153 34 -74 40
-115 84 -151 161 -22 46 -26 69 -26 140 0 101 20 154 86 225 97 106 234 136
375 83z"/>
<path d="M1221 3559 c-25 -4 -63 -23 -85 -41 -87 -69 -394 -360 -405 -384 -29
-64 0 -151 61 -179 37 -17 2467 -218 2509 -208 42 10 76 42 93 84 30 74 20 92
-164 304 -232 264 -343 344 -559 403 l-96 26 -655 2 c-364 2 -675 -1 -699 -7z
m839 -355 l0 -166 -52 6 c-50 5 -274 24 -776 64 -125 10 -213 21 -212 27 0 6
55 61 123 123 l122 112 397 0 398 0 0 -166z m557 141 c148 -35 253 -107 403
-275 83 -93 92 -105 72 -108 -24 -4 -798 56 -819 63 -10 3 -13 46 -13 168 0
90 3 167 8 172 11 12 279 -3 349 -20z"/>
<path d="M749 2671 c-40 -40 -40 -89 0 -133 29 -33 29 -33 140 -36 144 -5 192
2 225 35 38 37 36 94 -3 134 l-29 29 -152 0 -152 0 -29 -29z"/>
<path d="M2103 2545 c-12 -8 -27 -31 -33 -50 -10 -30 -9 -41 7 -73 24 -49 61
-61 198 -61 137 0 174 12 198 61 16 32 17 43 7 73 -20 60 -36 65 -205 65 -118
0 -155 -3 -172 -15z"/>
<path d="M2414 1821 c-34 -15 -64 -60 -64 -98 0 -73 91 -119 155 -77 29 19 48
72 40 107 -14 53 -82 88 -131 68z"/>
</g>
</svg>
