<?xml version="1.0" standalone="no"?>
<!DOCTYPE svg PUBLIC "-//W3C//DTD SVG 20010904//EN"
 "http://www.w3.org/TR/2001/REC-SVG-20010904/DTD/svg10.dtd">
<svg version="1.0" xmlns="http://www.w3.org/2000/svg"
 width="1042.000000pt" height="1042.000000pt" viewBox="0 0 1042.000000 1042.000000"
 preserveAspectRatio="xMidYMid meet">

<g transform="translate(0.000000,1042.000000) scale(0.100000,-0.100000)"
fill="#000000" stroke="none">
<path d="M4895 9509 c-870 -61 -1700 -387 -2385 -936 -243 -194 -547 -507
-743 -766 -81 -106 -233 -335 -299 -452 -813 -1429 -750 -3174 164 -4538 327
-489 790 -938 1290 -1252 183 -115 519 -285 718 -362 1294 -507 2751 -360
3909 394 1725 1123 2419 3292 1666 5203 -502 1272 -1595 2238 -2920 2580 -452
117 -938 162 -1400 129z m655 -419 c349 -32 711 -113 1029 -232 648 -241 1232
-664 1669 -1209 573 -714 876 -1619 848 -2529 -7 -239 -17 -348 -52 -557 -203
-1232 -983 -2281 -2109 -2838 -673 -332 -1408 -462 -2155 -380 -1623 179
-2961 1353 -3350 2939 -84 342 -105 530 -105 926 0 329 6 409 51 670 134 782
509 1511 1069 2076 502 507 1133 865 1818 1034 217 53 363 76 637 103 85 9
546 6 650 -3z"/>
<path d="M4905 7204 c-285 -35 -563 -107 -732 -190 -96 -46 -124 -66 -191
-132 -59 -59 -88 -97 -122 -166 -29 -56 -54 -93 -70 -101 -14 -7 -77 -15 -140
-17 -206 -9 -305 -58 -502 -248 -236 -226 -394 -439 -524 -705 -180 -369 -261
-768 -197 -970 31 -98 87 -187 164 -264 76 -76 147 -121 251 -159 l73 -27
1030 3 1030 4 28 -22 27 -21 0 -628 c0 -596 1 -629 18 -644 16 -15 45 -17 193
-17 136 0 180 3 195 14 18 14 19 32 19 645 0 592 1 631 18 648 17 17 76 18
1060 23 l1042 5 80 27 c219 75 366 231 421 448 50 196 -31 574 -195 915 -143
297 -321 533 -579 768 -206 187 -277 220 -487 221 l-130 1 -45 85 c-66 124
-203 260 -320 317 -137 67 -399 139 -650 178 -150 24 -603 29 -765 9z m565
-424 c301 -26 628 -113 723 -191 94 -78 120 -198 65 -309 -15 -30 -227 -397
-471 -815 -476 -816 -469 -805 -549 -805 -77 0 -40 -59 -949 1509 -76 133 -84
150 -87 208 -7 110 43 195 146 247 111 56 359 120 562 146 202 26 345 28 560
10z m-1725 -619 c45 -21 85 -57 125 -116 14 -22 181 -309 370 -639 291 -507
344 -606 348 -646 5 -57 -14 -82 -75 -99 -53 -15 -1468 -15 -1527 0 -90 23
-156 110 -156 206 0 77 62 307 123 459 100 245 244 466 433 663 170 177 257
219 359 172z m3182 -12 c54 -33 233 -209 313 -309 185 -232 310 -484 390 -785
26 -97 31 -132 27 -188 -6 -85 -43 -151 -106 -186 l-42 -23 -761 1 c-814 2
-812 2 -838 52 -7 12 -10 39 -7 60 5 42 692 1251 753 1325 49 61 105 86 176
81 35 -3 72 -14 95 -28z"/>
</g>
</svg>
