<?xml version="1.0" encoding="UTF-8"?>
<svg id="Layer_1" xmlns="http://www.w3.org/2000/svg" version="1.1" viewBox="0 0 500 500">
  <!-- Generator: Adobe Illustrator 29.2.1, SVG Export Plug-In . SVG Version: 2.1.0 Build 116)  -->
  <defs>
    <style>
      .st0 {
        fill: #0d2139;
      }

      .st1 {
        fill: #f0b501;
      }
    </style>
  </defs>
  <path class="st0" d="M215.81,124.13v166.88c0,3.64,3.58,11.62,6.08,14.44,10.12,11.41,37,12.03,50.82,9.01,21.42-4.69,25.86-23.22,22.98-42.79l128.43-35.79c1.1,48.43,3.07,96.7-36.89,130.75-46.67,39.77-109.47,41.59-167.99,37.27-61.55-4.55-126.63-36.3-130.43-105.26l.03-174.52h126.97Z"/>
  <polygon class="st0" points="424.13 124.13 424.13 200.16 295.64 261.74 295.64 124.13 424.13 124.13"/>
  <polygon class="st1" points="444.66 196.36 444.66 225.25 270.55 274.29 444.66 196.36"/>
</svg>