<?xml version="1.0" encoding="UTF-8"?>
<svg version="1.1" xmlns="http://www.w3.org/2000/svg" width="1042" height="1042">
<path d="M0 0 C4.11218865 3.55073646 8.06806116 7.25169567 12 11 C12.8765625 11.81210937 13.753125 12.62421875 14.65625 13.4609375 C29.82903867 27.93128225 37.81981459 45.77250722 44.375 65.3125 C44.59227753 65.95589325 44.80955505 66.5992865 45.03341675 67.26217651 C49.70287916 81.19022796 51.38493575 93.70884746 51.3125 108.3125 C51.31001251 109.11123535 51.30752502 109.9099707 51.30496216 110.73291016 C51.24263266 123.69226435 50.65232333 136.27724006 48 149 C47.77425293 150.08684082 47.54850586 151.17368164 47.31591797 152.29345703 C38.27549987 194.34801317 15.81900068 234.65237802 -16 264 C-16.55171875 264.51046875 -17.1034375 265.0209375 -17.671875 265.546875 C-30.0308577 276.63826973 -43.46477528 286.41480556 -57 296 C-57.60086426 296.42941895 -58.20172852 296.85883789 -58.82080078 297.30126953 C-77.55290785 310.686004 -99.08105105 324.67840658 -121.06640625 331.8125 C-123.23312049 332.87701053 -123.23312049 332.87701053 -123.96484375 335.4375 C-124.26167156 337.9799034 -124.26167156 337.9799034 -122.84033203 339.53686523 C-120.5279025 341.37533568 -118.40588751 342.08038171 -115.58984375 342.97265625 C-114.51669922 343.31490234 -113.44355469 343.65714844 -112.33789062 344.00976562 C-111.21576172 344.35716797 -110.09363281 344.70457031 -108.9375 345.0625 C-107.29491211 345.5894043 -107.29491211 345.5894043 -105.61914062 346.12695312 C-61.65570643 359.97844609 -12.36779079 350.44807037 28 330 C43.9316753 321.59735533 58.90343544 311.37032253 72 299 C73.28810702 297.91243658 74.57969534 296.82898087 75.875 295.75 C113.95753879 262.2557189 134.00357208 209.531241 138 160 C138.34709492 154.02372271 138.39052931 148.04732333 138.375 142.0625 C138.37445618 141.26284821 138.37391235 140.46319641 138.37335205 139.63931274 C138.32838479 125.13809095 137.02805271 111.20801584 134 97 C133.79632812 96.0188623 133.59265625 95.03772461 133.3828125 94.02685547 C125.71224888 58.04741391 109.99265781 23.55484624 94.77734375 -9.8046875 C93.02388988 -13.69026982 91.28200627 -17.57834809 89.62890625 -21.5078125 C89.15239624 -22.63533936 89.15239624 -22.63533936 88.66625977 -23.78564453 C87.88713082 -26.37512769 87.67676402 -28.31100398 88 -31 C89.00292969 -32.79199219 89.00292969 -32.79199219 91 -34 C93.72960129 -34.2763674 96.22564432 -34.37211167 98.953125 -34.328125 C100.15049538 -34.32633492 100.15049538 -34.32633492 101.37205505 -34.32450867 C103.99841633 -34.31585438 106.62385618 -34.28429561 109.25 -34.25 C111.09219957 -34.2333336 112.93440351 -34.21714374 114.77661133 -34.20141602 C118.48034435 -34.1661644 122.18370918 -34.11938794 125.88720703 -34.06494141 C130.15362967 -34.00446871 134.41681776 -33.99961197 138.68359375 -34.01171875 C173.09083987 -33.82551427 208.85485023 -28.877738 242.046875 -19.80566406 C244.82508547 -19.04771974 247.61139375 -18.34198356 250.40625 -17.6484375 C285.59637892 -8.6164268 320.76401508 8.13499047 349 31 C349.845625 31.66515625 350.69125 32.3303125 351.5625 33.015625 C360.49182395 40.0560535 369.51682586 47.20804032 377.41015625 55.41015625 C379.11255053 57.11255053 380.90590992 58.64024534 382.75 60.1875 C426.60662748 98.30903004 447.16954327 158.97697116 451.625 215.25 C453.94089015 255.08331055 449.84994743 299.89285279 432 336 C431.61150879 336.78938965 431.22301758 337.5787793 430.82275391 338.39208984 C420.68848388 358.7710963 407.99034118 376.79265788 392.4296875 393.3828125 C390.48217645 395.48061379 388.62911965 397.60309773 386.8125 399.8125 C383.55769195 403.63735918 379.88086281 406.82358423 376 410 C374.61167969 411.1446875 374.61167969 411.1446875 373.1953125 412.3125 C345.95229219 434.29053794 311.18530574 447.22705748 276.72265625 451.64160156 C274.41920148 451.94481817 272.1344834 452.29446936 269.84375 452.6796875 C247.80925384 456.00307225 224.20288531 455.00789054 202.30224609 451.36279297 C199.06857703 450.85322433 195.81642908 450.5409503 192.5625 450.1875 C177.5481152 447.97523557 161.67527198 440.98469619 152 429 C143.40019228 417.26354744 140.62018078 404.29606513 142 390 C144.2177599 378.1763215 150.27079012 366.38994631 160 359 C170.5491681 352.39495108 179.43598651 349.62090402 191.75 349.6875 C193.27488037 349.68943359 193.27488037 349.68943359 194.83056641 349.69140625 C201.16137615 349.77040559 207.15658178 350.35994564 213.375 351.5 C244.51716802 357.04621953 279.6267103 353.64658236 306.30859375 335.78515625 C332.49464233 316.83539579 346.16457665 289.50638287 351.3125 257.9375 C351.56336767 255.96096681 351.79379704 253.98169079 352 252 C352.10957031 251.04609375 352.21914063 250.0921875 352.33203125 249.109375 C356.14321826 211.09913657 345.55111655 172.76404935 321.9375 142.625 C313.25711079 132.2120331 304.25021741 122.66889908 293.67578125 114.18359375 C291.45592371 112.37206037 289.35068011 110.50757417 287.25 108.5625 C278.22888212 100.66675296 267.78298653 94.68434895 257.25 89.0625 C256.39962158 88.60198242 255.54924316 88.14146484 254.6730957 87.66699219 C248.72205009 84.56668847 242.64878816 82.12913516 236 81 C235.34 81.33 234.68 81.66 234 82 C233.74017253 88.56154571 234.11862113 94.95444362 234.875 101.46484375 C235.00793457 102.61069443 235.00793457 102.61069443 235.14355469 103.7796936 C235.51698601 106.95005185 235.89866817 110.11927951 236.29101562 113.28735352 C238.71530631 133.04243658 238.13959115 151.99192601 236.08349609 171.77246094 C235.75047001 174.99545133 235.43871086 178.22001643 235.12890625 181.4453125 C233.90408933 193.77686219 232.1229794 205.82340106 229.45452881 217.92547607 C228.83174148 220.76795204 228.26297551 223.62106224 227.68359375 226.47265625 C222.98120057 248.11988004 214.51714229 268.53977771 204 288 C203.63616211 288.68223633 203.27232422 289.36447266 202.89746094 290.06738281 C187.44538727 318.94695582 169.89875966 343.37798124 146.62158203 366.39379883 C145.20059246 367.80131017 143.78716352 369.21644611 142.375 370.6328125 C132.04067799 380.93314003 120.93037591 389.61983121 109 398 C108.31341309 398.4846875 107.62682617 398.969375 106.91943359 399.46875 C75.17302312 421.62436138 37.36704905 437.42176747 -0.1875 446.375 C-1.12198975 446.6016333 -2.05647949 446.8282666 -3.01928711 447.06176758 C-21.26368011 451.14766339 -39.77561244 452.50674096 -58.42724609 452.39111328 C-61.50012547 452.37499934 -64.57169043 452.39110669 -67.64453125 452.41015625 C-85.81638311 452.43019057 -104.25994776 451.11162274 -121.875 446.375 C-122.8451001 446.12121582 -123.8152002 445.86743164 -124.81469727 445.60595703 C-160.88278967 435.87370876 -198.31959299 420.09766411 -224.48828125 392.51953125 C-226.49727431 390.50428938 -228.5197504 388.66489516 -230.67578125 386.81640625 C-235.66073726 382.50186299 -240.25159597 377.82019602 -244.875 373.125 C-246.5575885 371.41699476 -248.24237133 369.71114749 -249.9296875 368.0078125 C-250.66429199 367.26160645 -251.39889648 366.51540039 -252.15576172 365.74658203 C-255.05716179 362.99881712 -256.84255259 362.87135462 -260.73632812 362.84228516 C-261.72881058 362.83188202 -262.72129303 362.82147888 -263.74385071 362.8107605 C-265.37111336 362.80001999 -265.37111336 362.80001999 -267.03125 362.7890625 C-269.35637257 362.76346795 -271.68148638 362.73706826 -274.0065918 362.70996094 C-275.23018402 362.69670776 -276.45377625 362.68345459 -277.71444702 362.6697998 C-316.08813329 362.21566968 -352.61965136 359.15112689 -390 350 C-391.00139008 349.75789291 -391.00139008 349.75789291 -392.02301025 349.51089478 C-409.82099378 345.17018549 -425.02524626 339.36222019 -435.12109375 323.32421875 C-441.53874328 311.96991573 -443.89374039 299.46870197 -441.31640625 286.58203125 C-437.55831893 273.53008483 -431.49560448 262.19672649 -419.66015625 254.95703125 C-413.08767636 251.37638677 -406.51290346 248.65329595 -399 248 C-398.08734375 247.9071875 -397.1746875 247.814375 -396.234375 247.71875 C-386.43484713 247.21621011 -377.38750723 249.81968182 -367.98632812 252.23388672 C-339.35977604 260.23997898 -339.35977604 260.23997898 -310 260 C-308.7163323 256.14899689 -309.53341049 253.19688655 -310.25 249.3125 C-311.82009841 240.12342786 -312.80924091 230.90003377 -313.6875 221.625 C-313.75384644 220.94853424 -313.82019287 220.27206848 -313.8885498 219.57510376 C-315.26250745 205.47752126 -315.15693414 191.90646655 -313.8125 177.8125 C-313.74720093 177.12124023 -313.68190186 176.42998047 -313.61462402 175.71777344 C-310.65437614 145.0001448 -303.33495149 115.88078954 -290 88 C-289.59910156 87.16098145 -289.19820312 86.32196289 -288.78515625 85.45751953 C-273.33139086 53.63162975 -249.00502071 24.60387312 -221 3 C-219.97390625 2.18015625 -218.9478125 1.3603125 -217.890625 0.515625 C-210.61051615 -5.26544425 -203.08626284 -10.3893728 -195 -15 C-194.36610352 -15.36480469 -193.73220703 -15.72960937 -193.07910156 -16.10546875 C-182.14045546 -22.33789132 -170.96559949 -27.10341433 -159 -31 C-158.25637207 -31.24234375 -157.51274414 -31.4846875 -156.74658203 -31.734375 C-103.60328958 -48.63133705 -42.61473371 -35.91279251 0 0 Z M-174 95 C-174.64582031 95.59296875 -175.29164063 96.1859375 -175.95703125 96.796875 C-201.40531541 120.87440849 -212.51423794 157.10205784 -216 191 C-216.1239917 192.12510986 -216.2479834 193.25021973 -216.37573242 194.40942383 C-217.18800311 203.31867073 -216.65053672 211.38677225 -215.15893555 220.14428711 C-214.81133866 222.19434935 -214.49282418 224.2474507 -214.17773438 226.30273438 C-212.2832746 241.70704256 -212.2832746 241.70704256 -204 254 C-195.46651232 255.28647827 -186.42888842 251.03817326 -178.625 248.0625 C-177.96937073 247.81668182 -177.31374146 247.57086365 -176.63824463 247.31759644 C-144.8346009 235.38242971 -116.52785396 218.40939453 -91 196 C-89.9171875 195.08347656 -89.9171875 195.08347656 -88.8125 194.1484375 C-66.80391546 175.42339179 -51.00713882 151.46724719 -48.16772461 122.09814453 C-46.94446312 106.79580206 -49.61848649 92.71690761 -59.07421875 80.26953125 C-69.62564175 68.09764538 -82.21080639 60.45739445 -98.40234375 58.74609375 C-127.47164259 57.39098358 -154.04434598 76.00571326 -174 95 Z " fill="#1B475D" transform="translate(516,414)"/>
<path d="M0 0 C30.21832375 -0.77133859 63.41200439 0.60217248 92.82902527 7.53425598 C97.15713105 8.54620228 101.46186785 9.39514699 105.85693359 10.05519104 C116.51372842 11.66222687 126.8040619 14.23576962 137.17480469 17.13330078 C138.04298828 17.3737915 138.91117188 17.61428223 139.80566406 17.86206055 C163.40357729 24.429282 185.59708988 33.4808533 207.67480469 44.07080078 C208.68849121 44.55307129 209.70217773 45.0353418 210.74658203 45.53222656 C223.83686633 51.78938659 236.32944431 58.54774575 248.41894531 66.57519531 C250.68654556 68.07858482 252.96806137 69.55866124 255.25292969 71.03564453 C269.7504214 80.47258858 283.4363462 90.94061904 296.67480469 102.07080078 C297.19574707 102.50682617 297.71668945 102.94285156 298.25341797 103.39208984 C311.38248112 114.40504343 324.90145555 125.81790748 336.04980469 138.88330078 C338.62229442 141.87310552 341.25470583 144.79289971 343.92480469 147.69580078 C348.93963035 153.26876893 353.58104398 159.09693219 358.12988281 165.05029297 C359.19435321 166.442448 360.26365924 167.83091445 361.33691406 169.21630859 C370.62593737 181.23955853 378.51882037 193.67168058 385.67480469 207.07080078 C386.27446045 208.18745117 386.27446045 208.18745117 386.88623047 209.32666016 C401.62425041 237.01665722 401.62425041 237.01665722 399.67480469 251.07080078 C397.67480469 254.25830078 397.67480469 254.25830078 394.67480469 256.07080078 C388.77980877 255.82414823 384.50911897 254.3984097 379.42480469 251.38330078 C378.74861084 250.99247314 378.07241699 250.60164551 377.37573242 250.19897461 C368.10725253 244.71590171 359.41409986 238.34712302 350.67480469 232.07080078 C337.20281909 222.43837679 323.49934293 213.18999229 309.67480469 204.07080078 C308.78293457 203.48089355 307.89106445 202.89098633 306.97216797 202.28320312 C289.68031784 190.86133436 272.0255072 180.13184001 253.81445312 170.23681641 C251.7540277 169.11397389 249.70253115 167.97607298 247.65136719 166.83642578 C190.76933982 135.5859105 123.35734736 118.33947987 58.67480469 114.07080078 C57.25681989 113.9603295 55.83885095 113.8496544 54.42089844 113.73876953 C29.39049633 111.95310715 4.25685069 112.47613055 -20.625 115.61767578 C-23.83567349 116.01085406 -27.04771175 116.36725927 -30.26490784 116.70231628 C-118.36032292 125.88163059 -203.8390054 159.6153125 -313.06347656 241.02783203 C-315.12391172 242.88898503 -317.21633849 244.7025132 -319.32519531 246.50830078 C-325.44083944 251.8455902 -331.26169366 257.56481166 -336.51269531 263.75830078 C-340.01475562 267.8676067 -343.85610578 271.59894444 -347.70019531 275.38330078 C-352.92746439 280.54488623 -357.74421931 285.76751033 -362.29394531 291.53955078 C-364.33798202 294.08673499 -366.4866526 296.48269813 -368.70019531 298.88330078 C-372.88603567 303.4503385 -376.66750583 308.26857212 -380.34423828 313.24975586 C-383.89927443 317.93327992 -387.63103553 321.17274752 -393.32519531 323.07080078 C-401.00612217 323.71175364 -408.00900449 323.93516575 -414.32519531 319.07080078 C-419.00447493 314.69147498 -421.18572129 310.50197732 -421.55175781 304.12158203 C-421.49648732 298.32981666 -420.00973639 293.0982244 -418.38769531 287.57080078 C-417.91734863 285.9409021 -417.91734863 285.9409021 -417.4375 284.27807617 C-407.21886464 249.59414984 -392.07484478 217.30722654 -372.32519531 187.07080078 C-371.45905545 185.72591253 -370.59315822 184.38086799 -369.72753906 183.03564453 C-361.9145603 170.99665229 -353.05433543 159.92626255 -343.65014648 149.09863281 C-340.75377679 145.76251483 -337.97926457 142.36911639 -335.26269531 138.88330078 C-325.80903493 127.25201479 -314.7286814 116.28110524 -302.89160156 107.08251953 C-300.50857315 105.21454444 -298.2337332 103.25525716 -295.96044922 101.25634766 C-238.53676438 51.12427632 -160.71830645 20.78181609 -86.32519531 8.07080078 C-84.46556152 7.74402344 -84.46556152 7.74402344 -82.56835938 7.41064453 C-63.16494768 4.0294177 -44.01932964 2.02025818 -24.32519531 1.07080078 C-22.3042967 0.9600059 -20.28345881 0.84809572 -18.26269531 0.73486328 C-12.17706879 0.40740212 -6.09137432 0.18547864 0 0 Z " fill="#1B475D" transform="translate(542.3251953125,172.92919921875)"/>
</svg>
