<?xml version="1.0" encoding="UTF-8"?>
<svg id="Layer_1" xmlns="http://www.w3.org/2000/svg" version="1.1" viewBox="0 0 500 500">
  <!-- Generator: Adobe Illustrator 29.2.1, SVG Export Plug-In . SVG Version: 2.1.0 Build 116)  -->
  <defs>
    <style>
      .st0 {
        fill: #0d2139;
      }

      .st1 {
        fill: #f0b501;
      }
    </style>
  </defs>
  <path class="st1" d="M294.92,69.04c6.78,16.97,1.75,37.1,3.25,55.04-61.7.52-121.9,39.87-142.58,98.6-2.25,6.38-15.08,50.3-4.73,50.3h114.92v55.03H90.97v-87.41c7.6-12.65,8.97-28.14,14.63-42.03,29.28-71.86,89.5-112.31,163.42-129.55h25.9Z"/>
  <path class="st0" d="M201.04,438.09v-55.04c28.01,1.28,53.47-7.25,77.75-20.98,44.38-25.09,75.56-76.23,74.4-127.93h-116.54v-55.03h171.57v82.55c0,60.08-71.25,141.71-127.29,160.83l-54,15.6h-25.9Z"/>
</svg>