<?xml version="1.0" encoding="UTF-8"?>
<svg id="Layer_1" xmlns="http://www.w3.org/2000/svg" version="1.1" viewBox="0 0 500 500">
  <!-- Generator: Adobe Illustrator 29.2.1, SVG Export Plug-In . SVG Version: 2.1.0 Build 116)  -->
  <defs>
    <style>
      .st0 {
        fill: #0d2139;
      }

      .st1 {
        fill: #f0b501;
      }
    </style>
  </defs>
  <path class="st0" d="M271.7,252.05c.59,9.82-1.47,18.35-3.53,26.94-1.59,6.64-4.6,12.51-7.75,18.45-6.01,11.32-13.68,21.3-23.3,29.73-5.86,5.14-12.2,9.69-18.53,14.25-7.3,5.26-15.2,9.48-23.09,13.73-1.65.89-3.53,1.35-5.28,2.08-1.32.54-2.93,1.2-2.84,2.78.09,1.57,1.43,2.73,2.94,3.2,2.88.91,5.75,1.85,8.62,2.79,8.07,2.64,16.42,2.45,24.79,2.1,6.18-.26,12.19-1.02,18.15-2.87,7.48-2.33,14.73-4.99,21.58-8.88,5.26-2.98,10.34-6.22,14.98-9.99,6.84-5.55,12.97-11.84,18.01-19.21,4.13-6.04,7.8-12.34,10.44-19.07,5.94-15.16,8.57-31,7.76-47.3-.33-6.52-1.58-12.93-2.97-19.32-1.8-8.27-4.88-16.06-7.88-23.92-3.33-8.72-7.16-17.21-11.08-25.67-.88-1.89-1.23-3.94-2.21-5.82-.99-1.91.25-3.38,2.97-3.46,4.48-.13,8.98-.29,13.43.08,3.62.3,7.23.34,10.84.33,9.52-.02,18.81,2.05,28.21,3.03,7.48.78,14.58,3.03,21.79,4.74,6.01,1.42,11.82,3.9,17.63,6.2,6.84,2.71,13.28,6.2,19.53,9.95,3.11,1.87,6.14,4.1,9.07,6.37,3.46,2.67,6.89,5.33,10.15,8.24,4.96,4.44,9.78,9,14.11,14.11,3.74,4.41,7,9.13,10.01,13.99,2.6,4.19,4.75,8.68,6.63,13.31,1.95,4.82,3.78,9.71,5.19,14.67,1.64,5.79,2.57,11.83,3.25,17.82.82,7.27,1.22,14.58.75,21.94-.39,6.28-1.54,12.42-2.27,18.63-.93,7.91-3.13,15.42-6.51,22.48-3.61,7.55-7.9,14.74-13.19,21.38-4.11,5.15-8.42,10.04-13.31,14.36-5.7,5.04-12.22,9.2-19.1,12.2-7.81,3.4-15.92,6.72-24.41,7.92-11.53,1.63-23.15,3.4-34.86,1.12-4.45-.87-9.04-.49-13.48-1.83-6.87-2.08-13.25-5.02-17.12-11.25-4.44-7.14-5.18-14.79-1.38-22.69,5.23-10.87,16.29-14.49,27.57-12.34,9.59,1.83,19.26,2.34,29.11.78,8.01-1.27,15.15-4.29,21.34-8.98,5.92-4.47,11.13-9.88,14.41-16.97,5.44-11.75,7.37-24.06,6.7-36.79-.29-5.54-1.76-10.96-3.33-16.36-1.89-6.49-4.87-12.39-8.56-17.87-3.68-5.48-7.98-10.58-13.07-14.9-3.65-3.1-7.11-6.5-11.08-9.13-5.94-3.93-12.01-7.75-18.92-9.91-2.36-.74-3.82.58-3.53,3.07,1.14,9.89,2.92,19.74,2.38,29.74-.42,7.85-1.73,15.65-2.34,23.46-.58,7.4-3.4,14.13-4.43,21.31-.14,1-.74,1.94-1.11,2.91-2.89,7.78-6.1,15.37-10.36,22.58-3.74,6.33-7.35,12.73-11.62,18.71-3.2,4.48-6.76,8.68-10.95,12.29-1.7,1.47-3.03,3.3-4.66,4.88-4.76,4.58-9.94,8.53-15.29,12.37-4.9,3.52-9.94,6.73-15.33,9.38-6.01,2.95-12.06,5.91-18.23,8.4-6.31,2.55-12.96,4.5-19.66,6.1-10.24,2.44-20.67,3.37-31.07,3.22-10.67-.15-21.29-1.24-31.73-4.43-7.77-2.37-15.44-4.98-22.48-8.78-7.38-3.98-14.61-8.42-20.81-14.39-5.23-5.03-10.39-10.14-15.61-15.18-.81-.78-1.79-.52-2.7-.52-4.76-.02-9.53.12-14.29.02-13.4-.28-26.67-1.23-39.86-4.17-5.91-1.32-11.84-2.66-17.5-4.61-6.61-2.28-11.36-7.1-14.01-13.81-2.53-6.38-2.21-12.36.82-18.63,2.19-4.52,5.29-8.14,9.39-10.27,5.88-3.06,12.29-3.52,19.02-1.74,9.92,2.62,19.82,5.72,30.33,5.33,2.41-.09,3.22-1.15,2.76-3.14-1.83-7.8-1.61-15.81-2.74-23.69-.64-4.44.42-8.91.64-13.36.46-9.31,2.36-18.37,5-27.26,1.37-4.6,3.26-9.07,5.17-13.48,2.96-6.86,6.94-13.16,11.26-19.24,3.86-5.43,8.34-10.32,13.1-14.98,4.22-4.13,8.58-8.04,13.34-11.55,6.9-5.07,14.21-9.22,22.32-12.17,9.35-3.4,18.82-5.37,28.79-5.35,5.57,0,10.89,1.21,16.27,2.27,7.25,1.43,13.99,4.13,20.61,7.41,7.92,3.92,14.53,9.34,20.74,15.5,6.15,6.1,10.45,13.44,13.16,21.4,2.85,8.36,5.7,16.97,4.28,25.25ZM143.63,294.6c-.48,3,.25,5.92.67,8.81.74,5.11,1.3,10.28,3.39,15.12.96,2.22,2.24,2.6,4.47,2.25,4.65-.73,8.82-2.75,13.19-4.26,6.61-2.3,12.81-5.49,18.78-9.02,7.12-4.2,13.76-9.16,20.08-14.51,6.99-5.92,13.05-12.58,16.61-21.23,1.93-4.67,3.33-9.33,3.77-14.48.35-3.97.39-7.91-.76-11.49-2.35-7.33-6.86-13-14.15-16.47-9.81-4.67-18.93-1.84-27.89,1.99-3.56,1.52-6.91,3.72-10.13,6.15-5.25,3.96-9.82,8.55-13.73,13.68-4.05,5.3-7.01,11.28-9.38,17.66-3.13,8.41-4.29,17.02-4.92,25.8Z"/>
  <path class="st1" d="M241.29,84.43c4.41-.23,11.43-.74,18.46-.92,11.53-.29,23.01.77,34.47,1.78,5.44.48,10.75,2.31,16.18,2.89,6.73.72,13.05,3.06,19.5,4.7,5.68,1.45,11.31,3.56,16.82,5.85,4.09,1.7,8.15,3.46,12.13,5.38,6.73,3.24,13.41,6.59,19.6,10.84,2.15,1.47,4.4,2.8,6.59,4.25,8.34,5.52,16.03,11.84,23.52,18.44,7.45,6.56,14.16,13.84,20.45,21.44,4.82,5.83,9.36,11.95,13.21,18.57,3.05,5.26,5.92,10.52,8.03,16.21.89,2.42,1.6,4.88,1.68,7.44.12,3.62-2.39,5.31-5.6,3.7-7.37-3.71-13.96-8.62-20.64-13.4-4.12-2.95-8.37-5.73-12.58-8.56-3.27-2.19-6.57-4.31-9.86-6.47-6.11-4.03-12.41-7.74-18.81-11.3-6.31-3.51-12.79-6.7-19.39-9.55-11.45-4.94-23.17-9.38-35.41-11.83-8.03-1.61-16.04-3.4-24.16-4.7-13.81-2.21-27.6-2.78-41.46-2.47-8.03.18-16,1.8-24,2.39-8.32.61-16.08,3.47-24.24,4.51-3.15.4-6.12,2-9.26,2.68-6.86,1.48-13.38,4.01-19.92,6.38-10.46,3.79-20.73,8.06-30.56,13.38-4.97,2.69-9.94,5.3-14.68,8.44-5.54,3.67-11.11,7.27-16.46,11.24-6.74,5.01-13.22,10.28-19.24,16.15-4.01,3.91-7.73,8.11-11.7,12-5.3,5.2-9.75,11.06-14.63,16.57-1.45,1.64-2.57,3.64-4.23,5.19-3.06,2.86-8.84,2.99-12.37.63-5.45-3.64-4.73-8.3-3.09-13.91,2.2-7.51,4.66-14.99,7.75-22.17,2.65-6.13,5.51-12.23,9.01-17.99,3.14-5.17,6.28-10.33,9.75-15.3,4.05-5.8,8.74-11.04,13.23-16.47,5.65-6.84,12.32-12.67,19.05-18.32,5.57-4.68,11.69-8.75,17.79-12.81,5.83-3.89,11.87-7.39,18.04-10.56,6.5-3.33,13.22-6.29,20.08-8.92,5.92-2.27,11.87-4.45,17.93-6.22,8.69-2.54,17.46-4.82,26.45-6.2,6.64-1.02,13.2-2.59,22.57-3Z"/>
</svg>