<?xml version="1.0" encoding="UTF-8"?>
<svg id="Layer_1" xmlns="http://www.w3.org/2000/svg" version="1.1" viewBox="0 0 500 500">
  <!-- Generator: Adobe Illustrator 29.2.1, SVG Export Plug-In . SVG Version: 2.1.0 Build 116)  -->
  <defs>
    <style>
      .st0 {
        fill: #0d2139;
      }

      .st1 {
        fill: #f0b501;
      }
    </style>
  </defs>
  <g>
    <path class="st1" d="M228.68,112.31c.11,5.56,1.04,12.59,3.68,20.14,7.44,22.31,19.79,45.28,37.74,70.2,14.81,21.51,31.43,43.43,52.68,58.14,7.44,5.14,16.64,9.4,23.66,12.28-.31,33.5-7.83,56-22.39,66.95-5.69,4.29-12.36,6.48-19.84,6.48-11.69,0-24.43-5.43-34.08-14.53-.84-.79-1.64-1.54-2.43-2.28-4.37-4.1-7.83-7.33-11.69-13.71l-1.04-2.09c1.61-7.8,6.08-37.37-5.4-84.41l-.02-.05-.02-.05c-2.46-8.79-4.77-17.54-7.01-26.01-2.17-8.18-4.4-16.64-6.77-25.14-.74-3.91-2.15-8.52-3.52-12.99l-.21-.77c-1.93-7.09-3.94-14.4-5.26-21.6-.23-1.09-.47-2.19-.71-3.28-1.24-5.61-2.4-10.91-1.33-16.65.69-4.07,2.17-7.6,3.94-10.63M232.99,101.83c-5.53,5.29-10.01,12.27-11.4,20.58-1.38,7.54.68,14.32,2.06,21.11,1.38,7.54,3.47,15.06,5.53,22.62,1.38,4.52,2.76,9.03,3.47,12.81,4.82,17.33,8.97,33.93,13.82,51.28,11.77,48.26,6.53,78.03,5.13,84.07l1.61,3.21c4.82,8.04,9.16,11.49,14.69,16.77,9.63,9.07,23.13,15.42,36.31,15.42,7.64,0,15.17-2.14,21.77-7.12,20.08-15.06,23.69-46.78,23.69-71.66-7.59-3.01-17.44-7.51-25.06-12.76-20.74-14.34-37.34-36.2-51.86-57.31-15.21-21.11-29.03-44.5-37.34-69.38-5.53-15.85-3.1-28.12-2.43-29.63h0Z"/>
    <path class="st0" d="M355.06,301.86c-.71,9.81-2.09,19.61-4.15,28.65-6.91,26.4-23.53,49.78-44.27,64.11-24.21,17.36-54.62,21.11-82.29,17.36-21.44-2.27-42.89-9.81-61.55-22.62-4.85-3.04-9.69-6.78-13.84-11.33-7.59-7.54-14.52-15.83-20.05-25.64-21.44-35.43-22.83-79.94-37.36-118.41-11.75-31.67-27.65-61.07-46.33-87.46-5.53-7.56-11.06-15.09-17.3-22.62,0,0,97.51-52.79,145.24-3.78,37.36,39.21,58.09,148.56,81.61,196.07,3.47,6.78,8.29,12.81,13.15,17.36,15.21,14.32,40.11,21.86,58.08,8.29,20.77-15.85,21.44-50.54,22.15-75.41v-10.56c0-.77,0-7.54,1.38-6.78.68.77,1.38,3.01,1.38,3.78.68,2.25,1.38,4.52,1.38,6.78,2.04,13.55,3.42,27.89,2.75,42.21"/>
    <path class="st0" d="M235.41,132.19c8.29,24.87,22.12,48.26,37.34,69.36,15.22,21.11,31.12,42.23,51.86,57.31,23.53,16.59,51.86,20.37,79.54,16.59,9.68-1.51,18.66-4.52,27.65-9.03,8.29-4.53,15.91-9.07,22.83-15.09,6.2-5.29,11.75-10.56,17.3-16.59,3.44-3.78-56.04,14.32-119.65-87.48-63.62-101.79-120.34-44.48-120.34-44.48,0,0-2.06,12.07,3.47,29.42Z"/>
  </g>
  <path class="st1" d="M228.68,112.31c.11,5.56,1.04,12.59,3.68,20.14,7.44,22.31,19.79,45.28,37.74,70.2,14.81,21.51,31.43,43.43,52.68,58.14,7.44,5.14,16.64,9.4,23.66,12.28-.31,33.5-7.83,56-22.39,66.95-5.69,4.29-12.36,6.48-19.84,6.48-11.69,0-24.43-5.43-34.08-14.53-.84-.79-1.64-1.54-2.43-2.28-4.37-4.1-7.83-7.33-11.69-13.71l-1.04-2.09c1.61-7.8,6.08-37.37-5.4-84.41l-.02-.05-.02-.05c-2.46-8.79-4.77-17.54-7.01-26.01-2.17-8.18-4.4-16.64-6.77-25.14-.74-3.91-2.15-8.52-3.52-12.99l-.21-.77c-1.93-7.09-3.94-14.4-5.26-21.6-.23-1.09-.47-2.19-.71-3.28-1.24-5.61-2.4-10.91-1.33-16.65.69-4.07,2.17-7.6,3.94-10.63"/>
</svg>