<?xml version="1.0" encoding="UTF-8"?>
<svg version="1.1" xmlns="http://www.w3.org/2000/svg" width="1042" height="1042">
<path d="M0 0 C1.00804687 0.75023437 2.01609375 1.50046875 3.0546875 2.2734375 C22.59319748 17.63577741 31.14831829 38.74199787 38 62 C38.21060059 62.70092773 38.42120117 63.40185547 38.63818359 64.12402344 C45.33973973 87.3602024 40.05555819 112.7340712 36 136 C35.70095469 137.77068692 35.40263355 139.54149651 35.10546875 141.3125 C34.66836072 143.9103161 34.20077006 146.49920475 33.71899414 149.08935547 C33.26047547 151.5832611 32.82116327 154.08082789 32.40722656 156.58251953 C30.59391999 167.14634132 27.69089692 177.13214194 24.375 187.3125 C23.84132895 188.97560175 23.30837904 190.63893507 22.77612305 192.30249023 C19.17311424 203.52948773 15.48073734 214.72850459 11.67919922 225.88989258 C11.16703857 227.40039185 11.16703857 227.40039185 10.64453125 228.94140625 C10.34909424 229.80451416 10.05365723 230.66762207 9.74926758 231.55688477 C8.99325333 234.02199868 8.46115636 236.46463208 8 239 C9.26827637 239.26409668 10.53655273 239.52819336 11.84326172 239.80029297 C17.15973006 240.9839331 22.31612222 242.55807583 27.5078125 244.1953125 C29.5702471 244.83614802 31.63274958 245.47676512 33.6953125 246.1171875 C36.87138239 247.10772008 40.0467348 248.10040942 43.22070312 249.09765625 C71.56040032 257.98642477 99.8532067 264.85058531 129.05819702 270.07382202 C137.27754069 271.54417705 145.48830159 273.06154378 153.69921875 274.578125 C154.50151979 274.72603674 155.30382084 274.87394848 156.13043404 275.02634239 C169.69702952 277.53044941 183.21583785 280.21010604 196.6875 283.1875 C197.50385925 283.36586395 198.32021851 283.54422791 199.16131592 283.72799683 C219.8464055 288.26960825 219.8464055 288.26960825 223 293 C222.74720774 298.99117654 221.25072667 303.47379063 218.5 308.75 C218.14542725 309.44174316 217.79085449 310.13348633 217.42553711 310.84619141 C211.83908568 321.42320611 204.17274635 330.32477015 196 339 C195.40058594 339.66386719 194.80117188 340.32773437 194.18359375 341.01171875 C156.30571626 381.34388635 94.22655665 394.67802527 42 403 C40.97190216 403.16498993 40.97190216 403.16498993 39.92303467 403.33331299 C0.52419516 409.60329128 -39.98570803 410.51387871 -79.82104492 410.97024536 C-82.06012222 411.000821 -84.29837465 411.05001659 -86.53710938 411.09936523 C-93.87994546 411.22375856 -100.94114169 411.03486493 -108.203125 409.88671875 C-124.83286988 407.30036643 -135.721494 407.12276931 -149.9921875 417.37890625 C-150.82588867 417.99652832 -151.65958984 418.61415039 -152.51855469 419.25048828 C-156.42247477 422.0028979 -160.56282908 424.09069654 -164.875 426.125 C-165.71289062 426.52372314 -166.55078125 426.92244629 -167.4140625 427.33325195 C-175.97898534 431.24650852 -184.8998403 434.10461356 -193.82440186 437.06253052 C-213.49121414 443.60992586 -231.78107359 452.44690792 -249 464 C-250.43425334 464.94498628 -251.86917497 465.88895888 -253.3046875 466.83203125 C-276.00809525 481.80577595 -298.44775595 497.26227394 -320.42944336 513.27514648 C-325.75878272 517.14291588 -331.17289825 520.87032681 -336.625 524.5625 C-343.31993447 529.10069991 -349.8522524 533.80081212 -356.29345703 538.69165039 C-360.479116 541.86898905 -364.70944188 544.96597115 -369 548 C-373.95386316 551.50869396 -378.83895428 555.097158 -383.6875 558.75 C-392.74045963 565.57004328 -401.85530677 572.30352152 -411 579 C-411.79825195 579.58523438 -412.59650391 580.17046875 -413.41894531 580.7734375 C-425.326639 589.48992739 -437.08680544 597.64130948 -450.25 604.375 C-451.10255371 604.81674561 -451.95510742 605.25849121 -452.83349609 605.71362305 C-457.62087086 608.10731043 -461.62772485 609.73207323 -467 610 C-472.27847846 608.11482912 -474.43530447 603.69639687 -477 599 C-478.50630296 595.64081413 -479.77332675 592.21996238 -481 588.75 C-481.34248779 587.78763428 -481.68497559 586.82526855 -482.0378418 585.83374023 C-496.88318078 543.17218775 -495.86685485 499.58099241 -484.50317383 456.27050781 C-483.89181824 453.89944264 -483.89181824 453.89944264 -484 451 C-484.86536377 450.71503662 -485.73072754 450.43007324 -486.62231445 450.13647461 C-564.6160712 424.40662795 -564.6160712 424.40662795 -586 414 C-586.93038086 413.55124512 -587.86076172 413.10249023 -588.81933594 412.64013672 C-615.46294089 399.64770724 -647.29127897 382.31689614 -659.4375 353.75 C-662.20426779 345.34143181 -662.69658102 335.76441897 -659.0625 327.5625 C-643.68954454 301.79895968 -600.66378101 297.04596035 -574.31826782 289.98635864 C-564.06078242 287.23677555 -553.81193459 284.45519298 -543.5625 281.67578125 C-542.01171721 281.25542382 -542.01171721 281.25542382 -540.42960548 280.82657433 C-521.10017606 275.58589475 -501.7846305 270.29791331 -482.50448608 264.878479 C-479.42505264 264.01322983 -476.34392319 263.154534 -473.26089478 262.30218506 C-456.03203827 257.53429794 -439.27941705 252.22101312 -422.80526733 245.1960144 C-419.64403817 243.84823711 -416.47291964 242.52544467 -413.30004883 241.20532227 C-412.28735428 240.78380386 -411.27465973 240.36228546 -410.23127747 239.92799377 C-409.12679512 239.46863686 -409.12679512 239.46863686 -408 239 C-408.53367187 237.88367188 -409.06734375 236.76734375 -409.6171875 235.6171875 C-411.64734977 231.35997918 -413.66191724 227.09556724 -415.66943359 222.82763672 C-416.54777376 220.96104299 -417.42826496 219.09545975 -418.31103516 217.23095703 C-429.91867117 192.64470437 -438.16783116 168.3599206 -438.24023438 140.92211914 C-438.24992983 138.70355578 -438.28100967 136.48592456 -438.3125 134.26757812 C-438.40287307 122.12257918 -437.12855914 112.42751324 -428.4375 103.3125 C-421.19425198 97.66143502 -411.15234738 97.53120168 -402.375 97.6875 C-401.28872314 97.70022949 -400.20244629 97.71295898 -399.08325195 97.72607422 C-360.32638658 98.40273257 -322.3452882 106.28747639 -284.98046875 116.1484375 C-283.93608643 116.42358185 -282.8917041 116.6987262 -281.81567383 116.98220825 C-276.58284555 118.36332832 -271.35431207 119.75829327 -266.13134766 121.17626953 C-264.20869791 121.69057572 -262.28601084 122.20474238 -260.36328125 122.71875 C-259.47617966 122.96418549 -258.58907806 123.20962097 -257.6750946 123.4624939 C-256.85330215 123.68047638 -256.0315097 123.89845886 -255.18481445 124.12304688 C-254.47001419 124.31733276 -253.75521393 124.51161865 -253.01875305 124.71179199 C-250.65872535 125.0487222 -249.22742449 124.84022488 -247 124 C-244.94385975 122.02506134 -243.06570365 120.06885155 -241.1875 117.9375 C-240.38421265 117.04623413 -240.38421265 117.04623413 -239.56469727 116.13696289 C-236.28537275 112.48802507 -233.04872313 108.80084607 -229.83984375 105.08984375 C-226.57142623 101.37731005 -223.20017341 97.75783475 -219.84375 94.125 C-217.74393029 91.84103768 -215.71092126 89.50804362 -213.6875 87.15625 C-209.15793209 81.95984276 -204.23170413 77.18283644 -199.31640625 72.35546875 C-195.99396724 69.0690779 -192.75250796 65.77555239 -189.71484375 62.22265625 C-185.28487089 57.07649812 -180.46538782 52.3157821 -175.6574707 47.52709961 C-174.06541034 45.94040054 -172.4787701 44.34842258 -170.89257812 42.75585938 C-166.00019829 37.86075775 -161.05971125 33.08848591 -155.79516602 28.59008789 C-153.30681476 26.38600361 -151.02670716 24.00765253 -148.72680664 21.60986328 C-110.16938664 -18.46796801 -47.35077537 -35.48082623 0 0 Z " fill="#1B475D" transform="translate(738,201)"/>
<path d="M0 0 C19.76537821 15.61214684 30.83021394 40.9360861 34.52734375 65.515625 C35.05724705 70.05352414 35.15204508 74.55960567 35.1484375 79.125 C35.14908203 79.9819043 35.14972656 80.83880859 35.15039062 81.72167969 C35.07969039 90.47886789 34.1336288 99.08046075 32.9609375 107.75 C32.3009375 107.75 31.6409375 107.75 30.9609375 107.75 C30.43306641 106.71552734 30.43306641 106.71552734 29.89453125 105.66015625 C20.46400439 87.7101456 7.29986706 77.27054203 -12.1015625 71 C-13.74081703 70.55815946 -15.38708529 70.14159899 -17.0390625 69.75 C-17.89113281 69.54503906 -18.74320313 69.34007812 -19.62109375 69.12890625 C-28.45712885 67.33698305 -37.29052106 67.40889987 -46.26123047 67.67578125 C-48.08795155 67.724588 -49.91531997 67.75379812 -51.74267578 67.76171875 C-72.75884751 67.91164685 -92.03726706 74.53171181 -111.800354 81.0177002 C-113.82843399 81.6811017 -115.85919094 82.33494434 -117.89208984 82.98339844 C-172.2513945 100.40615357 -221.51416642 130.1576296 -268.0390625 162.75 C-269.54919922 163.801875 -269.54919922 163.801875 -271.08984375 164.875 C-284.76471186 174.59935065 -297.44480594 185.68599649 -310.0390625 196.75 C-312.70122715 199.08860926 -315.36441127 201.42568092 -318.0390625 203.75 C-318.8434375 204.45125 -319.6478125 205.1525 -320.4765625 205.875 C-322.7100751 207.50927751 -324.78596142 208.66140601 -327.23828125 209.91015625 C-332.14327204 212.6120705 -335.62674168 215.98903513 -339.4140625 220.0625 C-344.43685589 225.28650695 -349.43301354 229.69458358 -355.421875 233.80859375 C-363.36030836 239.69725253 -369.72206774 247.38149944 -375.859375 255.05859375 C-380.65039528 260.97438761 -385.73832152 266.54364806 -391.2890625 271.75 C-396.09262687 276.49549019 -399.86291756 281.83254497 -403.74682617 287.32788086 C-408.06243932 293.43251633 -412.54148738 299.38868436 -417.1015625 305.3125 C-423.4680889 313.61748664 -429.65579409 322.01536454 -435.5859375 330.63769531 C-436.58175427 332.08524348 -437.5819834 333.52976329 -438.5859375 334.97167969 C-445.69296458 345.19682694 -451.87276005 355.42180556 -457.0390625 366.75 C-457.4928125 367.73677734 -457.9465625 368.72355469 -458.4140625 369.74023438 C-467.06928206 388.63971771 -475.38693788 407.70726863 -481.0390625 427.75 C-489.60467109 426.1510864 -497.61931562 423.1966297 -505.7890625 420.25 C-508.84158988 419.1564475 -511.89531646 418.06626861 -514.94921875 416.9765625 C-515.71563187 416.70256622 -516.48204498 416.42856995 -517.27168274 416.14627075 C-522.13583475 414.4121007 -527.01366799 412.72644992 -531.91015625 411.0859375 C-570.23378579 398.22386286 -623.69952119 379.35961466 -643.0703125 340.69140625 C-645.32682105 335.49934723 -645.85158305 330.35261265 -645.0390625 324.75 C-640.76250923 315.26720796 -629.36102925 309.34258551 -620.0390625 305.75 C-608.6660412 301.80672563 -597.02017799 298.6554037 -585.36694336 295.65942383 C-578.89588243 293.99512958 -572.46756319 292.19616724 -566.0390625 290.375 C-557.21381782 287.87927262 -548.36249813 285.51973895 -539.4765625 283.25 C-529.6991482 280.7509916 -520.00669499 278.03831815 -510.33276367 275.16625977 C-504.84403066 273.54386771 -499.35409232 272.02418444 -493.7890625 270.6875 C-487.14462442 269.0758994 -480.62455219 267.17050296 -474.08837891 265.16723633 C-468.36558094 263.42163698 -462.61854083 261.80412912 -456.84350586 260.24047852 C-402.23723798 245.37606789 -342.60616037 218.00456996 -298.0390625 182.75 C-297.21664063 182.10804688 -296.39421875 181.46609375 -295.546875 180.8046875 C-279.07838127 167.8087835 -263.85902998 153.63953327 -248.98306274 138.86923218 C-247.903803 137.79808792 -246.82307473 136.72842109 -245.74081421 135.66030884 C-244.20594138 134.14342454 -242.67825378 132.61964424 -241.15234375 131.09375 C-239.81876831 129.76633789 -239.81876831 129.76633789 -238.45825195 128.41210938 C-235.97653868 125.68119793 -234.03424188 122.84786274 -232.0390625 119.75 C-230.47074845 117.92686776 -228.86533604 116.13506859 -227.2265625 114.375 C-224.31221216 111.21849519 -221.41088094 108.062895 -218.6015625 104.8125 C-215.16904911 100.86064653 -211.62623849 97.01253085 -208.07739258 93.16552734 C-205.59237371 90.46609971 -203.15752035 87.73936122 -200.7890625 84.9375 C-196.66795814 80.16622141 -192.13038864 75.79123778 -187.63183594 71.37963867 C-184.59889346 68.38818381 -181.67298849 65.37256644 -178.91015625 62.12890625 C-174.03309949 56.47579828 -168.70042636 51.26237382 -163.41479492 45.99536133 C-161.60545317 44.19137915 -159.80151931 42.38211335 -157.99804688 40.57226562 C-152.72091608 35.29254498 -147.44242861 30.10198446 -141.75463867 25.26049805 C-139.39507487 23.18299396 -137.24203339 20.93528431 -135.0703125 18.66455078 C-99.28066759 -18.65501704 -43.68809556 -32.34491394 0 0 Z " fill="#FDFEFE" transform="translate(733.0390625,211.25)"/>
<path d="M0 0 C0.66 0.33 1.32 0.66 2 1 C-0.09637931 4.98723123 -2.15406532 7.11861374 -5.875 9.625 C-10.27765344 12.70918071 -14.42533237 15.94189284 -18.5 19.4375 C-19.03890869 19.89954834 -19.57781738 20.36159668 -20.13305664 20.83764648 C-21.21558171 21.76601194 -22.2980204 22.69447813 -23.38037109 23.62304688 C-27.52972234 27.15068345 -31.77150826 30.56805781 -36 34 C-36.33 33.34 -36.66 32.68 -37 32 C-33.43060367 28.28437142 -29.65935765 25.06477957 -25.5625 21.9375 C-20.39217405 17.93343901 -15.33816961 13.82087976 -10.375 9.5625 C-9.79564697 9.0667749 -9.21629395 8.5710498 -8.61938477 8.06030273 C-5.62868568 5.47904722 -2.74976199 2.83694957 0 0 Z " fill="#D7DFE3" transform="translate(462,371)"/>
<path d="M0 0 C0.66 0.33 1.32 0.66 2 1 C-0.37277818 6.02470674 -3.21097855 7.56030983 -8 10 C-6.34908222 5.70761377 -3.26245434 3.1206085 0 0 Z " fill="#E9EDEF" transform="translate(462,371)"/>
<path d="M0 0 C0.66 0.33 1.32 0.66 2 1 C-0.97 3.64 -3.94 6.28 -7 9 C-7.33 8.34 -7.66 7.68 -8 7 C-5.42215154 4.35247996 -3.08351902 2.05567935 0 0 Z " fill="#EAEEF0" transform="translate(433,396)"/>
</svg>
