<?xml version="1.0" encoding="UTF-8"?>
<svg version="1.1" xmlns="http://www.w3.org/2000/svg" width="1042" height="1042">
<path d="M0 0 C3.64541325 50.37379635 3.32486804 100.98938347 -4 151 C-2.57132854 149.58493493 -1.14463098 148.16787684 0.28125 146.75 C1.47331055 145.56664062 1.47331055 145.56664062 2.68945312 144.359375 C4.70950423 142.29663473 6.62511481 140.19401458 8.5 138 C11.74751544 134.21123199 15.24674228 130.73410777 18.80078125 127.234375 C20.8616248 125.14058723 22.78349685 122.98604785 24.6875 120.75 C27.54090248 117.41658589 30.54337554 114.69785324 34 112 C43.16495768 142.17729968 18.61785904 183.39137771 5 209 C2.92079378 212.68945279 0.8129137 216.36369418 -1.39624023 219.97705078 C-3.51561808 223.46833877 -3.51561808 223.46833877 -3.73828125 227.4375 C-3.37283203 228.2109375 -3.37283203 228.2109375 -3 229 C8.81008219 231.74689165 18.75763695 232.19621865 30.8671875 230.62890625 C32.9051892 230.36520315 34.95234826 230.17352981 37 230 C39.46893802 232.46893802 39.30783772 233.97520392 39.38012695 237.35522461 C39.26554393 288.08276489 15.588988 337.01848209 -14 377 C-14.43554199 377.58861816 -14.87108398 378.17723633 -15.31982422 378.78369141 C-20.73429329 386.05086231 -26.4718734 393.02022617 -32.3671875 399.8984375 C-34.70503651 402.63293092 -36.94932248 405.4331302 -39.1875 408.25 C-48.22933167 419.33509257 -58.41847848 429.49336321 -68.5 439.625 C-69.13365479 440.26332764 -69.76730957 440.90165527 -70.42016602 441.55932617 C-74.78257708 445.90685823 -79.32434821 449.99298442 -84 454 C-84.54124512 454.46825195 -85.08249023 454.93650391 -85.64013672 455.41894531 C-91.46822899 460.45170508 -97.3655385 465.34604668 -103.5 470 C-118.34010465 481.28862661 -133.09565141 493.59915447 -145 508 C-145.84175781 508.95390625 -146.68351563 509.9078125 -147.55078125 510.890625 C-155.67724217 520.11145668 -163.02457808 529.84973138 -170.32128906 539.73388672 C-171.78358987 541.70786521 -173.25727052 543.67192199 -174.7421875 545.62890625 C-176.84820275 548.40501726 -178.92727231 551.19901663 -181 554 C-181.63035156 554.81726563 -182.26070312 555.63453125 -182.91015625 556.4765625 C-185.61357543 560.15912439 -186.9698965 562.09689509 -187.125 566.75 C-185.35909497 571.85150343 -182.46082308 574.64102648 -178.4375 578.0625 C-168.83942558 586.30973432 -160.99802063 596.2617699 -153.33203125 606.26953125 C-152.04628004 607.93987667 -150.74493559 609.59659683 -149.4375 611.25 C-124 643.56477162 -124 643.56477162 -124 652 C-128.31422366 651.62825284 -132.34173484 651.19983049 -136.5 649.9375 C-140.71172715 648.8093588 -144.65954775 648.59948617 -149 649 C-150.58272601 650.58272601 -150.34735747 652.38034003 -150.5625 654.5625 C-150.64628906 655.38878906 -150.73007812 656.21507812 -150.81640625 657.06640625 C-150.87699219 657.70449219 -150.93757812 658.34257813 -151 659 C-156.67234549 658.35261274 -159.94227622 655.18236633 -164.28125 651.71484375 C-167.21064179 649.8671383 -168.61416382 649.61357304 -172 650 C-172.99 652.97 -173.98 655.94 -175 659 C-179.42630176 657.89342456 -180.35402102 656.92577747 -183.375 653.6875 C-188.20354741 648.69579628 -188.20354741 648.69579628 -194 645 C-196.51832747 644.99898015 -196.51832747 644.99898015 -199 646 C-200.92061366 648.08733908 -200.92061366 648.08733908 -202.4375 650.8125 C-203.02660156 651.79605469 -203.61570312 652.77960937 -204.22265625 653.79296875 C-206.56492886 658.01935514 -208.74259554 662.30946345 -210.8359375 666.6640625 C-212 669 -212 669 -213 670 C-218.23459879 669.67283758 -222.12598004 668.20505344 -226.7890625 665.83984375 C-229.38484362 664.70408142 -229.38484362 664.70408142 -234 665 C-238.455 673.415 -238.455 673.415 -243 682 C-244.32 682 -245.64 682 -247 682 C-248.52734375 680.13671875 -248.52734375 680.13671875 -249.9375 677.6875 C-252.20330706 674.02069773 -253.94540252 671.78879301 -258 670 C-267.11160793 676.15033535 -271.96339141 687.07667056 -276 697 C-278.71836541 695.99032142 -281.06082368 694.96046461 -283.5 693.375 C-286.25465025 691.59840104 -286.25465025 691.59840104 -291 692 C-293.475 698.435 -293.475 698.435 -296 705 C-299.25520833 704.609375 -302.51041667 704.21875 -305.765625 703.828125 C-308.98451038 703.72669124 -308.98451038 703.72669124 -311.1875 705.4375 C-313.69401773 708.98119747 -315.19120745 712.71587163 -316.75 716.75 C-317.22373047 717.93916016 -317.22373047 717.93916016 -317.70703125 719.15234375 C-318.48057437 721.09792189 -319.24155202 723.04848779 -320 725 C-323 725 -323 725 -325.04296875 723.25 C-325.75066406 722.5075 -326.45835937 721.765 -327.1875 721 C-327.90292969 720.2575 -328.61835937 719.515 -329.35546875 718.75 C-330.16951172 717.88375 -330.16951172 717.88375 -331 717 C-334.9841177 718.48381465 -336.16402691 720.52845789 -338.09375 724.234375 C-338.64933594 725.28367187 -339.20492187 726.33296875 -339.77734375 727.4140625 C-340.34582031 728.51492188 -340.91429687 729.61578125 -341.5 730.75 C-348.45675036 744.03250296 -348.45675036 744.03250296 -352 749 C-359.11628899 737.77270741 -352.98187298 713.20907259 -350.36572266 701.05273438 C-348.82640533 694.62529471 -346.98413706 688.30284335 -345 682 C-344.76410156 681.24138672 -344.52820313 680.48277344 -344.28515625 679.70117188 C-338.28168466 660.72409644 -329.11578074 643.78103041 -318.17578125 627.2421875 C-313.17001586 619.39940142 -309.40257416 610.45260442 -310 601 C-311.35183118 597.86944359 -312.20066044 596.39374176 -315.28074646 594.87654114 C-318.12428138 593.95993836 -320.3409399 593.74041658 -323.32055664 593.7253418 C-324.8896302 593.71127792 -324.8896302 593.71127792 -326.49040222 593.69692993 C-327.61892105 593.69768524 -328.74743988 593.69844055 -329.91015625 593.69921875 C-331.09229202 593.69352875 -332.2744278 593.68783875 -333.49238586 593.68197632 C-337.34922663 593.66978921 -341.20565992 593.67611631 -345.0625 593.6875 C-346.39585367 593.69001478 -347.72920735 593.69252739 -349.06256104 593.69503784 C-370.20140824 593.74827761 -391.01786535 594.430384 -412 597 C-413.38303314 597.16755798 -413.38303314 597.16755798 -414.79400635 597.33850098 C-442.44219096 600.70539455 -469.96331576 604.80106627 -497.4284668 609.42260742 C-498.40984619 609.5873909 -499.39122559 609.75217438 -500.40234375 609.92195129 C-502.21439463 610.227248 -504.02604142 610.53495884 -505.8371582 610.8457489 C-578.06994367 623.06182403 -657.44368 584.89670483 -714.6875 544.3125 C-726.50454681 535.84936303 -738.01567153 527.01949853 -749.03125 517.53515625 C-751.7715032 515.19512424 -754.5594552 512.93579533 -757.375 510.6875 C-763.88045674 505.38885262 -769.92977834 499.6240754 -776.02099609 493.86132812 C-778.02939187 491.97235583 -780.05295734 490.10110362 -782.08203125 488.234375 C-783.08218262 487.31144653 -783.08218262 487.31144653 -784.10253906 486.36987305 C-785.36627865 485.20451877 -786.6323831 484.04172127 -787.90136719 482.88208008 C-791.87105238 479.20720077 -795.84511867 475.41625723 -799 471 C-799 470.34 -799 469.68 -799 469 C-798.23558594 468.90501221 -797.47117187 468.81002441 -796.68359375 468.7121582 C-764.97886992 465.5260672 -764.97886992 465.5260672 -738 450 C-738.87398437 449.82460693 -739.74796875 449.64921387 -740.6484375 449.46850586 C-765.54502438 444.43340604 -790.08424325 439.3533156 -813 428 C-813.99483398 427.51877686 -813.99483398 427.51877686 -815.00976562 427.02783203 C-824.57203431 422.37201921 -832.8210083 416.77937815 -841 410 C-841.79921875 409.36578125 -842.5984375 408.7315625 -843.421875 408.078125 C-860.69772843 393.74284236 -871.13135889 373.08575146 -874 351 C-868.93032423 352.68652561 -864.79985732 355.65092314 -860.375 358.5625 C-838.75352263 372.45858354 -808.24558235 386.85215858 -781.66503906 381.53271484 C-779.43830983 381.0410259 -777.21754996 380.53142109 -775 380 C-775.52207031 379.69408936 -776.04414062 379.38817871 -776.58203125 379.07299805 C-796.57255272 367.32068951 -815.67700068 354.77884029 -832.78125 339.03515625 C-834.77699099 337.2045558 -836.81230611 335.44163517 -838.875 333.6875 C-847.17552207 326.44769373 -854.96772245 318.47262356 -862 310 C-862.43860352 309.48050781 -862.87720703 308.96101563 -863.32910156 308.42578125 C-876.34638234 292.97894905 -888.02893536 276.57483421 -898 259 C-898.4017041 258.29665527 -898.8034082 257.59331055 -899.21728516 256.86865234 C-905.16947202 246.41631036 -910.74951927 235.82031541 -916 225 C-916.36480469 224.25637207 -916.72960937 223.51274414 -917.10546875 222.74658203 C-922.67768821 211.37155211 -927.58836955 199.87310189 -932 188 C-927.87999614 188 -926.53375059 189.64525832 -923.3125 192.1875 C-922.7443457 192.63311279 -922.17619141 193.07872559 -921.59082031 193.5378418 C-916.41461977 197.6173541 -911.32276615 201.80197839 -906.21923828 205.97167969 C-893.25408151 216.52950476 -879.79683314 226.45539589 -866.29833984 236.31640625 C-864.17832051 237.86937559 -862.06678929 239.43313709 -859.95703125 241 C-790.42558552 292.29879291 -712.98505281 334.17480791 -526 398 C-524.79044647 398.30070404 -524.79044647 398.30070404 -523.55645752 398.60748291 C-451.69099394 416.4037888 -378.31758378 425.06013506 -304.62890625 430.88671875 C-303.43506317 430.98124329 -302.24122009 431.07576782 -301.01119995 431.17315674 C-294.61266937 431.67059188 -288.21352357 432.12163799 -281.80810547 432.51806641 C-280.46027612 432.6034174 -279.11245195 432.68885029 -277.76463318 432.77436829 C-275.20039289 432.9345442 -272.63565883 433.08704976 -270.07044983 433.23088074 C-268.92434738 433.30269058 -267.77824493 433.37450043 -266.59741211 433.44848633 C-265.58633896 433.50708328 -264.57526581 433.56568024 -263.53355408 433.62605286 C-261 434 -261 434 -258 436 C-257.37158203 438.0402832 -257.37158203 438.0402832 -257.0078125 440.55078125 C-256.8629541 441.47076904 -256.7180957 442.39075684 -256.56884766 443.33862305 C-256.34914307 444.81069214 -256.34914307 444.81069214 -256.125 446.3125 C-254.66252007 455.12220052 -252.84072054 462.88930193 -249 471 C-248.58234375 471.92554688 -248.1646875 472.85109375 -247.734375 473.8046875 C-241.85829969 485.72569087 -231.57503 496.73043253 -219.328125 502.19140625 C-214.76213729 504.34606613 -212.52740025 505.8785025 -210.33203125 510.546875 C-207.71729506 518.10794186 -206.12248917 526.09231513 -205 534 C-204.34 534 -203.68 534 -203 534 C-202.75507812 532.76121094 -202.51015625 531.52242187 -202.2578125 530.24609375 C-200.94167083 524.34420104 -198.94351995 518.73695338 -196.875 513.0625 C-196.47539063 511.96292969 -196.07578125 510.86335938 -195.6640625 509.73046875 C-185.53106336 482.21745211 -168.50691956 440.9229832 -140.6875 426.5 C-136.11016487 424.63803317 -132.80612721 423.88224174 -127.875 424 C-124.29616131 424.15316487 -124.29616131 424.15316487 -121 423 C-121.58590734 415.82263514 -123.94047791 410.65948961 -129.25 405.75 C-134.73032784 401.38905827 -140.2409202 399.54361243 -147.29638672 399.64306641 C-153.03839473 400.40113176 -158.30370831 402.93677897 -163.625 405.125 C-182.01511074 412.44264131 -203.86089587 420.69445187 -224 420 C-224 419.34 -224 418.68 -224 418 C-221.65954447 416.13371468 -219.30379095 414.36987347 -216.875 412.625 C-202.54482783 402.10085503 -189.53965305 390.56085501 -178 377 C-177.21238281 376.10152344 -176.42476562 375.20304687 -175.61328125 374.27734375 C-149.3993811 344.16903066 -129.64206654 309.10592501 -111 274 C-110.4652002 272.99888184 -109.93040039 271.99776367 -109.37939453 270.96630859 C-101.2165165 255.65815373 -93.71420833 240.10923812 -86.52148438 224.32373047 C-85.11950774 221.26106843 -83.69771178 218.20882858 -82.265625 215.16015625 C-61.29312653 170.353513 -43.90160062 123.81378995 -28 77 C-27.7389447 76.23296753 -27.4778894 75.46593506 -27.20892334 74.67565918 C-22.20677061 59.97190015 -17.29803107 45.2431254 -12.69140625 30.41015625 C-12.41776245 29.53170044 -12.14411865 28.65324463 -11.86218262 27.74816895 C-10.5346656 23.48364641 -9.21757543 19.21642904 -7.91943359 14.94287109 C-7.44530003 13.40843188 -6.97086925 11.87408446 -6.49609375 10.33984375 C-6.18279869 9.28785545 -6.18279869 9.28785545 -5.86317444 8.21461487 C-3.29657564 0 -3.29657564 0 0 0 Z " fill="#1B475D" transform="translate(967,92)"/>
<path d="M0 0 C1.65252777 -0.00525696 1.65252777 -0.00525696 3.33843994 -0.01062012 C6.96787886 -0.01939832 10.59712171 -0.01360197 14.2265625 -0.00683594 C16.75569699 -0.00818371 19.28483124 -0.01012518 21.81396484 -0.01263428 C27.10972809 -0.01558025 32.40542154 -0.01149666 37.70117188 -0.00195312 C43.81046467 0.00892986 49.91962394 0.00540369 56.0289135 -0.00560594 C61.92303445 -0.0157998 67.81711417 -0.01468991 73.71124268 -0.00884247 C76.21185322 -0.0075099 78.71246718 -0.00913992 81.21307373 -0.01380157 C84.70984884 -0.01888997 88.20636885 -0.01112375 91.703125 0 C92.73294495 -0.00404846 93.76276489 -0.00809692 94.8237915 -0.01226807 C101.4798741 0.02688618 107.15362804 0.17402152 112.6015625 4.38378906 C118.09932497 11.40870777 118.28838663 18.38220044 118.23974609 26.96386719 C118.24763153 28.68735634 118.24763153 28.68735634 118.25567627 30.44566345 C118.26883306 34.22726205 118.26015308 38.0084365 118.25 41.79003906 C118.25202197 44.42745036 118.25493443 47.06486112 118.25869751 49.70227051 C118.26414263 55.22327227 118.25699628 60.74415332 118.24267578 66.26513672 C118.22635155 72.63180419 118.23164095 78.99818336 118.248155 85.36484385 C118.26345263 91.51047466 118.26177846 97.65597851 118.2530098 103.80162048 C118.25101203 106.40746603 118.25345214 109.01331896 118.26044846 111.61915588 C118.26808777 115.26420434 118.25642301 118.90870329 118.23974609 122.55371094 C118.24581879 123.62511826 118.25189148 124.69652557 118.25814819 125.80039978 C118.20585238 131.98677644 117.52801071 136.648743 114.8515625 142.25878906 C109.74274952 147.23988172 105.16365467 147.43666126 98.32421875 147.57519531 C97.4486734 147.59606705 96.57312805 147.61693878 95.67105103 147.63844299 C92.75215135 147.70538118 89.83316783 147.7640569 86.9140625 147.82128906 C85.90791901 147.84213562 84.90177551 147.86298218 83.86514282 147.88446045 C67.09031167 148.22628259 50.31717308 148.36512804 33.5390625 148.38378906 C31.95546432 148.38767136 31.95546432 148.38767136 30.33987427 148.39163208 C18.59701528 148.41441152 6.85908313 148.28835468 -4.87890625 147.93847656 C-5.93410965 147.916492 -6.98931305 147.89450745 -8.07649231 147.87185669 C-17.19143254 147.54872611 -17.19143254 147.54872611 -21.1484375 144.25878906 C-25.39107193 139.66260176 -26.26813873 136.36130048 -26.28887939 130.23797607 C-26.29458954 129.22592606 -26.30029968 128.21387604 -26.30618286 127.17115784 C-26.30730072 126.06666794 -26.30841858 124.96217804 -26.30957031 123.82421875 C-26.31453522 122.65630295 -26.31950012 121.48838715 -26.32461548 120.28507996 C-26.33923397 116.41693535 -26.34603878 112.54883177 -26.3515625 108.68066406 C-26.35429908 107.34603094 -26.35715553 106.01139806 -26.36013031 104.67676544 C-26.37379879 98.40515093 -26.3834682 92.13354944 -26.3873322 85.86192107 C-26.39180926 78.63601403 -26.40934335 71.41029649 -26.4383328 64.18444705 C-26.45999272 58.59022856 -26.4700388 52.99606321 -26.47137332 47.40180326 C-26.47241843 44.06478112 -26.47972188 40.72807863 -26.49619293 37.39107513 C-26.51327446 33.66421718 -26.5113676 29.93781887 -26.50488281 26.2109375 C-26.5140976 25.11454453 -26.52331238 24.01815155 -26.5328064 22.88853455 C-26.49373023 15.70830748 -26.07091544 9.34362689 -20.8984375 3.88378906 C-14.17830042 -0.08720103 -7.60708431 -0.02990522 0 0 Z " fill="#1B475D" transform="translate(886.1484375,691.7412109375)"/>
<path d="M0 0 C0.79917847 -0.00686325 1.59835693 -0.0137265 2.42175293 -0.02079773 C5.05031352 -0.0390237 7.67827485 -0.03523431 10.30688477 -0.02954102 C12.14242241 -0.03410486 13.97795835 -0.03941105 15.81349182 -0.04542542 C19.65584262 -0.05434828 23.49798547 -0.05194282 27.34033203 -0.04199219 C32.25421768 -0.03050402 37.16738455 -0.05071577 42.0811758 -0.07990932 C45.87055489 -0.09829188 49.65976238 -0.09797476 53.44917488 -0.0922718 C55.26039704 -0.09211884 57.07163101 -0.09814267 58.88281059 -0.11056328 C61.41972279 -0.12551051 63.95531542 -0.11476969 66.4921875 -0.09765625 C67.60446465 -0.1121582 67.60446465 -0.1121582 68.73921204 -0.12695312 C74.2812934 -0.04901873 77.36747878 1.31087628 81.81079102 4.40405273 C85.43194908 10.19790564 85.96140027 15.28263236 85.97192383 21.9831543 C85.97937119 23.12055305 85.97937119 23.12055305 85.98696899 24.28092957 C86.00155403 26.78552159 86.0083871 29.29005024 86.01391602 31.79467773 C86.01967122 33.54099529 86.02542891 35.28731283 86.03118896 37.03363037 C86.04168906 40.69535618 86.04753797 44.35706009 86.05102539 48.01879883 C86.05650289 52.69708957 86.08051913 57.37508821 86.10899734 62.05328751 C86.12767844 65.66167021 86.13283227 69.26998338 86.13436127 72.87841034 C86.13737683 74.60228825 86.14536812 76.32616525 86.15854645 78.04999542 C86.17571915 80.46934315 86.17369953 82.88798808 86.16723633 85.30737305 C86.17645111 86.011035 86.18566589 86.71469696 86.19515991 87.43968201 C86.14927706 92.95910643 85.19934472 98.75732603 81.39421463 102.97374344 C76.45873422 107.23716096 72.37512418 107.5557155 66.12988281 107.56518555 C65.34904327 107.57015045 64.56820374 107.57511536 63.76370239 107.58023071 C61.17912923 107.59484168 58.59461746 107.6016528 56.01000977 107.60717773 C54.21263121 107.61293037 52.41525267 107.61868809 50.61787415 107.62445068 C46.84762282 107.63495785 43.07739281 107.64080228 39.30712891 107.64428711 C34.48176506 107.64976909 29.65668378 107.67379196 24.8314085 107.70225906 C21.11759119 107.72090606 17.40384163 107.72609216 13.68998146 107.72762299 C11.91142038 107.73064574 10.13286038 107.73866154 8.35434532 107.75180817 C5.86264081 107.76891078 3.37162261 107.76697822 0.87988281 107.76049805 C0.14875778 107.76971283 -0.58236725 107.77892761 -1.33564758 107.78842163 C-6.02579316 107.75031558 -9.2061105 106.87500148 -13.18920898 104.40405273 C-17.81441598 99.27882336 -18.34346929 96.0283027 -18.36621094 89.30175781 C-18.37278214 88.46414917 -18.37935333 87.62654053 -18.38612366 86.7635498 C-18.40587965 83.98356033 -18.41752582 81.203625 -18.42749023 78.42358398 C-18.43156576 77.47432226 -18.43564129 76.52506054 -18.43984032 75.54703331 C-18.46071324 70.52045279 -18.47500832 65.49389966 -18.484375 60.46728516 C-18.49542766 55.27983679 -18.52981089 50.09281879 -18.5695467 44.90552235 C-18.59572207 40.9137239 -18.60406778 36.9220277 -18.60765648 32.93015099 C-18.61252192 31.01843047 -18.6241347 29.10671451 -18.64269447 27.1950779 C-18.66710017 24.51414819 -18.66611811 21.83432762 -18.65917969 19.15332031 C-18.67198975 18.36811508 -18.6847998 17.58290985 -18.69799805 16.77391052 C-18.64572567 11.21256948 -17.5446961 7.89687324 -14.18920898 3.40405273 C-9.64920305 0.23346898 -5.3833214 -0.03259238 0 0 Z " fill="#1B475D" transform="translate(764.189208984375,809.595947265625)"/>
<path d="M0 0 C1.62232292 -0.01925285 1.62232292 -0.01925285 3.27742004 -0.03889465 C4.44617172 -0.04628159 5.6149234 -0.05366852 6.8190918 -0.0612793 C8.02139938 -0.06935104 9.22370697 -0.07742279 10.46244812 -0.08573914 C13.00864215 -0.09957776 15.55485472 -0.1103009 18.10107422 -0.11816406 C21.99246377 -0.13538367 25.88300536 -0.17927451 29.77416992 -0.22338867 C32.24747096 -0.23351501 34.72077923 -0.2420313 37.1940918 -0.2487793 C38.93811028 -0.27504143 38.93811028 -0.27504143 40.71736145 -0.30183411 C47.04755076 -0.28485949 50.92297905 -0.1194399 55.70581055 4.17700195 C56.22631989 4.63443283 56.74682922 5.09186371 57.28311157 5.56315613 C62.03021954 10.94806222 61.01272775 20.74518299 61.0065918 27.45825195 C61.01087692 28.51177856 61.01516205 29.56530518 61.01957703 30.65075684 C61.0252898 32.8660409 61.02584327 35.08134372 61.02148438 37.29663086 C61.01831971 40.66723841 61.04183905 44.03697104 61.06713867 47.4074707 C61.06941166 49.57023002 61.07011517 51.73299168 61.0690918 53.89575195 C61.07830154 54.89288208 61.08751129 55.89001221 61.09700012 56.9173584 C61.05025676 64.05620711 60.33259914 70.87233243 55.76831055 76.61450195 C46.47029206 81.35838894 34.85273644 80.49097096 24.65161133 80.43774414 C22.2097898 80.42701943 19.76870368 80.43769878 17.3269043 80.45043945 C-7.83175932 80.47372875 -7.83175932 80.47372875 -14.29418945 74.17700195 C-17.51854346 67.44639909 -17.7476286 61.47159566 -17.7277832 54.08325195 C-17.73302505 52.93715454 -17.73826691 51.79105713 -17.7436676 50.61022949 C-17.7500671 48.19646003 -17.74877781 45.78265931 -17.74023438 43.36889648 C-17.73171602 39.68847904 -17.7605311 36.00961049 -17.79223633 32.3293457 C-17.7938484 29.97648158 -17.7932707 27.62361473 -17.7902832 25.27075195 C-17.80151718 24.17782837 -17.81275116 23.08490479 -17.82432556 21.9588623 C-17.76602096 15.52814376 -17.07559707 10.51173417 -13.29418945 5.17700195 C-9.02379742 1.11492173 -5.79624734 0.0599169 0 0 Z " fill="#1B475D" transform="translate(877.294189453125,868.822998046875)"/>
</svg>
