<?xml version="1.0" encoding="UTF-8"?>
<svg id="Layer_1" xmlns="http://www.w3.org/2000/svg" version="1.1" viewBox="0 0 500 500">
  <!-- Generator: Adobe Illustrator 29.2.1, SVG Export Plug-In . SVG Version: 2.1.0 Build 116)  -->
  <defs>
    <style>
      .st0 {
        fill: #0d2139;
      }
    </style>
  </defs>
  <path class="st0" d="M269.29,76.96c47.26,26.04,93.98,53.2,141.39,79v184.78s-56.81,33.32-56.81,33.32c-.6.35-1.45.17-2.04.52-28.63,16.58-57.56,33.64-86.37,50.06-4.03,2.3-8.65,6.11-12.9,7.75-3.21,1.24-3.8.41-6.58-1.1-16.81-9.13-33.23-19.9-49.62-29.35-32.81-18.91-66.1-37.09-98.64-56.76-2.73-1.65-6.03-2.43-7.96-5.14l-.44-182.09c-.02-.86.2-1.43.85-2,2.06-1.81,7.53-3.66,10.13-5.15,48.99-28.15,99.19-55.67,148.71-83.53,1.15-.54,2.09-.05,3.16.31,4.26,1.42,12.65,6.92,17.13,9.39ZM251.28,68.15c-1.16-.2-1.6.76-2.19,1.52-5.22,6.79-10.24,18.05-14.76,25.7-32.66,55.31-65.13,110.98-97.42,166.03-14.36,24.49-29.87,48.52-43.59,73.33-.47.85-2.84,4.87-2.27,5.42h318.75S251.28,68.15,251.28,68.15Z"/>
</svg>