<?xml version="1.0" encoding="UTF-8"?>
<svg version="1.1" xmlns="http://www.w3.org/2000/svg" width="1042" height="1042">
<path d="M0 0 C1.1519989 -0.00067474 2.3039978 -0.00134949 3.49090576 -0.00204468 C23.61374128 0.01658983 43.46009694 0.82734647 63.4375 3.25 C64.1407843 3.33485657 64.8440686 3.41971313 65.56866455 3.50714111 C119.48770386 10.09801105 173.21645938 23.83033336 221.49169922 49.234375 C223.57899478 50.32385424 225.68079194 51.38139438 227.78515625 52.4375 C246.44672856 61.9011299 264.24179991 72.97370094 280.70410156 85.89746094 C282.37944484 87.20470062 284.0716552 88.48525416 285.7734375 89.7578125 C305.80080237 104.78811955 325.24379889 122.11820123 341.4375 141.25 C342.23414063 142.1575 343.03078125 143.065 343.8515625 144 C351.67399671 152.97114308 358.62500817 162.49754142 365.4375 172.25 C365.88480469 172.88663574 366.33210938 173.52327148 366.79296875 174.17919922 C377.40665911 189.369023 386.49888161 205.61816078 394.50634766 222.31835938 C395.45081185 224.27761493 396.41749717 226.22476518 397.38671875 228.171875 C432.69074484 299.99730739 443.156333 385.5193014 415.6875 585.8125 C399.0438333 633.56502625 373.46698098 676.6608244 339.4609375 714.0078125 C337.70407604 715.95460493 336.00529748 717.93535882 334.3125 719.9375 C326.10655311 729.35416036 316.99982233 738.22258919 307.4375 746.25 C305.95636719 747.54744141 305.95636719 747.54744141 304.4453125 748.87109375 C277.74182861 772.2269445 248.06394863 791.7632302 217.01806641 808.83056641 C214.74946427 810.0784049 212.48946069 811.34036752 210.23046875 812.60546875 C188.6900948 824.50105873 165.55570184 833.92852936 142.4375 842.25 C141.3036084 842.65814941 140.1697168 843.06629883 139.00146484 843.48681641 C90.41799105 860.75480189 36.4928766 874.46601934 -15.3125 874.4375 C-17.14216309 874.4384668 -17.14216309 874.4384668 -19.00878906 874.43945312 C-28.00459546 874.3869159 -36.69731136 873.79177194 -45.5625 872.25 C-43.21831825 869.90581825 -42.29455575 869.84144929 -39.08911133 869.33959961 C-38.15258224 869.18825058 -37.21605316 869.03690155 -36.25114441 868.88096619 C-34.7133709 868.64404808 -34.7133709 868.64404808 -33.14453125 868.40234375 C-30.93692483 868.04611098 -28.72940904 867.68931621 -26.52197266 867.33203125 C-25.35627747 867.14592285 -24.19058228 866.95981445 -22.98956299 866.76806641 C39.93780091 856.66075506 100.20504656 839.78333767 157.4375 811.25 C158.28650879 810.82750977 159.13551758 810.40501953 160.01025391 809.96972656 C189.05989958 795.39499025 215.51588026 777.02305845 240.4375 756.25 C240.94253555 755.83038498 241.44757111 755.41076996 241.96791077 754.97843933 C250.70090646 747.69756661 258.95181592 740.05354101 266.9621582 731.98608398 C268.75965805 730.17778392 270.56772316 728.38054023 272.37695312 726.58398438 C279.19064087 719.77843286 285.47215343 712.81913966 291.4375 705.25 C292.5096115 703.95571824 293.58599512 702.66495501 294.66796875 701.37890625 C353.60660913 630.60751659 394.20235435 524.78411446 387.3125 422.6875 C387.24881226 421.91565369 387.18512451 421.14380737 387.11950684 420.34857178 C380.20711243 338.70190232 351.42117155 258.16313061 243.68359375 124.87109375 C240.96773251 122.61962405 238.21021206 120.43110512 235.4375 118.25 C234.1117463 117.18258083 232.78624541 116.11484762 231.4609375 115.046875 C159.27702215 57.36102486 67.16881771 32.30999023 -43.125 25.6875 C-44.41857422 25.64431641 -45.71214844 25.60113281 -47.04492188 25.55664062 C-60.77268577 25.12313229 -74.46027371 25.21398574 -88.1875 25.625 C-88.89073395 25.6454538 -89.5939679 25.66590759 -90.31851196 25.6869812 C-103.85855603 26.09103936 -117.33419179 26.96024784 -130.8347168 28.08227539 C-133.75035663 28.26155084 -136.64208861 28.27768035 -139.5625 28.25 C-136.0055617 23.92399396 -131.76892337 22.34803557 -126.6875 20.375 C-125.8003833 20.02840332 -124.9132666 19.68180664 -123.99926758 19.32470703 C-96.58127192 8.89601215 -66.66412619 3.99519884 -37.5625 1.25 C-36.66055908 1.1557373 -35.75861816 1.06147461 -34.8293457 0.96435547 C-23.25085166 -0.10963079 -11.61807764 0.00612253 0 0 Z " fill="#1B475D" transform="translate(531.5625,52.75)"/>
<path d="M0 0 C0.33 0 0.66 0 1 0 C0.99555878 0.72327988 0.99111755 1.44655975 0.98654175 2.1917572 C0.58286153 54.13252736 0.58286153 54.13252736 3 106 C3.09474609 107.25544617 3.09474609 107.25544617 3.19140625 108.53625488 C9.39556356 189.42979862 25.94096395 270.56549378 106 413 C106.48001465 413.60714844 106.9600293 414.21429687 107.45458984 414.83984375 C113.81249121 422.86100182 120.3331705 430.66004052 127.32421875 438.13671875 C129.14200415 440.08188181 130.93543111 442.0337326 132.70703125 444.01953125 C139.075629 451.13824888 145.84101126 457.67622661 153 464 C153.57234375 464.51175781 154.1446875 465.02351563 154.734375 465.55078125 C221.02115009 524.77657377 308.16981922 556.92264134 420 573 C421.03560059 573.11714355 422.07120117 573.23428711 423.13818359 573.35498047 C457.51689828 577.12258753 493.61694566 576.51087932 528 573 C528.64485352 572.93447937 529.28970703 572.86895874 529.95410156 572.80145264 C584.30711822 567.22791549 637.13804222 554.593425 687 532 C687.84723633 531.62311035 688.69447266 531.2462207 689.56738281 530.85791016 C726.56366724 514.35836674 761.21086735 491.39990187 791 464 C792.66624255 462.52035559 794.33291702 461.04119744 796 459.5625 C803.83949192 452.49834244 811.17824277 445.04798218 818 437 C818.80953125 436.06800781 819.6190625 435.13601563 820.453125 434.17578125 C874.59616349 371.5408761 905.07976444 291.74203822 926 192 C926.14697327 191.23040955 926.29394653 190.46081909 926.44537354 189.66790771 C932.37041947 158.42019593 935.48044634 126.79794081 938.69363785 95.18100929 C939.06348024 91.55132618 939.43975178 87.92232301 939.81663895 84.29336548 C940.07821164 81.74425458 940.32920001 79.19424008 940.57992554 76.64404297 C940.73870633 75.10744828 940.8979886 73.57090529 941.05786133 72.03442383 C941.12384742 71.33093717 941.18983351 70.6274505 941.25781918 69.90264606 C941.4343948 68.25927013 941.70743438 66.62673562 942 65 C942.66 64.67 943.32 64.34 944 64 C944.557757 68.67252305 945.10871456 73.34578662 945.65405273 78.01977539 C945.83947354 79.60136218 946.02657992 81.1827525 946.21557617 82.76391602 C956.30482087 167.27142962 944.18379979 256.58221317 892 380 C891.51418457 380.97565918 891.02836914 381.95131836 890.52783203 382.95654297 C876.90695628 410.12092899 860.67836644 436.01375245 842 460 C841.10926112 461.15876664 840.21864293 462.31762605 839.328125 463.4765625 C834.44494221 469.79587579 829.43571686 475.90934317 824.02734375 481.79296875 C822.24958586 483.72829285 820.52423748 485.69403016 818.8125 487.6875 C809.56445671 498.25974348 799.93465817 508.32272291 789.46240234 517.68603516 C788.11551315 518.89621173 786.7854263 520.12501988 785.45703125 521.35546875 C715.80455923 585.5539136 616.49580498 622.25603571 507.25 624.1875 C505.90107666 624.18609512 505.90107666 624.18609512 504.52490234 624.18466187 C452.89735365 624.0689127 401.10194738 616.24364701 351 604 C349.79666016 603.70931641 348.59332031 603.41863281 347.35351562 603.11914062 C297.85580129 591.01851214 249.84763409 571.97777158 206 546 C205.09233887 545.4622998 204.18467773 544.92459961 203.24951172 544.37060547 C166.35842287 522.3550624 128.46635133 493.42584542 101.85546875 459.3515625 C100.05525133 457.07002379 98.15825258 454.94714883 96.1875 452.8125 C36.21936909 385.74754887 6.27870313 291.27819438 -4.8125 203.5625 C-4.91177795 202.79087524 -5.01105591 202.01925049 -5.11334229 201.22424316 C-8.36693016 175.57831524 -9.40798675 149.85294673 -9.37735748 124.02402878 C-9.37495818 121.7732663 -9.37608 119.52252213 -9.37738037 117.27175903 C-9.37377576 88.06529265 -7.84472527 59.09518967 -5.2598877 29.99725342 C-4.99814896 26.97865219 -4.76047951 23.95884574 -4.52636719 20.93798828 C-4.36972989 19.04324546 -4.21253184 17.14854889 -4.0546875 15.25390625 C-3.99266144 14.40199203 -3.93063538 13.55007782 -3.86672974 12.67234802 C-3.4408935 7.81884368 -2.53358107 4.27827555 0 0 Z " fill="#1B475D" transform="translate(51,365)"/>
<path d="M0 0 C0.87160263 -0.00979385 1.74320526 -0.01958771 2.64122009 -0.02967834 C29.75985732 -0.27158189 54.70689106 1.63202008 80.62890625 10.23828125 C81.35255371 10.47804688 82.07620117 10.7178125 82.82177734 10.96484375 C93.21452594 14.48305858 102.95689348 19.0825389 112.62890625 24.23828125 C113.29954102 24.59293457 113.97017578 24.94758789 114.66113281 25.31298828 C149.79531613 44.0248449 178.95525317 71.74654787 191.37231445 110.31030273 C202.15066162 145.87336077 197.63033637 183.38377203 180.76220703 216.12451172 C178.08792518 221.11243337 175.00407308 225.70309364 171.62890625 230.23828125 C171.24041504 230.76663574 170.85192383 231.29499023 170.45166016 231.83935547 C163.38186984 241.39094546 155.43291605 250.00920106 147.171875 258.53759766 C145.52443933 260.35342627 144.07080855 262.25674809 142.62890625 264.23828125 C144.18266968 264.30631958 144.18266968 264.30631958 145.76782227 264.37573242 C159.45968123 265.01559357 173.11233099 266.06021896 186.76831055 267.23022461 C189.326601 267.44614255 191.88555485 267.65432366 194.44506836 267.85522461 C198.18380258 268.14915994 201.9198959 268.46643655 205.65625 268.7890625 C206.80093246 268.8746492 207.94561493 268.9602359 209.12498474 269.04841614 C210.71428551 269.19327705 210.71428551 269.19327705 212.33569336 269.34106445 C213.72865883 269.45645317 213.72865883 269.45645317 215.14976501 269.57417297 C218.28343898 270.4136164 219.56942173 271.77770473 221.62890625 274.23828125 C223.11082974 277.20212823 223.12442672 280.29530532 223.37890625 283.55078125 C223.44722656 284.21529297 223.51554687 284.87980469 223.5859375 285.56445312 C223.93924574 290.14387149 223.41997493 292.61044196 220.62890625 296.23828125 C218.39195251 297.11270142 218.39195251 297.11270142 215.65209961 297.45947266 C214.57411102 297.59750305 213.49612244 297.73553345 212.38546753 297.87774658 C204.68300866 298.6169874 196.97945825 299.20045054 189.2578125 299.69921875 C188.31620333 299.76181255 187.37459415 299.82440636 186.40445137 299.88889694 C162.30045885 301.48790632 138.17189465 302.59980551 114.0411377 303.70379639 C107.02718545 304.02572608 100.01353936 304.3542514 92.99984837 304.68181419 C87.5539229 304.93605017 82.1079629 305.1894147 76.66184998 305.43960571 C74.68333584 305.53078541 72.70482521 305.62204124 70.72631836 305.71337891 C69.30636897 305.77878781 69.30636897 305.77878781 67.85773373 305.84551811 C62.53026203 306.09374192 57.2047452 306.36585953 51.87958622 306.65938759 C44.03300906 307.09089453 36.20796624 307.40513486 28.34765625 307.44140625 C27.29294632 307.44846588 26.23823639 307.45552551 25.15156555 307.46279907 C-36.54730404 307.78282545 -90.55551863 298.25575688 -136.37109375 254.23828125 C-138.85360644 251.67898982 -141.13295951 249.01278753 -143.37109375 246.23828125 C-144.11746094 245.32949219 -144.86382812 244.42070313 -145.6328125 243.484375 C-154.79634915 231.99039418 -162.51800088 219.5591489 -168.87109375 206.30078125 C-169.1851416 205.65206055 -169.49918945 205.00333984 -169.82275391 204.33496094 C-174.82257532 193.48148983 -175.84465078 183.19052787 -175.68359375 171.36328125 C-175.67799438 170.63629028 -175.67239502 169.90929932 -175.66662598 169.16027832 C-175.31054842 123.11515777 -164.69969655 81.39713565 -131.9453125 47.74609375 C-98.47506235 16.1321768 -45.32645029 0.42322272 0 0 Z M-85.37109375 72.23828125 C-86.13164063 72.9240625 -86.8921875 73.60984375 -87.67578125 74.31640625 C-104.75258953 90.27051779 -113.33047493 113.74186295 -117.37109375 136.23828125 C-117.64759766 137.76001953 -117.64759766 137.76001953 -117.9296875 139.3125 C-119.80159176 155.96085204 -119.47771773 173.20927255 -114.37109375 189.23828125 C-113.82775391 190.94757813 -113.82775391 190.94757813 -113.2734375 192.69140625 C-108.73972774 205.41653059 -102.32095602 217.11215137 -93.37109375 227.23828125 C-92.34048828 228.44871094 -92.34048828 228.44871094 -91.2890625 229.68359375 C-70.22161693 253.90166631 -42.54802978 269.58935036 -10.37109375 273.23828125 C-9.46488281 273.34785156 -8.55867188 273.45742188 -7.625 273.5703125 C25.98897666 277.14626746 62.76251019 268.0212078 89.69140625 247.17578125 C91.6880212 245.5511592 93.6684769 243.9063894 95.62890625 242.23828125 C96.96501953 241.12839844 96.96501953 241.12839844 98.328125 239.99609375 C120.61418966 220.81574407 136.13720723 191.61572033 138.62890625 162.23828125 C140.42398324 128.74647516 130.33128369 100.26377483 108.01171875 75.3125 C84.02226644 50.14848994 50.11595286 37.16722527 15.62890625 36.23828125 C14.87174316 36.2125 14.11458008 36.18671875 13.33447266 36.16015625 C-23.00911432 35.03779109 -58.83438724 46.84011331 -85.37109375 72.23828125 Z " fill="#1B475D" transform="translate(648.37109375,313.76171875)"/>
<path d="M0 0 C0 0.66 0 1.32 0 2 C-11.81948158 0.8183819 -23.59130757 -0.56132405 -35.35940552 -2.1739502 C-50.21168441 -4.19963153 -65.03641823 -6.0200321 -80 -7 C-80.80373047 -7.05639648 -81.60746094 -7.11279297 -82.43554688 -7.17089844 C-173.91178587 -13.3995384 -271.83944229 2.31021612 -375.1328125 75.46875 C-376.55207031 76.72171875 -376.55207031 76.72171875 -378 78 C-378.92554688 78.8146875 -379.85109375 79.629375 -380.8046875 80.46875 C-384.47784819 83.73862599 -388.07622778 87.03147708 -391.5 90.5625 C-394 93 -394 93 -396 93 C-396.32291016 93.81791016 -396.32291016 93.81791016 -396.65234375 94.65234375 C-398.46141153 97.80379225 -400.95733116 100.07822067 -403.5625 102.5625 C-409.16837821 108.0514673 -414.18273453 113.79855273 -419 120 C-419.49113281 120.62535645 -419.98226562 121.25071289 -420.48828125 121.89501953 C-428.12883656 131.63393903 -435.37947707 141.53804399 -442 152 C-442.35980957 152.56799316 -442.71961914 153.13598633 -443.09033203 153.72119141 C-490.91934445 229.92889673 -517.57271584 326.04680297 -499.40563965 479.97848511 C-486.25857271 537.11706233 -461.7792921 594.91400047 -421 638 C-419.86858452 639.28605085 -418.74342054 640.57763217 -417.625 641.875 C-407.89151388 653.09885777 -407.89151388 653.09885777 -397.0703125 663.2421875 C-394.60089503 665.33886271 -392.2470904 667.54388677 -389.875 669.75 C-383.52058779 675.52911563 -376.85391494 680.82707268 -370 686 C-369.32582031 686.50934082 -368.65164063 687.01868164 -367.95703125 687.54345703 C-314.46012362 727.67849841 -252.72837906 748.28146411 -187.52832031 759.39794922 C-183.57211931 760.07301092 -179.62067471 760.77255194 -175.66967773 761.47729492 C-172.78102013 761.99196442 -169.89069032 762.49688749 -167 763 C-169.92397051 765.92397051 -173.37174453 765.95379151 -177.3125 766.5625 C-178.12630127 766.69180908 -178.94010254 766.82111816 -179.77856445 766.9543457 C-255.74918019 778.64731197 -341.59484968 737.92766355 -401.61987305 694.62573242 C-414.12747142 685.42561057 -426.25416249 675.73689367 -437.640625 665.17578125 C-439.6391708 663.33275143 -441.67315493 661.56539274 -443.75 659.8125 C-453.14507205 651.64287213 -462.02159834 642.55212309 -470 633 C-470.76828125 632.12085938 -471.5365625 631.24171875 -472.328125 630.3359375 C-489.86957406 610.17033232 -504.61978444 588.08290303 -518 565 C-518.49258301 564.15083008 -518.98516602 563.30166016 -519.49267578 562.42675781 C-545.46826953 517.22871049 -564.82741885 465.55028233 -565.23828125 412.9140625 C-565.24812042 411.87181519 -565.25795959 410.82956787 -565.26809692 409.7557373 C-565.45401771 384.88612469 -564.89045274 360.58149497 -561 336 C-560.8253421 334.88220154 -560.8253421 334.88220154 -560.64715576 333.74182129 C-548.31351124 255.37053371 -521.79400595 177.11223553 -471 115 C-470.2471875 114.05769531 -469.494375 113.11539063 -468.71875 112.14453125 C-464.38628048 106.76603741 -459.89482148 101.5643457 -455.2421875 96.4609375 C-453.75680939 94.83064445 -452.28263272 93.1900692 -450.8203125 91.5390625 C-442.75831834 82.44421499 -434.28112058 73.85325588 -425 66 C-424.10410156 65.21496094 -423.20820313 64.42992187 -422.28515625 63.62109375 C-398.68020492 43.06428665 -372.00980037 26.55220943 -343.89550781 12.92333984 C-342.15021032 12.07317046 -340.41445058 11.20349459 -338.6796875 10.33203125 C-292.21419118 -12.36167403 -239.27582642 -23.90552039 -188 -28 C-187.30841797 -28.05784668 -186.61683594 -28.11569336 -185.90429688 -28.17529297 C-132.72518132 -32.45451024 -46.20725976 -30.80483984 0 0 Z " fill="#1B475D" transform="translate(635,120)"/>
<path d="M0 0 C0.93875977 0.16628906 1.87751953 0.33257812 2.84472656 0.50390625 C24.49000078 4.46474938 45.19817904 11.44176304 65 21 C66.54880859 21.71736328 66.54880859 21.71736328 68.12890625 22.44921875 C88.07504434 32.35135558 99.67116696 51.91334505 107 72.1875 C107.93074398 75.73596142 108.60362024 78.37827857 108 82 C104.55560737 85.69953282 100.43301738 85.91483782 95.58203125 86.203125 C82.68006429 86.36356397 72.05895378 84.09916052 62.09765625 75.32421875 C57.35521298 70.30217565 54.26023404 64.34890544 51.08984375 58.26953125 C45.07603869 48.86101754 35.27715419 46.04854054 24.8828125 43.66650391 C-13.40939244 35.41444531 -51.49695501 34.09042792 -89.9375 42.375 C-91.24231323 42.65186646 -91.24231323 42.65186646 -92.57348633 42.93432617 C-105.39388023 45.9357437 -116.61349843 52.51953459 -123.80859375 63.69140625 C-127.96479868 71.74490498 -128.64053991 81.23140384 -126.16015625 89.953125 C-122.15359007 98.74868442 -115.31809804 104.05436771 -106.53515625 107.70703125 C-71.80958155 120.40776631 -34.97093133 127.0588959 1.3046875 133.62573242 C82.35796126 148.42736872 82.35796126 148.42736872 103 177 C108.14570731 185.74927604 108.24209669 193.64049758 108.25 203.5625 C108.25067474 204.3123114 108.25134949 205.0621228 108.25204468 205.83465576 C108.21846463 229.24214717 104.87704115 255.30950546 87.99609375 273.16796875 C56.18087063 302.36824202 4.04710857 302.23753524 -36.75 302.1875 C-38.25031769 302.18609512 -38.25031769 302.18609512 -39.78094482 302.18466187 C-67.73254542 302.12858075 -95.4006065 300.47142357 -123.23406982 297.94369507 C-125.55502434 297.73331639 -127.87635435 297.52703491 -130.19805908 297.32510376 C-133.46190891 297.03763908 -136.72307273 296.72898084 -139.984375 296.4140625 C-141.43204758 296.29047112 -141.43204758 296.29047112 -142.90896606 296.16438293 C-153.69396913 295.06846516 -162.99140479 291.51405159 -170 283 C-181.46032886 265.86099067 -187.51915408 240.36082006 -184 220 C-183 219 -183 219 -181.13340759 218.87974548 C-179.91096092 218.8830764 -179.91096092 218.8830764 -178.66381836 218.88647461 C-177.28249977 218.88658791 -177.28249977 218.88658791 -175.87327576 218.88670349 C-174.87224319 218.89186478 -173.87121063 218.89702606 -172.83984375 218.90234375 C-171.31043907 218.90446617 -171.31043907 218.90446617 -169.75013733 218.90663147 C-166.47922893 218.91224903 -163.20838787 218.9248045 -159.9375 218.9375 C-157.72591244 218.94251274 -155.51432382 218.94707604 -153.30273438 218.95117188 C-147.86846643 218.96222416 -142.43423803 218.97897937 -137 219 C-135.20798187 222.39307604 -134.45491375 225.40536661 -133.75 229.1875 C-131.4016102 239.58086872 -125.7055843 246.90982729 -117 253 C-103.59840373 260.4350263 -89.26474405 264.70396828 -74.3125 267.75 C-73.27947754 267.96092285 -72.24645508 268.1718457 -71.18212891 268.38916016 C-40.83218443 274.27564899 -0.01557792 272.86521479 26.9375 256.125 C38.46075966 247.77116148 44.79058706 233.82855778 47 220 C48.06716926 211.82281558 45.9377459 204.97770795 41.046875 198.35546875 C29.56578475 184.96755406 15.54856466 180.81984703 -1.125 176.9375 C-1.91979767 176.75013275 -2.71459534 176.5627655 -3.53347778 176.36972046 C-31.77132388 169.73757373 -60.33854782 164.50369775 -88.83984375 159.14453125 C-122.81497695 152.74854888 -156.11025272 144.21552731 -177 114 C-178.96696871 110.76269733 -180.5675515 107.50515808 -182 104 C-182.3196875 103.22914063 -182.639375 102.45828125 -182.96875 101.6640625 C-187.87863563 87.25263894 -186.24852917 69.84802381 -179.71484375 56.34375 C-176.07281537 49.76983805 -171.24306025 44.3430146 -166 39 C-165.43152344 38.40703125 -164.86304688 37.8140625 -164.27734375 37.203125 C-123.21292982 -2.08401361 -53.25535446 -9.63108582 0 0 Z " fill="#1B475D" transform="translate(364,312)"/>
</svg>
