<?xml version="1.0" encoding="UTF-8"?>
<svg version="1.1" xmlns="http://www.w3.org/2000/svg" width="1042" height="1042">
<path d="M0 0 C0.8153421 -0.00006042 1.6306842 -0.00012085 2.47073364 -0.00018311 C29.49043503 0.02707271 56.5055564 1.10351784 83.5 2.1875 C84.47414856 2.22617188 85.44829712 2.26484375 86.45196533 2.3046875 C133.06065719 4.17861395 178.2829553 11.40556407 220.5 32.1875 C221.21236816 32.53216309 221.92473633 32.87682617 222.65869141 33.23193359 C240.13033998 41.75557616 256.48328547 52.87341343 271.5 65.1875 C272.06283691 65.64882324 272.62567383 66.11014648 273.20556641 66.58544922 C287.87695452 78.70913532 301.94106429 92.03061293 313.5 107.1875 C314.4867349 108.42441225 315.47515054 109.65998476 316.46484375 110.89453125 C336.11524394 135.65913487 350.59544847 163.59851286 361.5 193.1875 C361.82838867 194.07614746 362.15677734 194.96479492 362.49511719 195.88037109 C388.31650405 266.85545798 387.0510163 344.52014159 355.47607422 413.421875 C353.27946339 418.07995955 350.91971224 422.6421533 348.5 427.1875 C348.13326172 427.88762207 347.76652344 428.58774414 347.38867188 429.30908203 C338.18656311 446.80632353 327.04867477 462.93012029 314.5 478.1875 C313.83895264 479.00299316 313.83895264 479.00299316 313.16455078 479.83496094 C301.13329077 494.62456488 287.61489278 508.54729522 272.5 520.1875 C271.34100936 521.1320638 270.18496445 522.08024893 269.03125 523.03125 C246.06714346 541.88893298 220.01554509 555.99082318 193.5 569.1875 C195.23504253 577.53118973 205.1478218 583.89918254 211.5 589.1875 C212.01804199 589.61933594 212.53608398 590.05117188 213.06982422 590.49609375 C262.52840624 631.49629991 323.37344424 650.54480629 386.68383789 656.16308594 C387.66344482 656.25750977 388.64305176 656.35193359 389.65234375 656.44921875 C390.49788818 656.52100342 391.34343262 656.59278809 392.21459961 656.66674805 C394.97086114 657.29479055 396.44085325 658.26663923 398.5 660.1875 C399.42914637 662.97493912 399.62935242 664.6592193 399.64044189 667.53878784 C399.64900711 668.87198563 399.64900711 668.87198563 399.65774536 670.2321167 C399.65886322 671.20465393 399.65998108 672.17719116 399.66113281 673.17919922 C399.66609772 674.20548431 399.67106262 675.23176941 399.67617798 676.28915405 C399.69080417 679.69017198 399.69760205 683.09114327 399.703125 686.4921875 C399.70887566 688.85246787 399.7146334 691.21274823 399.72039795 693.57302856 C399.73090895 698.52443663 399.73675111 703.47582844 399.74023438 708.42724609 C399.74572217 714.77500059 399.76975607 721.12254092 399.79820633 727.4702282 C399.81681918 732.34637075 399.82203757 737.22246155 399.82357025 742.09863663 C399.82659988 744.4390289 399.83463879 746.7794202 399.84775543 749.11977768 C399.86478882 752.39235546 399.86294219 755.66440773 399.85644531 758.93701172 C399.8656601 759.90550049 399.87487488 760.87398926 399.8843689 761.87182617 C399.85386801 766.77044512 399.77294245 770.24894766 396.5 774.1875 C366.96173665 788.98785605 309.01498975 768.09113477 280.52514648 758.63769531 C238.46141972 744.33154717 198.86381128 723.48105719 164.5 695.1875 C163.95150391 694.73665039 163.40300781 694.28580078 162.83789062 693.82128906 C151.80848253 684.71200653 141.32524758 675.08863172 131.1875 665 C130.20076294 664.02027222 130.20076294 664.02027222 129.1940918 663.02075195 C124.76101622 658.57311416 120.58257693 653.95748986 116.5 649.1875 C115.76777222 648.3378064 115.76777222 648.3378064 115.02075195 647.47094727 C113.61470609 645.83759269 112.21318434 644.20045347 110.8125 642.5625 C110.30050049 641.96550293 109.78850098 641.36850586 109.26098633 640.75341797 C106.69158953 637.75624665 104.1301644 634.75294929 101.5859375 631.734375 C90.20057115 618.26124167 78.01184502 605.61262393 65.5625 593.125 C65.07204193 592.6318631 64.58158386 592.1387262 64.07626343 591.63064575 C58.39711512 585.92793498 52.61812003 580.41911512 46.5 575.1875 C44.89231627 573.73304483 43.28760285 572.27529105 41.6875 570.8125 C36.43579043 566.08516687 31.02732593 561.5875529 25.5 557.1875 C24.54891357 556.42759766 24.54891357 556.42759766 23.57861328 555.65234375 C-14.92653898 524.9859669 -57.76965771 499.14097076 -104.5 483.1875 C-105.44552734 482.86410645 -106.39105469 482.54071289 -107.36523438 482.20751953 C-125.09383019 476.25019888 -143.21841575 472.04640678 -161.86328125 470.35546875 C-162.91955215 470.25949905 -162.91955215 470.25949905 -163.99716187 470.16159058 C-167.44953292 469.85607233 -170.90124582 469.58193072 -174.359375 469.35058594 C-175.60847656 469.25422852 -176.85757813 469.15787109 -178.14453125 469.05859375 C-179.25159424 468.98568115 -180.35865723 468.91276855 -181.49926758 468.83764648 C-185.13840816 468.04918083 -186.89763773 466.82624663 -189.5 464.1875 C-190.4566998 461.349133 -190.62717515 458.73483984 -190.63371277 455.75392151 C-190.63797775 454.87216248 -190.64224274 453.99040344 -190.64663696 453.08192444 C-190.64618378 452.12233322 -190.64573059 451.162742 -190.64526367 450.17407227 C-190.64862228 449.15739471 -190.6519809 448.14071716 -190.65544128 447.0932312 C-190.6649457 443.73011048 -190.66689407 440.36703957 -190.66796875 437.00390625 C-190.6711814 434.66747517 -190.67454547 432.3310443 -190.67805481 429.99461365 C-190.6840446 425.09625787 -190.68589483 420.19791973 -190.68530273 415.29956055 C-190.68520106 409.0202632 -190.69885996 402.74107877 -190.71607494 396.4618082 C-190.72718765 391.63628112 -190.72922217 386.81078142 -190.72869301 381.98524284 C-190.72987397 379.66997831 -190.73430221 377.35471309 -190.74202538 375.03946114 C-190.75181154 371.80300073 -190.74895267 368.56678655 -190.74291992 365.33032227 C-190.74853943 364.37275528 -190.75415894 363.41518829 -190.75994873 362.42860413 C-190.73430015 357.01955467 -190.68633689 352.57468915 -186.85498047 348.39135742 C-183.53730542 346.69537405 -180.45403696 346.82007225 -176.8203125 346.92578125 C-176.0703299 346.93756912 -175.32034729 346.94935699 -174.54763794 346.96150208 C-166.46915633 347.1298367 -158.42322524 347.67973389 -150.375 348.375 C-149.60442261 348.44063141 -148.83384521 348.50626282 -148.03991699 348.57388306 C-104.07807056 352.38327213 -61.21052511 362.58171328 -21.02636719 381.02929688 C-18.72549419 382.08412307 -16.41581942 383.11560337 -14.1015625 384.140625 C15.14840245 397.27586627 42.44265152 415.36319857 66.78149414 436.17553711 C84.71759859 451.49740508 100.54095764 460.61380794 124.87255859 459.40380859 C146.7103232 457.60597739 169.10182222 443.69201071 186.5 431.1875 C187.09248535 430.76710449 187.6849707 430.34670898 188.29541016 429.91357422 C209.48445099 414.68929259 225.55599332 395.22981744 237.5 372.1875 C237.97131348 371.2917627 237.97131348 371.2917627 238.45214844 370.37792969 C258.80508937 331.21426641 261.82713873 284.29739288 248.63183594 242.43310547 C240.68292255 218.96990247 228.5347408 198.2126327 211.5 180.1875 C210.30734478 178.79606891 209.11959687 177.40041206 207.9375 176 C204.41343002 171.98957647 200.65699609 168.53494198 196.5 165.1875 C195.96262207 164.75421387 195.42524414 164.32092773 194.87158203 163.87451172 C162.23450306 137.82311327 124.364065 126.24280734 83.02351379 124.63287354 C81.94513994 124.5907292 80.86676609 124.54858487 79.75571424 124.50516343 C67.21243617 124.05417379 54.67358086 124.05032633 42.1237793 124.06152344 C39.48621966 124.06012424 36.84866387 124.05830318 34.21110535 124.05586243 C29.31042934 124.05181557 24.40975814 124.0495338 19.50908045 124.04944643 C9.90079203 124.04924159 0.29255273 124.03666623 -9.3157196 124.01983643 C-10.83713111 124.01723139 -12.35854263 124.01463257 -13.87995416 124.0120399 C-16.18306627 124.00810297 -18.48617836 124.00415617 -20.7892904 124.00017868 C-29.41559603 123.98531525 -38.04190303 123.97164302 -46.66821289 123.95947266 C-47.45451087 123.9583591 -48.24080885 123.95724553 -49.05093404 123.95609823 C-61.85683845 123.93843677 -74.66271133 123.93566113 -87.46862588 123.93732306 C-100.65899559 123.93860084 -113.84924787 123.92091655 -127.03957242 123.88630509 C-135.15705362 123.86566689 -143.27425346 123.86030832 -151.39174958 123.8746334 C-157.59106419 123.88407011 -163.79005703 123.8675317 -169.98931694 123.84114647 C-172.53387809 123.83447958 -175.078478 123.83641726 -177.62302399 123.84744453 C-181.08683164 123.86121595 -184.54917713 123.84453846 -188.01289368 123.82000732 C-189.53399835 123.83704039 -189.53399835 123.83704039 -191.08583242 123.85441756 C-197.82887478 123.7610592 -197.82887478 123.7610592 -201.1241188 120.94486713 C-202.52045216 118.14651237 -203.00039689 116.5331589 -203.00120544 113.43711853 C-203.01103958 112.5104689 -203.02087372 111.58381927 -203.03100586 110.62908936 C-203.02133789 109.62476868 -203.01166992 108.620448 -203.00170898 107.58569336 C-203.00711197 106.51849564 -203.01251495 105.45129791 -203.01808167 104.35176086 C-203.03058187 100.82667247 -203.01406955 97.30239864 -202.99609375 93.77734375 C-202.9962487 91.32784482 -202.99773693 88.87834564 -203.00050354 86.42884827 C-203.00188808 81.29677485 -202.98931884 76.16498072 -202.96655273 71.03295898 C-202.93815338 64.44970351 -202.94090896 57.86691164 -202.95364285 51.28362179 C-202.96059213 46.2264865 -202.9528195 41.16945868 -202.94038582 36.11233711 C-202.9358651 33.68461074 -202.93553991 31.25687286 -202.93945122 28.82914543 C-202.94235638 25.43915966 -202.92588939 22.04981672 -202.90405273 18.65991211 C-202.90855438 17.6535672 -202.91305603 16.64722229 -202.91769409 15.61038208 C-202.90778946 14.68655228 -202.89788483 13.76272247 -202.88768005 12.81089783 C-202.88525016 12.00990127 -202.88282026 11.20890471 -202.88031673 10.38363552 C-202.39869596 7.60252075 -201.4192307 6.23396743 -199.5 4.1875 C-196.4350427 3.16584757 -194.28568769 3.03904722 -191.07327271 2.99804688 C-189.38032074 2.97291016 -189.38032074 2.97291016 -187.65316772 2.94726562 C-186.41297882 2.93373047 -185.17278992 2.92019531 -183.89501953 2.90625 C-182.5885144 2.88820313 -181.28200928 2.87015625 -179.93591309 2.8515625 C-177.08606909 2.81223251 -174.23620797 2.77593257 -171.38629532 2.74194336 C-166.83915635 2.68766379 -162.29212526 2.62650563 -157.74508667 2.56445312 C-150.50424496 2.46643518 -143.26335369 2.37287321 -136.02242839 2.28125763 C-121.66399701 2.09958433 -107.30564721 1.91174119 -92.94736576 1.71858573 C-91.40298861 1.69784389 -89.85861032 1.67718634 -88.31423092 1.65661263 C-67.67430144 1.38165226 -47.04243317 1.00992722 -26.40966797 0.38818359 C-17.60607336 0.12292108 -8.80741228 -0.01076394 0 0 Z " fill="#1B475D" transform="translate(422.5,80.8125)"/>
<path d="M0 0 C22.36389961 11.3777842 43.51313227 24.87319988 63.59765625 39.8828125 C64.48227539 40.54361816 64.48227539 40.54361816 65.38476562 41.21777344 C83.17977725 54.57967841 100.22603989 68.94179196 116.54516602 84.06567383 C118.42470434 85.8053318 120.31475482 87.52952471 122.21679688 89.24487305 C130.3208625 96.56830511 138.07919331 104.21072265 145.7902832 111.94506836 C147.92090259 114.08108607 150.05686848 116.21165368 152.19335938 118.34179688 C153.57453975 119.72363757 154.95541014 121.10578817 156.3359375 122.48828125 C156.96212479 123.11244431 157.58831207 123.73660736 158.23347473 124.37968445 C161.9857185 128.15159502 165.55414125 132.03812171 169.02796936 136.06814575 C177.34704602 145.68557448 186.33387526 154.73566654 195.28515625 163.7578125 C196.13932129 164.62494873 196.99348633 165.49208496 197.87353516 166.38549805 C203.79997055 172.32045007 210.04171603 177.65885097 216.59765625 182.8828125 C217.91419621 183.96804123 219.22830806 185.05622797 220.5390625 186.1484375 C288.59311317 242.40596004 368.45882353 272.94171581 456.25 277.37890625 C457.9003104 277.464089 459.55061965 277.54929402 461.20092773 277.63452148 C464.42266897 277.80044721 467.64468028 277.95305998 470.86743164 278.09790039 C472.35044071 278.17168624 473.83343314 278.2458074 475.31640625 278.3203125 C476.62544922 278.38089844 477.93449219 278.44148438 479.28320312 278.50390625 C484.35539162 279.08375573 484.35539162 279.08375573 486.59765625 280.8828125 C489.45046073 286.40207438 488.88569947 292.64557793 488.86328125 298.703125 C488.86615143 300.40745193 488.86615143 300.40745193 488.86907959 302.14620972 C488.87043754 304.54164858 488.86676842 306.9370949 488.85839844 309.33251953 C488.84767384 313.00179506 488.85831743 316.6705832 488.87109375 320.33984375 C488.86977247 322.66927191 488.86721074 324.99869978 488.86328125 327.328125 C488.86732971 328.42609406 488.87137817 329.52406311 488.87554932 330.65530396 C488.869245 331.67671478 488.86294067 332.69812561 488.85644531 333.75048828 C488.85405853 335.09568039 488.85405853 335.09568039 488.85162354 336.4680481 C488.5760148 339.08858311 488.04412053 340.6869685 486.59765625 342.8828125 C480.07406974 345.78416595 472.90550796 345.18779554 465.890625 345.18359375 C464.53570348 345.1887264 463.1807839 345.19439373 461.8258667 345.20056152 C458.2223841 345.21296342 454.61909345 345.20994453 451.01560593 345.20087051 C448.77986326 345.19529931 446.54412797 345.19243416 444.30838013 345.18978882 C422.93985786 345.15297102 401.80902951 344.78778733 380.59765625 341.8828125 C379.25423746 341.70405879 377.91081282 341.52534906 376.56738281 341.34667969 C347.83012894 337.46594372 320.10998829 331.06429087 292.59765625 321.8828125 C291.59863281 321.55023437 290.59960938 321.21765625 289.5703125 320.875 C274.78000708 315.88403274 260.63801488 309.68613448 246.59765625 302.8828125 C245.6530957 302.4295459 244.70853516 301.9762793 243.73535156 301.50927734 C222.5861625 291.26456618 202.13314924 278.34269586 184.13720703 263.17822266 C182.54290934 261.83674731 180.92824124 260.52256465 179.3125 259.20703125 C170.65713862 252.03721896 162.68336769 244.17843245 154.72265625 236.2578125 C154.18845062 235.7288739 153.654245 235.1999353 153.10385132 234.65496826 C146.13004399 227.73438382 139.69047148 220.60746671 133.59765625 212.8828125 C132.59587971 211.65190949 131.59224782 210.42251175 130.5859375 209.1953125 C125.05872513 202.37228039 119.76021844 195.42353295 114.59765625 188.3203125 C108.63730766 180.14635326 102.34932223 172.41186064 95.59765625 164.8828125 C95.12150879 164.34495117 94.64536133 163.80708984 94.15478516 163.25292969 C82.1696019 149.73970649 69.02950531 137.72973097 54.59765625 126.8828125 C54.01580566 126.43873047 53.43395508 125.99464844 52.83447266 125.53710938 C35.8202897 112.56058575 17.57384501 101.73152908 -1.40234375 91.8828125 C-2.53663818 91.2940332 -2.53663818 91.2940332 -3.69384766 90.69335938 C-27.70061327 78.41661881 -53.5527109 69.5983328 -79.06369019 61.03648376 C-81.04649567 60.37013255 -83.0275341 59.69875028 -85.00830078 59.02636719 C-87.00841319 58.35246944 -89.01301458 57.69126068 -91.02685547 57.05957031 C-95.61500401 55.5453229 -97.79127793 53.94061266 -100.40234375 49.8828125 C-100.90354919 46.65098572 -100.90354919 46.65098572 -100.90405273 42.95288086 C-100.90945572 42.27582596 -100.9148587 41.59877106 -100.92042542 40.90119934 C-100.93288126 38.67456667 -100.91644638 36.44923496 -100.8984375 34.22265625 C-100.89859255 32.66996696 -100.90008244 31.11727729 -100.90284729 29.56459045 C-100.9042298 26.31559066 -100.89169719 23.06703313 -100.86889648 19.81811523 C-100.84048816 15.65614296 -100.84325736 11.4949039 -100.8559866 7.33287716 C-100.8629446 4.12864429 -100.85515359 0.9245806 -100.84272957 -2.27963066 C-100.83821789 -3.81420683 -100.8378758 -5.34880118 -100.84179497 -6.88337898 C-100.8447091 -9.02818105 -100.82819329 -11.17197572 -100.80639648 -13.31665039 C-100.8009935 -14.5362294 -100.79559052 -15.75580841 -100.7900238 -17.01234436 C-100.3700852 -20.37553901 -99.79645253 -21.75876937 -97.40234375 -24.1171875 C-68.87639782 -33.62583614 -24.71495228 -12.27583516 0 0 Z " fill="#1B475D" transform="translate(333.40234375,615.1171875)"/>
</svg>
