<?xml version="1.0" encoding="UTF-8"?>
<svg version="1.1" xmlns="http://www.w3.org/2000/svg" width="1042" height="1042">
<path d="M0 0 C4.02218737 1.86962227 7.91596638 3.94520548 11.8125 6.0625 C19.5361461 10.22705628 27.33085187 14.14651486 35.2578125 17.90625 C49.17150518 24.51129115 62.95001385 31.38125891 76.72485352 38.26977539 C79.61703486 39.71590679 82.51060626 41.15919495 85.40551758 42.59985352 C101.73119449 50.72493741 117.92858218 58.99088141 133.88064575 67.83456421 C138.352166 70.29345929 142.89527994 72.61290248 147.4375 74.9375 C155.03334993 78.86268087 162.51683525 82.94094701 169.9375 87.1875 C180.58518078 93.27851516 191.39218132 99.0394173 202.23730469 104.76782227 C209.92122097 108.82743753 217.57538778 112.93166853 225.1875 117.125 C234.861006 122.44294886 244.65299527 127.52229351 254.46899414 132.5703125 C255.6993983 133.20309236 256.92978591 133.83590438 258.16015625 134.46875 C258.75731949 134.77586914 259.35448273 135.08298828 259.96974182 135.39941406 C264.13692144 137.54612651 268.28005338 139.7344178 272.41381836 141.94458008 C317.2769813 167.89124064 317.2769813 167.89124064 366.5 180.375 C368.15515625 180.44847656 368.15515625 180.44847656 369.84375 180.5234375 C381.21189409 179.78191061 392.60411726 172.40060382 402.625 167.3125 C403.94635447 166.6485706 405.26796877 165.98515807 406.58984375 165.32226562 C412.80569727 162.19548968 418.98927437 159.01546688 425.13143921 155.7462616 C434.84456032 150.58218678 444.65762906 145.63037524 454.5 140.71875 C455.24322887 140.3478443 455.98645775 139.97693859 456.75220871 139.59479332 C462.95089845 136.50249879 469.15218559 133.41542525 475.35351562 130.32843018 C480.73684357 127.64837303 486.11922775 124.96643489 491.5 122.28125 C492.24620605 121.90890732 492.99241211 121.53656464 493.76123047 121.15293884 C501.71680785 117.18041896 509.65488068 113.1877699 517.5 109 C526.0881839 104.41557795 534.78970109 100.06502411 543.5 95.71875 C544.24491699 95.34701157 544.98983398 94.97527313 545.75732422 94.5922699 C551.95430916 91.50081719 558.15388766 88.41457796 564.35351562 85.32843018 C569.73684357 82.64837303 575.11922775 79.96643489 580.5 77.28125 C581.24620605 76.90890732 581.99241211 76.53656464 582.76123047 76.15293884 C590.71680785 72.18041896 598.65488068 68.1877699 606.5 64 C615.0881839 59.41557795 623.78970109 55.06502411 632.5 50.71875 C633.24491699 50.34701157 633.98983398 49.97527313 634.75732422 49.5922699 C640.95430916 46.50081719 647.15388766 43.41457796 653.35351562 40.32843018 C678.25885133 27.93688237 678.25885133 27.93688237 702.9331665 15.09381104 C708.76161591 12.00927506 714.63550357 9.01273409 720.52026367 6.03735352 C721.98725923 5.29286608 723.45171906 4.54336443 724.91381836 3.78930664 C727.08654347 2.66944602 729.26677785 1.56562492 731.44921875 0.46484375 C732.09203293 0.12952133 732.73484711 -0.20580109 733.3971405 -0.55128479 C738.48890247 -3.08575038 743.60597451 -4.5515995 749.35546875 -3.6171875 C755.82824897 -0.99495244 759.7173314 2.7943382 763.1547842 8.96223915 C764.70036746 12.68854084 764.54950548 16.39847256 764.50793457 20.38124084 C764.51417453 21.30587126 764.5204145 22.23050167 764.52684355 23.18315119 C764.54275498 26.27088169 764.53017636 29.35782076 764.51757812 32.44555664 C764.52300001 34.66343139 764.53012304 36.88130254 764.53881836 39.09916687 C764.55704546 45.11558218 764.54998681 51.13172297 764.53730202 57.14814305 C764.52717255 63.44475241 764.53656744 69.74133832 764.54284668 76.03794861 C764.55058866 87.28783124 764.53816212 98.53760073 764.51780933 109.78745674 C764.49993474 119.98312217 764.50304713 130.17860543 764.52148438 140.37426758 C764.54289998 152.22243792 764.55085377 164.07052007 764.53903532 175.91871351 C764.53279816 182.18761948 764.53197113 188.45640001 764.54518127 194.72529793 C764.55673129 200.61788622 764.54872914 206.51013027 764.52560425 212.40268135 C764.52031292 214.56582569 764.52183813 216.72899897 764.53065491 218.89213181 C764.54157676 221.84372727 764.5278869 224.79421784 764.50793457 227.7457428 C764.51685746 228.60284523 764.52578034 229.45994765 764.53497362 230.34302288 C764.45241875 236.63398428 762.64437893 240.17449922 758.2890625 244.828125 C754.70874102 247.88736683 751.74556866 250.12836494 747 251 C741.51246401 250.56466312 736.88211336 249.4913854 731.8125 247.3125 C731.11688965 247.01996338 730.4212793 246.72742676 729.70458984 246.42602539 C722.07865722 243.14801496 714.60219022 239.53858698 707.125 235.9375 C706.50775055 235.64058258 705.8905011 235.34366516 705.25454712 235.03775024 C677.95392022 221.87059962 677.95392022 221.87059962 673.9453125 212.546875 C671.31674913 204.38581159 670.85460023 196.25111035 671.0078125 187.75 C671.02532316 185.98958904 671.04223198 184.22917201 671.05859375 182.46875 C671.08953398 179.73029369 671.12513262 176.99214908 671.17138672 174.25390625 C671.21397148 171.58589918 671.23722527 168.91825569 671.2578125 166.25 C671.27643341 165.44143555 671.29505432 164.63287109 671.3142395 163.79980469 C671.33918079 158.20830156 670.35827622 154.09337233 668 149 C664.60809708 146.26993179 661.79802342 145.76864192 657.5625 145.9375 C642.70133707 148.21620207 628.31894268 157.05240181 615 163.625 C612.97717135 164.6190576 610.95430326 165.61303498 608.93139648 166.60693359 C595.517204 173.2097481 582.15402234 179.88964734 569 187 C568.12085938 187.47518066 567.24171875 187.95036133 566.3359375 188.43994141 C561.7546001 190.92231493 557.18126404 193.41892655 552.61328125 195.92578125 C546.67282914 199.18480112 540.71145233 202.40460798 534.75 205.625 C527.9183213 209.32016948 521.09762798 213.03247556 514.3125 216.8125 C513.61761475 217.19954102 512.92272949 217.58658203 512.20678711 217.98535156 C510.688621 218.83118457 509.17047431 219.67705243 507.65234375 220.52294922 C490.39649522 230.13247459 473.10282828 239.61790894 455.54931641 248.67675781 C452.44664175 250.28722483 449.36136577 251.92900955 446.27636719 253.57299805 C373.41741219 292.30844379 373.41741219 292.30844379 349.99121094 285.61401367 C316.75741922 274.66645817 284.69347465 256.46737002 254.46484375 239.109375 C248.69708537 235.80517966 242.85467698 232.64691239 237 229.5 C230.12269387 225.80242224 223.28594793 222.0503259 216.50732422 218.17456055 C191.02376576 203.4514031 191.02376576 203.4514031 164.0625 191.8125 C147.62696105 185.91480328 133.11382023 176.49285011 118.2277832 167.49804688 C94.17082294 151.88984499 94.17082294 151.88984499 67 146 C64.68250878 146.40869252 64.68250878 146.40869252 63 148 C60.52982463 152.95915919 59.38835008 157.47430469 58.875 163 C58.79717285 163.78503906 58.7193457 164.57007813 58.63916016 165.37890625 C54.82834572 206.21933267 57.17808527 247.55812181 58.55656242 288.47192764 C58.98092668 301.08404447 59.3322594 313.69669189 59.625 326.3125 C59.64537323 327.15021942 59.66574646 327.98793884 59.68673706 328.8510437 C60.09835037 345.8665895 60.14690271 362.86097165 59.625 379.875 C59.5940625 381.15890625 59.563125 382.4428125 59.53125 383.765625 C58.84333233 406.37518575 58.84333233 406.37518575 54.5 411.75 C50.14149629 415.67265334 46.58680835 415.53270687 40.84375 415.4453125 C33.28930214 414.57010208 26.77575579 411.27088643 20 408 C18.93136719 407.48501953 17.86273438 406.97003906 16.76171875 406.43945312 C8.44976467 402.4036712 0.2106131 398.23805899 -8 394 C-8.89396484 393.54238281 -9.78792969 393.08476563 -10.70898438 392.61328125 C-28.92852317 383.21443048 -28.92852317 383.21443048 -32 374 C-32.09679074 371.98702678 -32.13275516 369.97095045 -32.13701439 367.95565605 C-32.14208893 366.68379381 -32.14716347 365.41193157 -32.15239179 364.10152805 C-32.15299349 362.68201442 -32.15349256 361.26250075 -32.15390015 359.84298706 C-32.15791438 358.34125884 -32.16235253 356.8395317 -32.1671797 355.33780587 C-32.17915552 351.20038577 -32.18479599 347.06297734 -32.18936086 342.92554331 C-32.19531315 338.46729675 -32.20692394 334.00906417 -32.21765137 329.55082703 C-32.24218413 318.77849383 -32.25680391 308.006156 -32.26971143 297.23380345 C-32.27342276 294.1917683 -32.27739604 291.14973361 -32.2814641 288.10769892 C-32.30670025 269.22168526 -32.32875586 250.33567089 -32.34119225 231.44964409 C-32.344122 227.07417676 -32.34708365 222.69870946 -32.35009766 218.32324219 C-32.35084371 217.23572509 -32.35158976 216.148208 -32.35235842 215.02773584 C-32.36501283 197.40943944 -32.39823653 179.79124394 -32.43989949 162.17299472 C-32.48231302 144.08926716 -32.50588662 126.00559126 -32.51111281 107.92181408 C-32.51452761 97.76660271 -32.52629091 87.61154901 -32.55921555 77.45638657 C-32.58720922 68.80787465 -32.59821838 60.15955272 -32.58702008 51.51099901 C-32.58183167 47.09868075 -32.58473195 42.68676041 -32.60948563 38.27449989 C-32.63197209 34.23260102 -32.63124335 30.19138604 -32.61228175 26.14947523 C-32.60948086 24.6897819 -32.6150854 23.23004225 -32.63009469 21.7704234 C-32.71016583 13.47429233 -32.45224484 6.6187341 -27 0 C-18.66685633 -7.45301413 -9.14676683 -3.51043644 0 0 Z " fill="#1B475D" transform="translate(154,345)"/>
<path d="M0 0 C1.77225674 0.91758855 3.53279469 1.85814478 5.28125 2.8203125 C6.12171875 3.26117188 6.9621875 3.70203125 7.828125 4.15625 C10.82342411 5.73272322 13.80165731 7.33935142 16.78125 8.9453125 C32.41468527 17.33670469 48.27604306 25.27039098 64.14941406 33.19458008 C67.78879192 35.01143018 71.42635278 36.83188487 75.06343842 38.65331841 C88.70129518 45.48137397 102.35229041 52.26382297 116.13421631 58.79759216 C124.06593003 62.57168298 131.92867934 66.4788738 139.78125 70.4140625 C140.43234993 70.74032686 141.08344986 71.06659122 141.75428009 71.40274239 C147.10522471 74.08519349 152.45352357 76.7729048 157.80175781 79.46075439 C162.46038536 81.80175981 167.12005204 84.14067896 171.78125 86.4765625 C172.42992413 86.80172222 173.07859825 87.12688194 173.74692917 87.46189499 C182.06459491 91.62798966 190.41458001 95.71698056 198.8203125 99.703125 C210.04476891 105.02657287 221.10760964 110.64266196 232.15625 116.3203125 C234.18833741 117.36176244 236.22056683 118.40293535 238.25292969 119.44384766 C242.39630702 121.56647949 246.53881827 123.69078759 250.68066406 125.81640625 C256.5418546 128.82372111 262.40715099 131.82295335 268.2734375 134.8203125 C270.99561548 136.21187687 273.71771077 137.60360282 276.4397583 138.99542236 C278.13002035 139.85956232 279.82040364 140.72346518 281.51092529 141.58709717 C291.03052509 146.45171615 300.51715749 151.37254249 309.96913147 156.36735535 C314.71149154 158.86921239 319.47247126 161.32750987 324.26171875 163.73828125 C325.38255859 164.30611328 326.50339844 164.87394531 327.65820312 165.45898438 C329.90418798 166.59456492 332.15435182 167.72191051 334.40820312 168.84179688 C350.4506073 177.01716301 350.4506073 177.01716301 353.78125 184.9453125 C354.77966192 191.77166377 353.74482727 197.31334738 349.78125 202.9453125 C345.4440005 207.34472453 340.50220417 210.53321353 335.09375 213.4453125 C333.97359497 214.05729492 333.97359497 214.05729492 332.83081055 214.68164062 C325.32157356 218.73673311 317.71178374 222.59978193 310.09375 226.4453125 C309.48520172 226.7544458 308.87665344 227.0635791 308.24966431 227.38208008 C306.48882532 228.27442623 304.72298834 229.15688841 302.95703125 230.0390625 C301.93520752 230.55146484 300.91338379 231.06386719 299.8605957 231.59179688 C288.86669019 236.42412956 274.98836766 237.54964367 263.63183594 233.22363281 C258.48196397 230.9663768 253.57331152 228.28918093 248.65625 225.5703125 C246.98776213 224.68745447 245.31718422 223.80853496 243.64453125 222.93359375 C239.47650303 220.74195689 235.33440241 218.50569645 231.19763184 216.2557373 C215.90501412 207.96241822 200.35920021 200.18510887 184.78125 192.4453125 C172.46102165 186.32409261 160.15827779 180.19261616 148.00878906 173.73803711 C137.36846764 168.10684125 126.56170926 162.80150881 115.78125 157.4453125 C103.43831863 151.31281277 91.11294898 145.16972612 78.94067383 138.70397949 C68.65227142 133.25829861 58.20608812 128.12327742 47.78125 122.9453125 C43.67582306 120.90616749 39.5713932 118.86505302 35.46875 116.8203125 C34.47713867 116.32611816 33.48552734 115.83192383 32.46386719 115.32275391 C25.28879067 111.73284529 18.17192284 108.04246385 11.10620117 104.24169922 C1.04127835 98.86314451 -7.23704918 94.71448266 -18.88549805 97.60766602 C-27.67103749 100.52776767 -35.89178944 104.37732952 -44.21875 108.3828125 C-46.51250531 109.47728814 -48.80733122 110.56949566 -51.1022644 111.66149902 C-52.64180454 112.39418949 -54.18096998 113.1276678 -55.71975708 113.86193848 C-60.07483867 115.93755283 -64.44305955 117.97781291 -68.8359375 119.97265625 C-83.71705391 126.73129905 -98.38665145 133.89701475 -113.02203369 141.17071533 C-115.27539395 142.29003336 -117.53002355 143.40680057 -119.78607178 144.52069092 C-131.79064766 150.4546905 -143.62416979 156.59150152 -155.203125 163.32421875 C-156.16462463 163.88270004 -157.12612427 164.44118134 -158.11676025 165.0165863 C-171.60554241 172.43568212 -171.60554241 172.43568212 -181.21875 183.9453125 C-181.28825541 185.48555246 -181.30327357 187.02866238 -181.28125 188.5703125 C-181.27222656 189.38757813 -181.26320313 190.20484375 -181.25390625 191.046875 C-181.24230469 191.67335938 -181.23070312 192.29984375 -181.21875 192.9453125 C-180.41203857 193.18378906 -179.60532715 193.42226563 -178.77416992 193.66796875 C-174.42098793 195.23192179 -170.43402448 197.25789306 -166.33203125 199.3828125 C-165.04730171 200.04216797 -165.04730171 200.04216797 -163.73661804 200.71484375 C-160.99943061 202.1210266 -158.26536788 203.5331724 -155.53125 204.9453125 C-153.74433072 205.86365124 -151.95722288 206.78162316 -150.16992188 207.69921875 C-140.78772222 212.52223179 -131.43522859 217.39894633 -122.10585022 222.32327271 C-114.81222652 226.169263 -107.48328329 229.94455295 -100.14520264 233.7048645 C-89.60981607 239.10432767 -79.08187259 244.51697185 -68.59375 250.0078125 C-59.40532004 254.81759182 -50.19056881 259.57498496 -40.96875 264.3203125 C-27.46203889 271.27090256 -13.9699145 278.24889955 -0.48828125 285.24804688 C5.05912288 288.12779251 10.60764355 291.00538431 16.15625 293.8828125 C17.25952637 294.45507568 18.36280273 295.02733887 19.49951172 295.61694336 C26.04611748 299.01174335 32.59545957 302.40118118 39.14796448 305.78457642 C42.24925385 307.38615629 45.34969006 308.98933871 48.44799805 310.59667969 C53.87458818 313.41150379 59.30513855 316.21627743 64.76171875 318.97265625 C66.4974071 319.85935294 68.23308503 320.74607005 69.96875 321.6328125 C71.13567383 322.21144043 71.13567383 322.21144043 72.32617188 322.80175781 C77.39282573 325.4096629 77.39282573 325.4096629 79.234375 327.94921875 C80.47626659 332.48212306 80.87598358 336.58636775 78.84765625 340.95703125 C73.0559326 348.69502518 63.15935755 352.65217827 54.78125 356.9453125 C53.80623535 357.45255859 52.8312207 357.95980469 51.82666016 358.48242188 C-3.9838844 387.45978604 -3.9838844 387.45978604 -30.05857849 379.64814758 C-33.36374798 378.57277507 -36.52273969 377.23837658 -39.6953125 375.82421875 C-40.3800766 375.5214502 -41.0648407 375.21868164 -41.77035522 374.90673828 C-48.86970008 371.72357983 -55.77575283 368.18540988 -62.66882324 364.58181763 C-66.46849874 362.59630218 -70.27782809 360.62943296 -74.0859375 358.66015625 C-74.85425903 358.26235458 -75.62258057 357.86455292 -76.41418457 357.45469666 C-83.90351425 353.58111891 -91.42778226 349.77968457 -98.96875 346.0078125 C-100.07041504 345.45480469 -101.17208008 344.90179688 -102.30712891 344.33203125 C-108.487554 341.24679781 -114.69747434 338.23330474 -120.9357338 335.2671423 C-133.48159728 329.29849776 -145.93615695 323.16052403 -158.359375 316.94140625 C-160.38843091 315.9272168 -162.41754607 314.91314587 -164.44671631 313.89918518 C-168.65555597 311.7954939 -172.86368669 309.69039336 -177.07128906 307.58422852 C-182.40671523 304.91366074 -187.74393757 302.24670538 -193.08169937 299.58080959 C-197.25739166 297.49478774 -201.43211222 295.40682703 -205.60655975 293.31831551 C-207.57223092 292.33515155 -209.5381878 291.35255854 -211.5044632 290.37060356 C-222.73982168 284.75820611 -233.91641752 279.0530768 -245.01158142 273.16795349 C-249.16299397 270.96742217 -253.33719166 268.81293026 -257.51953125 266.671875 C-258.56330177 266.13739211 -258.56330177 266.13739211 -259.62815857 265.59211159 C-260.91749133 264.93212879 -262.20687722 264.27224977 -263.49630737 263.61245728 C-275.370041 257.53162271 -287.16695209 251.34026894 -298.84765625 244.89453125 C-302.71429104 242.76178753 -306.59904427 240.66649472 -310.49609375 238.58984375 C-324.31725198 231.22212461 -337.93468454 223.58117688 -351.41113281 215.60009766 C-355.47413603 213.20539889 -359.55844661 210.84759462 -363.64306641 208.48999023 C-369.31907369 205.08599989 -373.87148194 201.30139793 -376.21875 194.9453125 C-377.01526874 188.67272742 -376.04158053 184.03999499 -372.21875 178.9453125 C-365.73194102 173.56959813 -358.25362689 169.57061891 -350.84375 165.6328125 C-349.79936768 165.07231201 -348.75498535 164.51181152 -347.67895508 163.93432617 C-340.31888014 160.00578484 -332.89331331 156.22324458 -325.41479492 152.52612305 C-320.12007679 149.90738266 -314.87379635 147.21439811 -309.65625 144.4453125 C-297.01144531 137.74586458 -284.27216548 131.22938639 -271.53842163 124.70115662 C-266.82745059 122.28558562 -262.1196325 119.86403795 -257.41470337 117.4367218 C-230.34751723 103.47960388 -203.12044021 89.84194456 -175.88502884 76.2169838 C-172.87320417 74.71004958 -169.86172272 73.20243142 -166.85031128 71.69467163 C-128.86001077 52.6768654 -128.86001077 52.6768654 -110.80615234 44.12988281 C-104.52989817 41.15515817 -98.32593501 38.03922782 -92.1265564 34.90823364 C-81.55953908 29.57477611 -70.9698062 24.29810002 -60.25683594 19.26245117 C-55.04677906 16.80624201 -49.87929587 14.28134011 -44.74324036 11.67457581 C-41.60668062 10.0849925 -38.46181772 8.51219667 -35.31655884 6.93991089 C-33.77006722 6.16126775 -32.22742715 5.37491991 -30.6890564 4.58035278 C-20.15907939 -0.85350224 -11.63899032 -5.12649154 0 0 Z M-16.2578125 19.93359375 C-17.28519531 20.44180664 -18.31257813 20.95001953 -19.37109375 21.47363281 C-20.51707031 22.06241211 -21.66304688 22.65119141 -22.84375 23.2578125 C-24.10192119 23.88698124 -25.36107768 24.51418258 -26.62109375 25.13964844 C-29.50818459 26.57509066 -32.39041079 28.01981778 -35.27050781 29.46923828 C-40.70125707 32.19505613 -46.15785706 34.86714665 -51.6171875 37.53515625 C-52.623759 38.0271199 -53.63033051 38.51908356 -54.66740417 39.0259552 C-56.76758031 40.05236464 -58.86777497 41.07873615 -60.96798706 42.10507202 C-66.56374783 44.84246181 -72.15461804 47.58980863 -77.74609375 50.3359375 C-86.10751109 54.44159759 -94.47425976 58.53601973 -102.84765625 62.6171875 C-132.65799182 77.15968094 -162.34189418 91.95263492 -192.01130295 106.78012085 C-195.3173535 108.43212242 -198.62374483 110.08344019 -201.9302063 111.73461914 C-207.21779696 114.37544372 -212.5041952 117.01864139 -217.78971672 119.66360474 C-219.75087718 120.64469816 -221.71234752 121.62517245 -223.67416573 122.60494995 C-234.94135144 128.23318169 -246.14610963 133.96040463 -257.27267456 139.86218262 C-262.58686454 142.67834482 -267.96882872 145.3498966 -273.3671875 148 C-278.99515865 150.78517343 -284.5538132 153.69165694 -290.10546875 156.625 C-296.75110762 160.13585558 -303.41712857 163.6020755 -310.11328125 167.015625 C-310.9302951 167.43245544 -311.74730896 167.84928589 -312.58908081 168.27874756 C-315.90613773 169.97016445 -319.22383705 171.66029014 -322.54370117 173.34619141 C-332.92940009 178.62342404 -343.17230003 184.0433698 -353.21875 189.9453125 C-350.48710447 192.87300163 -347.88112343 194.90668474 -344.37890625 196.8359375 C-343.41412354 197.37186523 -342.44934082 197.90779297 -341.45532227 198.45996094 C-339.88415649 199.31895996 -339.88415649 199.31895996 -338.28125 200.1953125 C-337.17515381 200.80665039 -336.06905762 201.41798828 -334.92944336 202.04785156 C-332.56513251 203.35373534 -330.19960847 204.65710981 -327.83203125 205.95703125 C-324.31815369 207.88786822 -320.81474079 209.83718937 -317.3125 211.7890625 C-292.27558137 225.71715167 -266.93064972 239.0658843 -241.45907593 252.18002987 C-236.39806024 254.7861265 -231.34099851 257.3990344 -226.2956543 260.03540039 C-203.90583808 271.71533101 -181.3064178 282.97804827 -158.71533203 294.26220703 C-152.97639189 297.12881815 -147.23926842 299.99904396 -141.50266457 302.870327 C-137.00060624 305.12318244 -132.49757781 307.37409342 -127.99427414 309.62445831 C-125.88059735 310.6809691 -123.76720415 311.73804748 -121.65413284 312.79576874 C-108.88687587 319.1849978 -96.06934118 325.45248705 -83.17471313 331.58085632 C-76.73326644 334.6447173 -70.34358215 337.80765157 -63.96875 341.0078125 C-62.79836182 341.59288574 -61.62797363 342.17795898 -60.42211914 342.78076172 C-53.44613162 346.28095879 -46.53419093 349.88195905 -39.65625 353.5703125 C-28.805375 359.36971971 -16.14074873 365.86128481 -3.57373047 362.16796875 C-0.55509443 361.01680739 2.39167875 359.75787838 5.34375 358.4453125 C6.44187012 357.96989014 7.53999023 357.49446777 8.67138672 357.00463867 C23.30962202 350.55449454 37.55036094 343.23964076 51.78125 335.9453125 C49.07234904 333.81866611 46.38437354 332.11596727 43.31420898 330.56030273 C42.43486191 330.1123082 41.55551483 329.66431366 40.64952087 329.20274353 C39.70170242 328.72462723 38.75388397 328.24651093 37.77734375 327.75390625 C36.78485123 327.24916275 35.7923587 326.74441925 34.76979065 326.22438049 C31.58792625 324.60691888 28.40349259 322.99459855 25.21875 321.3828125 C21.07063278 319.27927407 16.9236443 317.17352311 12.77734375 315.06640625 C11.75488556 314.54703491 10.73242737 314.02766357 9.6789856 313.49255371 C2.5907001 309.88501208 -4.46044772 306.21248328 -11.49104309 302.49397278 C-18.7288244 298.66703254 -26.00609131 294.91948954 -33.29229736 291.1857605 C-44.716944 285.330545 -56.12568583 279.44705095 -67.49902344 273.49267578 C-75.88666288 269.10665809 -84.30198393 264.77506954 -92.71875 260.4453125 C-102.96194802 255.1759015 -113.19236526 249.88404737 -123.3984375 244.54296875 C-132.5303447 239.77005974 -141.69378034 235.05883022 -150.8565979 230.34564209 C-160.98604956 225.1346623 -171.10077819 219.89723216 -181.19140625 214.61132812 C-183.53206996 213.38585906 -185.87489326 212.16465993 -188.21875 210.9453125 C-189.36988281 210.34460938 -190.52101563 209.74390625 -191.70703125 209.125 C-194.05796944 207.80360617 -194.05796944 207.80360617 -196.21875 207.9453125 C-200.48828285 195.6490579 -203.35975629 185.51438871 -198.21875 172.9453125 C-185.44655747 147.52738479 -141.69400923 132.99600197 -117.59375 121.0078125 C-116.54803833 120.48617523 -115.50232666 119.96453796 -114.42492676 119.42709351 C-99.21218485 111.84143533 -83.93983597 104.45018143 -68.45800781 97.42822266 C-64.89443816 95.79684475 -61.34854535 94.13064953 -57.8046875 92.45703125 C-55.92272293 91.57131267 -54.04054342 90.6860522 -52.1583252 89.8008728 C-50.42891169 88.98546568 -48.70217579 88.16438676 -46.97558594 87.34301758 C-35.20045881 81.82442215 -23.68773005 76.87533275 -10.53125 76.6953125 C-9.41363281 76.66953125 -8.29601562 76.64375 -7.14453125 76.6171875 C1.90261346 77.37336676 9.77572018 80.58317836 17.73046875 84.78515625 C19.10979332 85.49677162 19.10979332 85.49677162 20.51698303 86.22276306 C23.50580775 87.76684803 26.48710954 89.32490745 29.46875 90.8828125 C32.6178015 92.51328242 35.76886232 94.13982004 38.9201355 95.76599121 C41.05949148 96.87008809 43.19826275 97.97531867 45.3364563 99.08166504 C56.47843265 104.84110113 67.69866105 110.44017994 78.93515015 116.01242065 C87.29527503 120.15913255 95.6157826 124.35992492 103.859375 128.734375 C115.393554 134.85005036 127.09029985 140.63674512 138.78125 146.4453125 C151.10147835 152.56653239 163.40422221 158.69800884 175.55371094 165.15258789 C186.19403236 170.78378375 197.00079074 176.08911619 207.78125 181.4453125 C221.87450384 188.44744779 235.91849786 195.51264484 249.81433105 202.89984131 C254.32952321 205.29978938 258.85784534 207.67149235 263.40625 210.0078125 C264.73849609 210.71454102 264.73849609 210.71454102 266.09765625 211.43554688 C272.96526829 214.93994509 279.18888271 217.23088872 286.83984375 215 C293.31988103 212.52163541 299.50728863 209.2867933 305.69262695 206.15771484 C307.83887387 205.0727774 309.99026552 203.9986263 312.14257812 202.92578125 C318.88135488 199.54893233 325.49036111 196.11742346 331.78125 191.9453125 C328.4748829 188.14830953 324.64566496 186.12453999 320.18359375 183.96875 C319.44173828 183.60204193 318.69988281 183.23533386 317.93554688 182.85751343 C316.352611 182.07597497 314.7679094 181.29800434 313.18161011 180.52331543 C309.05066319 178.50552269 304.932682 176.46153198 300.8125 174.421875 C300.00965073 174.02540771 299.20680145 173.62894043 298.37962341 173.22045898 C292.78489627 170.45477644 287.22679432 167.63047851 281.71875 164.6953125 C281.02185059 164.3245459 280.32495117 163.9537793 279.60693359 163.57177734 C278.15678839 162.80001633 276.70675879 162.02803805 275.25683594 161.25585938 C261.20396252 153.81642895 247.0645535 146.54078502 232.82055664 139.47460938 C227.59722413 136.87588393 222.42961188 134.18907436 217.28125 131.4453125 C207.9401477 126.48272471 198.48928669 121.74226707 189.03125 117.0078125 C188.300271 116.64107422 187.56929199 116.27433594 186.81616211 115.89648438 C177.90660818 111.42922065 168.95544419 107.06244634 159.953125 102.78515625 C151.13845403 98.59181013 142.38250481 94.28788059 133.65625 89.9140625 C133.0504586 89.6104524 132.44466721 89.30684231 131.82051849 88.99403191 C126.84738379 86.50050389 121.87690164 84.00170488 116.90649414 81.50274658 C112.57429236 79.32493017 108.24110432 77.14909479 103.90625 74.9765625 C103.29958244 74.67248915 102.69291489 74.36841579 102.06786346 74.0551281 C93.22210076 69.62544509 84.32774486 65.30878793 75.39068604 61.06654358 C64.52853788 55.89808791 53.77344244 50.51642092 43.01855469 45.12915039 C39.52167565 43.37801795 36.02266271 41.63120422 32.5234375 39.88476562 C21.49121369 34.36972232 10.4837111 28.82337785 -0.38580322 22.99253845 C-2.32148512 21.95886412 -4.2661254 20.94651163 -6.21875 19.9453125 C-7.55220459 19.25622803 -7.55220459 19.25622803 -8.91259766 18.55322266 C-12.06899476 17.72118489 -13.36835351 18.46946829 -16.2578125 19.93359375 Z " fill="#1B475D" transform="translate(531.21875,122.0546875)"/>
<path d="M0 0 C1.89307549 1.01739729 3.78506827 2.03681272 5.67578125 3.05859375 C7.24337975 3.88289901 8.81229989 4.70469801 10.3828125 5.5234375 C12.63308991 6.69968553 14.88045041 7.88025584 17.12060547 9.07568359 C24.2382535 12.87205856 31.45244482 16.4690624 38.67578125 20.05859375 C47.29920139 24.34564424 55.8757496 28.7015609 64.375 33.23046875 C71.41419405 36.96208969 78.54256738 40.51134384 85.67578125 44.05859375 C95.33111599 48.86185659 104.94517175 53.72675705 114.44921875 58.82421875 C117.27977864 60.33923975 120.1335091 61.7777805 123.02734375 63.16796875 C134.0930945 68.56176214 134.0930945 68.56176214 136.55078125 72.99609375 C143.91978881 96.44868276 140.26600931 126.95887648 139.30078125 151.18359375 C139.27000488 152.04106201 139.23922852 152.89853027 139.20751953 153.78198242 C138.784207 162.67418035 138.10106112 172.3458965 131.67578125 179.05859375 C122.79850206 185.46283667 112.81875135 190.09751771 102.96966553 194.78234863 C98.84311382 196.74634193 94.72852872 198.73511273 90.61328125 200.72265625 C89.81695282 201.10675659 89.02062439 201.49085693 88.20016479 201.88659668 C80.40283569 205.65614805 72.74634555 209.65891688 65.11767578 213.75683594 C59.9290926 216.52283529 54.70714556 219.22530012 49.48828125 221.93359375 C48.34085449 222.52914062 47.19342773 223.1246875 46.01123047 223.73828125 C37.55074266 228.1166521 29.05113355 232.41149843 20.50708008 236.62451172 C14.53906407 239.57992423 8.63945789 242.65041184 2.75390625 245.765625 C-6.57962199 250.70037703 -15.99100516 255.46854025 -25.43847656 260.1809082 C-28.06074621 261.48937121 -30.6808544 262.80208786 -33.30078125 264.11523438 C-41.18638304 268.05908006 -49.0870472 271.9636153 -57.0531044 275.74271488 C-70.74309313 282.23855949 -84.30838826 288.97622253 -97.85821247 295.75842786 C-101.0436778 297.35245847 -104.23014775 298.94447888 -107.41644287 300.53684998 C-112.75523355 303.20534519 -118.09319622 305.87549083 -123.43066406 308.54663086 C-129.54334101 311.6056936 -135.65745866 314.6618616 -141.77232385 317.71654755 C-147.09098392 320.37358707 -152.40884158 323.03222747 -157.72606635 325.69213814 C-160.87204574 327.26589502 -164.01826906 328.83915784 -167.1652298 330.41095161 C-180.62076596 337.1324811 -194.02917673 343.92253514 -207.30737114 350.9887104 C-212.67217765 353.83459579 -218.06174553 356.63359339 -223.45288086 359.42919922 C-224.75919151 360.10766936 -226.06450752 360.78805749 -227.36889648 361.47021484 C-243.54709304 369.92849205 -256.56518471 375.5923542 -274.9765625 371.30078125 C-280.04822058 369.41888245 -284.61604462 366.70405417 -289.32421875 364.05859375 C-291.21285018 363.02629222 -293.1034975 361.99767068 -294.99609375 360.97265625 C-295.97408936 360.44260986 -296.95208496 359.91256348 -297.9597168 359.36645508 C-320.39759017 347.24258103 -342.98368454 335.41015372 -366.07910156 324.58105469 C-369.12533243 323.15190214 -372.16867019 321.71680617 -375.21112061 320.27963257 C-388.18861687 314.14943701 -401.17608132 308.04191383 -414.2043457 302.02026367 C-429.66299255 294.87425429 -445.03288671 287.55552921 -460.32421875 280.05859375 C-461.03976929 279.70800903 -461.75531982 279.35742432 -462.49255371 278.99621582 C-481.75476236 269.55104015 -500.83981998 259.96914537 -519.32421875 249.05859375 C-520.16130371 248.57310059 -520.99838867 248.08760742 -521.86083984 247.58740234 C-548.33752744 232.22132941 -548.33752744 232.22132941 -553.57421875 217.55859375 C-555.3253844 209.38648737 -555.48431222 201.45644217 -555.4921875 193.125 C-555.4955159 191.89249008 -555.4988443 190.65998016 -555.50227356 189.39012146 C-555.50731996 186.79222993 -555.50968259 184.19433197 -555.50952148 181.59643555 C-555.51170954 177.63774896 -555.52989434 173.67934055 -555.54882812 169.72070312 C-555.55176226 167.18880303 -555.55374692 164.65690162 -555.5546875 162.125 C-555.56187302 160.94974258 -555.56905853 159.77448517 -555.57646179 158.56361389 C-555.52937067 141.50221512 -555.52937067 141.50221512 -550.38671875 136.05859375 C-549.88269531 135.50171875 -549.37867188 134.94484375 -548.859375 134.37109375 C-545.80057772 131.75593883 -542.36354791 131.75579554 -538.47901344 131.81482315 C-534.78848588 132.23233027 -531.82051893 133.78226566 -528.55737305 135.47998047 C-527.46023232 136.02646996 -527.46023232 136.02646996 -526.34092712 136.58399963 C-523.93547964 137.78695987 -521.54220631 139.01226873 -519.1484375 140.23828125 C-517.45728745 141.09006278 -515.76544574 141.94047229 -514.07295227 142.7895813 C-509.61618731 145.03037895 -505.169508 147.2905223 -500.72454834 149.55462646 C-496.26598272 151.82097454 -491.7974377 154.06745865 -487.33007812 156.31640625 C-462.14910887 169.01237283 -462.14910887 169.01237283 -452.17434025 174.32044411 C-436.43401049 182.68758557 -420.45154113 190.58670302 -404.51188374 198.56485558 C-401.81983745 199.91235789 -399.12802192 201.26032013 -396.43627167 202.6084137 C-387.99089566 206.83790179 -379.54474318 211.06583317 -371.09742379 215.29143858 C-361.3839878 220.15040763 -351.67320931 225.014636 -341.96464372 229.88332891 C-334.42238287 233.66526282 -326.87782606 237.44258909 -319.33150649 241.21641779 C-314.83812361 243.46363228 -310.34572669 245.7127658 -305.85572052 247.96672058 C-301.64585061 250.07989037 -297.43315826 252.18732243 -293.21823502 254.29039383 C-291.67527703 255.06148773 -290.13333907 255.8346267 -288.59251785 256.60998154 C-286.4858255 257.66969069 -284.3755421 258.72188889 -282.26422119 259.77233887 C-280.49682775 260.65713551 -280.49682775 260.65713551 -278.6937294 261.55980682 C-273.05343758 264.06865648 -267.86564015 265.36138741 -261.69921875 265.43359375 C-260.61382813 265.46195313 -259.5284375 265.4903125 -258.41015625 265.51953125 C-247.36984383 264.77204022 -237.688726 259.42702752 -228.32421875 253.99609375 C-225.78511208 252.55456025 -223.23895721 251.12576655 -220.69140625 249.69921875 C-219.69317337 249.13904305 -219.69317337 249.13904305 -218.67477417 248.56755066 C-198.09745084 237.07864916 -176.88102283 226.55591155 -155.54101562 216.56689453 C-151.73014641 214.78004344 -147.92542868 212.98039752 -144.12109375 211.1796875 C-132.05498846 205.47083107 -119.98648069 199.76723215 -107.89453125 194.11328125 C-64.23787702 173.85520367 -64.23787702 173.85520367 -21.69970703 151.39111328 C-19.19024506 149.98344181 -16.66446624 148.60951602 -14.1328125 147.2421875 C-6.06632674 142.88000824 1.92572242 138.42620277 9.73828125 133.62109375 C10.39940918 133.22003418 11.06053711 132.81897461 11.74169922 132.40576172 C16.51095374 129.48901994 16.51095374 129.48901994 19.67578125 125.05859375 C18.87252249 122.11788443 18.22206612 120.47806626 15.77954102 118.60253906 C14.98346436 118.20131836 14.1873877 117.80009766 13.3671875 117.38671875 C11.94273315 116.65606201 11.94273315 116.65606201 10.48950195 115.91064453 C9.41659912 115.38196777 8.34369629 114.85329102 7.23828125 114.30859375 C6.0989917 113.73222168 4.95970215 113.15584961 3.78588867 112.56201172 C-0.56984472 110.36510316 -4.94692965 108.21214733 -9.32421875 106.05859375 C-10.28416748 105.58546753 -11.24411621 105.11234131 -12.2331543 104.62487793 C-24.32819275 98.66379933 -36.43610926 92.72946722 -48.5546875 86.81640625 C-110.86408977 56.40101977 -110.86408977 56.40101977 -116.32421875 47.05859375 C-117.42502058 43.30291693 -117.76226291 41.22671152 -116.38671875 37.55859375 C-110.95772195 30.97799157 -104.375859 26.6072167 -96.88671875 22.68359375 C-95.49996948 21.94363159 -95.49996948 21.94363159 -94.08520508 21.1887207 C-90.83859336 19.46498387 -87.58179262 17.7615192 -84.32421875 16.05859375 C-83.00010416 15.36126001 -81.67622028 14.66348806 -80.35253906 13.96533203 C-76.79035085 12.08789378 -73.22272311 10.22114557 -69.65133667 8.36126709 C-68.25181035 7.63183104 -66.85326862 6.900502 -65.45584106 6.16705322 C-57.86633409 2.19125288 -50.2165415 -1.5509317 -42.3203125 -4.8828125 C-41.640186 -5.17573685 -40.96005951 -5.46866119 -40.25932312 -5.77046204 C-25.22361241 -11.94232833 -13.69329275 -7.17439636 0 0 Z M-32.38671875 12.67578125 C-33.17288574 13.03003174 -33.95905273 13.38428223 -34.76904297 13.74926758 C-36.03385498 14.33550903 -36.03385498 14.33550903 -37.32421875 14.93359375 C-38.65283936 15.54207153 -38.65283936 15.54207153 -40.00830078 16.1628418 C-57.16553438 24.08308199 -73.79797724 32.9042127 -90.32421875 42.05859375 C-87.37327785 44.39525892 -84.36877521 46.18656922 -81.02734375 47.9140625 C-79.99472412 48.44974854 -78.96210449 48.98543457 -77.89819336 49.53735352 C-76.80128174 50.10123779 -75.70437012 50.66512207 -74.57421875 51.24609375 C-73.44185791 51.83124756 -72.30949707 52.41640137 -71.14282227 53.01928711 C-63.30155155 57.06320234 -55.43390073 61.04852236 -47.52734375 64.96289062 C-44.95554864 66.2419483 -42.38977872 67.53270048 -39.82421875 68.82421875 C-30.85774411 73.33312066 -21.88701268 77.81934762 -12.81298828 82.10864258 C-7.97062477 84.39899527 -3.14434224 86.72183899 1.67578125 89.05859375 C2.83239258 89.61869141 3.98900391 90.17878906 5.18066406 90.75585938 C8.24016892 92.24439197 11.28580038 93.75894918 14.32479858 95.28887939 C16.05734577 96.15561122 17.79966967 97.00271385 19.54223633 97.84912109 C28.22080122 102.26164175 35.43364659 107.54090278 38.67578125 117.05859375 C40.28290197 125.09419737 39.42947811 131.58606556 35.17578125 138.68359375 C29.25463748 146.77194136 19.65895788 151.40428589 11.05078125 156.18359375 C10.05643066 156.73998535 9.06208008 157.29637695 8.03759766 157.86962891 C4.9216206 159.60778965 1.80002777 161.33534583 -1.32421875 163.05859375 C-2.29230469 163.59291016 -3.26039063 164.12722656 -4.2578125 164.67773438 C-27.12558048 177.25966099 -50.26136837 189.33404904 -73.88378906 200.43847656 C-77.92770803 202.34278016 -81.96602182 204.25872428 -86.00390625 206.17578125 C-98.64435984 212.17481053 -111.28478446 218.17381798 -123.95703125 224.10546875 C-173.47302603 247.17285497 -173.47302603 247.17285497 -221.546875 273.06640625 C-234.24839153 280.40373415 -246.4476305 285.11686214 -261.38671875 285.30859375 C-262.57394531 285.334375 -263.76117187 285.36015625 -264.984375 285.38671875 C-277.58220555 284.79713593 -288.10347685 279.66233125 -299.10400391 274.07397461 C-300.74935083 273.25113205 -302.39531445 272.42952166 -304.0418396 271.60903931 C-308.482476 269.39184237 -312.9142798 267.1575062 -317.3445859 264.91975474 C-322.00987073 262.56694346 -326.68304608 260.22990616 -331.35531616 257.89100647 C-339.20586023 253.95839197 -347.05126628 250.0156935 -354.89306641 246.06567383 C-365.89138678 240.52568752 -376.89867024 235.0037068 -387.90792394 229.48548687 C-396.51974301 225.1681921 -405.12932439 220.84643637 -413.73828125 216.5234375 C-414.64895497 216.06614785 -415.55962869 215.6088582 -416.49789858 215.13771129 C-421.77484717 212.48742538 -427.05058114 209.83474382 -432.32474136 207.17891312 C-433.90967922 206.38107572 -435.49489927 205.58379858 -437.08045197 204.78718376 C-446.36275734 200.12271025 -455.59420423 195.37256497 -464.77532113 190.51156515 C-472.02431622 186.67409102 -479.33682313 182.97042644 -486.671875 179.30078125 C-488.03001005 178.6200989 -489.38811793 177.93936236 -490.74620056 177.25857544 C-493.54242888 175.85751885 -496.33943625 174.45803255 -499.13696289 173.05957031 C-502.72439289 171.26590705 -506.30899475 169.46666342 -509.8929987 167.66616631 C-512.67363214 166.27031556 -515.45605537 164.87806349 -518.23901176 163.48685074 C-519.56377912 162.82387758 -520.88789906 162.1596091 -522.21135139 161.49401474 C-524.04143448 160.5741055 -525.87428609 159.65971014 -527.70727539 158.74560547 C-529.26678673 157.96478104 -529.26678673 157.96478104 -530.85780334 157.16818237 C-533.17745414 155.9218361 -533.17745414 155.9218361 -535.32421875 156.05859375 C-537.145455 169.71786564 -536.51069156 183.63688559 -535.94921875 197.37109375 C-535.9030542 198.66817261 -535.9030542 198.66817261 -535.85595703 199.99145508 C-535.50767027 207.36978737 -534.6614839 213.54435122 -529.32421875 219.05859375 C-510.01538454 233.6614344 -486.82546041 244.15264518 -465.32421875 255.05859375 C-464.24509216 255.60637482 -464.24509216 255.60637482 -463.14416504 256.16522217 C-443.2402642 266.26235524 -423.25366226 276.08985072 -402.96044922 285.38378906 C-395.99749098 288.58281149 -389.06906715 291.85643405 -382.13671875 295.12109375 C-381.41428986 295.46113434 -380.69186096 295.80117493 -379.94754028 296.15151978 C-368.61112984 301.48910025 -357.30246409 306.88249963 -346.015625 312.32421875 C-342.28152581 314.12308155 -338.5399012 315.90428077 -334.7890625 317.66796875 C-320.72872376 324.28317391 -306.97086751 331.32119953 -293.4140625 338.91796875 C-292.81350037 339.25395584 -292.21293823 339.58994293 -291.59417725 339.93611145 C-288.6117305 341.60549512 -285.63374443 343.2817156 -282.66162109 344.96948242 C-270.74627419 351.95632119 -270.74627419 351.95632119 -257.32421875 353.05859375 C-251.28779572 351.02073848 -245.686048 348.37662614 -240.01171875 345.49609375 C-238.87379883 344.92665039 -238.87379883 344.92665039 -237.71289062 344.34570312 C-231.95312895 341.44507054 -226.24878027 338.44234557 -220.54614258 335.43164062 C-211.33335119 330.5767326 -202.09103283 325.78213908 -192.82421875 321.03125 C-192.01418396 320.61576464 -191.20414917 320.20027927 -190.36956787 319.77220345 C-169.29216625 308.96869917 -148.10952428 298.37496282 -126.92089844 287.79174805 C-121.38177687 285.02506441 -115.84449258 282.25472538 -110.30770874 279.48336697 C-105.94120845 277.29829152 -101.5737392 275.1151584 -97.20599365 272.93257332 C-95.16488539 271.91234612 -93.12405915 270.89155444 -91.08355713 269.87011528 C-79.55132927 264.09874312 -67.97815504 258.42832209 -56.33507156 252.88375854 C-49.01811056 249.39824575 -41.74255923 245.84117782 -34.49609375 242.2109375 C-33.33072083 241.6287294 -32.1653479 241.0465213 -30.96466064 240.44667053 C-28.54480415 239.23746328 -26.12564289 238.0268807 -23.70703125 236.81518555 C-20.67120218 235.29441107 -17.63355842 233.77730091 -14.5954361 232.26111412 C-2.8465197 226.39601114 8.87298237 220.48821978 20.47418213 214.33518982 C26.49308058 211.14307988 32.56577791 208.07281886 38.67578125 205.05859375 C50.50018188 199.18383943 62.20089779 193.09422412 73.8203125 186.82421875 C82.96872267 181.90626841 92.23845232 177.32869982 101.65917969 172.95141602 C110.05102947 169.15151416 110.05102947 169.15151416 117.67578125 164.05859375 C121.3558933 153.0182576 119.83094682 139.24058812 119.80615234 127.71020508 C119.80080976 124.76182875 119.80611877 121.81360599 119.8125 118.86523438 C119.81750544 110.01645863 119.74859048 101.16916771 119.35546875 92.328125 C119.32249191 91.28056282 119.32249191 91.28056282 119.28884888 90.21183777 C119.14056925 87.49267188 118.9947753 85.51436989 117.41064453 83.25097656 C115.41264882 81.87774112 113.42045244 80.77134191 111.23828125 79.7109375 C110.35366211 79.27604004 109.46904297 78.84114258 108.55761719 78.39306641 C107.60661133 77.93206543 106.65560547 77.47106445 105.67578125 76.99609375 C103.65932955 76.00428317 101.64371709 75.01076467 99.62890625 74.015625 C98.62021484 73.51756348 97.61152344 73.01950195 96.57226562 72.50634766 C92.48768177 70.4647443 88.45473942 68.33234209 84.42578125 66.18359375 C76.90343695 62.18332311 69.30482901 58.35106517 61.67578125 54.55859375 C54.17169485 50.82816682 46.69731818 47.06069543 39.30078125 43.12109375 C30.89518475 38.64500282 22.38271102 34.39131625 13.85519409 30.15393066 C5.3805378 25.94112716 -3.04208088 21.64955196 -11.37695312 17.16601562 C-21.42308973 11.3078791 -21.42308973 11.3078791 -32.38671875 12.67578125 Z " fill="#1B475D" transform="translate(780.32421875,548.94140625)"/>
</svg>
