<?xml version="1.0" standalone="no"?>
<!DOCTYPE svg PUBLIC "-//W3C//DTD SVG 20010904//EN"
 "http://www.w3.org/TR/2001/REC-SVG-20010904/DTD/svg10.dtd">
<svg version="1.0" xmlns="http://www.w3.org/2000/svg"
 width="225.000000pt" height="225.000000pt" viewBox="0 0 225.000000 225.000000"
 preserveAspectRatio="xMidYMid meet">
<metadata>
Created by potrace 1.16, written by Peter Selinger 2001-2019
</metadata>
<g transform="translate(0.000000,225.000000) scale(0.100000,-0.100000)"
fill="#000000" stroke="none">
<path d="M0 1125 l0 -1125 1125 0 1125 0 0 1125 0 1125 -1125 0 -1125 0 0
-1125z m1365 660 c33 -9 84 -27 113 -40 55 -25 185 -141 180 -160 -2 -6 -51
-57 -109 -113 l-107 -102 -43 36 c-83 70 -195 102 -292 83 -103 -19 -130 -91
-53 -139 18 -11 82 -31 142 -45 219 -51 314 -94 396 -177 129 -132 126 -380
-8 -528 -49 -54 -121 -98 -212 -128 -68 -23 -93 -26 -222 -26 -167 0 -254 19
-372 81 -68 36 -208 154 -208 176 0 11 62 84 172 205 l39 43 59 -61 c68 -71
151 -114 255 -131 124 -21 215 10 215 74 0 61 -62 95 -255 141 -211 51 -357
150 -399 273 -40 114 -28 242 30 335 64 100 194 185 331 213 84 18 262 12 348
-10z"/>
</g>
</svg>
