<svg width="20" height="20" viewBox="0 0 20 20" fill="none" xmlns="http://www.w3.org/2000/svg">
<g clip-path="url(#clip0_616_1318)">
<path d="M4.16671 4.55827C5.3173 4.55827 6.25004 3.62553 6.25004 2.47493C6.25004 1.32434 5.3173 0.391602 4.16671 0.391602C3.01611 0.391602 2.08337 1.32434 2.08337 2.47493C2.08337 3.62553 3.01611 4.55827 4.16671 4.55827Z" stroke="#182F48" stroke-linecap="round" stroke-linejoin="round"/>
<path d="M10 11.2251H19.1667" stroke="#182F48" stroke-linecap="round" stroke-linejoin="round"/>
<path d="M19.5834 4.9751L18.1159 9.00926C18.0576 9.17003 17.9512 9.30897 17.8112 9.40721C17.6712 9.50545 17.5044 9.55825 17.3334 9.55843H13.3334" stroke="#182F48" stroke-linecap="round" stroke-linejoin="round"/>
<path d="M13.75 11.2251V19.5584" stroke="#182F48" stroke-linecap="round" stroke-linejoin="round"/>
<path d="M1.66663 14.9751L0.416626 19.5584" stroke="#182F48" stroke-linecap="round" stroke-linejoin="round"/>
<path d="M0.416626 7.05835L1.66663 14.975H4.16663" stroke="#182F48" stroke-linecap="round" stroke-linejoin="round"/>
<path d="M10.3166 19.5583C10.0717 19.5585 9.83219 19.4867 9.62774 19.3518C9.42329 19.217 9.26295 19.0251 9.16663 18.8L7.83329 15.7325C7.73695 15.5077 7.57681 15.3162 7.3727 15.1815C7.16859 15.0469 6.92948 14.9751 6.68496 14.975H4.16663C3.83511 14.975 3.51716 14.8433 3.28274 14.6089C3.04832 14.3744 2.91663 14.0565 2.91663 13.725V7.05831C2.91663 6.80289 2.99489 6.55361 3.14085 6.34401C3.28681 6.13441 3.49348 5.97456 3.73303 5.88596C3.97259 5.79736 4.23354 5.78428 4.48075 5.84846C4.72797 5.91265 4.94959 6.05103 5.11579 6.24497L6.61579 7.99497C6.81155 8.22335 7.05443 8.40662 7.32775 8.53221C7.60107 8.65779 7.89834 8.7227 8.19913 8.72247H10.4166C10.7481 8.72247 11.0661 8.85417 11.3005 9.08859C11.5349 9.32301 11.6666 9.64095 11.6666 9.97247C11.6666 10.304 11.5349 10.6219 11.3005 10.8564C11.0661 11.0908 10.7481 11.2225 10.4166 11.2225H8.19996C7.19418 11.2238 6.21597 10.8937 5.41663 10.2833V12.475H6.68496C7.41908 12.4752 8.13699 12.6909 8.74968 13.0953C9.36236 13.4997 9.84287 14.075 10.1316 14.75L11.465 17.8175C11.5461 18.0075 11.5788 18.2146 11.5603 18.4204C11.5418 18.6262 11.4726 18.8241 11.3588 18.9966C11.245 19.1691 11.0903 19.3106 10.9084 19.4087C10.7266 19.5067 10.5232 19.5581 10.3166 19.5583Z" stroke="#182F48" stroke-linecap="round" stroke-linejoin="round"/>
<path d="M14.1667 5.34912C14.2079 5.34912 14.2482 5.36134 14.2825 5.38423C14.3167 5.40712 14.3434 5.43966 14.3592 5.47773C14.375 5.5158 14.3791 5.55769 14.371 5.5981C14.363 5.63851 14.3432 5.67563 14.314 5.70477C14.2849 5.7339 14.2478 5.75375 14.2074 5.76178C14.1669 5.76982 14.125 5.7657 14.087 5.74993C14.0489 5.73416 14.0164 5.70746 13.9935 5.6732C13.9706 5.63894 13.9584 5.59866 13.9584 5.55745C13.9584 5.5022 13.9803 5.44921 14.0194 5.41014C14.0585 5.37107 14.1115 5.34912 14.1667 5.34912Z" stroke="#182F48" stroke-linecap="round" stroke-linejoin="round"/>
<path d="M17.5 1.57081C16.5567 0.807691 15.3801 0.391357 14.1667 0.391357C12.9533 0.391357 11.7767 0.807691 10.8334 1.57081" stroke="#182F48" stroke-linecap="round" stroke-linejoin="round"/>
<path d="M12.2225 3.5833C12.7728 3.13844 13.4591 2.89575 14.1667 2.89575C14.8743 2.89575 15.5606 3.13844 16.1109 3.5833" stroke="#182F48" stroke-linecap="round" stroke-linejoin="round"/>
</g>
<defs>
<clipPath id="clip0_616_1318">
<rect width="20" height="20" fill="white"/>
</clipPath>
</defs>
</svg>
