<?xml version="1.0" encoding="UTF-8"?>
<svg version="1.1" xmlns="http://www.w3.org/2000/svg" width="1042" height="1042">
<path d="M0 0 C1.26118652 -0.08628662 1.26118652 -0.08628662 2.54785156 -0.17431641 C16.82879189 -0.09549127 28.79243297 14.6758543 38.11325073 24.06071472 C39.76053494 25.73174609 41.40767716 27.40291744 43.0546875 29.07421875 C44.78575278 30.81531135 46.51779648 32.55543166 48.25076294 34.29463196 C52.77727762 38.84192198 57.29206107 43.40067245 61.80389404 47.96252441 C69.04100808 55.27537699 76.29719504 62.56931881 83.55124283 69.86536598 C86.06913928 72.40083519 88.58269562 74.94053946 91.09542847 77.48112488 C92.64673454 79.04565798 94.19809288 80.61013927 95.74951172 82.17456055 C96.43746323 82.87239151 97.12541473 83.57022247 97.83421326 84.28919983 C101.72503034 88.2061699 105.73229886 91.91178826 109.91296387 95.51743984 C112.04368763 97.37262686 114.06599132 99.3140284 116.06469727 101.31030273 C116.8223085 102.06476181 117.57991974 102.81922089 118.36048889 103.59654236 C119.15031662 104.38839432 119.94014435 105.18024628 120.75390625 105.99609375 C121.59163071 106.83286148 122.42935516 107.66962921 123.29246521 108.53175354 C125.05256935 110.29118104 126.81142677 112.05185653 128.5690918 113.8137207 C131.24220972 116.49219411 133.92062251 119.16528873 136.59960938 121.83789062 C138.31802903 123.55697115 140.03613842 125.27636189 141.75390625 126.99609375 C142.54575821 127.78592148 143.33761017 128.57574921 144.15345764 129.38951111 C148.33058258 133.58408824 152.33403503 137.86486637 156.19737244 142.34999084 C157.928454 144.33941316 159.74204956 146.21663174 161.625 148.0625 C162.29273438 148.7225 162.96046875 149.3825 163.6484375 150.0625 C164.32132813 150.7225 164.99421875 151.3825 165.6875 152.0625 C170.30615042 156.59267052 174.74188641 161.18606242 178.96386719 166.08935547 C182.38803062 170.00919809 186.01435692 173.74689612 189.61328125 177.50585938 C197.88352745 186.25990584 201.78055262 193.15862896 202.05078125 205.27734375 C200.8222811 214.6958449 195.87151597 222.36633873 191.0625 230.375 C190.30081928 231.65783935 189.53976353 232.94104996 188.77929688 234.22460938 C182.95015166 244.04113115 177.01423837 253.79370724 171.06591797 263.53833008 C166.01250104 271.82591935 161.07596646 280.17671848 156.1875 288.5625 C150.31508565 298.6344263 144.34140678 308.63678038 138.26681519 318.5880127 C132.34939774 328.28368162 126.53294574 338.03609815 120.75 347.8125 C115.76644234 356.23513292 110.7771161 364.64524959 105.5324707 372.90893555 C101.21575839 379.74227366 97.08766411 386.68986999 92.9375 393.625 C81.96918499 411.94833876 70.859074 430.18113381 59.65454102 448.36108398 C55.24580598 455.51801053 50.86356824 462.69045903 46.5 469.875 C40.48330718 479.77816262 34.39942683 489.63824093 28.28759766 499.48291016 C26.69310897 502.05345753 25.10184153 504.62596869 23.51171875 507.19921875 C15.81101286 519.65946225 8.09622581 532.11198985 0.27734375 544.49853516 C-0.73854898 546.13688058 -1.72848172 547.79180128 -2.68359375 549.46630859 C-5.70408172 554.69452863 -5.70408172 554.69452863 -8.75390625 556.5390625 C-14.95864779 557.80842947 -21.04392595 558.15627677 -26.8125 555.375 C-29.85701287 552.55882559 -32.44863904 549.79022191 -34.3125 546.0625 C-34.41302954 543.2911264 -34.45172963 540.54471961 -34.44672108 537.77295017 C-34.44907331 536.90104885 -34.45142554 536.02914753 -34.45384905 535.13082495 C-34.46056468 532.1767684 -34.46008005 529.22275558 -34.45967102 526.26869202 C-34.46296807 524.14228305 -34.4666933 522.01587471 -34.4708125 519.88946718 C-34.48085904 514.02060803 -34.48455356 508.15175912 -34.48720181 502.28289258 C-34.49109712 495.96295381 -34.50067609 489.64302319 -34.50941467 483.3230896 C-34.52826714 468.76842594 -34.5384394 454.21376326 -34.54687535 439.65909042 C-34.55108001 432.46759827 -34.5563023 425.27610696 -34.56155988 418.08461551 C-34.57945345 393.47070651 -34.59444895 368.85679727 -34.60188007 344.24288273 C-34.60235483 342.69700637 -34.60283072 341.15113002 -34.60330774 339.60525366 C-34.60354411 338.83862883 -34.60378049 338.072004 -34.60402403 337.28214811 C-34.60522524 333.39797829 -34.60644068 329.51380848 -34.60766602 325.62963867 C-34.60802624 324.47339435 -34.60802624 324.47339435 -34.60839374 323.29379155 C-34.6162845 298.308587 -34.63970997 273.32342996 -34.67222196 248.33824615 C-34.70652617 221.92755258 -34.72623187 195.51688681 -34.72952431 169.10617059 C-34.72994186 166.20623711 -34.73042142 163.30630363 -34.73094749 160.40637016 C-34.73107069 159.69231602 -34.73119388 158.97826187 -34.7313208 158.24256972 C-34.73365235 146.7539493 -34.74931005 135.26538404 -34.76978934 123.77678327 C-34.79005387 112.22523386 -34.79518853 100.6737752 -34.78601871 89.1222067 C-34.78146779 82.86471389 -34.78340647 76.60740008 -34.80278015 70.34993172 C-34.82036792 64.61980742 -34.81944944 58.8899933 -34.80388286 53.15986591 C-34.80150012 51.08840749 -34.80586472 49.01692784 -34.81771151 46.94550193 C-34.95090713 22.11515211 -34.95090713 22.11515211 -26.25 12.8125 C-24.64160229 11.19115223 -22.99524706 9.60654473 -21.3125 8.0625 C-20.55582031 7.34320313 -19.79914063 6.62390625 -19.01953125 5.8828125 C-13.1047158 1.19985846 -7.33248246 0.27919535 0 0 Z " fill="#1B475D" transform="translate(194.3125,159.9375)"/>
<path d="M0 0 C8.32387186 6.27397109 15.5027819 13.79731437 22.86155224 21.14589214 C24.42910025 22.70417045 25.99703784 24.26205695 27.56533337 25.81958294 C31.80565867 30.03379378 36.0394089 34.25454802 40.2711494 38.47737765 C42.91884832 41.11919643 45.56770934 43.75984461 48.21692371 46.40014362 C56.51672092 54.67263269 64.81254894 62.94907294 73.10255641 71.23137254 C74.0537941 72.18172333 75.0050349 73.13207101 75.9562788 74.08241558 C76.66403128 74.78950377 76.66403128 74.78950377 77.38608179 75.51087657 C85.03338685 83.15028379 92.69411152 90.77608085 100.36070665 98.39612439 C108.25304689 106.24093179 116.1337353 114.09731184 124.00376779 121.96450168 C128.41430647 126.37294891 132.82952348 130.77644815 137.25689793 135.16799259 C141.42100943 139.29905266 145.57044837 143.44431408 149.70930195 147.60067463 C151.22540852 149.11831685 152.7466023 150.6308977 154.27336407 152.13782024 C164.64077191 162.37842221 174.19044774 172.05914807 174.49753857 187.5416441 C174.36680762 197.31741395 170.9308049 205.96840572 164.16941357 213.02211285 C157.50263849 219.24670386 151.73317543 222.28425043 142.54856396 222.34608746 C141.42763379 222.3707455 141.42763379 222.3707455 140.28405857 222.39590168 C137.78364367 222.44691758 135.28344854 222.47689668 132.78269482 222.50648785 C130.96904302 222.5381249 129.15540879 222.57078291 127.34179211 222.60437298 C122.36254303 222.69143066 117.3832349 222.7574984 112.40358257 222.81663036 C109.22676033 222.85439107 106.04998795 222.89517768 102.87320995 222.93648052 C88.91600143 223.11435245 74.95858879 223.24465689 61.00071239 223.35682964 C56.20770997 223.39534939 51.41475265 223.43688953 46.62180614 223.48182964 C-0.83641886 223.92648919 -48.29261955 223.92102451 -95.75246143 223.8541441 C-96.97500645 223.85246652 -98.19755147 223.85078895 -99.45714331 223.84906054 C-135.20679828 223.79985368 -170.95632889 223.72561795 -206.70585823 223.61841774 C-209.70690682 223.60946303 -212.70795555 223.60055805 -215.7090044 223.59169292 C-216.45339204 223.58948951 -217.19777967 223.58728609 -217.9647245 223.5850159 C-230.24770772 223.54896905 -242.53069029 223.52444051 -254.81370796 223.50379708 C-267.61056376 223.48206273 -280.40735395 223.44912183 -293.2041539 223.40544254 C-301.01326789 223.37912026 -308.82230108 223.36128326 -316.63145719 223.35479806 C-322.54798191 223.34893903 -328.46438312 223.32740274 -334.38084888 223.29986858 C-336.80045094 223.29106363 -339.22007774 223.28737084 -341.63969517 223.28913593 C-344.93492099 223.29078205 -348.22956291 223.2741511 -351.52470875 223.25287151 C-352.96094174 223.26014288 -352.96094174 223.26014288 -354.42618954 223.26756114 C-360.50501101 223.2025524 -364.97334279 222.41769169 -369.61574268 218.1353941 C-370.09398487 217.5475816 -370.57222706 216.9597691 -371.06496143 216.3541441 C-371.55609425 215.7663316 -372.04722706 215.1785191 -372.55324268 214.5728941 C-374.53832934 211.72781875 -374.95127047 209.04745434 -375.06496143 205.6666441 C-375.10234425 204.95121441 -375.13972706 204.23578472 -375.17824268 203.49867535 C-374.33066531 198.23436449 -372.72253253 194.36975677 -368.40504932 191.04823589 C-365.36474438 189.18167787 -362.27470484 187.47165666 -359.12746143 185.7916441 C-357.36576547 184.81433225 -355.60408704 183.83698684 -353.8435564 182.85757732 C-352.02118593 181.84719958 -350.19391765 180.84616181 -348.36574268 179.8463316 C-342.73292104 176.7548365 -337.18476681 173.51622742 -331.62746143 170.2916441 C-329.45833139 169.04009797 -327.2890611 167.78879488 -325.11964893 166.53773785 C-317.99700974 162.42202615 -310.89331805 158.27413854 -303.79103565 154.12343121 C-295.36676804 149.20363128 -286.91692247 144.32892272 -278.46339893 139.45961285 C-271.21294654 135.28065281 -263.97757874 131.07673904 -256.75246143 126.8541441 C-248.43494351 121.99311449 -240.1004049 117.16273306 -231.75246143 112.3541441 C-219.39223626 105.23328001 -207.06778817 98.05231031 -194.75246143 90.8541441 C-181.34487425 83.01756426 -167.92086864 75.21135802 -154.46388721 67.45985699 C-147.21324157 63.28086816 -139.97773558 59.0768307 -132.75246143 54.8541441 C-123.34255813 49.35468874 -113.9077558 43.89965214 -104.46339893 38.45961285 C-97.2129453 34.2806521 -89.9776839 30.07656053 -82.75246143 25.8541441 C-74.15948679 20.83471939 -65.55600906 15.83383581 -56.93996143 10.8541441 C-55.88486378 10.24312847 -54.82976612 9.63211285 -53.74269581 9.0025816 C-48.78654755 6.14168991 -43.81636206 3.30794795 -38.81105518 0.5338316 C-37.53379566 -0.17410542 -37.53379566 -0.17410542 -36.23073292 -0.89634418 C-24.73483012 -6.6924264 -11.14509015 -7.2872744 0 0 Z " fill="#1B475D" transform="translate(703.7524614334106,657.1458559036255)"/>
<path d="M0 0 C7.22263139 4.95523567 12.12106062 11.64769054 13.87890625 20.2890625 C14.1171875 22.55078125 14.1171875 22.55078125 14.19140625 24.9765625 C14.22878906 25.76417969 14.26617188 26.55179688 14.3046875 27.36328125 C12.97159531 36.52370372 6.83168837 44.58181907 2.06640625 52.2890625 C0.91635435 54.16328538 -0.23169521 56.03872575 -1.37973022 57.91418457 C-2.15906208 59.18695402 -2.93903255 60.45933266 -3.71963501 61.73132324 C-7.39650053 67.72488352 -11.01357946 73.75353509 -14.62109375 79.7890625 C-19.88343238 88.57780423 -25.1768527 97.34718654 -30.49609375 106.1015625 C-30.849599 106.68338287 -31.20310425 107.26520325 -31.56732178 107.86465454 C-34.4451557 112.6005472 -37.32471871 117.33538792 -40.2043457 122.07019043 C-42.71906488 126.2051599 -45.2331085 130.340539 -47.74609375 134.4765625 C-48.09976013 135.05862457 -48.45342651 135.64068665 -48.81781006 136.24038696 C-53.77881248 144.40740709 -58.71141137 152.591065 -63.62109375 160.7890625 C-68.88426822 169.57730741 -74.17684974 178.34718166 -79.49609375 187.1015625 C-80.02635162 187.97429306 -80.02635162 187.97429306 -80.56732178 188.86465454 C-83.4451557 193.6005472 -86.32471871 198.33538792 -89.2043457 203.07019043 C-91.71906488 207.2051599 -94.2331085 211.340539 -96.74609375 215.4765625 C-97.09976013 216.05862457 -97.45342651 216.64068665 -97.81781006 217.24038696 C-102.77881248 225.40740709 -107.71141137 233.591065 -112.62109375 241.7890625 C-117.88426841 250.57730773 -123.17688751 259.34715853 -128.49609375 268.1015625 C-128.85059601 268.68504456 -129.20509827 269.26852661 -129.57034302 269.86968994 C-132.7915042 275.17080196 -136.01477886 280.47062796 -139.23876953 285.77001953 C-141.34617599 289.23421545 -143.45279887 292.69888671 -145.55859375 296.1640625 C-145.90742615 296.73806793 -146.25625854 297.31207336 -146.61566162 297.9034729 C-152.14963736 307.01280945 -157.64369321 316.14561558 -163.12109375 325.2890625 C-170.67418862 337.89747437 -178.28275593 350.47118545 -185.92300415 363.02694702 C-188.50499167 367.27165107 -191.07811336 371.52166272 -193.6484375 375.7734375 C-197.78938327 382.62215905 -201.94907506 389.45921174 -206.12109375 396.2890625 C-206.60578125 397.08634766 -207.09046875 397.88363281 -207.58984375 398.70507812 C-212.41715441 406.61568629 -217.64819085 413.62921655 -224.12109375 420.2890625 C-224.73210937 420.96195313 -225.343125 421.63484375 -225.97265625 422.328125 C-245.57048924 443.26027853 -275.92162641 456.63249497 -300.47167969 471.13232422 C-303.6934867 473.03545131 -306.9118073 474.9443914 -310.12890625 476.85546875 C-329.30127482 488.23590445 -348.60992026 499.37226938 -368.08178711 510.23242188 C-374.57707412 513.85655553 -381.04637116 517.52202366 -387.49609375 521.2265625 C-399.96415548 528.37952551 -412.54635804 535.32597417 -425.12109375 542.2890625 C-438.91738452 549.93358372 -452.7025734 557.59438014 -466.42114258 565.37768555 C-472.6336018 568.89756082 -478.87021854 572.37118719 -485.11938477 575.82543945 C-496.06232233 581.87446726 -506.92183145 588.04006734 -517.70166016 594.37524414 C-523.40301286 597.72103047 -529.13578706 600.9887552 -534.93359375 604.1640625 C-543.52935769 608.88446144 -551.95319852 613.88491275 -560.37792969 618.90258789 C-561.54750754 619.59915215 -562.71710408 620.29568506 -563.88671875 620.9921875 C-564.47443054 621.34220322 -565.06214233 621.69221893 -565.66766357 622.05284119 C-569.9902959 624.62413799 -574.32556846 627.1731838 -578.66796875 629.7109375 C-579.60408493 630.258069 -579.60408493 630.258069 -580.55911255 630.81625366 C-583.05053691 632.2719613 -585.54221042 633.72724067 -588.03436279 635.18170166 C-596.32255643 640.0212948 -604.56746735 644.9215842 -612.67016602 650.06762695 C-620.31760378 654.84979274 -627.11313317 656.21771823 -636.12109375 655.2890625 C-644.3675628 653.04928078 -650.72755164 648.06845492 -654.99609375 640.7265625 C-658.58078075 634.06759096 -659.04279825 627.13689849 -657.08203125 619.85546875 C-654.98063077 613.09189427 -651.24502137 607.36718911 -647.49609375 601.4140625 C-646.73527278 600.18654517 -645.97569484 598.95825663 -645.21728516 597.72924805 C-643.64315549 595.18057183 -642.06378402 592.63526439 -640.48046875 590.09228516 C-637.13047368 584.7033344 -633.84256302 579.27686836 -630.55523682 573.84954834 C-629.49098978 572.09313902 -628.42515056 570.33770513 -627.35888672 568.58251953 C-622.75401181 561.00000964 -618.1791005 553.39984566 -613.62109375 545.7890625 C-608.35791928 537.00081759 -603.06533776 528.23094334 -597.74609375 519.4765625 C-597.21583588 518.60383194 -597.21583588 518.60383194 -596.67486572 517.71347046 C-593.7970318 512.9775778 -590.91746879 508.24273708 -588.0378418 503.50793457 C-585.52312262 499.3729651 -583.009079 495.237586 -580.49609375 491.1015625 C-579.96559418 490.22846939 -579.96559418 490.22846939 -579.42437744 489.33773804 C-574.46337502 481.17071791 -569.53077613 472.98706 -564.62109375 464.7890625 C-559.35791928 456.00081759 -554.06533776 447.23094334 -548.74609375 438.4765625 C-548.3925885 437.89474213 -548.03908325 437.31292175 -547.67486572 436.71347046 C-544.7970318 431.9775778 -541.91746879 427.24273708 -539.0378418 422.50793457 C-536.52312262 418.3729651 -534.009079 414.237586 -531.49609375 410.1015625 C-530.96559418 409.22846939 -530.96559418 409.22846939 -530.42437744 408.33773804 C-525.46337502 400.17071791 -520.53077613 391.98706 -515.62109375 383.7890625 C-510.35791947 375.00081791 -505.06537559 366.23092017 -499.74609375 357.4765625 C-499.39358551 356.89640381 -499.04107727 356.31624512 -498.67788696 355.71850586 C-496.52395283 352.1740464 -494.36912858 348.63012864 -492.21405029 345.08636475 C-488.91099314 339.65468306 -485.60911826 334.2222835 -482.30859375 328.7890625 C-481.95009338 328.19894379 -481.59159302 327.60882507 -481.222229 327.00082397 C-476.35966778 318.99505183 -471.52371911 310.97387182 -466.71313477 302.93676758 C-461.69630137 294.5635004 -456.63454795 286.21744807 -451.55664062 277.88110352 C-450.83067214 276.68899957 -450.10476049 275.49686101 -449.37890625 274.3046875 C-449.02101013 273.71686996 -448.66311401 273.12905243 -448.29437256 272.52342224 C-445.92080666 268.61941389 -443.57363396 264.70047641 -441.23828125 260.7734375 C-423.25089246 230.61515606 -400.84888227 215.46556072 -371.08323669 198.17932129 C-366.9064356 195.75188314 -362.75447661 193.28956416 -358.62109375 190.7890625 C-341.08009159 180.21136853 -323.33736944 169.96011715 -305.58300781 159.74584961 C-299.38803101 156.18037832 -293.20859425 152.59006874 -287.04223633 148.9753418 C-276.9174241 143.04096409 -266.72677322 137.24321144 -256.47192383 131.53662109 C-249.34455811 127.56090212 -242.28160714 123.48736628 -235.24609375 119.3515625 C-225.64403139 113.70924391 -215.93888417 108.27503433 -206.18798828 102.89477539 C-198.77193523 98.79179228 -191.425942 94.58660271 -184.12109375 90.2890625 C-175.68886315 85.32826813 -167.18680372 80.51558046 -158.62109375 75.7890625 C-149.08667918 70.5255887 -139.63728616 65.14043876 -130.24560547 59.62670898 C-122.61017522 55.14667956 -114.93689876 50.73559466 -107.24609375 46.3515625 C-104.8813712 45.00284813 -102.51680797 43.65385471 -100.15234375 42.3046875 C-99.56804092 41.97128357 -98.9837381 41.63787964 -98.38172913 41.29437256 C-84.09330604 33.13803195 -69.84002266 24.92263924 -55.68359375 16.5390625 C-54.7920459 16.0123999 -53.90049805 15.4857373 -52.98193359 14.94311523 C-48.6061966 12.35752566 -44.23869169 9.75953719 -39.8828125 7.140625 C-38.21245788 6.14807004 -36.54189437 5.15586651 -34.87109375 4.1640625 C-34.13318604 3.71450195 -33.39527832 3.26494141 -32.63500977 2.80175781 C-22.16062506 -3.37486519 -11.15028355 -6.26217945 0 0 Z M-16.59375 19.06689453 C-17.44839844 19.59653809 -18.30304687 20.12618164 -19.18359375 20.671875 C-20.1478125 21.24969727 -21.11203125 21.82751953 -22.10546875 22.42285156 C-23.100625 23.03870117 -24.09578125 23.65455078 -25.12109375 24.2890625 C-27.05518843 25.39659307 -28.99273128 26.49812276 -30.93359375 27.59375 C-32.99712254 28.78206945 -35.05957823 29.97225381 -37.12109375 31.1640625 C-38.24338379 31.81189697 -39.36567383 32.45973145 -40.52197266 33.12719727 C-48.54857967 37.76812499 -56.52895844 42.48417841 -64.49609375 47.2265625 C-77.11374247 54.73348428 -89.84123333 62.03507186 -102.60498047 69.2890625 C-107.86617148 72.28012234 -113.11922177 75.28542656 -118.3729248 78.28961182 C-120.11982335 79.28833619 -121.86699125 80.28658759 -123.61425781 81.28466797 C-128.89373125 84.30049559 -134.17243639 87.31763888 -139.44798279 90.34033203 C-152.32601835 97.71884394 -165.22851173 105.04943655 -178.18701172 112.28613281 C-187.24540814 117.34822029 -196.25806851 122.48734994 -205.25976562 127.64941406 C-210.13797602 130.44481176 -215.02043629 133.23277125 -219.9024353 136.02154541 C-222.89345703 137.7302175 -225.88421436 139.43935224 -228.875 141.1484375 C-230.08609901 141.84049698 -231.29719927 142.53255427 -232.50830078 143.22460938 C-233.40563934 143.73737427 -233.40563934 143.73737427 -234.32110596 144.26049805 C-236.09802246 145.27587891 -237.87493896 146.29125977 -239.65185547 147.30664062 C-240.22965256 147.63681183 -240.80744965 147.96698303 -241.40275574 148.30715942 C-242.5664165 148.97210553 -243.73008227 149.63704286 -244.89375305 150.30197144 C-247.79948502 151.96233885 -250.70512951 153.62285896 -253.6105957 155.28369141 C-258.89682536 158.3052252 -264.18371585 161.32557437 -269.47377014 164.34040833 C-284.01760474 172.62905975 -298.52375304 180.9780695 -312.96630859 189.44238281 C-315.73921403 191.06552604 -318.51434228 192.68479034 -321.29060364 194.30218506 C-335.41216319 202.53063013 -349.46289773 210.86172049 -363.40698242 219.38793945 C-369.08213649 222.85408212 -374.77566693 226.26772347 -380.54956055 229.56665039 C-396.89731741 238.93093578 -409.72059278 250.7982093 -419.18359375 267.1640625 C-419.91117009 268.39547228 -420.64037606 269.62592045 -421.37109375 270.85546875 C-422.88143536 273.39968176 -424.38482719 275.94780394 -425.88330078 278.49902344 C-429.05443395 283.88566706 -432.31087851 289.22011346 -435.56536865 294.55664062 C-437.33928545 297.46759943 -439.10671608 300.3824924 -440.875 303.296875 C-443.34243866 307.36163317 -445.81165167 311.42530614 -448.28292847 315.48773193 C-455.93410418 328.06532906 -463.55549372 340.65977571 -471.12109375 353.2890625 C-479.37580957 367.06869307 -487.70123916 380.80439546 -496.04956055 394.52746582 C-499.34605644 399.94689305 -502.6403583 405.36765349 -505.93359375 410.7890625 C-506.29236603 411.3796344 -506.65113831 411.9702063 -507.02078247 412.57867432 C-511.40864661 419.80289262 -515.78009024 427.03657476 -520.12109375 434.2890625 C-524.82057822 442.14046216 -529.55768363 449.96870517 -534.30859375 457.7890625 C-534.66741638 458.37974518 -535.02623901 458.97042786 -535.39593506 459.57901001 C-538.69603624 465.01101456 -541.99779866 470.44200873 -545.30029297 475.87255859 C-547.44953199 479.40683852 -549.59815994 482.94148919 -551.74609375 486.4765625 C-552.09948822 487.05817139 -552.45288269 487.63978027 -552.81698608 488.23901367 C-557.77826178 496.40649236 -562.71113712 504.59060707 -567.62109375 512.7890625 C-572.88426803 521.57730709 -578.17681191 530.34720483 -583.49609375 539.1015625 C-583.84860199 539.68172119 -584.20111023 540.26187988 -584.56430054 540.85961914 C-586.71823467 544.4040786 -588.87305892 547.94799636 -591.02813721 551.49176025 C-603.89612985 572.61273477 -603.89612985 572.61273477 -616.63671875 593.81054688 C-619.11163517 597.96168785 -621.61179761 602.09459354 -624.15649414 606.20344543 C-625.22219089 607.92652548 -626.28253861 609.65278341 -627.34130859 611.38012695 C-628.71316957 613.61528387 -630.09469463 615.84454426 -631.48681641 618.06713867 C-632.10476074 619.07881104 -632.72270508 620.0904834 -633.359375 621.1328125 C-633.91665283 622.03193359 -634.47393066 622.93105469 -635.0480957 623.85742188 C-636.32113726 626.18800132 -636.32113726 626.18800132 -635.86791992 628.49804688 C-634.90828473 630.79941456 -634.22665202 631.90955881 -632.12109375 633.2890625 C-627.38624116 632.91322042 -624.25033824 631.46188114 -620.25390625 628.96484375 C-618.57337158 627.927229 -618.57337158 627.927229 -616.85888672 626.86865234 C-616.27057068 626.49939636 -615.68225464 626.13014038 -615.07611084 625.74969482 C-611.94191783 623.78333707 -608.78747604 621.84981479 -605.63671875 619.91015625 C-604.99946869 619.51652893 -604.36221863 619.12290161 -603.70565796 618.71734619 C-597.85536135 615.10817916 -591.94149144 611.61431135 -585.99609375 608.1640625 C-585.02816895 607.60178955 -584.06024414 607.0395166 -583.06298828 606.46020508 C-580.08426053 604.73317413 -577.10318614 603.01027664 -574.12109375 601.2890625 C-573.07211914 600.68352539 -572.02314453 600.07798828 -570.94238281 599.45410156 C-566.57235211 596.93237462 -562.201953 594.41130009 -557.8293457 591.89404297 C-551.5816511 588.29531871 -545.35064251 584.66999809 -539.13305664 581.01953125 C-526.34958142 573.51938454 -513.42246885 566.29946555 -500.44970703 559.1328125 C-495.16263978 556.20425655 -489.89187053 553.24680661 -484.62109375 550.2890625 C-475.96578807 545.43513366 -467.29806355 540.60415395 -458.62109375 535.7890625 C-446.80503349 529.23125904 -435.00973891 522.63706225 -423.22265625 516.02734375 C-420.08557211 514.26915427 -416.94727502 512.51314906 -413.80859375 510.7578125 C-399.8908707 502.97339626 -385.99001197 495.1601325 -372.12109375 487.2890625 C-370.49131592 486.36504639 -370.49131592 486.36504639 -368.82861328 485.42236328 C-353.78635834 476.88718738 -338.84043125 468.20954795 -323.98046875 459.359375 C-319.27516016 456.55975702 -314.5564974 453.78499822 -309.82421875 451.03125 C-294.41149655 442.05888294 -279.15118968 432.89542618 -264.12109375 423.2890625 C-263.45255371 422.86270508 -262.78401367 422.43634766 -262.09521484 421.99707031 C-255.08914295 417.50624569 -248.44946652 412.69754921 -242.12109375 407.2890625 C-241.51910156 406.78375 -240.91710937 406.2784375 -240.296875 405.7578125 C-229.08142253 395.50966013 -222.1231466 380.30621087 -214.57055664 367.31567383 C-210.37182097 360.09788475 -206.11192928 352.93195148 -201.68359375 345.8515625 C-196.48343566 337.53311488 -191.40730763 329.14481291 -186.37109375 320.7265625 C-180.46319842 310.85422006 -174.53465571 300.99531309 -168.55859375 291.1640625 C-168.21076843 290.59173889 -167.86294312 290.01941528 -167.50457764 289.42974854 C-165.39818909 285.96415565 -163.29075189 282.49920147 -161.18292236 279.03448486 C-157.95252584 273.72439408 -154.72343744 268.41350929 -151.49609375 263.1015625 C-151.14215546 262.51904724 -150.78821716 261.93653198 -150.42355347 261.33636475 C-145.46282432 253.16980318 -140.53050188 244.98660206 -135.62109375 236.7890625 C-130.35791909 228.00081727 -125.06529999 219.23096647 -119.74609375 210.4765625 C-119.39159149 209.89308044 -119.03708923 209.30959839 -118.67184448 208.70843506 C-115.4506833 203.40732304 -112.22740864 198.10749704 -109.00341797 192.80810547 C-106.89601151 189.34390955 -104.78938863 185.87923829 -102.68359375 182.4140625 C-102.33476135 181.84005707 -101.98592896 181.26605164 -101.62652588 180.6746521 C-96.09255014 171.56531555 -90.59849429 162.43250942 -85.12109375 153.2890625 C-79.29500517 143.56354922 -73.44634365 133.85238402 -67.55859375 124.1640625 C-67.21040588 123.59110443 -66.86221802 123.01814636 -66.503479 122.42782593 C-64.39746236 118.96287048 -62.29036838 115.49857108 -60.18292236 112.03448486 C-56.95252584 106.72439408 -53.72343744 101.41350929 -50.49609375 96.1015625 C-50.14215546 95.51904724 -49.78821716 94.93653198 -49.42355347 94.33636475 C-43.85386863 85.16731464 -38.32514944 75.97416022 -32.81323242 66.77026367 C-27.83796455 58.46885223 -22.82979861 50.18773573 -17.80859375 41.9140625 C-17.43557129 41.29893799 -17.06254883 40.68381348 -16.67822266 40.05004883 C-15.62217323 38.30895002 -14.56501687 36.56852276 -13.5078125 34.828125 C-12.59841919 33.33079834 -12.59841919 33.33079834 -11.6706543 31.80322266 C-10.52372408 29.94232974 -9.33363988 28.10788169 -8.12109375 26.2890625 C-8.04836813 23.73446036 -8.04836813 23.73446036 -9.12109375 21.2890625 C-12.49271217 18.51336015 -12.49271217 18.51336015 -16.59375 19.06689453 Z " fill="#1B475D" transform="translate(868.12109375,175.7109375)"/>
</svg>
